%TF.GenerationSoftware,KiCad,Pcbnew,9.0.7*%
%TF.CreationDate,2026-09-13T13:28:01+05:30*%
%TF.ProjectId,KiCad 9 Esp32 Project,4b694361-6420-4392-9045-737033322050,rev?*%
%TF.SameCoordinates,Original*%
%TF.FileFunction,Legend,Top*%
%TF.FilePolarity,Positive*%
%FSLAX46Y46*%
G04 Gerber Fmt 4.6, Leading zero omitted, Abs format (unit mm)*
G04 Created by KiCad (PCBNEW 9.0.7) date 2026-09-13 13:28:01*
%MOMM*%
%LPD*%
G01*
G04 APERTURE LIST*
%ADD10C,0.100000*%
%ADD11C,0.150000*%
%ADD12C,0.125000*%
%ADD13C,0.127000*%
%ADD14C,0.120000*%
%ADD15C,0.200000*%
%ADD16C,0.203200*%
%ADD17C,0.152400*%
G04 APERTURE END LIST*
D10*
X168000000Y-79500000D02*
X174500000Y-79500000D01*
X174500000Y-82500000D01*
X168000000Y-82500000D01*
X168000000Y-79500000D01*
D11*
X169346303Y-80806340D02*
X169079636Y-80425387D01*
X168889160Y-80806340D02*
X168889160Y-80006340D01*
X168889160Y-80006340D02*
X169193922Y-80006340D01*
X169193922Y-80006340D02*
X169270112Y-80044435D01*
X169270112Y-80044435D02*
X169308207Y-80082530D01*
X169308207Y-80082530D02*
X169346303Y-80158721D01*
X169346303Y-80158721D02*
X169346303Y-80273006D01*
X169346303Y-80273006D02*
X169308207Y-80349197D01*
X169308207Y-80349197D02*
X169270112Y-80387292D01*
X169270112Y-80387292D02*
X169193922Y-80425387D01*
X169193922Y-80425387D02*
X168889160Y-80425387D01*
X170032017Y-80806340D02*
X170032017Y-80387292D01*
X170032017Y-80387292D02*
X169993922Y-80311102D01*
X169993922Y-80311102D02*
X169917731Y-80273006D01*
X169917731Y-80273006D02*
X169765350Y-80273006D01*
X169765350Y-80273006D02*
X169689160Y-80311102D01*
X170032017Y-80768245D02*
X169955826Y-80806340D01*
X169955826Y-80806340D02*
X169765350Y-80806340D01*
X169765350Y-80806340D02*
X169689160Y-80768245D01*
X169689160Y-80768245D02*
X169651064Y-80692054D01*
X169651064Y-80692054D02*
X169651064Y-80615864D01*
X169651064Y-80615864D02*
X169689160Y-80539673D01*
X169689160Y-80539673D02*
X169765350Y-80501578D01*
X169765350Y-80501578D02*
X169955826Y-80501578D01*
X169955826Y-80501578D02*
X170032017Y-80463483D01*
X170298684Y-80273006D02*
X170603446Y-80273006D01*
X170412970Y-80006340D02*
X170412970Y-80692054D01*
X170412970Y-80692054D02*
X170451065Y-80768245D01*
X170451065Y-80768245D02*
X170527255Y-80806340D01*
X170527255Y-80806340D02*
X170603446Y-80806340D01*
X170870113Y-80273006D02*
X170870113Y-80806340D01*
X170870113Y-80349197D02*
X170908208Y-80311102D01*
X170908208Y-80311102D02*
X170984398Y-80273006D01*
X170984398Y-80273006D02*
X171098684Y-80273006D01*
X171098684Y-80273006D02*
X171174875Y-80311102D01*
X171174875Y-80311102D02*
X171212970Y-80387292D01*
X171212970Y-80387292D02*
X171212970Y-80806340D01*
X171936780Y-80806340D02*
X171936780Y-80387292D01*
X171936780Y-80387292D02*
X171898685Y-80311102D01*
X171898685Y-80311102D02*
X171822494Y-80273006D01*
X171822494Y-80273006D02*
X171670113Y-80273006D01*
X171670113Y-80273006D02*
X171593923Y-80311102D01*
X171936780Y-80768245D02*
X171860589Y-80806340D01*
X171860589Y-80806340D02*
X171670113Y-80806340D01*
X171670113Y-80806340D02*
X171593923Y-80768245D01*
X171593923Y-80768245D02*
X171555827Y-80692054D01*
X171555827Y-80692054D02*
X171555827Y-80615864D01*
X171555827Y-80615864D02*
X171593923Y-80539673D01*
X171593923Y-80539673D02*
X171670113Y-80501578D01*
X171670113Y-80501578D02*
X171860589Y-80501578D01*
X171860589Y-80501578D02*
X171936780Y-80463483D01*
X172317733Y-80806340D02*
X172317733Y-80006340D01*
X172393923Y-80501578D02*
X172622495Y-80806340D01*
X172622495Y-80273006D02*
X172317733Y-80577768D01*
X173308209Y-80806340D02*
X173308209Y-80387292D01*
X173308209Y-80387292D02*
X173270114Y-80311102D01*
X173270114Y-80311102D02*
X173193923Y-80273006D01*
X173193923Y-80273006D02*
X173041542Y-80273006D01*
X173041542Y-80273006D02*
X172965352Y-80311102D01*
X173308209Y-80768245D02*
X173232018Y-80806340D01*
X173232018Y-80806340D02*
X173041542Y-80806340D01*
X173041542Y-80806340D02*
X172965352Y-80768245D01*
X172965352Y-80768245D02*
X172927256Y-80692054D01*
X172927256Y-80692054D02*
X172927256Y-80615864D01*
X172927256Y-80615864D02*
X172965352Y-80539673D01*
X172965352Y-80539673D02*
X173041542Y-80501578D01*
X173041542Y-80501578D02*
X173232018Y-80501578D01*
X173232018Y-80501578D02*
X173308209Y-80463483D01*
X173689162Y-80806340D02*
X173689162Y-80273006D01*
X173689162Y-80425387D02*
X173727257Y-80349197D01*
X173727257Y-80349197D02*
X173765352Y-80311102D01*
X173765352Y-80311102D02*
X173841543Y-80273006D01*
X173841543Y-80273006D02*
X173917733Y-80273006D01*
X168851064Y-82056200D02*
X168965350Y-82094295D01*
X168965350Y-82094295D02*
X169155826Y-82094295D01*
X169155826Y-82094295D02*
X169232017Y-82056200D01*
X169232017Y-82056200D02*
X169270112Y-82018104D01*
X169270112Y-82018104D02*
X169308207Y-81941914D01*
X169308207Y-81941914D02*
X169308207Y-81865723D01*
X169308207Y-81865723D02*
X169270112Y-81789533D01*
X169270112Y-81789533D02*
X169232017Y-81751438D01*
X169232017Y-81751438D02*
X169155826Y-81713342D01*
X169155826Y-81713342D02*
X169003445Y-81675247D01*
X169003445Y-81675247D02*
X168927255Y-81637152D01*
X168927255Y-81637152D02*
X168889160Y-81599057D01*
X168889160Y-81599057D02*
X168851064Y-81522866D01*
X168851064Y-81522866D02*
X168851064Y-81446676D01*
X168851064Y-81446676D02*
X168889160Y-81370485D01*
X168889160Y-81370485D02*
X168927255Y-81332390D01*
X168927255Y-81332390D02*
X169003445Y-81294295D01*
X169003445Y-81294295D02*
X169193922Y-81294295D01*
X169193922Y-81294295D02*
X169308207Y-81332390D01*
X169993922Y-82094295D02*
X169993922Y-81675247D01*
X169993922Y-81675247D02*
X169955827Y-81599057D01*
X169955827Y-81599057D02*
X169879636Y-81560961D01*
X169879636Y-81560961D02*
X169727255Y-81560961D01*
X169727255Y-81560961D02*
X169651065Y-81599057D01*
X169993922Y-82056200D02*
X169917731Y-82094295D01*
X169917731Y-82094295D02*
X169727255Y-82094295D01*
X169727255Y-82094295D02*
X169651065Y-82056200D01*
X169651065Y-82056200D02*
X169612969Y-81980009D01*
X169612969Y-81980009D02*
X169612969Y-81903819D01*
X169612969Y-81903819D02*
X169651065Y-81827628D01*
X169651065Y-81827628D02*
X169727255Y-81789533D01*
X169727255Y-81789533D02*
X169917731Y-81789533D01*
X169917731Y-81789533D02*
X169993922Y-81751438D01*
X170374875Y-82094295D02*
X170374875Y-81294295D01*
X170717732Y-82094295D02*
X170717732Y-81675247D01*
X170717732Y-81675247D02*
X170679637Y-81599057D01*
X170679637Y-81599057D02*
X170603446Y-81560961D01*
X170603446Y-81560961D02*
X170489160Y-81560961D01*
X170489160Y-81560961D02*
X170412970Y-81599057D01*
X170412970Y-81599057D02*
X170374875Y-81637152D01*
X171212970Y-82094295D02*
X171136780Y-82056200D01*
X171136780Y-82056200D02*
X171098685Y-82018104D01*
X171098685Y-82018104D02*
X171060589Y-81941914D01*
X171060589Y-81941914D02*
X171060589Y-81713342D01*
X171060589Y-81713342D02*
X171098685Y-81637152D01*
X171098685Y-81637152D02*
X171136780Y-81599057D01*
X171136780Y-81599057D02*
X171212970Y-81560961D01*
X171212970Y-81560961D02*
X171327256Y-81560961D01*
X171327256Y-81560961D02*
X171403447Y-81599057D01*
X171403447Y-81599057D02*
X171441542Y-81637152D01*
X171441542Y-81637152D02*
X171479637Y-81713342D01*
X171479637Y-81713342D02*
X171479637Y-81941914D01*
X171479637Y-81941914D02*
X171441542Y-82018104D01*
X171441542Y-82018104D02*
X171403447Y-82056200D01*
X171403447Y-82056200D02*
X171327256Y-82094295D01*
X171327256Y-82094295D02*
X171212970Y-82094295D01*
X171936780Y-82094295D02*
X171860590Y-82056200D01*
X171860590Y-82056200D02*
X171822495Y-82018104D01*
X171822495Y-82018104D02*
X171784399Y-81941914D01*
X171784399Y-81941914D02*
X171784399Y-81713342D01*
X171784399Y-81713342D02*
X171822495Y-81637152D01*
X171822495Y-81637152D02*
X171860590Y-81599057D01*
X171860590Y-81599057D02*
X171936780Y-81560961D01*
X171936780Y-81560961D02*
X172051066Y-81560961D01*
X172051066Y-81560961D02*
X172127257Y-81599057D01*
X172127257Y-81599057D02*
X172165352Y-81637152D01*
X172165352Y-81637152D02*
X172203447Y-81713342D01*
X172203447Y-81713342D02*
X172203447Y-81941914D01*
X172203447Y-81941914D02*
X172165352Y-82018104D01*
X172165352Y-82018104D02*
X172127257Y-82056200D01*
X172127257Y-82056200D02*
X172051066Y-82094295D01*
X172051066Y-82094295D02*
X171936780Y-82094295D01*
X152651064Y-67656200D02*
X152765350Y-67694295D01*
X152765350Y-67694295D02*
X152955826Y-67694295D01*
X152955826Y-67694295D02*
X153032017Y-67656200D01*
X153032017Y-67656200D02*
X153070112Y-67618104D01*
X153070112Y-67618104D02*
X153108207Y-67541914D01*
X153108207Y-67541914D02*
X153108207Y-67465723D01*
X153108207Y-67465723D02*
X153070112Y-67389533D01*
X153070112Y-67389533D02*
X153032017Y-67351438D01*
X153032017Y-67351438D02*
X152955826Y-67313342D01*
X152955826Y-67313342D02*
X152803445Y-67275247D01*
X152803445Y-67275247D02*
X152727255Y-67237152D01*
X152727255Y-67237152D02*
X152689160Y-67199057D01*
X152689160Y-67199057D02*
X152651064Y-67122866D01*
X152651064Y-67122866D02*
X152651064Y-67046676D01*
X152651064Y-67046676D02*
X152689160Y-66970485D01*
X152689160Y-66970485D02*
X152727255Y-66932390D01*
X152727255Y-66932390D02*
X152803445Y-66894295D01*
X152803445Y-66894295D02*
X152993922Y-66894295D01*
X152993922Y-66894295D02*
X153108207Y-66932390D01*
X153603446Y-66894295D02*
X153755827Y-66894295D01*
X153755827Y-66894295D02*
X153832017Y-66932390D01*
X153832017Y-66932390D02*
X153908208Y-67008580D01*
X153908208Y-67008580D02*
X153946303Y-67160961D01*
X153946303Y-67160961D02*
X153946303Y-67427628D01*
X153946303Y-67427628D02*
X153908208Y-67580009D01*
X153908208Y-67580009D02*
X153832017Y-67656200D01*
X153832017Y-67656200D02*
X153755827Y-67694295D01*
X153755827Y-67694295D02*
X153603446Y-67694295D01*
X153603446Y-67694295D02*
X153527255Y-67656200D01*
X153527255Y-67656200D02*
X153451065Y-67580009D01*
X153451065Y-67580009D02*
X153412969Y-67427628D01*
X153412969Y-67427628D02*
X153412969Y-67160961D01*
X153412969Y-67160961D02*
X153451065Y-67008580D01*
X153451065Y-67008580D02*
X153527255Y-66932390D01*
X153527255Y-66932390D02*
X153603446Y-66894295D01*
X154289160Y-66894295D02*
X154289160Y-67541914D01*
X154289160Y-67541914D02*
X154327255Y-67618104D01*
X154327255Y-67618104D02*
X154365350Y-67656200D01*
X154365350Y-67656200D02*
X154441541Y-67694295D01*
X154441541Y-67694295D02*
X154593922Y-67694295D01*
X154593922Y-67694295D02*
X154670112Y-67656200D01*
X154670112Y-67656200D02*
X154708207Y-67618104D01*
X154708207Y-67618104D02*
X154746303Y-67541914D01*
X154746303Y-67541914D02*
X154746303Y-66894295D01*
X155127255Y-67694295D02*
X155127255Y-66894295D01*
X155127255Y-66894295D02*
X155584398Y-67694295D01*
X155584398Y-67694295D02*
X155584398Y-66894295D01*
X155965350Y-67694295D02*
X155965350Y-66894295D01*
X155965350Y-66894295D02*
X156155826Y-66894295D01*
X156155826Y-66894295D02*
X156270112Y-66932390D01*
X156270112Y-66932390D02*
X156346302Y-67008580D01*
X156346302Y-67008580D02*
X156384397Y-67084771D01*
X156384397Y-67084771D02*
X156422493Y-67237152D01*
X156422493Y-67237152D02*
X156422493Y-67351438D01*
X156422493Y-67351438D02*
X156384397Y-67503819D01*
X156384397Y-67503819D02*
X156346302Y-67580009D01*
X156346302Y-67580009D02*
X156270112Y-67656200D01*
X156270112Y-67656200D02*
X156155826Y-67694295D01*
X156155826Y-67694295D02*
X155965350Y-67694295D01*
D10*
X178000000Y-78500000D02*
X164500000Y-78500000D01*
X184500000Y-69000000D02*
X184500000Y-77000000D01*
X152000000Y-66500000D02*
X183000000Y-66500000D01*
X152000000Y-66500000D02*
X152000000Y-75500000D01*
D11*
X179194295Y-79829887D02*
X179194295Y-80210839D01*
X179194295Y-80210839D02*
X178394295Y-80210839D01*
X179194295Y-79563220D02*
X178394295Y-79563220D01*
X178432390Y-78763221D02*
X178394295Y-78839411D01*
X178394295Y-78839411D02*
X178394295Y-78953697D01*
X178394295Y-78953697D02*
X178432390Y-79067983D01*
X178432390Y-79067983D02*
X178508580Y-79144173D01*
X178508580Y-79144173D02*
X178584771Y-79182268D01*
X178584771Y-79182268D02*
X178737152Y-79220364D01*
X178737152Y-79220364D02*
X178851438Y-79220364D01*
X178851438Y-79220364D02*
X179003819Y-79182268D01*
X179003819Y-79182268D02*
X179080009Y-79144173D01*
X179080009Y-79144173D02*
X179156200Y-79067983D01*
X179156200Y-79067983D02*
X179194295Y-78953697D01*
X179194295Y-78953697D02*
X179194295Y-78877506D01*
X179194295Y-78877506D02*
X179156200Y-78763221D01*
X179156200Y-78763221D02*
X179118104Y-78725125D01*
X179118104Y-78725125D02*
X178851438Y-78725125D01*
X178851438Y-78725125D02*
X178851438Y-78877506D01*
X179194295Y-78382268D02*
X178394295Y-78382268D01*
X178775247Y-78382268D02*
X178775247Y-77925125D01*
X179194295Y-77925125D02*
X178394295Y-77925125D01*
X178394295Y-77658459D02*
X178394295Y-77201316D01*
X179194295Y-77429888D02*
X178394295Y-77429888D01*
D10*
X178000000Y-77000000D02*
X187000000Y-77000000D01*
X178000000Y-84000000D02*
X178000000Y-77000000D01*
X187000000Y-84000000D02*
X178000000Y-84000000D01*
X187000000Y-77000000D02*
X187000000Y-84000000D01*
D11*
X190555826Y-68275247D02*
X190670112Y-68313342D01*
X190670112Y-68313342D02*
X190708207Y-68351438D01*
X190708207Y-68351438D02*
X190746303Y-68427628D01*
X190746303Y-68427628D02*
X190746303Y-68541914D01*
X190746303Y-68541914D02*
X190708207Y-68618104D01*
X190708207Y-68618104D02*
X190670112Y-68656200D01*
X190670112Y-68656200D02*
X190593922Y-68694295D01*
X190593922Y-68694295D02*
X190289160Y-68694295D01*
X190289160Y-68694295D02*
X190289160Y-67894295D01*
X190289160Y-67894295D02*
X190555826Y-67894295D01*
X190555826Y-67894295D02*
X190632017Y-67932390D01*
X190632017Y-67932390D02*
X190670112Y-67970485D01*
X190670112Y-67970485D02*
X190708207Y-68046676D01*
X190708207Y-68046676D02*
X190708207Y-68122866D01*
X190708207Y-68122866D02*
X190670112Y-68199057D01*
X190670112Y-68199057D02*
X190632017Y-68237152D01*
X190632017Y-68237152D02*
X190555826Y-68275247D01*
X190555826Y-68275247D02*
X190289160Y-68275247D01*
X191089160Y-68694295D02*
X191089160Y-67894295D01*
X191089160Y-67894295D02*
X191355826Y-68465723D01*
X191355826Y-68465723D02*
X191622493Y-67894295D01*
X191622493Y-67894295D02*
X191622493Y-68694295D01*
X192003446Y-68275247D02*
X192270112Y-68275247D01*
X192384398Y-68694295D02*
X192003446Y-68694295D01*
X192003446Y-68694295D02*
X192003446Y-67894295D01*
X192003446Y-67894295D02*
X192384398Y-67894295D01*
X192689160Y-67970485D02*
X192727256Y-67932390D01*
X192727256Y-67932390D02*
X192803446Y-67894295D01*
X192803446Y-67894295D02*
X192993922Y-67894295D01*
X192993922Y-67894295D02*
X193070113Y-67932390D01*
X193070113Y-67932390D02*
X193108208Y-67970485D01*
X193108208Y-67970485D02*
X193146303Y-68046676D01*
X193146303Y-68046676D02*
X193146303Y-68122866D01*
X193146303Y-68122866D02*
X193108208Y-68237152D01*
X193108208Y-68237152D02*
X192651065Y-68694295D01*
X192651065Y-68694295D02*
X193146303Y-68694295D01*
X193603446Y-68237152D02*
X193527256Y-68199057D01*
X193527256Y-68199057D02*
X193489161Y-68160961D01*
X193489161Y-68160961D02*
X193451065Y-68084771D01*
X193451065Y-68084771D02*
X193451065Y-68046676D01*
X193451065Y-68046676D02*
X193489161Y-67970485D01*
X193489161Y-67970485D02*
X193527256Y-67932390D01*
X193527256Y-67932390D02*
X193603446Y-67894295D01*
X193603446Y-67894295D02*
X193755827Y-67894295D01*
X193755827Y-67894295D02*
X193832018Y-67932390D01*
X193832018Y-67932390D02*
X193870113Y-67970485D01*
X193870113Y-67970485D02*
X193908208Y-68046676D01*
X193908208Y-68046676D02*
X193908208Y-68084771D01*
X193908208Y-68084771D02*
X193870113Y-68160961D01*
X193870113Y-68160961D02*
X193832018Y-68199057D01*
X193832018Y-68199057D02*
X193755827Y-68237152D01*
X193755827Y-68237152D02*
X193603446Y-68237152D01*
X193603446Y-68237152D02*
X193527256Y-68275247D01*
X193527256Y-68275247D02*
X193489161Y-68313342D01*
X193489161Y-68313342D02*
X193451065Y-68389533D01*
X193451065Y-68389533D02*
X193451065Y-68541914D01*
X193451065Y-68541914D02*
X193489161Y-68618104D01*
X193489161Y-68618104D02*
X193527256Y-68656200D01*
X193527256Y-68656200D02*
X193603446Y-68694295D01*
X193603446Y-68694295D02*
X193755827Y-68694295D01*
X193755827Y-68694295D02*
X193832018Y-68656200D01*
X193832018Y-68656200D02*
X193870113Y-68618104D01*
X193870113Y-68618104D02*
X193908208Y-68541914D01*
X193908208Y-68541914D02*
X193908208Y-68389533D01*
X193908208Y-68389533D02*
X193870113Y-68313342D01*
X193870113Y-68313342D02*
X193832018Y-68275247D01*
X193832018Y-68275247D02*
X193755827Y-68237152D01*
X194403447Y-67894295D02*
X194479637Y-67894295D01*
X194479637Y-67894295D02*
X194555828Y-67932390D01*
X194555828Y-67932390D02*
X194593923Y-67970485D01*
X194593923Y-67970485D02*
X194632018Y-68046676D01*
X194632018Y-68046676D02*
X194670113Y-68199057D01*
X194670113Y-68199057D02*
X194670113Y-68389533D01*
X194670113Y-68389533D02*
X194632018Y-68541914D01*
X194632018Y-68541914D02*
X194593923Y-68618104D01*
X194593923Y-68618104D02*
X194555828Y-68656200D01*
X194555828Y-68656200D02*
X194479637Y-68694295D01*
X194479637Y-68694295D02*
X194403447Y-68694295D01*
X194403447Y-68694295D02*
X194327256Y-68656200D01*
X194327256Y-68656200D02*
X194289161Y-68618104D01*
X194289161Y-68618104D02*
X194251066Y-68541914D01*
X194251066Y-68541914D02*
X194212970Y-68389533D01*
X194212970Y-68389533D02*
X194212970Y-68199057D01*
X194212970Y-68199057D02*
X194251066Y-68046676D01*
X194251066Y-68046676D02*
X194289161Y-67970485D01*
X194289161Y-67970485D02*
X194327256Y-67932390D01*
X194327256Y-67932390D02*
X194403447Y-67894295D01*
D10*
X183000000Y-69000000D02*
X183000000Y-60000000D01*
X195000000Y-69000000D02*
X183000000Y-69000000D01*
X195000000Y-60000000D02*
X195000000Y-69000000D01*
X183000000Y-60000000D02*
X195000000Y-60000000D01*
D11*
X188355826Y-76875247D02*
X188089160Y-76875247D01*
X188089160Y-77294295D02*
X188089160Y-76494295D01*
X188089160Y-76494295D02*
X188470112Y-76494295D01*
X189155826Y-77294295D02*
X188774874Y-77294295D01*
X188774874Y-77294295D02*
X188774874Y-76494295D01*
X189384397Y-77065723D02*
X189765350Y-77065723D01*
X189308207Y-77294295D02*
X189574874Y-76494295D01*
X189574874Y-76494295D02*
X189841540Y-77294295D01*
X190070111Y-77256200D02*
X190184397Y-77294295D01*
X190184397Y-77294295D02*
X190374873Y-77294295D01*
X190374873Y-77294295D02*
X190451064Y-77256200D01*
X190451064Y-77256200D02*
X190489159Y-77218104D01*
X190489159Y-77218104D02*
X190527254Y-77141914D01*
X190527254Y-77141914D02*
X190527254Y-77065723D01*
X190527254Y-77065723D02*
X190489159Y-76989533D01*
X190489159Y-76989533D02*
X190451064Y-76951438D01*
X190451064Y-76951438D02*
X190374873Y-76913342D01*
X190374873Y-76913342D02*
X190222492Y-76875247D01*
X190222492Y-76875247D02*
X190146302Y-76837152D01*
X190146302Y-76837152D02*
X190108207Y-76799057D01*
X190108207Y-76799057D02*
X190070111Y-76722866D01*
X190070111Y-76722866D02*
X190070111Y-76646676D01*
X190070111Y-76646676D02*
X190108207Y-76570485D01*
X190108207Y-76570485D02*
X190146302Y-76532390D01*
X190146302Y-76532390D02*
X190222492Y-76494295D01*
X190222492Y-76494295D02*
X190412969Y-76494295D01*
X190412969Y-76494295D02*
X190527254Y-76532390D01*
X190870112Y-77294295D02*
X190870112Y-76494295D01*
X190870112Y-76875247D02*
X191327255Y-76875247D01*
X191327255Y-77294295D02*
X191327255Y-76494295D01*
X165936779Y-84369819D02*
X165936779Y-85179342D01*
X165936779Y-85179342D02*
X165984398Y-85274580D01*
X165984398Y-85274580D02*
X166032017Y-85322200D01*
X166032017Y-85322200D02*
X166127255Y-85369819D01*
X166127255Y-85369819D02*
X166317731Y-85369819D01*
X166317731Y-85369819D02*
X166412969Y-85322200D01*
X166412969Y-85322200D02*
X166460588Y-85274580D01*
X166460588Y-85274580D02*
X166508207Y-85179342D01*
X166508207Y-85179342D02*
X166508207Y-84369819D01*
X166936779Y-85322200D02*
X167079636Y-85369819D01*
X167079636Y-85369819D02*
X167317731Y-85369819D01*
X167317731Y-85369819D02*
X167412969Y-85322200D01*
X167412969Y-85322200D02*
X167460588Y-85274580D01*
X167460588Y-85274580D02*
X167508207Y-85179342D01*
X167508207Y-85179342D02*
X167508207Y-85084104D01*
X167508207Y-85084104D02*
X167460588Y-84988866D01*
X167460588Y-84988866D02*
X167412969Y-84941247D01*
X167412969Y-84941247D02*
X167317731Y-84893628D01*
X167317731Y-84893628D02*
X167127255Y-84846009D01*
X167127255Y-84846009D02*
X167032017Y-84798390D01*
X167032017Y-84798390D02*
X166984398Y-84750771D01*
X166984398Y-84750771D02*
X166936779Y-84655533D01*
X166936779Y-84655533D02*
X166936779Y-84560295D01*
X166936779Y-84560295D02*
X166984398Y-84465057D01*
X166984398Y-84465057D02*
X167032017Y-84417438D01*
X167032017Y-84417438D02*
X167127255Y-84369819D01*
X167127255Y-84369819D02*
X167365350Y-84369819D01*
X167365350Y-84369819D02*
X167508207Y-84417438D01*
X168270112Y-84846009D02*
X168412969Y-84893628D01*
X168412969Y-84893628D02*
X168460588Y-84941247D01*
X168460588Y-84941247D02*
X168508207Y-85036485D01*
X168508207Y-85036485D02*
X168508207Y-85179342D01*
X168508207Y-85179342D02*
X168460588Y-85274580D01*
X168460588Y-85274580D02*
X168412969Y-85322200D01*
X168412969Y-85322200D02*
X168317731Y-85369819D01*
X168317731Y-85369819D02*
X167936779Y-85369819D01*
X167936779Y-85369819D02*
X167936779Y-84369819D01*
X167936779Y-84369819D02*
X168270112Y-84369819D01*
X168270112Y-84369819D02*
X168365350Y-84417438D01*
X168365350Y-84417438D02*
X168412969Y-84465057D01*
X168412969Y-84465057D02*
X168460588Y-84560295D01*
X168460588Y-84560295D02*
X168460588Y-84655533D01*
X168460588Y-84655533D02*
X168412969Y-84750771D01*
X168412969Y-84750771D02*
X168365350Y-84798390D01*
X168365350Y-84798390D02*
X168270112Y-84846009D01*
X168270112Y-84846009D02*
X167936779Y-84846009D01*
X171174874Y-85694295D02*
X171632017Y-85694295D01*
X171403445Y-86494295D02*
X171403445Y-85694295D01*
X171822493Y-85694295D02*
X172355827Y-86494295D01*
X172355827Y-85694295D02*
X171822493Y-86494295D01*
X167846303Y-86494295D02*
X167579636Y-86113342D01*
X167389160Y-86494295D02*
X167389160Y-85694295D01*
X167389160Y-85694295D02*
X167693922Y-85694295D01*
X167693922Y-85694295D02*
X167770112Y-85732390D01*
X167770112Y-85732390D02*
X167808207Y-85770485D01*
X167808207Y-85770485D02*
X167846303Y-85846676D01*
X167846303Y-85846676D02*
X167846303Y-85960961D01*
X167846303Y-85960961D02*
X167808207Y-86037152D01*
X167808207Y-86037152D02*
X167770112Y-86075247D01*
X167770112Y-86075247D02*
X167693922Y-86113342D01*
X167693922Y-86113342D02*
X167389160Y-86113342D01*
X168112969Y-85694295D02*
X168646303Y-86494295D01*
X168646303Y-85694295D02*
X168112969Y-86494295D01*
D10*
X183000000Y-103500000D02*
X183000000Y-114000000D01*
X188000000Y-98500000D02*
X183000000Y-103500000D01*
X194500000Y-98500000D02*
X188000000Y-98500000D01*
X194500000Y-93000000D02*
X194500000Y-98500000D01*
X192000000Y-93000000D02*
X194500000Y-93000000D01*
X192000000Y-88000000D02*
X192000000Y-93000000D01*
X186537500Y-88000000D02*
X192000000Y-88000000D01*
X182537500Y-84000000D02*
X186537500Y-88000000D01*
X165500000Y-84000000D02*
X182537500Y-84000000D01*
X165500000Y-98000000D02*
X165500000Y-84000000D01*
X168000000Y-100500000D02*
X165500000Y-98000000D01*
X168000000Y-114000000D02*
X168000000Y-100500000D01*
X183000000Y-114000000D02*
X168000000Y-114000000D01*
D11*
X197455826Y-99875247D02*
X197570112Y-99913342D01*
X197570112Y-99913342D02*
X197608207Y-99951438D01*
X197608207Y-99951438D02*
X197646303Y-100027628D01*
X197646303Y-100027628D02*
X197646303Y-100141914D01*
X197646303Y-100141914D02*
X197608207Y-100218104D01*
X197608207Y-100218104D02*
X197570112Y-100256200D01*
X197570112Y-100256200D02*
X197493922Y-100294295D01*
X197493922Y-100294295D02*
X197189160Y-100294295D01*
X197189160Y-100294295D02*
X197189160Y-99494295D01*
X197189160Y-99494295D02*
X197455826Y-99494295D01*
X197455826Y-99494295D02*
X197532017Y-99532390D01*
X197532017Y-99532390D02*
X197570112Y-99570485D01*
X197570112Y-99570485D02*
X197608207Y-99646676D01*
X197608207Y-99646676D02*
X197608207Y-99722866D01*
X197608207Y-99722866D02*
X197570112Y-99799057D01*
X197570112Y-99799057D02*
X197532017Y-99837152D01*
X197532017Y-99837152D02*
X197455826Y-99875247D01*
X197455826Y-99875247D02*
X197189160Y-99875247D01*
X198141541Y-99494295D02*
X198293922Y-99494295D01*
X198293922Y-99494295D02*
X198370112Y-99532390D01*
X198370112Y-99532390D02*
X198446303Y-99608580D01*
X198446303Y-99608580D02*
X198484398Y-99760961D01*
X198484398Y-99760961D02*
X198484398Y-100027628D01*
X198484398Y-100027628D02*
X198446303Y-100180009D01*
X198446303Y-100180009D02*
X198370112Y-100256200D01*
X198370112Y-100256200D02*
X198293922Y-100294295D01*
X198293922Y-100294295D02*
X198141541Y-100294295D01*
X198141541Y-100294295D02*
X198065350Y-100256200D01*
X198065350Y-100256200D02*
X197989160Y-100180009D01*
X197989160Y-100180009D02*
X197951064Y-100027628D01*
X197951064Y-100027628D02*
X197951064Y-99760961D01*
X197951064Y-99760961D02*
X197989160Y-99608580D01*
X197989160Y-99608580D02*
X198065350Y-99532390D01*
X198065350Y-99532390D02*
X198141541Y-99494295D01*
X198979636Y-99494295D02*
X199132017Y-99494295D01*
X199132017Y-99494295D02*
X199208207Y-99532390D01*
X199208207Y-99532390D02*
X199284398Y-99608580D01*
X199284398Y-99608580D02*
X199322493Y-99760961D01*
X199322493Y-99760961D02*
X199322493Y-100027628D01*
X199322493Y-100027628D02*
X199284398Y-100180009D01*
X199284398Y-100180009D02*
X199208207Y-100256200D01*
X199208207Y-100256200D02*
X199132017Y-100294295D01*
X199132017Y-100294295D02*
X198979636Y-100294295D01*
X198979636Y-100294295D02*
X198903445Y-100256200D01*
X198903445Y-100256200D02*
X198827255Y-100180009D01*
X198827255Y-100180009D02*
X198789159Y-100027628D01*
X198789159Y-100027628D02*
X198789159Y-99760961D01*
X198789159Y-99760961D02*
X198827255Y-99608580D01*
X198827255Y-99608580D02*
X198903445Y-99532390D01*
X198903445Y-99532390D02*
X198979636Y-99494295D01*
X199551064Y-99494295D02*
X200008207Y-99494295D01*
X199779635Y-100294295D02*
X199779635Y-99494295D01*
D10*
X200500000Y-99000000D02*
X200500000Y-114000000D01*
X189000000Y-99000000D02*
X200500000Y-99000000D01*
X183500000Y-104500000D02*
X189000000Y-99000000D01*
X183500000Y-114000000D02*
X183500000Y-104500000D01*
X200500000Y-114000000D02*
X183500000Y-114000000D01*
D11*
X160646303Y-76594295D02*
X160379636Y-76213342D01*
X160189160Y-76594295D02*
X160189160Y-75794295D01*
X160189160Y-75794295D02*
X160493922Y-75794295D01*
X160493922Y-75794295D02*
X160570112Y-75832390D01*
X160570112Y-75832390D02*
X160608207Y-75870485D01*
X160608207Y-75870485D02*
X160646303Y-75946676D01*
X160646303Y-75946676D02*
X160646303Y-76060961D01*
X160646303Y-76060961D02*
X160608207Y-76137152D01*
X160608207Y-76137152D02*
X160570112Y-76175247D01*
X160570112Y-76175247D02*
X160493922Y-76213342D01*
X160493922Y-76213342D02*
X160189160Y-76213342D01*
X160989160Y-76175247D02*
X161255826Y-76175247D01*
X161370112Y-76594295D02*
X160989160Y-76594295D01*
X160989160Y-76594295D02*
X160989160Y-75794295D01*
X160989160Y-75794295D02*
X161370112Y-75794295D01*
X162132017Y-75832390D02*
X162055827Y-75794295D01*
X162055827Y-75794295D02*
X161941541Y-75794295D01*
X161941541Y-75794295D02*
X161827255Y-75832390D01*
X161827255Y-75832390D02*
X161751065Y-75908580D01*
X161751065Y-75908580D02*
X161712970Y-75984771D01*
X161712970Y-75984771D02*
X161674874Y-76137152D01*
X161674874Y-76137152D02*
X161674874Y-76251438D01*
X161674874Y-76251438D02*
X161712970Y-76403819D01*
X161712970Y-76403819D02*
X161751065Y-76480009D01*
X161751065Y-76480009D02*
X161827255Y-76556200D01*
X161827255Y-76556200D02*
X161941541Y-76594295D01*
X161941541Y-76594295D02*
X162017732Y-76594295D01*
X162017732Y-76594295D02*
X162132017Y-76556200D01*
X162132017Y-76556200D02*
X162170113Y-76518104D01*
X162170113Y-76518104D02*
X162170113Y-76251438D01*
X162170113Y-76251438D02*
X162017732Y-76251438D01*
D10*
X149000000Y-87500000D02*
X145500000Y-87500000D01*
X149000000Y-89000000D02*
X149000000Y-87500000D01*
X155500000Y-89000000D02*
X149000000Y-89000000D01*
X155500000Y-94000000D02*
X155500000Y-89000000D01*
X164500000Y-94000000D02*
X155500000Y-94000000D01*
X164500000Y-76000000D02*
X164500000Y-94000000D01*
X162500000Y-76000000D02*
X164500000Y-76000000D01*
X162500000Y-75500000D02*
X162500000Y-76000000D01*
X145500000Y-75500000D02*
X162500000Y-75500000D01*
X145500000Y-87500000D02*
X145500000Y-75500000D01*
X148456265Y-76796895D02*
X148456265Y-75996895D01*
X148456265Y-75996895D02*
X148761027Y-75996895D01*
X148761027Y-75996895D02*
X148837217Y-76034990D01*
X148837217Y-76034990D02*
X148875312Y-76073085D01*
X148875312Y-76073085D02*
X148913408Y-76149276D01*
X148913408Y-76149276D02*
X148913408Y-76263561D01*
X148913408Y-76263561D02*
X148875312Y-76339752D01*
X148875312Y-76339752D02*
X148837217Y-76377847D01*
X148837217Y-76377847D02*
X148761027Y-76415942D01*
X148761027Y-76415942D02*
X148456265Y-76415942D01*
X149180074Y-75996895D02*
X149370550Y-76796895D01*
X149370550Y-76796895D02*
X149522931Y-76225466D01*
X149522931Y-76225466D02*
X149675312Y-76796895D01*
X149675312Y-76796895D02*
X149865789Y-75996895D01*
X150627694Y-76796895D02*
X150361027Y-76415942D01*
X150170551Y-76796895D02*
X150170551Y-75996895D01*
X150170551Y-75996895D02*
X150475313Y-75996895D01*
X150475313Y-75996895D02*
X150551503Y-76034990D01*
X150551503Y-76034990D02*
X150589598Y-76073085D01*
X150589598Y-76073085D02*
X150627694Y-76149276D01*
X150627694Y-76149276D02*
X150627694Y-76263561D01*
X150627694Y-76263561D02*
X150589598Y-76339752D01*
X150589598Y-76339752D02*
X150551503Y-76377847D01*
X150551503Y-76377847D02*
X150475313Y-76415942D01*
X150475313Y-76415942D02*
X150170551Y-76415942D01*
D11*
X171512969Y-64194295D02*
X172008207Y-64194295D01*
X172008207Y-64194295D02*
X171741541Y-64499057D01*
X171741541Y-64499057D02*
X171855826Y-64499057D01*
X171855826Y-64499057D02*
X171932017Y-64537152D01*
X171932017Y-64537152D02*
X171970112Y-64575247D01*
X171970112Y-64575247D02*
X172008207Y-64651438D01*
X172008207Y-64651438D02*
X172008207Y-64841914D01*
X172008207Y-64841914D02*
X171970112Y-64918104D01*
X171970112Y-64918104D02*
X171932017Y-64956200D01*
X171932017Y-64956200D02*
X171855826Y-64994295D01*
X171855826Y-64994295D02*
X171627255Y-64994295D01*
X171627255Y-64994295D02*
X171551064Y-64956200D01*
X171551064Y-64956200D02*
X171512969Y-64918104D01*
X172236779Y-64194295D02*
X172503446Y-64994295D01*
X172503446Y-64994295D02*
X172770112Y-64194295D01*
X172960588Y-64194295D02*
X173455826Y-64194295D01*
X173455826Y-64194295D02*
X173189160Y-64499057D01*
X173189160Y-64499057D02*
X173303445Y-64499057D01*
X173303445Y-64499057D02*
X173379636Y-64537152D01*
X173379636Y-64537152D02*
X173417731Y-64575247D01*
X173417731Y-64575247D02*
X173455826Y-64651438D01*
X173455826Y-64651438D02*
X173455826Y-64841914D01*
X173455826Y-64841914D02*
X173417731Y-64918104D01*
X173417731Y-64918104D02*
X173379636Y-64956200D01*
X173379636Y-64956200D02*
X173303445Y-64994295D01*
X173303445Y-64994295D02*
X173074874Y-64994295D01*
X173074874Y-64994295D02*
X172998683Y-64956200D01*
X172998683Y-64956200D02*
X172960588Y-64918104D01*
X168951064Y-64956200D02*
X169065350Y-64994295D01*
X169065350Y-64994295D02*
X169255826Y-64994295D01*
X169255826Y-64994295D02*
X169332017Y-64956200D01*
X169332017Y-64956200D02*
X169370112Y-64918104D01*
X169370112Y-64918104D02*
X169408207Y-64841914D01*
X169408207Y-64841914D02*
X169408207Y-64765723D01*
X169408207Y-64765723D02*
X169370112Y-64689533D01*
X169370112Y-64689533D02*
X169332017Y-64651438D01*
X169332017Y-64651438D02*
X169255826Y-64613342D01*
X169255826Y-64613342D02*
X169103445Y-64575247D01*
X169103445Y-64575247D02*
X169027255Y-64537152D01*
X169027255Y-64537152D02*
X168989160Y-64499057D01*
X168989160Y-64499057D02*
X168951064Y-64422866D01*
X168951064Y-64422866D02*
X168951064Y-64346676D01*
X168951064Y-64346676D02*
X168989160Y-64270485D01*
X168989160Y-64270485D02*
X169027255Y-64232390D01*
X169027255Y-64232390D02*
X169103445Y-64194295D01*
X169103445Y-64194295D02*
X169293922Y-64194295D01*
X169293922Y-64194295D02*
X169408207Y-64232390D01*
X169751065Y-64994295D02*
X169751065Y-64194295D01*
X169751065Y-64194295D02*
X169941541Y-64194295D01*
X169941541Y-64194295D02*
X170055827Y-64232390D01*
X170055827Y-64232390D02*
X170132017Y-64308580D01*
X170132017Y-64308580D02*
X170170112Y-64384771D01*
X170170112Y-64384771D02*
X170208208Y-64537152D01*
X170208208Y-64537152D02*
X170208208Y-64651438D01*
X170208208Y-64651438D02*
X170170112Y-64803819D01*
X170170112Y-64803819D02*
X170132017Y-64880009D01*
X170132017Y-64880009D02*
X170055827Y-64956200D01*
X170055827Y-64956200D02*
X169941541Y-64994295D01*
X169941541Y-64994295D02*
X169751065Y-64994295D01*
X170512969Y-64765723D02*
X170893922Y-64765723D01*
X170436779Y-64994295D02*
X170703446Y-64194295D01*
X170703446Y-64194295D02*
X170970112Y-64994295D01*
X166451064Y-64956200D02*
X166565350Y-64994295D01*
X166565350Y-64994295D02*
X166755826Y-64994295D01*
X166755826Y-64994295D02*
X166832017Y-64956200D01*
X166832017Y-64956200D02*
X166870112Y-64918104D01*
X166870112Y-64918104D02*
X166908207Y-64841914D01*
X166908207Y-64841914D02*
X166908207Y-64765723D01*
X166908207Y-64765723D02*
X166870112Y-64689533D01*
X166870112Y-64689533D02*
X166832017Y-64651438D01*
X166832017Y-64651438D02*
X166755826Y-64613342D01*
X166755826Y-64613342D02*
X166603445Y-64575247D01*
X166603445Y-64575247D02*
X166527255Y-64537152D01*
X166527255Y-64537152D02*
X166489160Y-64499057D01*
X166489160Y-64499057D02*
X166451064Y-64422866D01*
X166451064Y-64422866D02*
X166451064Y-64346676D01*
X166451064Y-64346676D02*
X166489160Y-64270485D01*
X166489160Y-64270485D02*
X166527255Y-64232390D01*
X166527255Y-64232390D02*
X166603445Y-64194295D01*
X166603445Y-64194295D02*
X166793922Y-64194295D01*
X166793922Y-64194295D02*
X166908207Y-64232390D01*
X167708208Y-64918104D02*
X167670112Y-64956200D01*
X167670112Y-64956200D02*
X167555827Y-64994295D01*
X167555827Y-64994295D02*
X167479636Y-64994295D01*
X167479636Y-64994295D02*
X167365350Y-64956200D01*
X167365350Y-64956200D02*
X167289160Y-64880009D01*
X167289160Y-64880009D02*
X167251065Y-64803819D01*
X167251065Y-64803819D02*
X167212969Y-64651438D01*
X167212969Y-64651438D02*
X167212969Y-64537152D01*
X167212969Y-64537152D02*
X167251065Y-64384771D01*
X167251065Y-64384771D02*
X167289160Y-64308580D01*
X167289160Y-64308580D02*
X167365350Y-64232390D01*
X167365350Y-64232390D02*
X167479636Y-64194295D01*
X167479636Y-64194295D02*
X167555827Y-64194295D01*
X167555827Y-64194295D02*
X167670112Y-64232390D01*
X167670112Y-64232390D02*
X167708208Y-64270485D01*
X168432017Y-64994295D02*
X168051065Y-64994295D01*
X168051065Y-64994295D02*
X168051065Y-64194295D01*
X164208207Y-64232390D02*
X164132017Y-64194295D01*
X164132017Y-64194295D02*
X164017731Y-64194295D01*
X164017731Y-64194295D02*
X163903445Y-64232390D01*
X163903445Y-64232390D02*
X163827255Y-64308580D01*
X163827255Y-64308580D02*
X163789160Y-64384771D01*
X163789160Y-64384771D02*
X163751064Y-64537152D01*
X163751064Y-64537152D02*
X163751064Y-64651438D01*
X163751064Y-64651438D02*
X163789160Y-64803819D01*
X163789160Y-64803819D02*
X163827255Y-64880009D01*
X163827255Y-64880009D02*
X163903445Y-64956200D01*
X163903445Y-64956200D02*
X164017731Y-64994295D01*
X164017731Y-64994295D02*
X164093922Y-64994295D01*
X164093922Y-64994295D02*
X164208207Y-64956200D01*
X164208207Y-64956200D02*
X164246303Y-64918104D01*
X164246303Y-64918104D02*
X164246303Y-64651438D01*
X164246303Y-64651438D02*
X164093922Y-64651438D01*
X164589160Y-64994295D02*
X164589160Y-64194295D01*
X164589160Y-64194295D02*
X165046303Y-64994295D01*
X165046303Y-64994295D02*
X165046303Y-64194295D01*
X165427255Y-64994295D02*
X165427255Y-64194295D01*
X165427255Y-64194295D02*
X165617731Y-64194295D01*
X165617731Y-64194295D02*
X165732017Y-64232390D01*
X165732017Y-64232390D02*
X165808207Y-64308580D01*
X165808207Y-64308580D02*
X165846302Y-64384771D01*
X165846302Y-64384771D02*
X165884398Y-64537152D01*
X165884398Y-64537152D02*
X165884398Y-64651438D01*
X165884398Y-64651438D02*
X165846302Y-64803819D01*
X165846302Y-64803819D02*
X165808207Y-64880009D01*
X165808207Y-64880009D02*
X165732017Y-64956200D01*
X165732017Y-64956200D02*
X165617731Y-64994295D01*
X165617731Y-64994295D02*
X165427255Y-64994295D01*
X157312969Y-64194295D02*
X157808207Y-64194295D01*
X157808207Y-64194295D02*
X157541541Y-64499057D01*
X157541541Y-64499057D02*
X157655826Y-64499057D01*
X157655826Y-64499057D02*
X157732017Y-64537152D01*
X157732017Y-64537152D02*
X157770112Y-64575247D01*
X157770112Y-64575247D02*
X157808207Y-64651438D01*
X157808207Y-64651438D02*
X157808207Y-64841914D01*
X157808207Y-64841914D02*
X157770112Y-64918104D01*
X157770112Y-64918104D02*
X157732017Y-64956200D01*
X157732017Y-64956200D02*
X157655826Y-64994295D01*
X157655826Y-64994295D02*
X157427255Y-64994295D01*
X157427255Y-64994295D02*
X157351064Y-64956200D01*
X157351064Y-64956200D02*
X157312969Y-64918104D01*
X158036779Y-64194295D02*
X158303446Y-64994295D01*
X158303446Y-64994295D02*
X158570112Y-64194295D01*
X158760588Y-64194295D02*
X159255826Y-64194295D01*
X159255826Y-64194295D02*
X158989160Y-64499057D01*
X158989160Y-64499057D02*
X159103445Y-64499057D01*
X159103445Y-64499057D02*
X159179636Y-64537152D01*
X159179636Y-64537152D02*
X159217731Y-64575247D01*
X159217731Y-64575247D02*
X159255826Y-64651438D01*
X159255826Y-64651438D02*
X159255826Y-64841914D01*
X159255826Y-64841914D02*
X159217731Y-64918104D01*
X159217731Y-64918104D02*
X159179636Y-64956200D01*
X159179636Y-64956200D02*
X159103445Y-64994295D01*
X159103445Y-64994295D02*
X158874874Y-64994295D01*
X158874874Y-64994295D02*
X158798683Y-64956200D01*
X158798683Y-64956200D02*
X158760588Y-64918104D01*
X155341541Y-64194295D02*
X155417731Y-64194295D01*
X155417731Y-64194295D02*
X155493922Y-64232390D01*
X155493922Y-64232390D02*
X155532017Y-64270485D01*
X155532017Y-64270485D02*
X155570112Y-64346676D01*
X155570112Y-64346676D02*
X155608207Y-64499057D01*
X155608207Y-64499057D02*
X155608207Y-64689533D01*
X155608207Y-64689533D02*
X155570112Y-64841914D01*
X155570112Y-64841914D02*
X155532017Y-64918104D01*
X155532017Y-64918104D02*
X155493922Y-64956200D01*
X155493922Y-64956200D02*
X155417731Y-64994295D01*
X155417731Y-64994295D02*
X155341541Y-64994295D01*
X155341541Y-64994295D02*
X155265350Y-64956200D01*
X155265350Y-64956200D02*
X155227255Y-64918104D01*
X155227255Y-64918104D02*
X155189160Y-64841914D01*
X155189160Y-64841914D02*
X155151064Y-64689533D01*
X155151064Y-64689533D02*
X155151064Y-64499057D01*
X155151064Y-64499057D02*
X155189160Y-64346676D01*
X155189160Y-64346676D02*
X155227255Y-64270485D01*
X155227255Y-64270485D02*
X155265350Y-64232390D01*
X155265350Y-64232390D02*
X155341541Y-64194295D01*
X156065350Y-64537152D02*
X155989160Y-64499057D01*
X155989160Y-64499057D02*
X155951065Y-64460961D01*
X155951065Y-64460961D02*
X155912969Y-64384771D01*
X155912969Y-64384771D02*
X155912969Y-64346676D01*
X155912969Y-64346676D02*
X155951065Y-64270485D01*
X155951065Y-64270485D02*
X155989160Y-64232390D01*
X155989160Y-64232390D02*
X156065350Y-64194295D01*
X156065350Y-64194295D02*
X156217731Y-64194295D01*
X156217731Y-64194295D02*
X156293922Y-64232390D01*
X156293922Y-64232390D02*
X156332017Y-64270485D01*
X156332017Y-64270485D02*
X156370112Y-64346676D01*
X156370112Y-64346676D02*
X156370112Y-64384771D01*
X156370112Y-64384771D02*
X156332017Y-64460961D01*
X156332017Y-64460961D02*
X156293922Y-64499057D01*
X156293922Y-64499057D02*
X156217731Y-64537152D01*
X156217731Y-64537152D02*
X156065350Y-64537152D01*
X156065350Y-64537152D02*
X155989160Y-64575247D01*
X155989160Y-64575247D02*
X155951065Y-64613342D01*
X155951065Y-64613342D02*
X155912969Y-64689533D01*
X155912969Y-64689533D02*
X155912969Y-64841914D01*
X155912969Y-64841914D02*
X155951065Y-64918104D01*
X155951065Y-64918104D02*
X155989160Y-64956200D01*
X155989160Y-64956200D02*
X156065350Y-64994295D01*
X156065350Y-64994295D02*
X156217731Y-64994295D01*
X156217731Y-64994295D02*
X156293922Y-64956200D01*
X156293922Y-64956200D02*
X156332017Y-64918104D01*
X156332017Y-64918104D02*
X156370112Y-64841914D01*
X156370112Y-64841914D02*
X156370112Y-64689533D01*
X156370112Y-64689533D02*
X156332017Y-64613342D01*
X156332017Y-64613342D02*
X156293922Y-64575247D01*
X156293922Y-64575247D02*
X156217731Y-64537152D01*
X153008207Y-64994295D02*
X152551064Y-64994295D01*
X152779636Y-64994295D02*
X152779636Y-64194295D01*
X152779636Y-64194295D02*
X152703445Y-64308580D01*
X152703445Y-64308580D02*
X152627255Y-64384771D01*
X152627255Y-64384771D02*
X152551064Y-64422866D01*
X153465350Y-64537152D02*
X153389160Y-64499057D01*
X153389160Y-64499057D02*
X153351065Y-64460961D01*
X153351065Y-64460961D02*
X153312969Y-64384771D01*
X153312969Y-64384771D02*
X153312969Y-64346676D01*
X153312969Y-64346676D02*
X153351065Y-64270485D01*
X153351065Y-64270485D02*
X153389160Y-64232390D01*
X153389160Y-64232390D02*
X153465350Y-64194295D01*
X153465350Y-64194295D02*
X153617731Y-64194295D01*
X153617731Y-64194295D02*
X153693922Y-64232390D01*
X153693922Y-64232390D02*
X153732017Y-64270485D01*
X153732017Y-64270485D02*
X153770112Y-64346676D01*
X153770112Y-64346676D02*
X153770112Y-64384771D01*
X153770112Y-64384771D02*
X153732017Y-64460961D01*
X153732017Y-64460961D02*
X153693922Y-64499057D01*
X153693922Y-64499057D02*
X153617731Y-64537152D01*
X153617731Y-64537152D02*
X153465350Y-64537152D01*
X153465350Y-64537152D02*
X153389160Y-64575247D01*
X153389160Y-64575247D02*
X153351065Y-64613342D01*
X153351065Y-64613342D02*
X153312969Y-64689533D01*
X153312969Y-64689533D02*
X153312969Y-64841914D01*
X153312969Y-64841914D02*
X153351065Y-64918104D01*
X153351065Y-64918104D02*
X153389160Y-64956200D01*
X153389160Y-64956200D02*
X153465350Y-64994295D01*
X153465350Y-64994295D02*
X153617731Y-64994295D01*
X153617731Y-64994295D02*
X153693922Y-64956200D01*
X153693922Y-64956200D02*
X153732017Y-64918104D01*
X153732017Y-64918104D02*
X153770112Y-64841914D01*
X153770112Y-64841914D02*
X153770112Y-64689533D01*
X153770112Y-64689533D02*
X153732017Y-64613342D01*
X153732017Y-64613342D02*
X153693922Y-64575247D01*
X153693922Y-64575247D02*
X153617731Y-64537152D01*
X150508207Y-64994295D02*
X150051064Y-64994295D01*
X150279636Y-64994295D02*
X150279636Y-64194295D01*
X150279636Y-64194295D02*
X150203445Y-64308580D01*
X150203445Y-64308580D02*
X150127255Y-64384771D01*
X150127255Y-64384771D02*
X150051064Y-64422866D01*
X150889160Y-64994295D02*
X151041541Y-64994295D01*
X151041541Y-64994295D02*
X151117731Y-64956200D01*
X151117731Y-64956200D02*
X151155827Y-64918104D01*
X151155827Y-64918104D02*
X151232017Y-64803819D01*
X151232017Y-64803819D02*
X151270112Y-64651438D01*
X151270112Y-64651438D02*
X151270112Y-64346676D01*
X151270112Y-64346676D02*
X151232017Y-64270485D01*
X151232017Y-64270485D02*
X151193922Y-64232390D01*
X151193922Y-64232390D02*
X151117731Y-64194295D01*
X151117731Y-64194295D02*
X150965350Y-64194295D01*
X150965350Y-64194295D02*
X150889160Y-64232390D01*
X150889160Y-64232390D02*
X150851065Y-64270485D01*
X150851065Y-64270485D02*
X150812969Y-64346676D01*
X150812969Y-64346676D02*
X150812969Y-64537152D01*
X150812969Y-64537152D02*
X150851065Y-64613342D01*
X150851065Y-64613342D02*
X150889160Y-64651438D01*
X150889160Y-64651438D02*
X150965350Y-64689533D01*
X150965350Y-64689533D02*
X151117731Y-64689533D01*
X151117731Y-64689533D02*
X151193922Y-64651438D01*
X151193922Y-64651438D02*
X151232017Y-64613342D01*
X151232017Y-64613342D02*
X151270112Y-64537152D01*
X147508207Y-64232390D02*
X147432017Y-64194295D01*
X147432017Y-64194295D02*
X147317731Y-64194295D01*
X147317731Y-64194295D02*
X147203445Y-64232390D01*
X147203445Y-64232390D02*
X147127255Y-64308580D01*
X147127255Y-64308580D02*
X147089160Y-64384771D01*
X147089160Y-64384771D02*
X147051064Y-64537152D01*
X147051064Y-64537152D02*
X147051064Y-64651438D01*
X147051064Y-64651438D02*
X147089160Y-64803819D01*
X147089160Y-64803819D02*
X147127255Y-64880009D01*
X147127255Y-64880009D02*
X147203445Y-64956200D01*
X147203445Y-64956200D02*
X147317731Y-64994295D01*
X147317731Y-64994295D02*
X147393922Y-64994295D01*
X147393922Y-64994295D02*
X147508207Y-64956200D01*
X147508207Y-64956200D02*
X147546303Y-64918104D01*
X147546303Y-64918104D02*
X147546303Y-64651438D01*
X147546303Y-64651438D02*
X147393922Y-64651438D01*
X147889160Y-64994295D02*
X147889160Y-64194295D01*
X147889160Y-64194295D02*
X148346303Y-64994295D01*
X148346303Y-64994295D02*
X148346303Y-64194295D01*
X148727255Y-64994295D02*
X148727255Y-64194295D01*
X148727255Y-64194295D02*
X148917731Y-64194295D01*
X148917731Y-64194295D02*
X149032017Y-64232390D01*
X149032017Y-64232390D02*
X149108207Y-64308580D01*
X149108207Y-64308580D02*
X149146302Y-64384771D01*
X149146302Y-64384771D02*
X149184398Y-64537152D01*
X149184398Y-64537152D02*
X149184398Y-64651438D01*
X149184398Y-64651438D02*
X149146302Y-64803819D01*
X149146302Y-64803819D02*
X149108207Y-64880009D01*
X149108207Y-64880009D02*
X149032017Y-64956200D01*
X149032017Y-64956200D02*
X148917731Y-64994295D01*
X148917731Y-64994295D02*
X148727255Y-64994295D01*
D10*
X155000000Y-95000000D02*
X161500000Y-95000000D01*
X155000000Y-89500000D02*
X155000000Y-95000000D01*
X148500000Y-89500000D02*
X155000000Y-89500000D01*
X148500000Y-88000000D02*
X148500000Y-89500000D01*
D11*
X154318104Y-94753696D02*
X154356200Y-94791792D01*
X154356200Y-94791792D02*
X154394295Y-94906077D01*
X154394295Y-94906077D02*
X154394295Y-94982268D01*
X154394295Y-94982268D02*
X154356200Y-95096554D01*
X154356200Y-95096554D02*
X154280009Y-95172744D01*
X154280009Y-95172744D02*
X154203819Y-95210839D01*
X154203819Y-95210839D02*
X154051438Y-95248935D01*
X154051438Y-95248935D02*
X153937152Y-95248935D01*
X153937152Y-95248935D02*
X153784771Y-95210839D01*
X153784771Y-95210839D02*
X153708580Y-95172744D01*
X153708580Y-95172744D02*
X153632390Y-95096554D01*
X153632390Y-95096554D02*
X153594295Y-94982268D01*
X153594295Y-94982268D02*
X153594295Y-94906077D01*
X153594295Y-94906077D02*
X153632390Y-94791792D01*
X153632390Y-94791792D02*
X153670485Y-94753696D01*
X154394295Y-94410839D02*
X153594295Y-94410839D01*
X154394295Y-94067982D02*
X153975247Y-94067982D01*
X153975247Y-94067982D02*
X153899057Y-94106077D01*
X153899057Y-94106077D02*
X153860961Y-94182268D01*
X153860961Y-94182268D02*
X153860961Y-94296554D01*
X153860961Y-94296554D02*
X153899057Y-94372744D01*
X153899057Y-94372744D02*
X153937152Y-94410839D01*
X154394295Y-93344172D02*
X153975247Y-93344172D01*
X153975247Y-93344172D02*
X153899057Y-93382267D01*
X153899057Y-93382267D02*
X153860961Y-93458458D01*
X153860961Y-93458458D02*
X153860961Y-93610839D01*
X153860961Y-93610839D02*
X153899057Y-93687029D01*
X154356200Y-93344172D02*
X154394295Y-93420363D01*
X154394295Y-93420363D02*
X154394295Y-93610839D01*
X154394295Y-93610839D02*
X154356200Y-93687029D01*
X154356200Y-93687029D02*
X154280009Y-93725125D01*
X154280009Y-93725125D02*
X154203819Y-93725125D01*
X154203819Y-93725125D02*
X154127628Y-93687029D01*
X154127628Y-93687029D02*
X154089533Y-93610839D01*
X154089533Y-93610839D02*
X154089533Y-93420363D01*
X154089533Y-93420363D02*
X154051438Y-93344172D01*
X154394295Y-92963219D02*
X153860961Y-92963219D01*
X154013342Y-92963219D02*
X153937152Y-92925124D01*
X153937152Y-92925124D02*
X153899057Y-92887029D01*
X153899057Y-92887029D02*
X153860961Y-92810838D01*
X153860961Y-92810838D02*
X153860961Y-92734648D01*
X153860961Y-92125124D02*
X154508580Y-92125124D01*
X154508580Y-92125124D02*
X154584771Y-92163219D01*
X154584771Y-92163219D02*
X154622866Y-92201315D01*
X154622866Y-92201315D02*
X154660961Y-92277505D01*
X154660961Y-92277505D02*
X154660961Y-92391791D01*
X154660961Y-92391791D02*
X154622866Y-92467981D01*
X154356200Y-92125124D02*
X154394295Y-92201315D01*
X154394295Y-92201315D02*
X154394295Y-92353696D01*
X154394295Y-92353696D02*
X154356200Y-92429886D01*
X154356200Y-92429886D02*
X154318104Y-92467981D01*
X154318104Y-92467981D02*
X154241914Y-92506077D01*
X154241914Y-92506077D02*
X154013342Y-92506077D01*
X154013342Y-92506077D02*
X153937152Y-92467981D01*
X153937152Y-92467981D02*
X153899057Y-92429886D01*
X153899057Y-92429886D02*
X153860961Y-92353696D01*
X153860961Y-92353696D02*
X153860961Y-92201315D01*
X153860961Y-92201315D02*
X153899057Y-92125124D01*
X154394295Y-91744171D02*
X153860961Y-91744171D01*
X153594295Y-91744171D02*
X153632390Y-91782267D01*
X153632390Y-91782267D02*
X153670485Y-91744171D01*
X153670485Y-91744171D02*
X153632390Y-91706076D01*
X153632390Y-91706076D02*
X153594295Y-91744171D01*
X153594295Y-91744171D02*
X153670485Y-91744171D01*
X153860961Y-91363219D02*
X154394295Y-91363219D01*
X153937152Y-91363219D02*
X153899057Y-91325124D01*
X153899057Y-91325124D02*
X153860961Y-91248934D01*
X153860961Y-91248934D02*
X153860961Y-91134648D01*
X153860961Y-91134648D02*
X153899057Y-91058457D01*
X153899057Y-91058457D02*
X153975247Y-91020362D01*
X153975247Y-91020362D02*
X154394295Y-91020362D01*
X153860961Y-90296552D02*
X154508580Y-90296552D01*
X154508580Y-90296552D02*
X154584771Y-90334647D01*
X154584771Y-90334647D02*
X154622866Y-90372743D01*
X154622866Y-90372743D02*
X154660961Y-90448933D01*
X154660961Y-90448933D02*
X154660961Y-90563219D01*
X154660961Y-90563219D02*
X154622866Y-90639409D01*
X154356200Y-90296552D02*
X154394295Y-90372743D01*
X154394295Y-90372743D02*
X154394295Y-90525124D01*
X154394295Y-90525124D02*
X154356200Y-90601314D01*
X154356200Y-90601314D02*
X154318104Y-90639409D01*
X154318104Y-90639409D02*
X154241914Y-90677505D01*
X154241914Y-90677505D02*
X154013342Y-90677505D01*
X154013342Y-90677505D02*
X153937152Y-90639409D01*
X153937152Y-90639409D02*
X153899057Y-90601314D01*
X153899057Y-90601314D02*
X153860961Y-90525124D01*
X153860961Y-90525124D02*
X153860961Y-90372743D01*
X153860961Y-90372743D02*
X153899057Y-90296552D01*
X150818104Y-94653696D02*
X150856200Y-94691792D01*
X150856200Y-94691792D02*
X150894295Y-94806077D01*
X150894295Y-94806077D02*
X150894295Y-94882268D01*
X150894295Y-94882268D02*
X150856200Y-94996554D01*
X150856200Y-94996554D02*
X150780009Y-95072744D01*
X150780009Y-95072744D02*
X150703819Y-95110839D01*
X150703819Y-95110839D02*
X150551438Y-95148935D01*
X150551438Y-95148935D02*
X150437152Y-95148935D01*
X150437152Y-95148935D02*
X150284771Y-95110839D01*
X150284771Y-95110839D02*
X150208580Y-95072744D01*
X150208580Y-95072744D02*
X150132390Y-94996554D01*
X150132390Y-94996554D02*
X150094295Y-94882268D01*
X150094295Y-94882268D02*
X150094295Y-94806077D01*
X150094295Y-94806077D02*
X150132390Y-94691792D01*
X150132390Y-94691792D02*
X150170485Y-94653696D01*
X150894295Y-94310839D02*
X150094295Y-94310839D01*
X150894295Y-93967982D02*
X150475247Y-93967982D01*
X150475247Y-93967982D02*
X150399057Y-94006077D01*
X150399057Y-94006077D02*
X150360961Y-94082268D01*
X150360961Y-94082268D02*
X150360961Y-94196554D01*
X150360961Y-94196554D02*
X150399057Y-94272744D01*
X150399057Y-94272744D02*
X150437152Y-94310839D01*
X150894295Y-93244172D02*
X150475247Y-93244172D01*
X150475247Y-93244172D02*
X150399057Y-93282267D01*
X150399057Y-93282267D02*
X150360961Y-93358458D01*
X150360961Y-93358458D02*
X150360961Y-93510839D01*
X150360961Y-93510839D02*
X150399057Y-93587029D01*
X150856200Y-93244172D02*
X150894295Y-93320363D01*
X150894295Y-93320363D02*
X150894295Y-93510839D01*
X150894295Y-93510839D02*
X150856200Y-93587029D01*
X150856200Y-93587029D02*
X150780009Y-93625125D01*
X150780009Y-93625125D02*
X150703819Y-93625125D01*
X150703819Y-93625125D02*
X150627628Y-93587029D01*
X150627628Y-93587029D02*
X150589533Y-93510839D01*
X150589533Y-93510839D02*
X150589533Y-93320363D01*
X150589533Y-93320363D02*
X150551438Y-93244172D01*
X150894295Y-92863219D02*
X150360961Y-92863219D01*
X150513342Y-92863219D02*
X150437152Y-92825124D01*
X150437152Y-92825124D02*
X150399057Y-92787029D01*
X150399057Y-92787029D02*
X150360961Y-92710838D01*
X150360961Y-92710838D02*
X150360961Y-92634648D01*
X150360961Y-92025124D02*
X151008580Y-92025124D01*
X151008580Y-92025124D02*
X151084771Y-92063219D01*
X151084771Y-92063219D02*
X151122866Y-92101315D01*
X151122866Y-92101315D02*
X151160961Y-92177505D01*
X151160961Y-92177505D02*
X151160961Y-92291791D01*
X151160961Y-92291791D02*
X151122866Y-92367981D01*
X150856200Y-92025124D02*
X150894295Y-92101315D01*
X150894295Y-92101315D02*
X150894295Y-92253696D01*
X150894295Y-92253696D02*
X150856200Y-92329886D01*
X150856200Y-92329886D02*
X150818104Y-92367981D01*
X150818104Y-92367981D02*
X150741914Y-92406077D01*
X150741914Y-92406077D02*
X150513342Y-92406077D01*
X150513342Y-92406077D02*
X150437152Y-92367981D01*
X150437152Y-92367981D02*
X150399057Y-92329886D01*
X150399057Y-92329886D02*
X150360961Y-92253696D01*
X150360961Y-92253696D02*
X150360961Y-92101315D01*
X150360961Y-92101315D02*
X150399057Y-92025124D01*
X150856200Y-91339409D02*
X150894295Y-91415600D01*
X150894295Y-91415600D02*
X150894295Y-91567981D01*
X150894295Y-91567981D02*
X150856200Y-91644171D01*
X150856200Y-91644171D02*
X150780009Y-91682267D01*
X150780009Y-91682267D02*
X150475247Y-91682267D01*
X150475247Y-91682267D02*
X150399057Y-91644171D01*
X150399057Y-91644171D02*
X150360961Y-91567981D01*
X150360961Y-91567981D02*
X150360961Y-91415600D01*
X150360961Y-91415600D02*
X150399057Y-91339409D01*
X150399057Y-91339409D02*
X150475247Y-91301314D01*
X150475247Y-91301314D02*
X150551438Y-91301314D01*
X150551438Y-91301314D02*
X150627628Y-91682267D01*
X150894295Y-90615600D02*
X150094295Y-90615600D01*
X150856200Y-90615600D02*
X150894295Y-90691791D01*
X150894295Y-90691791D02*
X150894295Y-90844172D01*
X150894295Y-90844172D02*
X150856200Y-90920362D01*
X150856200Y-90920362D02*
X150818104Y-90958457D01*
X150818104Y-90958457D02*
X150741914Y-90996553D01*
X150741914Y-90996553D02*
X150513342Y-90996553D01*
X150513342Y-90996553D02*
X150437152Y-90958457D01*
X150437152Y-90958457D02*
X150399057Y-90920362D01*
X150399057Y-90920362D02*
X150360961Y-90844172D01*
X150360961Y-90844172D02*
X150360961Y-90691791D01*
X150360961Y-90691791D02*
X150399057Y-90615600D01*
X147518104Y-94753696D02*
X147556200Y-94791792D01*
X147556200Y-94791792D02*
X147594295Y-94906077D01*
X147594295Y-94906077D02*
X147594295Y-94982268D01*
X147594295Y-94982268D02*
X147556200Y-95096554D01*
X147556200Y-95096554D02*
X147480009Y-95172744D01*
X147480009Y-95172744D02*
X147403819Y-95210839D01*
X147403819Y-95210839D02*
X147251438Y-95248935D01*
X147251438Y-95248935D02*
X147137152Y-95248935D01*
X147137152Y-95248935D02*
X146984771Y-95210839D01*
X146984771Y-95210839D02*
X146908580Y-95172744D01*
X146908580Y-95172744D02*
X146832390Y-95096554D01*
X146832390Y-95096554D02*
X146794295Y-94982268D01*
X146794295Y-94982268D02*
X146794295Y-94906077D01*
X146794295Y-94906077D02*
X146832390Y-94791792D01*
X146832390Y-94791792D02*
X146870485Y-94753696D01*
X147594295Y-94410839D02*
X146794295Y-94410839D01*
X147594295Y-94067982D02*
X147175247Y-94067982D01*
X147175247Y-94067982D02*
X147099057Y-94106077D01*
X147099057Y-94106077D02*
X147060961Y-94182268D01*
X147060961Y-94182268D02*
X147060961Y-94296554D01*
X147060961Y-94296554D02*
X147099057Y-94372744D01*
X147099057Y-94372744D02*
X147137152Y-94410839D01*
X147594295Y-93687029D02*
X147060961Y-93687029D01*
X147213342Y-93687029D02*
X147137152Y-93648934D01*
X147137152Y-93648934D02*
X147099057Y-93610839D01*
X147099057Y-93610839D02*
X147060961Y-93534648D01*
X147060961Y-93534648D02*
X147060961Y-93458458D01*
X147594295Y-92582267D02*
X146794295Y-92582267D01*
X146794295Y-92582267D02*
X146794295Y-92277505D01*
X146794295Y-92277505D02*
X146832390Y-92201315D01*
X146832390Y-92201315D02*
X146870485Y-92163220D01*
X146870485Y-92163220D02*
X146946676Y-92125124D01*
X146946676Y-92125124D02*
X147060961Y-92125124D01*
X147060961Y-92125124D02*
X147137152Y-92163220D01*
X147137152Y-92163220D02*
X147175247Y-92201315D01*
X147175247Y-92201315D02*
X147213342Y-92277505D01*
X147213342Y-92277505D02*
X147213342Y-92582267D01*
X146794295Y-91858458D02*
X147594295Y-91667982D01*
X147594295Y-91667982D02*
X147022866Y-91515601D01*
X147022866Y-91515601D02*
X147594295Y-91363220D01*
X147594295Y-91363220D02*
X146794295Y-91172744D01*
X147594295Y-90410838D02*
X147213342Y-90677505D01*
X147594295Y-90867981D02*
X146794295Y-90867981D01*
X146794295Y-90867981D02*
X146794295Y-90563219D01*
X146794295Y-90563219D02*
X146832390Y-90487029D01*
X146832390Y-90487029D02*
X146870485Y-90448934D01*
X146870485Y-90448934D02*
X146946676Y-90410838D01*
X146946676Y-90410838D02*
X147060961Y-90410838D01*
X147060961Y-90410838D02*
X147137152Y-90448934D01*
X147137152Y-90448934D02*
X147175247Y-90487029D01*
X147175247Y-90487029D02*
X147213342Y-90563219D01*
X147213342Y-90563219D02*
X147213342Y-90867981D01*
X146794295Y-89306076D02*
X146794295Y-89153695D01*
X146794295Y-89153695D02*
X146832390Y-89077505D01*
X146832390Y-89077505D02*
X146908580Y-89001314D01*
X146908580Y-89001314D02*
X147060961Y-88963219D01*
X147060961Y-88963219D02*
X147327628Y-88963219D01*
X147327628Y-88963219D02*
X147480009Y-89001314D01*
X147480009Y-89001314D02*
X147556200Y-89077505D01*
X147556200Y-89077505D02*
X147594295Y-89153695D01*
X147594295Y-89153695D02*
X147594295Y-89306076D01*
X147594295Y-89306076D02*
X147556200Y-89382267D01*
X147556200Y-89382267D02*
X147480009Y-89458457D01*
X147480009Y-89458457D02*
X147327628Y-89496553D01*
X147327628Y-89496553D02*
X147060961Y-89496553D01*
X147060961Y-89496553D02*
X146908580Y-89458457D01*
X146908580Y-89458457D02*
X146832390Y-89382267D01*
X146832390Y-89382267D02*
X146794295Y-89306076D01*
X147594295Y-88620362D02*
X146794295Y-88620362D01*
X147289533Y-88544172D02*
X147594295Y-88315600D01*
X147060961Y-88315600D02*
X147365723Y-88620362D01*
X156608207Y-96174580D02*
X156560588Y-96222200D01*
X156560588Y-96222200D02*
X156417731Y-96269819D01*
X156417731Y-96269819D02*
X156322493Y-96269819D01*
X156322493Y-96269819D02*
X156179636Y-96222200D01*
X156179636Y-96222200D02*
X156084398Y-96126961D01*
X156084398Y-96126961D02*
X156036779Y-96031723D01*
X156036779Y-96031723D02*
X155989160Y-95841247D01*
X155989160Y-95841247D02*
X155989160Y-95698390D01*
X155989160Y-95698390D02*
X156036779Y-95507914D01*
X156036779Y-95507914D02*
X156084398Y-95412676D01*
X156084398Y-95412676D02*
X156179636Y-95317438D01*
X156179636Y-95317438D02*
X156322493Y-95269819D01*
X156322493Y-95269819D02*
X156417731Y-95269819D01*
X156417731Y-95269819D02*
X156560588Y-95317438D01*
X156560588Y-95317438D02*
X156608207Y-95365057D01*
X157036779Y-96269819D02*
X157036779Y-95269819D01*
X157465350Y-96269819D02*
X157465350Y-95746009D01*
X157465350Y-95746009D02*
X157417731Y-95650771D01*
X157417731Y-95650771D02*
X157322493Y-95603152D01*
X157322493Y-95603152D02*
X157179636Y-95603152D01*
X157179636Y-95603152D02*
X157084398Y-95650771D01*
X157084398Y-95650771D02*
X157036779Y-95698390D01*
X158370112Y-96269819D02*
X158370112Y-95746009D01*
X158370112Y-95746009D02*
X158322493Y-95650771D01*
X158322493Y-95650771D02*
X158227255Y-95603152D01*
X158227255Y-95603152D02*
X158036779Y-95603152D01*
X158036779Y-95603152D02*
X157941541Y-95650771D01*
X158370112Y-96222200D02*
X158274874Y-96269819D01*
X158274874Y-96269819D02*
X158036779Y-96269819D01*
X158036779Y-96269819D02*
X157941541Y-96222200D01*
X157941541Y-96222200D02*
X157893922Y-96126961D01*
X157893922Y-96126961D02*
X157893922Y-96031723D01*
X157893922Y-96031723D02*
X157941541Y-95936485D01*
X157941541Y-95936485D02*
X158036779Y-95888866D01*
X158036779Y-95888866D02*
X158274874Y-95888866D01*
X158274874Y-95888866D02*
X158370112Y-95841247D01*
X158846303Y-96269819D02*
X158846303Y-95603152D01*
X158846303Y-95793628D02*
X158893922Y-95698390D01*
X158893922Y-95698390D02*
X158941541Y-95650771D01*
X158941541Y-95650771D02*
X159036779Y-95603152D01*
X159036779Y-95603152D02*
X159132017Y-95603152D01*
X159893922Y-95603152D02*
X159893922Y-96412676D01*
X159893922Y-96412676D02*
X159846303Y-96507914D01*
X159846303Y-96507914D02*
X159798684Y-96555533D01*
X159798684Y-96555533D02*
X159703446Y-96603152D01*
X159703446Y-96603152D02*
X159560589Y-96603152D01*
X159560589Y-96603152D02*
X159465351Y-96555533D01*
X159893922Y-96222200D02*
X159798684Y-96269819D01*
X159798684Y-96269819D02*
X159608208Y-96269819D01*
X159608208Y-96269819D02*
X159512970Y-96222200D01*
X159512970Y-96222200D02*
X159465351Y-96174580D01*
X159465351Y-96174580D02*
X159417732Y-96079342D01*
X159417732Y-96079342D02*
X159417732Y-95793628D01*
X159417732Y-95793628D02*
X159465351Y-95698390D01*
X159465351Y-95698390D02*
X159512970Y-95650771D01*
X159512970Y-95650771D02*
X159608208Y-95603152D01*
X159608208Y-95603152D02*
X159798684Y-95603152D01*
X159798684Y-95603152D02*
X159893922Y-95650771D01*
X160751065Y-96222200D02*
X160655827Y-96269819D01*
X160655827Y-96269819D02*
X160465351Y-96269819D01*
X160465351Y-96269819D02*
X160370113Y-96222200D01*
X160370113Y-96222200D02*
X160322494Y-96126961D01*
X160322494Y-96126961D02*
X160322494Y-95746009D01*
X160322494Y-95746009D02*
X160370113Y-95650771D01*
X160370113Y-95650771D02*
X160465351Y-95603152D01*
X160465351Y-95603152D02*
X160655827Y-95603152D01*
X160655827Y-95603152D02*
X160751065Y-95650771D01*
X160751065Y-95650771D02*
X160798684Y-95746009D01*
X160798684Y-95746009D02*
X160798684Y-95841247D01*
X160798684Y-95841247D02*
X160322494Y-95936485D01*
X161227256Y-96269819D02*
X161227256Y-95603152D01*
X161227256Y-95793628D02*
X161274875Y-95698390D01*
X161274875Y-95698390D02*
X161322494Y-95650771D01*
X161322494Y-95650771D02*
X161417732Y-95603152D01*
X161417732Y-95603152D02*
X161512970Y-95603152D01*
D10*
X145500000Y-88000000D02*
X145500000Y-114000000D01*
X148500000Y-88000000D02*
X145500000Y-88000000D01*
X164000000Y-97500000D02*
X161500000Y-95000000D01*
X167000000Y-100500000D02*
X164000000Y-97500000D01*
X167000000Y-114000000D02*
X167000000Y-100500000D01*
X145500000Y-114000000D02*
X167000000Y-114000000D01*
D11*
X153564881Y-71762295D02*
X153564881Y-70962295D01*
X153564881Y-70962295D02*
X153831547Y-71533723D01*
X153831547Y-71533723D02*
X154098214Y-70962295D01*
X154098214Y-70962295D02*
X154098214Y-71762295D01*
X154479167Y-71762295D02*
X154479167Y-70962295D01*
X154936310Y-71762295D02*
X154593452Y-71305152D01*
X154936310Y-70962295D02*
X154479167Y-71419438D01*
X155698214Y-71762295D02*
X155241071Y-71762295D01*
X155469643Y-71762295D02*
X155469643Y-70962295D01*
X155469643Y-70962295D02*
X155393452Y-71076580D01*
X155393452Y-71076580D02*
X155317262Y-71152771D01*
X155317262Y-71152771D02*
X155241071Y-71190866D01*
X160402295Y-62516666D02*
X160973723Y-62516666D01*
X160973723Y-62516666D02*
X161088009Y-62554761D01*
X161088009Y-62554761D02*
X161164200Y-62630952D01*
X161164200Y-62630952D02*
X161202295Y-62745237D01*
X161202295Y-62745237D02*
X161202295Y-62821428D01*
X160402295Y-61754761D02*
X160402295Y-62135713D01*
X160402295Y-62135713D02*
X160783247Y-62173809D01*
X160783247Y-62173809D02*
X160745152Y-62135713D01*
X160745152Y-62135713D02*
X160707057Y-62059523D01*
X160707057Y-62059523D02*
X160707057Y-61869047D01*
X160707057Y-61869047D02*
X160745152Y-61792856D01*
X160745152Y-61792856D02*
X160783247Y-61754761D01*
X160783247Y-61754761D02*
X160859438Y-61716666D01*
X160859438Y-61716666D02*
X161049914Y-61716666D01*
X161049914Y-61716666D02*
X161126104Y-61754761D01*
X161126104Y-61754761D02*
X161164200Y-61792856D01*
X161164200Y-61792856D02*
X161202295Y-61869047D01*
X161202295Y-61869047D02*
X161202295Y-62059523D01*
X161202295Y-62059523D02*
X161164200Y-62135713D01*
X161164200Y-62135713D02*
X161126104Y-62173809D01*
X160748214Y-71862295D02*
X160481547Y-71481342D01*
X160291071Y-71862295D02*
X160291071Y-71062295D01*
X160291071Y-71062295D02*
X160595833Y-71062295D01*
X160595833Y-71062295D02*
X160672023Y-71100390D01*
X160672023Y-71100390D02*
X160710118Y-71138485D01*
X160710118Y-71138485D02*
X160748214Y-71214676D01*
X160748214Y-71214676D02*
X160748214Y-71328961D01*
X160748214Y-71328961D02*
X160710118Y-71405152D01*
X160710118Y-71405152D02*
X160672023Y-71443247D01*
X160672023Y-71443247D02*
X160595833Y-71481342D01*
X160595833Y-71481342D02*
X160291071Y-71481342D01*
X161052975Y-71138485D02*
X161091071Y-71100390D01*
X161091071Y-71100390D02*
X161167261Y-71062295D01*
X161167261Y-71062295D02*
X161357737Y-71062295D01*
X161357737Y-71062295D02*
X161433928Y-71100390D01*
X161433928Y-71100390D02*
X161472023Y-71138485D01*
X161472023Y-71138485D02*
X161510118Y-71214676D01*
X161510118Y-71214676D02*
X161510118Y-71290866D01*
X161510118Y-71290866D02*
X161472023Y-71405152D01*
X161472023Y-71405152D02*
X161014880Y-71862295D01*
X161014880Y-71862295D02*
X161510118Y-71862295D01*
X161967261Y-71405152D02*
X161891071Y-71367057D01*
X161891071Y-71367057D02*
X161852976Y-71328961D01*
X161852976Y-71328961D02*
X161814880Y-71252771D01*
X161814880Y-71252771D02*
X161814880Y-71214676D01*
X161814880Y-71214676D02*
X161852976Y-71138485D01*
X161852976Y-71138485D02*
X161891071Y-71100390D01*
X161891071Y-71100390D02*
X161967261Y-71062295D01*
X161967261Y-71062295D02*
X162119642Y-71062295D01*
X162119642Y-71062295D02*
X162195833Y-71100390D01*
X162195833Y-71100390D02*
X162233928Y-71138485D01*
X162233928Y-71138485D02*
X162272023Y-71214676D01*
X162272023Y-71214676D02*
X162272023Y-71252771D01*
X162272023Y-71252771D02*
X162233928Y-71328961D01*
X162233928Y-71328961D02*
X162195833Y-71367057D01*
X162195833Y-71367057D02*
X162119642Y-71405152D01*
X162119642Y-71405152D02*
X161967261Y-71405152D01*
X161967261Y-71405152D02*
X161891071Y-71443247D01*
X161891071Y-71443247D02*
X161852976Y-71481342D01*
X161852976Y-71481342D02*
X161814880Y-71557533D01*
X161814880Y-71557533D02*
X161814880Y-71709914D01*
X161814880Y-71709914D02*
X161852976Y-71786104D01*
X161852976Y-71786104D02*
X161891071Y-71824200D01*
X161891071Y-71824200D02*
X161967261Y-71862295D01*
X161967261Y-71862295D02*
X162119642Y-71862295D01*
X162119642Y-71862295D02*
X162195833Y-71824200D01*
X162195833Y-71824200D02*
X162233928Y-71786104D01*
X162233928Y-71786104D02*
X162272023Y-71709914D01*
X162272023Y-71709914D02*
X162272023Y-71557533D01*
X162272023Y-71557533D02*
X162233928Y-71481342D01*
X162233928Y-71481342D02*
X162195833Y-71443247D01*
X162195833Y-71443247D02*
X162119642Y-71405152D01*
D12*
X192185714Y-66263595D02*
X191919047Y-65882642D01*
X191728571Y-66263595D02*
X191728571Y-65463595D01*
X191728571Y-65463595D02*
X192033333Y-65463595D01*
X192033333Y-65463595D02*
X192109523Y-65501690D01*
X192109523Y-65501690D02*
X192147618Y-65539785D01*
X192147618Y-65539785D02*
X192185714Y-65615976D01*
X192185714Y-65615976D02*
X192185714Y-65730261D01*
X192185714Y-65730261D02*
X192147618Y-65806452D01*
X192147618Y-65806452D02*
X192109523Y-65844547D01*
X192109523Y-65844547D02*
X192033333Y-65882642D01*
X192033333Y-65882642D02*
X191728571Y-65882642D01*
X192490475Y-65539785D02*
X192528571Y-65501690D01*
X192528571Y-65501690D02*
X192604761Y-65463595D01*
X192604761Y-65463595D02*
X192795237Y-65463595D01*
X192795237Y-65463595D02*
X192871428Y-65501690D01*
X192871428Y-65501690D02*
X192909523Y-65539785D01*
X192909523Y-65539785D02*
X192947618Y-65615976D01*
X192947618Y-65615976D02*
X192947618Y-65692166D01*
X192947618Y-65692166D02*
X192909523Y-65806452D01*
X192909523Y-65806452D02*
X192452380Y-66263595D01*
X192452380Y-66263595D02*
X192947618Y-66263595D01*
X193671428Y-65463595D02*
X193290476Y-65463595D01*
X193290476Y-65463595D02*
X193252380Y-65844547D01*
X193252380Y-65844547D02*
X193290476Y-65806452D01*
X193290476Y-65806452D02*
X193366666Y-65768357D01*
X193366666Y-65768357D02*
X193557142Y-65768357D01*
X193557142Y-65768357D02*
X193633333Y-65806452D01*
X193633333Y-65806452D02*
X193671428Y-65844547D01*
X193671428Y-65844547D02*
X193709523Y-65920738D01*
X193709523Y-65920738D02*
X193709523Y-66111214D01*
X193709523Y-66111214D02*
X193671428Y-66187404D01*
X193671428Y-66187404D02*
X193633333Y-66225500D01*
X193633333Y-66225500D02*
X193557142Y-66263595D01*
X193557142Y-66263595D02*
X193366666Y-66263595D01*
X193366666Y-66263595D02*
X193290476Y-66225500D01*
X193290476Y-66225500D02*
X193252380Y-66187404D01*
D11*
X189686104Y-86114285D02*
X189724200Y-86152381D01*
X189724200Y-86152381D02*
X189762295Y-86266666D01*
X189762295Y-86266666D02*
X189762295Y-86342857D01*
X189762295Y-86342857D02*
X189724200Y-86457143D01*
X189724200Y-86457143D02*
X189648009Y-86533333D01*
X189648009Y-86533333D02*
X189571819Y-86571428D01*
X189571819Y-86571428D02*
X189419438Y-86609524D01*
X189419438Y-86609524D02*
X189305152Y-86609524D01*
X189305152Y-86609524D02*
X189152771Y-86571428D01*
X189152771Y-86571428D02*
X189076580Y-86533333D01*
X189076580Y-86533333D02*
X189000390Y-86457143D01*
X189000390Y-86457143D02*
X188962295Y-86342857D01*
X188962295Y-86342857D02*
X188962295Y-86266666D01*
X188962295Y-86266666D02*
X189000390Y-86152381D01*
X189000390Y-86152381D02*
X189038485Y-86114285D01*
X189762295Y-85352381D02*
X189762295Y-85809524D01*
X189762295Y-85580952D02*
X188962295Y-85580952D01*
X188962295Y-85580952D02*
X189076580Y-85657143D01*
X189076580Y-85657143D02*
X189152771Y-85733333D01*
X189152771Y-85733333D02*
X189190866Y-85809524D01*
X189228961Y-84666666D02*
X189762295Y-84666666D01*
X188924200Y-84857142D02*
X189495628Y-85047619D01*
X189495628Y-85047619D02*
X189495628Y-84552380D01*
X198223809Y-102938485D02*
X198147619Y-102900390D01*
X198147619Y-102900390D02*
X198071428Y-102824200D01*
X198071428Y-102824200D02*
X197957142Y-102709914D01*
X197957142Y-102709914D02*
X197880952Y-102671819D01*
X197880952Y-102671819D02*
X197804761Y-102671819D01*
X197842857Y-102862295D02*
X197766666Y-102824200D01*
X197766666Y-102824200D02*
X197690476Y-102748009D01*
X197690476Y-102748009D02*
X197652380Y-102595628D01*
X197652380Y-102595628D02*
X197652380Y-102328961D01*
X197652380Y-102328961D02*
X197690476Y-102176580D01*
X197690476Y-102176580D02*
X197766666Y-102100390D01*
X197766666Y-102100390D02*
X197842857Y-102062295D01*
X197842857Y-102062295D02*
X197995238Y-102062295D01*
X197995238Y-102062295D02*
X198071428Y-102100390D01*
X198071428Y-102100390D02*
X198147619Y-102176580D01*
X198147619Y-102176580D02*
X198185714Y-102328961D01*
X198185714Y-102328961D02*
X198185714Y-102595628D01*
X198185714Y-102595628D02*
X198147619Y-102748009D01*
X198147619Y-102748009D02*
X198071428Y-102824200D01*
X198071428Y-102824200D02*
X197995238Y-102862295D01*
X197995238Y-102862295D02*
X197842857Y-102862295D01*
X198452380Y-102062295D02*
X198947618Y-102062295D01*
X198947618Y-102062295D02*
X198680952Y-102367057D01*
X198680952Y-102367057D02*
X198795237Y-102367057D01*
X198795237Y-102367057D02*
X198871428Y-102405152D01*
X198871428Y-102405152D02*
X198909523Y-102443247D01*
X198909523Y-102443247D02*
X198947618Y-102519438D01*
X198947618Y-102519438D02*
X198947618Y-102709914D01*
X198947618Y-102709914D02*
X198909523Y-102786104D01*
X198909523Y-102786104D02*
X198871428Y-102824200D01*
X198871428Y-102824200D02*
X198795237Y-102862295D01*
X198795237Y-102862295D02*
X198566666Y-102862295D01*
X198566666Y-102862295D02*
X198490475Y-102824200D01*
X198490475Y-102824200D02*
X198452380Y-102786104D01*
X186390476Y-60962295D02*
X186390476Y-61609914D01*
X186390476Y-61609914D02*
X186428571Y-61686104D01*
X186428571Y-61686104D02*
X186466666Y-61724200D01*
X186466666Y-61724200D02*
X186542857Y-61762295D01*
X186542857Y-61762295D02*
X186695238Y-61762295D01*
X186695238Y-61762295D02*
X186771428Y-61724200D01*
X186771428Y-61724200D02*
X186809523Y-61686104D01*
X186809523Y-61686104D02*
X186847619Y-61609914D01*
X186847619Y-61609914D02*
X186847619Y-60962295D01*
X187190475Y-61038485D02*
X187228571Y-61000390D01*
X187228571Y-61000390D02*
X187304761Y-60962295D01*
X187304761Y-60962295D02*
X187495237Y-60962295D01*
X187495237Y-60962295D02*
X187571428Y-61000390D01*
X187571428Y-61000390D02*
X187609523Y-61038485D01*
X187609523Y-61038485D02*
X187647618Y-61114676D01*
X187647618Y-61114676D02*
X187647618Y-61190866D01*
X187647618Y-61190866D02*
X187609523Y-61305152D01*
X187609523Y-61305152D02*
X187152380Y-61762295D01*
X187152380Y-61762295D02*
X187647618Y-61762295D01*
X229490476Y-80462295D02*
X229490476Y-81109914D01*
X229490476Y-81109914D02*
X229528571Y-81186104D01*
X229528571Y-81186104D02*
X229566666Y-81224200D01*
X229566666Y-81224200D02*
X229642857Y-81262295D01*
X229642857Y-81262295D02*
X229795238Y-81262295D01*
X229795238Y-81262295D02*
X229871428Y-81224200D01*
X229871428Y-81224200D02*
X229909523Y-81186104D01*
X229909523Y-81186104D02*
X229947619Y-81109914D01*
X229947619Y-81109914D02*
X229947619Y-80462295D01*
X230252380Y-80462295D02*
X230747618Y-80462295D01*
X230747618Y-80462295D02*
X230480952Y-80767057D01*
X230480952Y-80767057D02*
X230595237Y-80767057D01*
X230595237Y-80767057D02*
X230671428Y-80805152D01*
X230671428Y-80805152D02*
X230709523Y-80843247D01*
X230709523Y-80843247D02*
X230747618Y-80919438D01*
X230747618Y-80919438D02*
X230747618Y-81109914D01*
X230747618Y-81109914D02*
X230709523Y-81186104D01*
X230709523Y-81186104D02*
X230671428Y-81224200D01*
X230671428Y-81224200D02*
X230595237Y-81262295D01*
X230595237Y-81262295D02*
X230366666Y-81262295D01*
X230366666Y-81262295D02*
X230290475Y-81224200D01*
X230290475Y-81224200D02*
X230252380Y-81186104D01*
X170412295Y-93676785D02*
X170031342Y-93943452D01*
X170412295Y-94133928D02*
X169612295Y-94133928D01*
X169612295Y-94133928D02*
X169612295Y-93829166D01*
X169612295Y-93829166D02*
X169650390Y-93752976D01*
X169650390Y-93752976D02*
X169688485Y-93714881D01*
X169688485Y-93714881D02*
X169764676Y-93676785D01*
X169764676Y-93676785D02*
X169878961Y-93676785D01*
X169878961Y-93676785D02*
X169955152Y-93714881D01*
X169955152Y-93714881D02*
X169993247Y-93752976D01*
X169993247Y-93752976D02*
X170031342Y-93829166D01*
X170031342Y-93829166D02*
X170031342Y-94133928D01*
X170412295Y-92914881D02*
X170412295Y-93372024D01*
X170412295Y-93143452D02*
X169612295Y-93143452D01*
X169612295Y-93143452D02*
X169726580Y-93219643D01*
X169726580Y-93219643D02*
X169802771Y-93295833D01*
X169802771Y-93295833D02*
X169840866Y-93372024D01*
X169878961Y-92229166D02*
X170412295Y-92229166D01*
X169574200Y-92419642D02*
X170145628Y-92610119D01*
X170145628Y-92610119D02*
X170145628Y-92114880D01*
X167748214Y-73012295D02*
X167481547Y-72631342D01*
X167291071Y-73012295D02*
X167291071Y-72212295D01*
X167291071Y-72212295D02*
X167595833Y-72212295D01*
X167595833Y-72212295D02*
X167672023Y-72250390D01*
X167672023Y-72250390D02*
X167710118Y-72288485D01*
X167710118Y-72288485D02*
X167748214Y-72364676D01*
X167748214Y-72364676D02*
X167748214Y-72478961D01*
X167748214Y-72478961D02*
X167710118Y-72555152D01*
X167710118Y-72555152D02*
X167672023Y-72593247D01*
X167672023Y-72593247D02*
X167595833Y-72631342D01*
X167595833Y-72631342D02*
X167291071Y-72631342D01*
X168052975Y-72288485D02*
X168091071Y-72250390D01*
X168091071Y-72250390D02*
X168167261Y-72212295D01*
X168167261Y-72212295D02*
X168357737Y-72212295D01*
X168357737Y-72212295D02*
X168433928Y-72250390D01*
X168433928Y-72250390D02*
X168472023Y-72288485D01*
X168472023Y-72288485D02*
X168510118Y-72364676D01*
X168510118Y-72364676D02*
X168510118Y-72440866D01*
X168510118Y-72440866D02*
X168472023Y-72555152D01*
X168472023Y-72555152D02*
X168014880Y-73012295D01*
X168014880Y-73012295D02*
X168510118Y-73012295D01*
X168891071Y-73012295D02*
X169043452Y-73012295D01*
X169043452Y-73012295D02*
X169119642Y-72974200D01*
X169119642Y-72974200D02*
X169157738Y-72936104D01*
X169157738Y-72936104D02*
X169233928Y-72821819D01*
X169233928Y-72821819D02*
X169272023Y-72669438D01*
X169272023Y-72669438D02*
X169272023Y-72364676D01*
X169272023Y-72364676D02*
X169233928Y-72288485D01*
X169233928Y-72288485D02*
X169195833Y-72250390D01*
X169195833Y-72250390D02*
X169119642Y-72212295D01*
X169119642Y-72212295D02*
X168967261Y-72212295D01*
X168967261Y-72212295D02*
X168891071Y-72250390D01*
X168891071Y-72250390D02*
X168852976Y-72288485D01*
X168852976Y-72288485D02*
X168814880Y-72364676D01*
X168814880Y-72364676D02*
X168814880Y-72555152D01*
X168814880Y-72555152D02*
X168852976Y-72631342D01*
X168852976Y-72631342D02*
X168891071Y-72669438D01*
X168891071Y-72669438D02*
X168967261Y-72707533D01*
X168967261Y-72707533D02*
X169119642Y-72707533D01*
X169119642Y-72707533D02*
X169195833Y-72669438D01*
X169195833Y-72669438D02*
X169233928Y-72631342D01*
X169233928Y-72631342D02*
X169272023Y-72555152D01*
X184762295Y-108514285D02*
X184381342Y-108780952D01*
X184762295Y-108971428D02*
X183962295Y-108971428D01*
X183962295Y-108971428D02*
X183962295Y-108666666D01*
X183962295Y-108666666D02*
X184000390Y-108590476D01*
X184000390Y-108590476D02*
X184038485Y-108552381D01*
X184038485Y-108552381D02*
X184114676Y-108514285D01*
X184114676Y-108514285D02*
X184228961Y-108514285D01*
X184228961Y-108514285D02*
X184305152Y-108552381D01*
X184305152Y-108552381D02*
X184343247Y-108590476D01*
X184343247Y-108590476D02*
X184381342Y-108666666D01*
X184381342Y-108666666D02*
X184381342Y-108971428D01*
X183962295Y-108247619D02*
X183962295Y-107752381D01*
X183962295Y-107752381D02*
X184267057Y-108019047D01*
X184267057Y-108019047D02*
X184267057Y-107904762D01*
X184267057Y-107904762D02*
X184305152Y-107828571D01*
X184305152Y-107828571D02*
X184343247Y-107790476D01*
X184343247Y-107790476D02*
X184419438Y-107752381D01*
X184419438Y-107752381D02*
X184609914Y-107752381D01*
X184609914Y-107752381D02*
X184686104Y-107790476D01*
X184686104Y-107790476D02*
X184724200Y-107828571D01*
X184724200Y-107828571D02*
X184762295Y-107904762D01*
X184762295Y-107904762D02*
X184762295Y-108133333D01*
X184762295Y-108133333D02*
X184724200Y-108209524D01*
X184724200Y-108209524D02*
X184686104Y-108247619D01*
X184038485Y-107447619D02*
X184000390Y-107409523D01*
X184000390Y-107409523D02*
X183962295Y-107333333D01*
X183962295Y-107333333D02*
X183962295Y-107142857D01*
X183962295Y-107142857D02*
X184000390Y-107066666D01*
X184000390Y-107066666D02*
X184038485Y-107028571D01*
X184038485Y-107028571D02*
X184114676Y-106990476D01*
X184114676Y-106990476D02*
X184190866Y-106990476D01*
X184190866Y-106990476D02*
X184305152Y-107028571D01*
X184305152Y-107028571D02*
X184762295Y-107485714D01*
X184762295Y-107485714D02*
X184762295Y-106990476D01*
X167685714Y-75262295D02*
X167419047Y-74881342D01*
X167228571Y-75262295D02*
X167228571Y-74462295D01*
X167228571Y-74462295D02*
X167533333Y-74462295D01*
X167533333Y-74462295D02*
X167609523Y-74500390D01*
X167609523Y-74500390D02*
X167647618Y-74538485D01*
X167647618Y-74538485D02*
X167685714Y-74614676D01*
X167685714Y-74614676D02*
X167685714Y-74728961D01*
X167685714Y-74728961D02*
X167647618Y-74805152D01*
X167647618Y-74805152D02*
X167609523Y-74843247D01*
X167609523Y-74843247D02*
X167533333Y-74881342D01*
X167533333Y-74881342D02*
X167228571Y-74881342D01*
X167990475Y-74538485D02*
X168028571Y-74500390D01*
X168028571Y-74500390D02*
X168104761Y-74462295D01*
X168104761Y-74462295D02*
X168295237Y-74462295D01*
X168295237Y-74462295D02*
X168371428Y-74500390D01*
X168371428Y-74500390D02*
X168409523Y-74538485D01*
X168409523Y-74538485D02*
X168447618Y-74614676D01*
X168447618Y-74614676D02*
X168447618Y-74690866D01*
X168447618Y-74690866D02*
X168409523Y-74805152D01*
X168409523Y-74805152D02*
X167952380Y-75262295D01*
X167952380Y-75262295D02*
X168447618Y-75262295D01*
X168714285Y-74462295D02*
X169247619Y-74462295D01*
X169247619Y-74462295D02*
X168904761Y-75262295D01*
X164104167Y-113086104D02*
X164066071Y-113124200D01*
X164066071Y-113124200D02*
X163951786Y-113162295D01*
X163951786Y-113162295D02*
X163875595Y-113162295D01*
X163875595Y-113162295D02*
X163761309Y-113124200D01*
X163761309Y-113124200D02*
X163685119Y-113048009D01*
X163685119Y-113048009D02*
X163647024Y-112971819D01*
X163647024Y-112971819D02*
X163608928Y-112819438D01*
X163608928Y-112819438D02*
X163608928Y-112705152D01*
X163608928Y-112705152D02*
X163647024Y-112552771D01*
X163647024Y-112552771D02*
X163685119Y-112476580D01*
X163685119Y-112476580D02*
X163761309Y-112400390D01*
X163761309Y-112400390D02*
X163875595Y-112362295D01*
X163875595Y-112362295D02*
X163951786Y-112362295D01*
X163951786Y-112362295D02*
X164066071Y-112400390D01*
X164066071Y-112400390D02*
X164104167Y-112438485D01*
X164789881Y-112362295D02*
X164637500Y-112362295D01*
X164637500Y-112362295D02*
X164561309Y-112400390D01*
X164561309Y-112400390D02*
X164523214Y-112438485D01*
X164523214Y-112438485D02*
X164447024Y-112552771D01*
X164447024Y-112552771D02*
X164408928Y-112705152D01*
X164408928Y-112705152D02*
X164408928Y-113009914D01*
X164408928Y-113009914D02*
X164447024Y-113086104D01*
X164447024Y-113086104D02*
X164485119Y-113124200D01*
X164485119Y-113124200D02*
X164561309Y-113162295D01*
X164561309Y-113162295D02*
X164713690Y-113162295D01*
X164713690Y-113162295D02*
X164789881Y-113124200D01*
X164789881Y-113124200D02*
X164827976Y-113086104D01*
X164827976Y-113086104D02*
X164866071Y-113009914D01*
X164866071Y-113009914D02*
X164866071Y-112819438D01*
X164866071Y-112819438D02*
X164827976Y-112743247D01*
X164827976Y-112743247D02*
X164789881Y-112705152D01*
X164789881Y-112705152D02*
X164713690Y-112667057D01*
X164713690Y-112667057D02*
X164561309Y-112667057D01*
X164561309Y-112667057D02*
X164485119Y-112705152D01*
X164485119Y-112705152D02*
X164447024Y-112743247D01*
X164447024Y-112743247D02*
X164408928Y-112819438D01*
X209666667Y-70786104D02*
X209628571Y-70824200D01*
X209628571Y-70824200D02*
X209514286Y-70862295D01*
X209514286Y-70862295D02*
X209438095Y-70862295D01*
X209438095Y-70862295D02*
X209323809Y-70824200D01*
X209323809Y-70824200D02*
X209247619Y-70748009D01*
X209247619Y-70748009D02*
X209209524Y-70671819D01*
X209209524Y-70671819D02*
X209171428Y-70519438D01*
X209171428Y-70519438D02*
X209171428Y-70405152D01*
X209171428Y-70405152D02*
X209209524Y-70252771D01*
X209209524Y-70252771D02*
X209247619Y-70176580D01*
X209247619Y-70176580D02*
X209323809Y-70100390D01*
X209323809Y-70100390D02*
X209438095Y-70062295D01*
X209438095Y-70062295D02*
X209514286Y-70062295D01*
X209514286Y-70062295D02*
X209628571Y-70100390D01*
X209628571Y-70100390D02*
X209666667Y-70138485D01*
X210123809Y-70405152D02*
X210047619Y-70367057D01*
X210047619Y-70367057D02*
X210009524Y-70328961D01*
X210009524Y-70328961D02*
X209971428Y-70252771D01*
X209971428Y-70252771D02*
X209971428Y-70214676D01*
X209971428Y-70214676D02*
X210009524Y-70138485D01*
X210009524Y-70138485D02*
X210047619Y-70100390D01*
X210047619Y-70100390D02*
X210123809Y-70062295D01*
X210123809Y-70062295D02*
X210276190Y-70062295D01*
X210276190Y-70062295D02*
X210352381Y-70100390D01*
X210352381Y-70100390D02*
X210390476Y-70138485D01*
X210390476Y-70138485D02*
X210428571Y-70214676D01*
X210428571Y-70214676D02*
X210428571Y-70252771D01*
X210428571Y-70252771D02*
X210390476Y-70328961D01*
X210390476Y-70328961D02*
X210352381Y-70367057D01*
X210352381Y-70367057D02*
X210276190Y-70405152D01*
X210276190Y-70405152D02*
X210123809Y-70405152D01*
X210123809Y-70405152D02*
X210047619Y-70443247D01*
X210047619Y-70443247D02*
X210009524Y-70481342D01*
X210009524Y-70481342D02*
X209971428Y-70557533D01*
X209971428Y-70557533D02*
X209971428Y-70709914D01*
X209971428Y-70709914D02*
X210009524Y-70786104D01*
X210009524Y-70786104D02*
X210047619Y-70824200D01*
X210047619Y-70824200D02*
X210123809Y-70862295D01*
X210123809Y-70862295D02*
X210276190Y-70862295D01*
X210276190Y-70862295D02*
X210352381Y-70824200D01*
X210352381Y-70824200D02*
X210390476Y-70786104D01*
X210390476Y-70786104D02*
X210428571Y-70709914D01*
X210428571Y-70709914D02*
X210428571Y-70557533D01*
X210428571Y-70557533D02*
X210390476Y-70481342D01*
X210390476Y-70481342D02*
X210352381Y-70443247D01*
X210352381Y-70443247D02*
X210276190Y-70405152D01*
X198085714Y-109098604D02*
X198047618Y-109136700D01*
X198047618Y-109136700D02*
X197933333Y-109174795D01*
X197933333Y-109174795D02*
X197857142Y-109174795D01*
X197857142Y-109174795D02*
X197742856Y-109136700D01*
X197742856Y-109136700D02*
X197666666Y-109060509D01*
X197666666Y-109060509D02*
X197628571Y-108984319D01*
X197628571Y-108984319D02*
X197590475Y-108831938D01*
X197590475Y-108831938D02*
X197590475Y-108717652D01*
X197590475Y-108717652D02*
X197628571Y-108565271D01*
X197628571Y-108565271D02*
X197666666Y-108489080D01*
X197666666Y-108489080D02*
X197742856Y-108412890D01*
X197742856Y-108412890D02*
X197857142Y-108374795D01*
X197857142Y-108374795D02*
X197933333Y-108374795D01*
X197933333Y-108374795D02*
X198047618Y-108412890D01*
X198047618Y-108412890D02*
X198085714Y-108450985D01*
X198390475Y-108450985D02*
X198428571Y-108412890D01*
X198428571Y-108412890D02*
X198504761Y-108374795D01*
X198504761Y-108374795D02*
X198695237Y-108374795D01*
X198695237Y-108374795D02*
X198771428Y-108412890D01*
X198771428Y-108412890D02*
X198809523Y-108450985D01*
X198809523Y-108450985D02*
X198847618Y-108527176D01*
X198847618Y-108527176D02*
X198847618Y-108603366D01*
X198847618Y-108603366D02*
X198809523Y-108717652D01*
X198809523Y-108717652D02*
X198352380Y-109174795D01*
X198352380Y-109174795D02*
X198847618Y-109174795D01*
X199609523Y-109174795D02*
X199152380Y-109174795D01*
X199380952Y-109174795D02*
X199380952Y-108374795D01*
X199380952Y-108374795D02*
X199304761Y-108489080D01*
X199304761Y-108489080D02*
X199228571Y-108565271D01*
X199228571Y-108565271D02*
X199152380Y-108603366D01*
X152562295Y-102133332D02*
X152181342Y-102399999D01*
X152562295Y-102590475D02*
X151762295Y-102590475D01*
X151762295Y-102590475D02*
X151762295Y-102285713D01*
X151762295Y-102285713D02*
X151800390Y-102209523D01*
X151800390Y-102209523D02*
X151838485Y-102171428D01*
X151838485Y-102171428D02*
X151914676Y-102133332D01*
X151914676Y-102133332D02*
X152028961Y-102133332D01*
X152028961Y-102133332D02*
X152105152Y-102171428D01*
X152105152Y-102171428D02*
X152143247Y-102209523D01*
X152143247Y-102209523D02*
X152181342Y-102285713D01*
X152181342Y-102285713D02*
X152181342Y-102590475D01*
X152105152Y-101676190D02*
X152067057Y-101752380D01*
X152067057Y-101752380D02*
X152028961Y-101790475D01*
X152028961Y-101790475D02*
X151952771Y-101828571D01*
X151952771Y-101828571D02*
X151914676Y-101828571D01*
X151914676Y-101828571D02*
X151838485Y-101790475D01*
X151838485Y-101790475D02*
X151800390Y-101752380D01*
X151800390Y-101752380D02*
X151762295Y-101676190D01*
X151762295Y-101676190D02*
X151762295Y-101523809D01*
X151762295Y-101523809D02*
X151800390Y-101447618D01*
X151800390Y-101447618D02*
X151838485Y-101409523D01*
X151838485Y-101409523D02*
X151914676Y-101371428D01*
X151914676Y-101371428D02*
X151952771Y-101371428D01*
X151952771Y-101371428D02*
X152028961Y-101409523D01*
X152028961Y-101409523D02*
X152067057Y-101447618D01*
X152067057Y-101447618D02*
X152105152Y-101523809D01*
X152105152Y-101523809D02*
X152105152Y-101676190D01*
X152105152Y-101676190D02*
X152143247Y-101752380D01*
X152143247Y-101752380D02*
X152181342Y-101790475D01*
X152181342Y-101790475D02*
X152257533Y-101828571D01*
X152257533Y-101828571D02*
X152409914Y-101828571D01*
X152409914Y-101828571D02*
X152486104Y-101790475D01*
X152486104Y-101790475D02*
X152524200Y-101752380D01*
X152524200Y-101752380D02*
X152562295Y-101676190D01*
X152562295Y-101676190D02*
X152562295Y-101523809D01*
X152562295Y-101523809D02*
X152524200Y-101447618D01*
X152524200Y-101447618D02*
X152486104Y-101409523D01*
X152486104Y-101409523D02*
X152409914Y-101371428D01*
X152409914Y-101371428D02*
X152257533Y-101371428D01*
X152257533Y-101371428D02*
X152181342Y-101409523D01*
X152181342Y-101409523D02*
X152143247Y-101447618D01*
X152143247Y-101447618D02*
X152105152Y-101523809D01*
X169212295Y-111133332D02*
X168831342Y-111399999D01*
X169212295Y-111590475D02*
X168412295Y-111590475D01*
X168412295Y-111590475D02*
X168412295Y-111285713D01*
X168412295Y-111285713D02*
X168450390Y-111209523D01*
X168450390Y-111209523D02*
X168488485Y-111171428D01*
X168488485Y-111171428D02*
X168564676Y-111133332D01*
X168564676Y-111133332D02*
X168678961Y-111133332D01*
X168678961Y-111133332D02*
X168755152Y-111171428D01*
X168755152Y-111171428D02*
X168793247Y-111209523D01*
X168793247Y-111209523D02*
X168831342Y-111285713D01*
X168831342Y-111285713D02*
X168831342Y-111590475D01*
X168412295Y-110866666D02*
X168412295Y-110371428D01*
X168412295Y-110371428D02*
X168717057Y-110638094D01*
X168717057Y-110638094D02*
X168717057Y-110523809D01*
X168717057Y-110523809D02*
X168755152Y-110447618D01*
X168755152Y-110447618D02*
X168793247Y-110409523D01*
X168793247Y-110409523D02*
X168869438Y-110371428D01*
X168869438Y-110371428D02*
X169059914Y-110371428D01*
X169059914Y-110371428D02*
X169136104Y-110409523D01*
X169136104Y-110409523D02*
X169174200Y-110447618D01*
X169174200Y-110447618D02*
X169212295Y-110523809D01*
X169212295Y-110523809D02*
X169212295Y-110752380D01*
X169212295Y-110752380D02*
X169174200Y-110828571D01*
X169174200Y-110828571D02*
X169136104Y-110866666D01*
X163266667Y-88536104D02*
X163228571Y-88574200D01*
X163228571Y-88574200D02*
X163114286Y-88612295D01*
X163114286Y-88612295D02*
X163038095Y-88612295D01*
X163038095Y-88612295D02*
X162923809Y-88574200D01*
X162923809Y-88574200D02*
X162847619Y-88498009D01*
X162847619Y-88498009D02*
X162809524Y-88421819D01*
X162809524Y-88421819D02*
X162771428Y-88269438D01*
X162771428Y-88269438D02*
X162771428Y-88155152D01*
X162771428Y-88155152D02*
X162809524Y-88002771D01*
X162809524Y-88002771D02*
X162847619Y-87926580D01*
X162847619Y-87926580D02*
X162923809Y-87850390D01*
X162923809Y-87850390D02*
X163038095Y-87812295D01*
X163038095Y-87812295D02*
X163114286Y-87812295D01*
X163114286Y-87812295D02*
X163228571Y-87850390D01*
X163228571Y-87850390D02*
X163266667Y-87888485D01*
X163533333Y-87812295D02*
X164028571Y-87812295D01*
X164028571Y-87812295D02*
X163761905Y-88117057D01*
X163761905Y-88117057D02*
X163876190Y-88117057D01*
X163876190Y-88117057D02*
X163952381Y-88155152D01*
X163952381Y-88155152D02*
X163990476Y-88193247D01*
X163990476Y-88193247D02*
X164028571Y-88269438D01*
X164028571Y-88269438D02*
X164028571Y-88459914D01*
X164028571Y-88459914D02*
X163990476Y-88536104D01*
X163990476Y-88536104D02*
X163952381Y-88574200D01*
X163952381Y-88574200D02*
X163876190Y-88612295D01*
X163876190Y-88612295D02*
X163647619Y-88612295D01*
X163647619Y-88612295D02*
X163571428Y-88574200D01*
X163571428Y-88574200D02*
X163533333Y-88536104D01*
X191486104Y-91814285D02*
X191524200Y-91852381D01*
X191524200Y-91852381D02*
X191562295Y-91966666D01*
X191562295Y-91966666D02*
X191562295Y-92042857D01*
X191562295Y-92042857D02*
X191524200Y-92157143D01*
X191524200Y-92157143D02*
X191448009Y-92233333D01*
X191448009Y-92233333D02*
X191371819Y-92271428D01*
X191371819Y-92271428D02*
X191219438Y-92309524D01*
X191219438Y-92309524D02*
X191105152Y-92309524D01*
X191105152Y-92309524D02*
X190952771Y-92271428D01*
X190952771Y-92271428D02*
X190876580Y-92233333D01*
X190876580Y-92233333D02*
X190800390Y-92157143D01*
X190800390Y-92157143D02*
X190762295Y-92042857D01*
X190762295Y-92042857D02*
X190762295Y-91966666D01*
X190762295Y-91966666D02*
X190800390Y-91852381D01*
X190800390Y-91852381D02*
X190838485Y-91814285D01*
X191562295Y-91052381D02*
X191562295Y-91509524D01*
X191562295Y-91280952D02*
X190762295Y-91280952D01*
X190762295Y-91280952D02*
X190876580Y-91357143D01*
X190876580Y-91357143D02*
X190952771Y-91433333D01*
X190952771Y-91433333D02*
X190990866Y-91509524D01*
X191562295Y-90290476D02*
X191562295Y-90747619D01*
X191562295Y-90519047D02*
X190762295Y-90519047D01*
X190762295Y-90519047D02*
X190876580Y-90595238D01*
X190876580Y-90595238D02*
X190952771Y-90671428D01*
X190952771Y-90671428D02*
X190990866Y-90747619D01*
X201490476Y-76514295D02*
X201947619Y-76514295D01*
X201719047Y-77314295D02*
X201719047Y-76514295D01*
X202214286Y-77314295D02*
X202214286Y-76514295D01*
X202214286Y-76514295D02*
X202519048Y-76514295D01*
X202519048Y-76514295D02*
X202595238Y-76552390D01*
X202595238Y-76552390D02*
X202633333Y-76590485D01*
X202633333Y-76590485D02*
X202671429Y-76666676D01*
X202671429Y-76666676D02*
X202671429Y-76780961D01*
X202671429Y-76780961D02*
X202633333Y-76857152D01*
X202633333Y-76857152D02*
X202595238Y-76895247D01*
X202595238Y-76895247D02*
X202519048Y-76933342D01*
X202519048Y-76933342D02*
X202214286Y-76933342D01*
X202938095Y-76514295D02*
X203433333Y-76514295D01*
X203433333Y-76514295D02*
X203166667Y-76819057D01*
X203166667Y-76819057D02*
X203280952Y-76819057D01*
X203280952Y-76819057D02*
X203357143Y-76857152D01*
X203357143Y-76857152D02*
X203395238Y-76895247D01*
X203395238Y-76895247D02*
X203433333Y-76971438D01*
X203433333Y-76971438D02*
X203433333Y-77161914D01*
X203433333Y-77161914D02*
X203395238Y-77238104D01*
X203395238Y-77238104D02*
X203357143Y-77276200D01*
X203357143Y-77276200D02*
X203280952Y-77314295D01*
X203280952Y-77314295D02*
X203052381Y-77314295D01*
X203052381Y-77314295D02*
X202976190Y-77276200D01*
X202976190Y-77276200D02*
X202938095Y-77238104D01*
X186485714Y-68486104D02*
X186447618Y-68524200D01*
X186447618Y-68524200D02*
X186333333Y-68562295D01*
X186333333Y-68562295D02*
X186257142Y-68562295D01*
X186257142Y-68562295D02*
X186142856Y-68524200D01*
X186142856Y-68524200D02*
X186066666Y-68448009D01*
X186066666Y-68448009D02*
X186028571Y-68371819D01*
X186028571Y-68371819D02*
X185990475Y-68219438D01*
X185990475Y-68219438D02*
X185990475Y-68105152D01*
X185990475Y-68105152D02*
X186028571Y-67952771D01*
X186028571Y-67952771D02*
X186066666Y-67876580D01*
X186066666Y-67876580D02*
X186142856Y-67800390D01*
X186142856Y-67800390D02*
X186257142Y-67762295D01*
X186257142Y-67762295D02*
X186333333Y-67762295D01*
X186333333Y-67762295D02*
X186447618Y-67800390D01*
X186447618Y-67800390D02*
X186485714Y-67838485D01*
X187247618Y-68562295D02*
X186790475Y-68562295D01*
X187019047Y-68562295D02*
X187019047Y-67762295D01*
X187019047Y-67762295D02*
X186942856Y-67876580D01*
X186942856Y-67876580D02*
X186866666Y-67952771D01*
X186866666Y-67952771D02*
X186790475Y-67990866D01*
X187971428Y-67762295D02*
X187590476Y-67762295D01*
X187590476Y-67762295D02*
X187552380Y-68143247D01*
X187552380Y-68143247D02*
X187590476Y-68105152D01*
X187590476Y-68105152D02*
X187666666Y-68067057D01*
X187666666Y-68067057D02*
X187857142Y-68067057D01*
X187857142Y-68067057D02*
X187933333Y-68105152D01*
X187933333Y-68105152D02*
X187971428Y-68143247D01*
X187971428Y-68143247D02*
X188009523Y-68219438D01*
X188009523Y-68219438D02*
X188009523Y-68409914D01*
X188009523Y-68409914D02*
X187971428Y-68486104D01*
X187971428Y-68486104D02*
X187933333Y-68524200D01*
X187933333Y-68524200D02*
X187857142Y-68562295D01*
X187857142Y-68562295D02*
X187666666Y-68562295D01*
X187666666Y-68562295D02*
X187590476Y-68524200D01*
X187590476Y-68524200D02*
X187552380Y-68486104D01*
X194740476Y-90762295D02*
X195197619Y-90762295D01*
X194969047Y-91562295D02*
X194969047Y-90762295D01*
X195464286Y-91562295D02*
X195464286Y-90762295D01*
X195464286Y-90762295D02*
X195769048Y-90762295D01*
X195769048Y-90762295D02*
X195845238Y-90800390D01*
X195845238Y-90800390D02*
X195883333Y-90838485D01*
X195883333Y-90838485D02*
X195921429Y-90914676D01*
X195921429Y-90914676D02*
X195921429Y-91028961D01*
X195921429Y-91028961D02*
X195883333Y-91105152D01*
X195883333Y-91105152D02*
X195845238Y-91143247D01*
X195845238Y-91143247D02*
X195769048Y-91181342D01*
X195769048Y-91181342D02*
X195464286Y-91181342D01*
X196226190Y-90838485D02*
X196264286Y-90800390D01*
X196264286Y-90800390D02*
X196340476Y-90762295D01*
X196340476Y-90762295D02*
X196530952Y-90762295D01*
X196530952Y-90762295D02*
X196607143Y-90800390D01*
X196607143Y-90800390D02*
X196645238Y-90838485D01*
X196645238Y-90838485D02*
X196683333Y-90914676D01*
X196683333Y-90914676D02*
X196683333Y-90990866D01*
X196683333Y-90990866D02*
X196645238Y-91105152D01*
X196645238Y-91105152D02*
X196188095Y-91562295D01*
X196188095Y-91562295D02*
X196683333Y-91562295D01*
X196690476Y-77262295D02*
X196690476Y-77909914D01*
X196690476Y-77909914D02*
X196728571Y-77986104D01*
X196728571Y-77986104D02*
X196766666Y-78024200D01*
X196766666Y-78024200D02*
X196842857Y-78062295D01*
X196842857Y-78062295D02*
X196995238Y-78062295D01*
X196995238Y-78062295D02*
X197071428Y-78024200D01*
X197071428Y-78024200D02*
X197109523Y-77986104D01*
X197109523Y-77986104D02*
X197147619Y-77909914D01*
X197147619Y-77909914D02*
X197147619Y-77262295D01*
X197871428Y-77262295D02*
X197719047Y-77262295D01*
X197719047Y-77262295D02*
X197642856Y-77300390D01*
X197642856Y-77300390D02*
X197604761Y-77338485D01*
X197604761Y-77338485D02*
X197528571Y-77452771D01*
X197528571Y-77452771D02*
X197490475Y-77605152D01*
X197490475Y-77605152D02*
X197490475Y-77909914D01*
X197490475Y-77909914D02*
X197528571Y-77986104D01*
X197528571Y-77986104D02*
X197566666Y-78024200D01*
X197566666Y-78024200D02*
X197642856Y-78062295D01*
X197642856Y-78062295D02*
X197795237Y-78062295D01*
X197795237Y-78062295D02*
X197871428Y-78024200D01*
X197871428Y-78024200D02*
X197909523Y-77986104D01*
X197909523Y-77986104D02*
X197947618Y-77909914D01*
X197947618Y-77909914D02*
X197947618Y-77719438D01*
X197947618Y-77719438D02*
X197909523Y-77643247D01*
X197909523Y-77643247D02*
X197871428Y-77605152D01*
X197871428Y-77605152D02*
X197795237Y-77567057D01*
X197795237Y-77567057D02*
X197642856Y-77567057D01*
X197642856Y-77567057D02*
X197566666Y-77605152D01*
X197566666Y-77605152D02*
X197528571Y-77643247D01*
X197528571Y-77643247D02*
X197490475Y-77719438D01*
X160685714Y-74086104D02*
X160647618Y-74124200D01*
X160647618Y-74124200D02*
X160533333Y-74162295D01*
X160533333Y-74162295D02*
X160457142Y-74162295D01*
X160457142Y-74162295D02*
X160342856Y-74124200D01*
X160342856Y-74124200D02*
X160266666Y-74048009D01*
X160266666Y-74048009D02*
X160228571Y-73971819D01*
X160228571Y-73971819D02*
X160190475Y-73819438D01*
X160190475Y-73819438D02*
X160190475Y-73705152D01*
X160190475Y-73705152D02*
X160228571Y-73552771D01*
X160228571Y-73552771D02*
X160266666Y-73476580D01*
X160266666Y-73476580D02*
X160342856Y-73400390D01*
X160342856Y-73400390D02*
X160457142Y-73362295D01*
X160457142Y-73362295D02*
X160533333Y-73362295D01*
X160533333Y-73362295D02*
X160647618Y-73400390D01*
X160647618Y-73400390D02*
X160685714Y-73438485D01*
X161447618Y-74162295D02*
X160990475Y-74162295D01*
X161219047Y-74162295D02*
X161219047Y-73362295D01*
X161219047Y-73362295D02*
X161142856Y-73476580D01*
X161142856Y-73476580D02*
X161066666Y-73552771D01*
X161066666Y-73552771D02*
X160990475Y-73590866D01*
X161714285Y-73362295D02*
X162247619Y-73362295D01*
X162247619Y-73362295D02*
X161904761Y-74162295D01*
X182448604Y-74814285D02*
X182486700Y-74852381D01*
X182486700Y-74852381D02*
X182524795Y-74966666D01*
X182524795Y-74966666D02*
X182524795Y-75042857D01*
X182524795Y-75042857D02*
X182486700Y-75157143D01*
X182486700Y-75157143D02*
X182410509Y-75233333D01*
X182410509Y-75233333D02*
X182334319Y-75271428D01*
X182334319Y-75271428D02*
X182181938Y-75309524D01*
X182181938Y-75309524D02*
X182067652Y-75309524D01*
X182067652Y-75309524D02*
X181915271Y-75271428D01*
X181915271Y-75271428D02*
X181839080Y-75233333D01*
X181839080Y-75233333D02*
X181762890Y-75157143D01*
X181762890Y-75157143D02*
X181724795Y-75042857D01*
X181724795Y-75042857D02*
X181724795Y-74966666D01*
X181724795Y-74966666D02*
X181762890Y-74852381D01*
X181762890Y-74852381D02*
X181800985Y-74814285D01*
X181800985Y-74509524D02*
X181762890Y-74471428D01*
X181762890Y-74471428D02*
X181724795Y-74395238D01*
X181724795Y-74395238D02*
X181724795Y-74204762D01*
X181724795Y-74204762D02*
X181762890Y-74128571D01*
X181762890Y-74128571D02*
X181800985Y-74090476D01*
X181800985Y-74090476D02*
X181877176Y-74052381D01*
X181877176Y-74052381D02*
X181953366Y-74052381D01*
X181953366Y-74052381D02*
X182067652Y-74090476D01*
X182067652Y-74090476D02*
X182524795Y-74547619D01*
X182524795Y-74547619D02*
X182524795Y-74052381D01*
X181724795Y-73557142D02*
X181724795Y-73480952D01*
X181724795Y-73480952D02*
X181762890Y-73404761D01*
X181762890Y-73404761D02*
X181800985Y-73366666D01*
X181800985Y-73366666D02*
X181877176Y-73328571D01*
X181877176Y-73328571D02*
X182029557Y-73290476D01*
X182029557Y-73290476D02*
X182220033Y-73290476D01*
X182220033Y-73290476D02*
X182372414Y-73328571D01*
X182372414Y-73328571D02*
X182448604Y-73366666D01*
X182448604Y-73366666D02*
X182486700Y-73404761D01*
X182486700Y-73404761D02*
X182524795Y-73480952D01*
X182524795Y-73480952D02*
X182524795Y-73557142D01*
X182524795Y-73557142D02*
X182486700Y-73633333D01*
X182486700Y-73633333D02*
X182448604Y-73671428D01*
X182448604Y-73671428D02*
X182372414Y-73709523D01*
X182372414Y-73709523D02*
X182220033Y-73747619D01*
X182220033Y-73747619D02*
X182029557Y-73747619D01*
X182029557Y-73747619D02*
X181877176Y-73709523D01*
X181877176Y-73709523D02*
X181800985Y-73671428D01*
X181800985Y-73671428D02*
X181762890Y-73633333D01*
X181762890Y-73633333D02*
X181724795Y-73557142D01*
X162216667Y-92086104D02*
X162178571Y-92124200D01*
X162178571Y-92124200D02*
X162064286Y-92162295D01*
X162064286Y-92162295D02*
X161988095Y-92162295D01*
X161988095Y-92162295D02*
X161873809Y-92124200D01*
X161873809Y-92124200D02*
X161797619Y-92048009D01*
X161797619Y-92048009D02*
X161759524Y-91971819D01*
X161759524Y-91971819D02*
X161721428Y-91819438D01*
X161721428Y-91819438D02*
X161721428Y-91705152D01*
X161721428Y-91705152D02*
X161759524Y-91552771D01*
X161759524Y-91552771D02*
X161797619Y-91476580D01*
X161797619Y-91476580D02*
X161873809Y-91400390D01*
X161873809Y-91400390D02*
X161988095Y-91362295D01*
X161988095Y-91362295D02*
X162064286Y-91362295D01*
X162064286Y-91362295D02*
X162178571Y-91400390D01*
X162178571Y-91400390D02*
X162216667Y-91438485D01*
X162521428Y-91438485D02*
X162559524Y-91400390D01*
X162559524Y-91400390D02*
X162635714Y-91362295D01*
X162635714Y-91362295D02*
X162826190Y-91362295D01*
X162826190Y-91362295D02*
X162902381Y-91400390D01*
X162902381Y-91400390D02*
X162940476Y-91438485D01*
X162940476Y-91438485D02*
X162978571Y-91514676D01*
X162978571Y-91514676D02*
X162978571Y-91590866D01*
X162978571Y-91590866D02*
X162940476Y-91705152D01*
X162940476Y-91705152D02*
X162483333Y-92162295D01*
X162483333Y-92162295D02*
X162978571Y-92162295D01*
X208185714Y-78562295D02*
X207919047Y-78181342D01*
X207728571Y-78562295D02*
X207728571Y-77762295D01*
X207728571Y-77762295D02*
X208033333Y-77762295D01*
X208033333Y-77762295D02*
X208109523Y-77800390D01*
X208109523Y-77800390D02*
X208147618Y-77838485D01*
X208147618Y-77838485D02*
X208185714Y-77914676D01*
X208185714Y-77914676D02*
X208185714Y-78028961D01*
X208185714Y-78028961D02*
X208147618Y-78105152D01*
X208147618Y-78105152D02*
X208109523Y-78143247D01*
X208109523Y-78143247D02*
X208033333Y-78181342D01*
X208033333Y-78181342D02*
X207728571Y-78181342D01*
X208947618Y-78562295D02*
X208490475Y-78562295D01*
X208719047Y-78562295D02*
X208719047Y-77762295D01*
X208719047Y-77762295D02*
X208642856Y-77876580D01*
X208642856Y-77876580D02*
X208566666Y-77952771D01*
X208566666Y-77952771D02*
X208490475Y-77990866D01*
X209671428Y-77762295D02*
X209290476Y-77762295D01*
X209290476Y-77762295D02*
X209252380Y-78143247D01*
X209252380Y-78143247D02*
X209290476Y-78105152D01*
X209290476Y-78105152D02*
X209366666Y-78067057D01*
X209366666Y-78067057D02*
X209557142Y-78067057D01*
X209557142Y-78067057D02*
X209633333Y-78105152D01*
X209633333Y-78105152D02*
X209671428Y-78143247D01*
X209671428Y-78143247D02*
X209709523Y-78219438D01*
X209709523Y-78219438D02*
X209709523Y-78409914D01*
X209709523Y-78409914D02*
X209671428Y-78486104D01*
X209671428Y-78486104D02*
X209633333Y-78524200D01*
X209633333Y-78524200D02*
X209557142Y-78562295D01*
X209557142Y-78562295D02*
X209366666Y-78562295D01*
X209366666Y-78562295D02*
X209290476Y-78524200D01*
X209290476Y-78524200D02*
X209252380Y-78486104D01*
X157416667Y-99962295D02*
X157150000Y-99581342D01*
X156959524Y-99962295D02*
X156959524Y-99162295D01*
X156959524Y-99162295D02*
X157264286Y-99162295D01*
X157264286Y-99162295D02*
X157340476Y-99200390D01*
X157340476Y-99200390D02*
X157378571Y-99238485D01*
X157378571Y-99238485D02*
X157416667Y-99314676D01*
X157416667Y-99314676D02*
X157416667Y-99428961D01*
X157416667Y-99428961D02*
X157378571Y-99505152D01*
X157378571Y-99505152D02*
X157340476Y-99543247D01*
X157340476Y-99543247D02*
X157264286Y-99581342D01*
X157264286Y-99581342D02*
X156959524Y-99581342D01*
X158140476Y-99162295D02*
X157759524Y-99162295D01*
X157759524Y-99162295D02*
X157721428Y-99543247D01*
X157721428Y-99543247D02*
X157759524Y-99505152D01*
X157759524Y-99505152D02*
X157835714Y-99467057D01*
X157835714Y-99467057D02*
X158026190Y-99467057D01*
X158026190Y-99467057D02*
X158102381Y-99505152D01*
X158102381Y-99505152D02*
X158140476Y-99543247D01*
X158140476Y-99543247D02*
X158178571Y-99619438D01*
X158178571Y-99619438D02*
X158178571Y-99809914D01*
X158178571Y-99809914D02*
X158140476Y-99886104D01*
X158140476Y-99886104D02*
X158102381Y-99924200D01*
X158102381Y-99924200D02*
X158026190Y-99962295D01*
X158026190Y-99962295D02*
X157835714Y-99962295D01*
X157835714Y-99962295D02*
X157759524Y-99924200D01*
X157759524Y-99924200D02*
X157721428Y-99886104D01*
X184885714Y-79362295D02*
X184619047Y-78981342D01*
X184428571Y-79362295D02*
X184428571Y-78562295D01*
X184428571Y-78562295D02*
X184733333Y-78562295D01*
X184733333Y-78562295D02*
X184809523Y-78600390D01*
X184809523Y-78600390D02*
X184847618Y-78638485D01*
X184847618Y-78638485D02*
X184885714Y-78714676D01*
X184885714Y-78714676D02*
X184885714Y-78828961D01*
X184885714Y-78828961D02*
X184847618Y-78905152D01*
X184847618Y-78905152D02*
X184809523Y-78943247D01*
X184809523Y-78943247D02*
X184733333Y-78981342D01*
X184733333Y-78981342D02*
X184428571Y-78981342D01*
X185190475Y-78638485D02*
X185228571Y-78600390D01*
X185228571Y-78600390D02*
X185304761Y-78562295D01*
X185304761Y-78562295D02*
X185495237Y-78562295D01*
X185495237Y-78562295D02*
X185571428Y-78600390D01*
X185571428Y-78600390D02*
X185609523Y-78638485D01*
X185609523Y-78638485D02*
X185647618Y-78714676D01*
X185647618Y-78714676D02*
X185647618Y-78790866D01*
X185647618Y-78790866D02*
X185609523Y-78905152D01*
X185609523Y-78905152D02*
X185152380Y-79362295D01*
X185152380Y-79362295D02*
X185647618Y-79362295D01*
X185914285Y-78562295D02*
X186409523Y-78562295D01*
X186409523Y-78562295D02*
X186142857Y-78867057D01*
X186142857Y-78867057D02*
X186257142Y-78867057D01*
X186257142Y-78867057D02*
X186333333Y-78905152D01*
X186333333Y-78905152D02*
X186371428Y-78943247D01*
X186371428Y-78943247D02*
X186409523Y-79019438D01*
X186409523Y-79019438D02*
X186409523Y-79209914D01*
X186409523Y-79209914D02*
X186371428Y-79286104D01*
X186371428Y-79286104D02*
X186333333Y-79324200D01*
X186333333Y-79324200D02*
X186257142Y-79362295D01*
X186257142Y-79362295D02*
X186028571Y-79362295D01*
X186028571Y-79362295D02*
X185952380Y-79324200D01*
X185952380Y-79324200D02*
X185914285Y-79286104D01*
X182686104Y-98983332D02*
X182724200Y-99021428D01*
X182724200Y-99021428D02*
X182762295Y-99135713D01*
X182762295Y-99135713D02*
X182762295Y-99211904D01*
X182762295Y-99211904D02*
X182724200Y-99326190D01*
X182724200Y-99326190D02*
X182648009Y-99402380D01*
X182648009Y-99402380D02*
X182571819Y-99440475D01*
X182571819Y-99440475D02*
X182419438Y-99478571D01*
X182419438Y-99478571D02*
X182305152Y-99478571D01*
X182305152Y-99478571D02*
X182152771Y-99440475D01*
X182152771Y-99440475D02*
X182076580Y-99402380D01*
X182076580Y-99402380D02*
X182000390Y-99326190D01*
X182000390Y-99326190D02*
X181962295Y-99211904D01*
X181962295Y-99211904D02*
X181962295Y-99135713D01*
X181962295Y-99135713D02*
X182000390Y-99021428D01*
X182000390Y-99021428D02*
X182038485Y-98983332D01*
X182762295Y-98221428D02*
X182762295Y-98678571D01*
X182762295Y-98449999D02*
X181962295Y-98449999D01*
X181962295Y-98449999D02*
X182076580Y-98526190D01*
X182076580Y-98526190D02*
X182152771Y-98602380D01*
X182152771Y-98602380D02*
X182190866Y-98678571D01*
X166562295Y-93676785D02*
X166181342Y-93943452D01*
X166562295Y-94133928D02*
X165762295Y-94133928D01*
X165762295Y-94133928D02*
X165762295Y-93829166D01*
X165762295Y-93829166D02*
X165800390Y-93752976D01*
X165800390Y-93752976D02*
X165838485Y-93714881D01*
X165838485Y-93714881D02*
X165914676Y-93676785D01*
X165914676Y-93676785D02*
X166028961Y-93676785D01*
X166028961Y-93676785D02*
X166105152Y-93714881D01*
X166105152Y-93714881D02*
X166143247Y-93752976D01*
X166143247Y-93752976D02*
X166181342Y-93829166D01*
X166181342Y-93829166D02*
X166181342Y-94133928D01*
X166562295Y-92914881D02*
X166562295Y-93372024D01*
X166562295Y-93143452D02*
X165762295Y-93143452D01*
X165762295Y-93143452D02*
X165876580Y-93219643D01*
X165876580Y-93219643D02*
X165952771Y-93295833D01*
X165952771Y-93295833D02*
X165990866Y-93372024D01*
X166105152Y-92457738D02*
X166067057Y-92533928D01*
X166067057Y-92533928D02*
X166028961Y-92572023D01*
X166028961Y-92572023D02*
X165952771Y-92610119D01*
X165952771Y-92610119D02*
X165914676Y-92610119D01*
X165914676Y-92610119D02*
X165838485Y-92572023D01*
X165838485Y-92572023D02*
X165800390Y-92533928D01*
X165800390Y-92533928D02*
X165762295Y-92457738D01*
X165762295Y-92457738D02*
X165762295Y-92305357D01*
X165762295Y-92305357D02*
X165800390Y-92229166D01*
X165800390Y-92229166D02*
X165838485Y-92191071D01*
X165838485Y-92191071D02*
X165914676Y-92152976D01*
X165914676Y-92152976D02*
X165952771Y-92152976D01*
X165952771Y-92152976D02*
X166028961Y-92191071D01*
X166028961Y-92191071D02*
X166067057Y-92229166D01*
X166067057Y-92229166D02*
X166105152Y-92305357D01*
X166105152Y-92305357D02*
X166105152Y-92457738D01*
X166105152Y-92457738D02*
X166143247Y-92533928D01*
X166143247Y-92533928D02*
X166181342Y-92572023D01*
X166181342Y-92572023D02*
X166257533Y-92610119D01*
X166257533Y-92610119D02*
X166409914Y-92610119D01*
X166409914Y-92610119D02*
X166486104Y-92572023D01*
X166486104Y-92572023D02*
X166524200Y-92533928D01*
X166524200Y-92533928D02*
X166562295Y-92457738D01*
X166562295Y-92457738D02*
X166562295Y-92305357D01*
X166562295Y-92305357D02*
X166524200Y-92229166D01*
X166524200Y-92229166D02*
X166486104Y-92191071D01*
X166486104Y-92191071D02*
X166409914Y-92152976D01*
X166409914Y-92152976D02*
X166257533Y-92152976D01*
X166257533Y-92152976D02*
X166181342Y-92191071D01*
X166181342Y-92191071D02*
X166143247Y-92229166D01*
X166143247Y-92229166D02*
X166105152Y-92305357D01*
X227240476Y-82562295D02*
X227697619Y-82562295D01*
X227469047Y-83362295D02*
X227469047Y-82562295D01*
X227964286Y-83362295D02*
X227964286Y-82562295D01*
X227964286Y-82562295D02*
X228269048Y-82562295D01*
X228269048Y-82562295D02*
X228345238Y-82600390D01*
X228345238Y-82600390D02*
X228383333Y-82638485D01*
X228383333Y-82638485D02*
X228421429Y-82714676D01*
X228421429Y-82714676D02*
X228421429Y-82828961D01*
X228421429Y-82828961D02*
X228383333Y-82905152D01*
X228383333Y-82905152D02*
X228345238Y-82943247D01*
X228345238Y-82943247D02*
X228269048Y-82981342D01*
X228269048Y-82981342D02*
X227964286Y-82981342D01*
X229107143Y-82828961D02*
X229107143Y-83362295D01*
X228916667Y-82524200D02*
X228726190Y-83095628D01*
X228726190Y-83095628D02*
X229221429Y-83095628D01*
X180762295Y-88339285D02*
X180381342Y-88605952D01*
X180762295Y-88796428D02*
X179962295Y-88796428D01*
X179962295Y-88796428D02*
X179962295Y-88491666D01*
X179962295Y-88491666D02*
X180000390Y-88415476D01*
X180000390Y-88415476D02*
X180038485Y-88377381D01*
X180038485Y-88377381D02*
X180114676Y-88339285D01*
X180114676Y-88339285D02*
X180228961Y-88339285D01*
X180228961Y-88339285D02*
X180305152Y-88377381D01*
X180305152Y-88377381D02*
X180343247Y-88415476D01*
X180343247Y-88415476D02*
X180381342Y-88491666D01*
X180381342Y-88491666D02*
X180381342Y-88796428D01*
X180762295Y-87577381D02*
X180762295Y-88034524D01*
X180762295Y-87805952D02*
X179962295Y-87805952D01*
X179962295Y-87805952D02*
X180076580Y-87882143D01*
X180076580Y-87882143D02*
X180152771Y-87958333D01*
X180152771Y-87958333D02*
X180190866Y-88034524D01*
X180762295Y-86815476D02*
X180762295Y-87272619D01*
X180762295Y-87044047D02*
X179962295Y-87044047D01*
X179962295Y-87044047D02*
X180076580Y-87120238D01*
X180076580Y-87120238D02*
X180152771Y-87196428D01*
X180152771Y-87196428D02*
X180190866Y-87272619D01*
X174662295Y-62516666D02*
X175233723Y-62516666D01*
X175233723Y-62516666D02*
X175348009Y-62554761D01*
X175348009Y-62554761D02*
X175424200Y-62630952D01*
X175424200Y-62630952D02*
X175462295Y-62745237D01*
X175462295Y-62745237D02*
X175462295Y-62821428D01*
X174928961Y-61792856D02*
X175462295Y-61792856D01*
X174624200Y-61983332D02*
X175195628Y-62173809D01*
X175195628Y-62173809D02*
X175195628Y-61678570D01*
X169212295Y-107045832D02*
X168831342Y-107312499D01*
X169212295Y-107502975D02*
X168412295Y-107502975D01*
X168412295Y-107502975D02*
X168412295Y-107198213D01*
X168412295Y-107198213D02*
X168450390Y-107122023D01*
X168450390Y-107122023D02*
X168488485Y-107083928D01*
X168488485Y-107083928D02*
X168564676Y-107045832D01*
X168564676Y-107045832D02*
X168678961Y-107045832D01*
X168678961Y-107045832D02*
X168755152Y-107083928D01*
X168755152Y-107083928D02*
X168793247Y-107122023D01*
X168793247Y-107122023D02*
X168831342Y-107198213D01*
X168831342Y-107198213D02*
X168831342Y-107502975D01*
X168678961Y-106360118D02*
X169212295Y-106360118D01*
X168374200Y-106550594D02*
X168945628Y-106741071D01*
X168945628Y-106741071D02*
X168945628Y-106245832D01*
X197990476Y-90812295D02*
X198447619Y-90812295D01*
X198219047Y-91612295D02*
X198219047Y-90812295D01*
X198714286Y-91612295D02*
X198714286Y-90812295D01*
X198714286Y-90812295D02*
X199019048Y-90812295D01*
X199019048Y-90812295D02*
X199095238Y-90850390D01*
X199095238Y-90850390D02*
X199133333Y-90888485D01*
X199133333Y-90888485D02*
X199171429Y-90964676D01*
X199171429Y-90964676D02*
X199171429Y-91078961D01*
X199171429Y-91078961D02*
X199133333Y-91155152D01*
X199133333Y-91155152D02*
X199095238Y-91193247D01*
X199095238Y-91193247D02*
X199019048Y-91231342D01*
X199019048Y-91231342D02*
X198714286Y-91231342D01*
X199933333Y-91612295D02*
X199476190Y-91612295D01*
X199704762Y-91612295D02*
X199704762Y-90812295D01*
X199704762Y-90812295D02*
X199628571Y-90926580D01*
X199628571Y-90926580D02*
X199552381Y-91002771D01*
X199552381Y-91002771D02*
X199476190Y-91040866D01*
X164327976Y-109999795D02*
X164327976Y-110647414D01*
X164327976Y-110647414D02*
X164366071Y-110723604D01*
X164366071Y-110723604D02*
X164404166Y-110761700D01*
X164404166Y-110761700D02*
X164480357Y-110799795D01*
X164480357Y-110799795D02*
X164632738Y-110799795D01*
X164632738Y-110799795D02*
X164708928Y-110761700D01*
X164708928Y-110761700D02*
X164747023Y-110723604D01*
X164747023Y-110723604D02*
X164785119Y-110647414D01*
X164785119Y-110647414D02*
X164785119Y-109999795D01*
X165585118Y-110799795D02*
X165127975Y-110799795D01*
X165356547Y-110799795D02*
X165356547Y-109999795D01*
X165356547Y-109999795D02*
X165280356Y-110114080D01*
X165280356Y-110114080D02*
X165204166Y-110190271D01*
X165204166Y-110190271D02*
X165127975Y-110228366D01*
X175748214Y-76736104D02*
X175710118Y-76774200D01*
X175710118Y-76774200D02*
X175595833Y-76812295D01*
X175595833Y-76812295D02*
X175519642Y-76812295D01*
X175519642Y-76812295D02*
X175405356Y-76774200D01*
X175405356Y-76774200D02*
X175329166Y-76698009D01*
X175329166Y-76698009D02*
X175291071Y-76621819D01*
X175291071Y-76621819D02*
X175252975Y-76469438D01*
X175252975Y-76469438D02*
X175252975Y-76355152D01*
X175252975Y-76355152D02*
X175291071Y-76202771D01*
X175291071Y-76202771D02*
X175329166Y-76126580D01*
X175329166Y-76126580D02*
X175405356Y-76050390D01*
X175405356Y-76050390D02*
X175519642Y-76012295D01*
X175519642Y-76012295D02*
X175595833Y-76012295D01*
X175595833Y-76012295D02*
X175710118Y-76050390D01*
X175710118Y-76050390D02*
X175748214Y-76088485D01*
X176510118Y-76812295D02*
X176052975Y-76812295D01*
X176281547Y-76812295D02*
X176281547Y-76012295D01*
X176281547Y-76012295D02*
X176205356Y-76126580D01*
X176205356Y-76126580D02*
X176129166Y-76202771D01*
X176129166Y-76202771D02*
X176052975Y-76240866D01*
X176967261Y-76355152D02*
X176891071Y-76317057D01*
X176891071Y-76317057D02*
X176852976Y-76278961D01*
X176852976Y-76278961D02*
X176814880Y-76202771D01*
X176814880Y-76202771D02*
X176814880Y-76164676D01*
X176814880Y-76164676D02*
X176852976Y-76088485D01*
X176852976Y-76088485D02*
X176891071Y-76050390D01*
X176891071Y-76050390D02*
X176967261Y-76012295D01*
X176967261Y-76012295D02*
X177119642Y-76012295D01*
X177119642Y-76012295D02*
X177195833Y-76050390D01*
X177195833Y-76050390D02*
X177233928Y-76088485D01*
X177233928Y-76088485D02*
X177272023Y-76164676D01*
X177272023Y-76164676D02*
X177272023Y-76202771D01*
X177272023Y-76202771D02*
X177233928Y-76278961D01*
X177233928Y-76278961D02*
X177195833Y-76317057D01*
X177195833Y-76317057D02*
X177119642Y-76355152D01*
X177119642Y-76355152D02*
X176967261Y-76355152D01*
X176967261Y-76355152D02*
X176891071Y-76393247D01*
X176891071Y-76393247D02*
X176852976Y-76431342D01*
X176852976Y-76431342D02*
X176814880Y-76507533D01*
X176814880Y-76507533D02*
X176814880Y-76659914D01*
X176814880Y-76659914D02*
X176852976Y-76736104D01*
X176852976Y-76736104D02*
X176891071Y-76774200D01*
X176891071Y-76774200D02*
X176967261Y-76812295D01*
X176967261Y-76812295D02*
X177119642Y-76812295D01*
X177119642Y-76812295D02*
X177195833Y-76774200D01*
X177195833Y-76774200D02*
X177233928Y-76736104D01*
X177233928Y-76736104D02*
X177272023Y-76659914D01*
X177272023Y-76659914D02*
X177272023Y-76507533D01*
X177272023Y-76507533D02*
X177233928Y-76431342D01*
X177233928Y-76431342D02*
X177195833Y-76393247D01*
X177195833Y-76393247D02*
X177119642Y-76355152D01*
X164116667Y-99962295D02*
X163850000Y-99581342D01*
X163659524Y-99962295D02*
X163659524Y-99162295D01*
X163659524Y-99162295D02*
X163964286Y-99162295D01*
X163964286Y-99162295D02*
X164040476Y-99200390D01*
X164040476Y-99200390D02*
X164078571Y-99238485D01*
X164078571Y-99238485D02*
X164116667Y-99314676D01*
X164116667Y-99314676D02*
X164116667Y-99428961D01*
X164116667Y-99428961D02*
X164078571Y-99505152D01*
X164078571Y-99505152D02*
X164040476Y-99543247D01*
X164040476Y-99543247D02*
X163964286Y-99581342D01*
X163964286Y-99581342D02*
X163659524Y-99581342D01*
X164421428Y-99238485D02*
X164459524Y-99200390D01*
X164459524Y-99200390D02*
X164535714Y-99162295D01*
X164535714Y-99162295D02*
X164726190Y-99162295D01*
X164726190Y-99162295D02*
X164802381Y-99200390D01*
X164802381Y-99200390D02*
X164840476Y-99238485D01*
X164840476Y-99238485D02*
X164878571Y-99314676D01*
X164878571Y-99314676D02*
X164878571Y-99390866D01*
X164878571Y-99390866D02*
X164840476Y-99505152D01*
X164840476Y-99505152D02*
X164383333Y-99962295D01*
X164383333Y-99962295D02*
X164878571Y-99962295D01*
X196962295Y-86014285D02*
X196581342Y-86280952D01*
X196962295Y-86471428D02*
X196162295Y-86471428D01*
X196162295Y-86471428D02*
X196162295Y-86166666D01*
X196162295Y-86166666D02*
X196200390Y-86090476D01*
X196200390Y-86090476D02*
X196238485Y-86052381D01*
X196238485Y-86052381D02*
X196314676Y-86014285D01*
X196314676Y-86014285D02*
X196428961Y-86014285D01*
X196428961Y-86014285D02*
X196505152Y-86052381D01*
X196505152Y-86052381D02*
X196543247Y-86090476D01*
X196543247Y-86090476D02*
X196581342Y-86166666D01*
X196581342Y-86166666D02*
X196581342Y-86471428D01*
X196962295Y-85252381D02*
X196962295Y-85709524D01*
X196962295Y-85480952D02*
X196162295Y-85480952D01*
X196162295Y-85480952D02*
X196276580Y-85557143D01*
X196276580Y-85557143D02*
X196352771Y-85633333D01*
X196352771Y-85633333D02*
X196390866Y-85709524D01*
X196162295Y-84566666D02*
X196162295Y-84719047D01*
X196162295Y-84719047D02*
X196200390Y-84795238D01*
X196200390Y-84795238D02*
X196238485Y-84833333D01*
X196238485Y-84833333D02*
X196352771Y-84909523D01*
X196352771Y-84909523D02*
X196505152Y-84947619D01*
X196505152Y-84947619D02*
X196809914Y-84947619D01*
X196809914Y-84947619D02*
X196886104Y-84909523D01*
X196886104Y-84909523D02*
X196924200Y-84871428D01*
X196924200Y-84871428D02*
X196962295Y-84795238D01*
X196962295Y-84795238D02*
X196962295Y-84642857D01*
X196962295Y-84642857D02*
X196924200Y-84566666D01*
X196924200Y-84566666D02*
X196886104Y-84528571D01*
X196886104Y-84528571D02*
X196809914Y-84490476D01*
X196809914Y-84490476D02*
X196619438Y-84490476D01*
X196619438Y-84490476D02*
X196543247Y-84528571D01*
X196543247Y-84528571D02*
X196505152Y-84566666D01*
X196505152Y-84566666D02*
X196467057Y-84642857D01*
X196467057Y-84642857D02*
X196467057Y-84795238D01*
X196467057Y-84795238D02*
X196505152Y-84871428D01*
X196505152Y-84871428D02*
X196543247Y-84909523D01*
X196543247Y-84909523D02*
X196619438Y-84947619D01*
X216485714Y-83906104D02*
X216447618Y-83944200D01*
X216447618Y-83944200D02*
X216333333Y-83982295D01*
X216333333Y-83982295D02*
X216257142Y-83982295D01*
X216257142Y-83982295D02*
X216142856Y-83944200D01*
X216142856Y-83944200D02*
X216066666Y-83868009D01*
X216066666Y-83868009D02*
X216028571Y-83791819D01*
X216028571Y-83791819D02*
X215990475Y-83639438D01*
X215990475Y-83639438D02*
X215990475Y-83525152D01*
X215990475Y-83525152D02*
X216028571Y-83372771D01*
X216028571Y-83372771D02*
X216066666Y-83296580D01*
X216066666Y-83296580D02*
X216142856Y-83220390D01*
X216142856Y-83220390D02*
X216257142Y-83182295D01*
X216257142Y-83182295D02*
X216333333Y-83182295D01*
X216333333Y-83182295D02*
X216447618Y-83220390D01*
X216447618Y-83220390D02*
X216485714Y-83258485D01*
X217247618Y-83982295D02*
X216790475Y-83982295D01*
X217019047Y-83982295D02*
X217019047Y-83182295D01*
X217019047Y-83182295D02*
X216942856Y-83296580D01*
X216942856Y-83296580D02*
X216866666Y-83372771D01*
X216866666Y-83372771D02*
X216790475Y-83410866D01*
X217514285Y-83182295D02*
X218009523Y-83182295D01*
X218009523Y-83182295D02*
X217742857Y-83487057D01*
X217742857Y-83487057D02*
X217857142Y-83487057D01*
X217857142Y-83487057D02*
X217933333Y-83525152D01*
X217933333Y-83525152D02*
X217971428Y-83563247D01*
X217971428Y-83563247D02*
X218009523Y-83639438D01*
X218009523Y-83639438D02*
X218009523Y-83829914D01*
X218009523Y-83829914D02*
X217971428Y-83906104D01*
X217971428Y-83906104D02*
X217933333Y-83944200D01*
X217933333Y-83944200D02*
X217857142Y-83982295D01*
X217857142Y-83982295D02*
X217628571Y-83982295D01*
X217628571Y-83982295D02*
X217552380Y-83944200D01*
X217552380Y-83944200D02*
X217514285Y-83906104D01*
X181433333Y-101462295D02*
X181433333Y-102033723D01*
X181433333Y-102033723D02*
X181395238Y-102148009D01*
X181395238Y-102148009D02*
X181319047Y-102224200D01*
X181319047Y-102224200D02*
X181204762Y-102262295D01*
X181204762Y-102262295D02*
X181128571Y-102262295D01*
X182233333Y-102262295D02*
X181776190Y-102262295D01*
X182004762Y-102262295D02*
X182004762Y-101462295D01*
X182004762Y-101462295D02*
X181928571Y-101576580D01*
X181928571Y-101576580D02*
X181852381Y-101652771D01*
X181852381Y-101652771D02*
X181776190Y-101690866D01*
X192485714Y-97612295D02*
X192219047Y-97231342D01*
X192028571Y-97612295D02*
X192028571Y-96812295D01*
X192028571Y-96812295D02*
X192333333Y-96812295D01*
X192333333Y-96812295D02*
X192409523Y-96850390D01*
X192409523Y-96850390D02*
X192447618Y-96888485D01*
X192447618Y-96888485D02*
X192485714Y-96964676D01*
X192485714Y-96964676D02*
X192485714Y-97078961D01*
X192485714Y-97078961D02*
X192447618Y-97155152D01*
X192447618Y-97155152D02*
X192409523Y-97193247D01*
X192409523Y-97193247D02*
X192333333Y-97231342D01*
X192333333Y-97231342D02*
X192028571Y-97231342D01*
X193247618Y-97612295D02*
X192790475Y-97612295D01*
X193019047Y-97612295D02*
X193019047Y-96812295D01*
X193019047Y-96812295D02*
X192942856Y-96926580D01*
X192942856Y-96926580D02*
X192866666Y-97002771D01*
X192866666Y-97002771D02*
X192790475Y-97040866D01*
X193552380Y-96888485D02*
X193590476Y-96850390D01*
X193590476Y-96850390D02*
X193666666Y-96812295D01*
X193666666Y-96812295D02*
X193857142Y-96812295D01*
X193857142Y-96812295D02*
X193933333Y-96850390D01*
X193933333Y-96850390D02*
X193971428Y-96888485D01*
X193971428Y-96888485D02*
X194009523Y-96964676D01*
X194009523Y-96964676D02*
X194009523Y-97040866D01*
X194009523Y-97040866D02*
X193971428Y-97155152D01*
X193971428Y-97155152D02*
X193514285Y-97612295D01*
X193514285Y-97612295D02*
X194009523Y-97612295D01*
X189172475Y-111205300D02*
X189286761Y-111243395D01*
X189286761Y-111243395D02*
X189477237Y-111243395D01*
X189477237Y-111243395D02*
X189553428Y-111205300D01*
X189553428Y-111205300D02*
X189591523Y-111167204D01*
X189591523Y-111167204D02*
X189629618Y-111091014D01*
X189629618Y-111091014D02*
X189629618Y-111014823D01*
X189629618Y-111014823D02*
X189591523Y-110938633D01*
X189591523Y-110938633D02*
X189553428Y-110900538D01*
X189553428Y-110900538D02*
X189477237Y-110862442D01*
X189477237Y-110862442D02*
X189324856Y-110824347D01*
X189324856Y-110824347D02*
X189248666Y-110786252D01*
X189248666Y-110786252D02*
X189210571Y-110748157D01*
X189210571Y-110748157D02*
X189172475Y-110671966D01*
X189172475Y-110671966D02*
X189172475Y-110595776D01*
X189172475Y-110595776D02*
X189210571Y-110519585D01*
X189210571Y-110519585D02*
X189248666Y-110481490D01*
X189248666Y-110481490D02*
X189324856Y-110443395D01*
X189324856Y-110443395D02*
X189515333Y-110443395D01*
X189515333Y-110443395D02*
X189629618Y-110481490D01*
X189934380Y-110519585D02*
X189972476Y-110481490D01*
X189972476Y-110481490D02*
X190048666Y-110443395D01*
X190048666Y-110443395D02*
X190239142Y-110443395D01*
X190239142Y-110443395D02*
X190315333Y-110481490D01*
X190315333Y-110481490D02*
X190353428Y-110519585D01*
X190353428Y-110519585D02*
X190391523Y-110595776D01*
X190391523Y-110595776D02*
X190391523Y-110671966D01*
X190391523Y-110671966D02*
X190353428Y-110786252D01*
X190353428Y-110786252D02*
X189896285Y-111243395D01*
X189896285Y-111243395D02*
X190391523Y-111243395D01*
X180274795Y-74614285D02*
X179893842Y-74880952D01*
X180274795Y-75071428D02*
X179474795Y-75071428D01*
X179474795Y-75071428D02*
X179474795Y-74766666D01*
X179474795Y-74766666D02*
X179512890Y-74690476D01*
X179512890Y-74690476D02*
X179550985Y-74652381D01*
X179550985Y-74652381D02*
X179627176Y-74614285D01*
X179627176Y-74614285D02*
X179741461Y-74614285D01*
X179741461Y-74614285D02*
X179817652Y-74652381D01*
X179817652Y-74652381D02*
X179855747Y-74690476D01*
X179855747Y-74690476D02*
X179893842Y-74766666D01*
X179893842Y-74766666D02*
X179893842Y-75071428D01*
X179474795Y-74347619D02*
X179474795Y-73852381D01*
X179474795Y-73852381D02*
X179779557Y-74119047D01*
X179779557Y-74119047D02*
X179779557Y-74004762D01*
X179779557Y-74004762D02*
X179817652Y-73928571D01*
X179817652Y-73928571D02*
X179855747Y-73890476D01*
X179855747Y-73890476D02*
X179931938Y-73852381D01*
X179931938Y-73852381D02*
X180122414Y-73852381D01*
X180122414Y-73852381D02*
X180198604Y-73890476D01*
X180198604Y-73890476D02*
X180236700Y-73928571D01*
X180236700Y-73928571D02*
X180274795Y-74004762D01*
X180274795Y-74004762D02*
X180274795Y-74233333D01*
X180274795Y-74233333D02*
X180236700Y-74309524D01*
X180236700Y-74309524D02*
X180198604Y-74347619D01*
X180274795Y-73090476D02*
X180274795Y-73547619D01*
X180274795Y-73319047D02*
X179474795Y-73319047D01*
X179474795Y-73319047D02*
X179589080Y-73395238D01*
X179589080Y-73395238D02*
X179665271Y-73471428D01*
X179665271Y-73471428D02*
X179703366Y-73547619D01*
X195490476Y-72364295D02*
X195947619Y-72364295D01*
X195719047Y-73164295D02*
X195719047Y-72364295D01*
X196214286Y-73164295D02*
X196214286Y-72364295D01*
X196214286Y-72364295D02*
X196519048Y-72364295D01*
X196519048Y-72364295D02*
X196595238Y-72402390D01*
X196595238Y-72402390D02*
X196633333Y-72440485D01*
X196633333Y-72440485D02*
X196671429Y-72516676D01*
X196671429Y-72516676D02*
X196671429Y-72630961D01*
X196671429Y-72630961D02*
X196633333Y-72707152D01*
X196633333Y-72707152D02*
X196595238Y-72745247D01*
X196595238Y-72745247D02*
X196519048Y-72783342D01*
X196519048Y-72783342D02*
X196214286Y-72783342D01*
X197395238Y-72364295D02*
X197014286Y-72364295D01*
X197014286Y-72364295D02*
X196976190Y-72745247D01*
X196976190Y-72745247D02*
X197014286Y-72707152D01*
X197014286Y-72707152D02*
X197090476Y-72669057D01*
X197090476Y-72669057D02*
X197280952Y-72669057D01*
X197280952Y-72669057D02*
X197357143Y-72707152D01*
X197357143Y-72707152D02*
X197395238Y-72745247D01*
X197395238Y-72745247D02*
X197433333Y-72821438D01*
X197433333Y-72821438D02*
X197433333Y-73011914D01*
X197433333Y-73011914D02*
X197395238Y-73088104D01*
X197395238Y-73088104D02*
X197357143Y-73126200D01*
X197357143Y-73126200D02*
X197280952Y-73164295D01*
X197280952Y-73164295D02*
X197090476Y-73164295D01*
X197090476Y-73164295D02*
X197014286Y-73126200D01*
X197014286Y-73126200D02*
X196976190Y-73088104D01*
X161852381Y-78312295D02*
X162119048Y-79112295D01*
X162119048Y-79112295D02*
X162385714Y-78312295D01*
X163109524Y-79112295D02*
X162842857Y-78731342D01*
X162652381Y-79112295D02*
X162652381Y-78312295D01*
X162652381Y-78312295D02*
X162957143Y-78312295D01*
X162957143Y-78312295D02*
X163033333Y-78350390D01*
X163033333Y-78350390D02*
X163071428Y-78388485D01*
X163071428Y-78388485D02*
X163109524Y-78464676D01*
X163109524Y-78464676D02*
X163109524Y-78578961D01*
X163109524Y-78578961D02*
X163071428Y-78655152D01*
X163071428Y-78655152D02*
X163033333Y-78693247D01*
X163033333Y-78693247D02*
X162957143Y-78731342D01*
X162957143Y-78731342D02*
X162652381Y-78731342D01*
X163871428Y-79112295D02*
X163414285Y-79112295D01*
X163642857Y-79112295D02*
X163642857Y-78312295D01*
X163642857Y-78312295D02*
X163566666Y-78426580D01*
X163566666Y-78426580D02*
X163490476Y-78502771D01*
X163490476Y-78502771D02*
X163414285Y-78540866D01*
X192085714Y-106712295D02*
X191819047Y-106331342D01*
X191628571Y-106712295D02*
X191628571Y-105912295D01*
X191628571Y-105912295D02*
X191933333Y-105912295D01*
X191933333Y-105912295D02*
X192009523Y-105950390D01*
X192009523Y-105950390D02*
X192047618Y-105988485D01*
X192047618Y-105988485D02*
X192085714Y-106064676D01*
X192085714Y-106064676D02*
X192085714Y-106178961D01*
X192085714Y-106178961D02*
X192047618Y-106255152D01*
X192047618Y-106255152D02*
X192009523Y-106293247D01*
X192009523Y-106293247D02*
X191933333Y-106331342D01*
X191933333Y-106331342D02*
X191628571Y-106331342D01*
X192352380Y-105912295D02*
X192847618Y-105912295D01*
X192847618Y-105912295D02*
X192580952Y-106217057D01*
X192580952Y-106217057D02*
X192695237Y-106217057D01*
X192695237Y-106217057D02*
X192771428Y-106255152D01*
X192771428Y-106255152D02*
X192809523Y-106293247D01*
X192809523Y-106293247D02*
X192847618Y-106369438D01*
X192847618Y-106369438D02*
X192847618Y-106559914D01*
X192847618Y-106559914D02*
X192809523Y-106636104D01*
X192809523Y-106636104D02*
X192771428Y-106674200D01*
X192771428Y-106674200D02*
X192695237Y-106712295D01*
X192695237Y-106712295D02*
X192466666Y-106712295D01*
X192466666Y-106712295D02*
X192390475Y-106674200D01*
X192390475Y-106674200D02*
X192352380Y-106636104D01*
X193114285Y-105912295D02*
X193609523Y-105912295D01*
X193609523Y-105912295D02*
X193342857Y-106217057D01*
X193342857Y-106217057D02*
X193457142Y-106217057D01*
X193457142Y-106217057D02*
X193533333Y-106255152D01*
X193533333Y-106255152D02*
X193571428Y-106293247D01*
X193571428Y-106293247D02*
X193609523Y-106369438D01*
X193609523Y-106369438D02*
X193609523Y-106559914D01*
X193609523Y-106559914D02*
X193571428Y-106636104D01*
X193571428Y-106636104D02*
X193533333Y-106674200D01*
X193533333Y-106674200D02*
X193457142Y-106712295D01*
X193457142Y-106712295D02*
X193228571Y-106712295D01*
X193228571Y-106712295D02*
X193152380Y-106674200D01*
X193152380Y-106674200D02*
X193114285Y-106636104D01*
X185823809Y-82438485D02*
X185747619Y-82400390D01*
X185747619Y-82400390D02*
X185671428Y-82324200D01*
X185671428Y-82324200D02*
X185557142Y-82209914D01*
X185557142Y-82209914D02*
X185480952Y-82171819D01*
X185480952Y-82171819D02*
X185404761Y-82171819D01*
X185442857Y-82362295D02*
X185366666Y-82324200D01*
X185366666Y-82324200D02*
X185290476Y-82248009D01*
X185290476Y-82248009D02*
X185252380Y-82095628D01*
X185252380Y-82095628D02*
X185252380Y-81828961D01*
X185252380Y-81828961D02*
X185290476Y-81676580D01*
X185290476Y-81676580D02*
X185366666Y-81600390D01*
X185366666Y-81600390D02*
X185442857Y-81562295D01*
X185442857Y-81562295D02*
X185595238Y-81562295D01*
X185595238Y-81562295D02*
X185671428Y-81600390D01*
X185671428Y-81600390D02*
X185747619Y-81676580D01*
X185747619Y-81676580D02*
X185785714Y-81828961D01*
X185785714Y-81828961D02*
X185785714Y-82095628D01*
X185785714Y-82095628D02*
X185747619Y-82248009D01*
X185747619Y-82248009D02*
X185671428Y-82324200D01*
X185671428Y-82324200D02*
X185595238Y-82362295D01*
X185595238Y-82362295D02*
X185442857Y-82362295D01*
X186547618Y-82362295D02*
X186090475Y-82362295D01*
X186319047Y-82362295D02*
X186319047Y-81562295D01*
X186319047Y-81562295D02*
X186242856Y-81676580D01*
X186242856Y-81676580D02*
X186166666Y-81752771D01*
X186166666Y-81752771D02*
X186090475Y-81790866D01*
X178590476Y-95362295D02*
X178590476Y-96009914D01*
X178590476Y-96009914D02*
X178628571Y-96086104D01*
X178628571Y-96086104D02*
X178666666Y-96124200D01*
X178666666Y-96124200D02*
X178742857Y-96162295D01*
X178742857Y-96162295D02*
X178895238Y-96162295D01*
X178895238Y-96162295D02*
X178971428Y-96124200D01*
X178971428Y-96124200D02*
X179009523Y-96086104D01*
X179009523Y-96086104D02*
X179047619Y-96009914D01*
X179047619Y-96009914D02*
X179047619Y-95362295D01*
X179809523Y-95362295D02*
X179428571Y-95362295D01*
X179428571Y-95362295D02*
X179390475Y-95743247D01*
X179390475Y-95743247D02*
X179428571Y-95705152D01*
X179428571Y-95705152D02*
X179504761Y-95667057D01*
X179504761Y-95667057D02*
X179695237Y-95667057D01*
X179695237Y-95667057D02*
X179771428Y-95705152D01*
X179771428Y-95705152D02*
X179809523Y-95743247D01*
X179809523Y-95743247D02*
X179847618Y-95819438D01*
X179847618Y-95819438D02*
X179847618Y-96009914D01*
X179847618Y-96009914D02*
X179809523Y-96086104D01*
X179809523Y-96086104D02*
X179771428Y-96124200D01*
X179771428Y-96124200D02*
X179695237Y-96162295D01*
X179695237Y-96162295D02*
X179504761Y-96162295D01*
X179504761Y-96162295D02*
X179428571Y-96124200D01*
X179428571Y-96124200D02*
X179390475Y-96086104D01*
X183216104Y-93014285D02*
X183254200Y-93052381D01*
X183254200Y-93052381D02*
X183292295Y-93166666D01*
X183292295Y-93166666D02*
X183292295Y-93242857D01*
X183292295Y-93242857D02*
X183254200Y-93357143D01*
X183254200Y-93357143D02*
X183178009Y-93433333D01*
X183178009Y-93433333D02*
X183101819Y-93471428D01*
X183101819Y-93471428D02*
X182949438Y-93509524D01*
X182949438Y-93509524D02*
X182835152Y-93509524D01*
X182835152Y-93509524D02*
X182682771Y-93471428D01*
X182682771Y-93471428D02*
X182606580Y-93433333D01*
X182606580Y-93433333D02*
X182530390Y-93357143D01*
X182530390Y-93357143D02*
X182492295Y-93242857D01*
X182492295Y-93242857D02*
X182492295Y-93166666D01*
X182492295Y-93166666D02*
X182530390Y-93052381D01*
X182530390Y-93052381D02*
X182568485Y-93014285D01*
X183292295Y-92252381D02*
X183292295Y-92709524D01*
X183292295Y-92480952D02*
X182492295Y-92480952D01*
X182492295Y-92480952D02*
X182606580Y-92557143D01*
X182606580Y-92557143D02*
X182682771Y-92633333D01*
X182682771Y-92633333D02*
X182720866Y-92709524D01*
X182492295Y-91757142D02*
X182492295Y-91680952D01*
X182492295Y-91680952D02*
X182530390Y-91604761D01*
X182530390Y-91604761D02*
X182568485Y-91566666D01*
X182568485Y-91566666D02*
X182644676Y-91528571D01*
X182644676Y-91528571D02*
X182797057Y-91490476D01*
X182797057Y-91490476D02*
X182987533Y-91490476D01*
X182987533Y-91490476D02*
X183139914Y-91528571D01*
X183139914Y-91528571D02*
X183216104Y-91566666D01*
X183216104Y-91566666D02*
X183254200Y-91604761D01*
X183254200Y-91604761D02*
X183292295Y-91680952D01*
X183292295Y-91680952D02*
X183292295Y-91757142D01*
X183292295Y-91757142D02*
X183254200Y-91833333D01*
X183254200Y-91833333D02*
X183216104Y-91871428D01*
X183216104Y-91871428D02*
X183139914Y-91909523D01*
X183139914Y-91909523D02*
X182987533Y-91947619D01*
X182987533Y-91947619D02*
X182797057Y-91947619D01*
X182797057Y-91947619D02*
X182644676Y-91909523D01*
X182644676Y-91909523D02*
X182568485Y-91871428D01*
X182568485Y-91871428D02*
X182530390Y-91833333D01*
X182530390Y-91833333D02*
X182492295Y-91757142D01*
X198085714Y-106612295D02*
X197819047Y-106231342D01*
X197628571Y-106612295D02*
X197628571Y-105812295D01*
X197628571Y-105812295D02*
X197933333Y-105812295D01*
X197933333Y-105812295D02*
X198009523Y-105850390D01*
X198009523Y-105850390D02*
X198047618Y-105888485D01*
X198047618Y-105888485D02*
X198085714Y-105964676D01*
X198085714Y-105964676D02*
X198085714Y-106078961D01*
X198085714Y-106078961D02*
X198047618Y-106155152D01*
X198047618Y-106155152D02*
X198009523Y-106193247D01*
X198009523Y-106193247D02*
X197933333Y-106231342D01*
X197933333Y-106231342D02*
X197628571Y-106231342D01*
X198352380Y-105812295D02*
X198847618Y-105812295D01*
X198847618Y-105812295D02*
X198580952Y-106117057D01*
X198580952Y-106117057D02*
X198695237Y-106117057D01*
X198695237Y-106117057D02*
X198771428Y-106155152D01*
X198771428Y-106155152D02*
X198809523Y-106193247D01*
X198809523Y-106193247D02*
X198847618Y-106269438D01*
X198847618Y-106269438D02*
X198847618Y-106459914D01*
X198847618Y-106459914D02*
X198809523Y-106536104D01*
X198809523Y-106536104D02*
X198771428Y-106574200D01*
X198771428Y-106574200D02*
X198695237Y-106612295D01*
X198695237Y-106612295D02*
X198466666Y-106612295D01*
X198466666Y-106612295D02*
X198390475Y-106574200D01*
X198390475Y-106574200D02*
X198352380Y-106536104D01*
X199533333Y-106078961D02*
X199533333Y-106612295D01*
X199342857Y-105774200D02*
X199152380Y-106345628D01*
X199152380Y-106345628D02*
X199647619Y-106345628D01*
X178985714Y-68062295D02*
X178719047Y-67681342D01*
X178528571Y-68062295D02*
X178528571Y-67262295D01*
X178528571Y-67262295D02*
X178833333Y-67262295D01*
X178833333Y-67262295D02*
X178909523Y-67300390D01*
X178909523Y-67300390D02*
X178947618Y-67338485D01*
X178947618Y-67338485D02*
X178985714Y-67414676D01*
X178985714Y-67414676D02*
X178985714Y-67528961D01*
X178985714Y-67528961D02*
X178947618Y-67605152D01*
X178947618Y-67605152D02*
X178909523Y-67643247D01*
X178909523Y-67643247D02*
X178833333Y-67681342D01*
X178833333Y-67681342D02*
X178528571Y-67681342D01*
X179290475Y-67338485D02*
X179328571Y-67300390D01*
X179328571Y-67300390D02*
X179404761Y-67262295D01*
X179404761Y-67262295D02*
X179595237Y-67262295D01*
X179595237Y-67262295D02*
X179671428Y-67300390D01*
X179671428Y-67300390D02*
X179709523Y-67338485D01*
X179709523Y-67338485D02*
X179747618Y-67414676D01*
X179747618Y-67414676D02*
X179747618Y-67490866D01*
X179747618Y-67490866D02*
X179709523Y-67605152D01*
X179709523Y-67605152D02*
X179252380Y-68062295D01*
X179252380Y-68062295D02*
X179747618Y-68062295D01*
X180433333Y-67262295D02*
X180280952Y-67262295D01*
X180280952Y-67262295D02*
X180204761Y-67300390D01*
X180204761Y-67300390D02*
X180166666Y-67338485D01*
X180166666Y-67338485D02*
X180090476Y-67452771D01*
X180090476Y-67452771D02*
X180052380Y-67605152D01*
X180052380Y-67605152D02*
X180052380Y-67909914D01*
X180052380Y-67909914D02*
X180090476Y-67986104D01*
X180090476Y-67986104D02*
X180128571Y-68024200D01*
X180128571Y-68024200D02*
X180204761Y-68062295D01*
X180204761Y-68062295D02*
X180357142Y-68062295D01*
X180357142Y-68062295D02*
X180433333Y-68024200D01*
X180433333Y-68024200D02*
X180471428Y-67986104D01*
X180471428Y-67986104D02*
X180509523Y-67909914D01*
X180509523Y-67909914D02*
X180509523Y-67719438D01*
X180509523Y-67719438D02*
X180471428Y-67643247D01*
X180471428Y-67643247D02*
X180433333Y-67605152D01*
X180433333Y-67605152D02*
X180357142Y-67567057D01*
X180357142Y-67567057D02*
X180204761Y-67567057D01*
X180204761Y-67567057D02*
X180128571Y-67605152D01*
X180128571Y-67605152D02*
X180090476Y-67643247D01*
X180090476Y-67643247D02*
X180052380Y-67719438D01*
X192223809Y-102950985D02*
X192147619Y-102912890D01*
X192147619Y-102912890D02*
X192071428Y-102836700D01*
X192071428Y-102836700D02*
X191957142Y-102722414D01*
X191957142Y-102722414D02*
X191880952Y-102684319D01*
X191880952Y-102684319D02*
X191804761Y-102684319D01*
X191842857Y-102874795D02*
X191766666Y-102836700D01*
X191766666Y-102836700D02*
X191690476Y-102760509D01*
X191690476Y-102760509D02*
X191652380Y-102608128D01*
X191652380Y-102608128D02*
X191652380Y-102341461D01*
X191652380Y-102341461D02*
X191690476Y-102189080D01*
X191690476Y-102189080D02*
X191766666Y-102112890D01*
X191766666Y-102112890D02*
X191842857Y-102074795D01*
X191842857Y-102074795D02*
X191995238Y-102074795D01*
X191995238Y-102074795D02*
X192071428Y-102112890D01*
X192071428Y-102112890D02*
X192147619Y-102189080D01*
X192147619Y-102189080D02*
X192185714Y-102341461D01*
X192185714Y-102341461D02*
X192185714Y-102608128D01*
X192185714Y-102608128D02*
X192147619Y-102760509D01*
X192147619Y-102760509D02*
X192071428Y-102836700D01*
X192071428Y-102836700D02*
X191995238Y-102874795D01*
X191995238Y-102874795D02*
X191842857Y-102874795D01*
X192490475Y-102150985D02*
X192528571Y-102112890D01*
X192528571Y-102112890D02*
X192604761Y-102074795D01*
X192604761Y-102074795D02*
X192795237Y-102074795D01*
X192795237Y-102074795D02*
X192871428Y-102112890D01*
X192871428Y-102112890D02*
X192909523Y-102150985D01*
X192909523Y-102150985D02*
X192947618Y-102227176D01*
X192947618Y-102227176D02*
X192947618Y-102303366D01*
X192947618Y-102303366D02*
X192909523Y-102417652D01*
X192909523Y-102417652D02*
X192452380Y-102874795D01*
X192452380Y-102874795D02*
X192947618Y-102874795D01*
X160785714Y-69586104D02*
X160747618Y-69624200D01*
X160747618Y-69624200D02*
X160633333Y-69662295D01*
X160633333Y-69662295D02*
X160557142Y-69662295D01*
X160557142Y-69662295D02*
X160442856Y-69624200D01*
X160442856Y-69624200D02*
X160366666Y-69548009D01*
X160366666Y-69548009D02*
X160328571Y-69471819D01*
X160328571Y-69471819D02*
X160290475Y-69319438D01*
X160290475Y-69319438D02*
X160290475Y-69205152D01*
X160290475Y-69205152D02*
X160328571Y-69052771D01*
X160328571Y-69052771D02*
X160366666Y-68976580D01*
X160366666Y-68976580D02*
X160442856Y-68900390D01*
X160442856Y-68900390D02*
X160557142Y-68862295D01*
X160557142Y-68862295D02*
X160633333Y-68862295D01*
X160633333Y-68862295D02*
X160747618Y-68900390D01*
X160747618Y-68900390D02*
X160785714Y-68938485D01*
X161547618Y-69662295D02*
X161090475Y-69662295D01*
X161319047Y-69662295D02*
X161319047Y-68862295D01*
X161319047Y-68862295D02*
X161242856Y-68976580D01*
X161242856Y-68976580D02*
X161166666Y-69052771D01*
X161166666Y-69052771D02*
X161090475Y-69090866D01*
X162233333Y-68862295D02*
X162080952Y-68862295D01*
X162080952Y-68862295D02*
X162004761Y-68900390D01*
X162004761Y-68900390D02*
X161966666Y-68938485D01*
X161966666Y-68938485D02*
X161890476Y-69052771D01*
X161890476Y-69052771D02*
X161852380Y-69205152D01*
X161852380Y-69205152D02*
X161852380Y-69509914D01*
X161852380Y-69509914D02*
X161890476Y-69586104D01*
X161890476Y-69586104D02*
X161928571Y-69624200D01*
X161928571Y-69624200D02*
X162004761Y-69662295D01*
X162004761Y-69662295D02*
X162157142Y-69662295D01*
X162157142Y-69662295D02*
X162233333Y-69624200D01*
X162233333Y-69624200D02*
X162271428Y-69586104D01*
X162271428Y-69586104D02*
X162309523Y-69509914D01*
X162309523Y-69509914D02*
X162309523Y-69319438D01*
X162309523Y-69319438D02*
X162271428Y-69243247D01*
X162271428Y-69243247D02*
X162233333Y-69205152D01*
X162233333Y-69205152D02*
X162157142Y-69167057D01*
X162157142Y-69167057D02*
X162004761Y-69167057D01*
X162004761Y-69167057D02*
X161928571Y-69205152D01*
X161928571Y-69205152D02*
X161890476Y-69243247D01*
X161890476Y-69243247D02*
X161852380Y-69319438D01*
X152898214Y-77162295D02*
X152631547Y-76781342D01*
X152441071Y-77162295D02*
X152441071Y-76362295D01*
X152441071Y-76362295D02*
X152745833Y-76362295D01*
X152745833Y-76362295D02*
X152822023Y-76400390D01*
X152822023Y-76400390D02*
X152860118Y-76438485D01*
X152860118Y-76438485D02*
X152898214Y-76514676D01*
X152898214Y-76514676D02*
X152898214Y-76628961D01*
X152898214Y-76628961D02*
X152860118Y-76705152D01*
X152860118Y-76705152D02*
X152822023Y-76743247D01*
X152822023Y-76743247D02*
X152745833Y-76781342D01*
X152745833Y-76781342D02*
X152441071Y-76781342D01*
X153660118Y-77162295D02*
X153202975Y-77162295D01*
X153431547Y-77162295D02*
X153431547Y-76362295D01*
X153431547Y-76362295D02*
X153355356Y-76476580D01*
X153355356Y-76476580D02*
X153279166Y-76552771D01*
X153279166Y-76552771D02*
X153202975Y-76590866D01*
X154155357Y-76362295D02*
X154231547Y-76362295D01*
X154231547Y-76362295D02*
X154307738Y-76400390D01*
X154307738Y-76400390D02*
X154345833Y-76438485D01*
X154345833Y-76438485D02*
X154383928Y-76514676D01*
X154383928Y-76514676D02*
X154422023Y-76667057D01*
X154422023Y-76667057D02*
X154422023Y-76857533D01*
X154422023Y-76857533D02*
X154383928Y-77009914D01*
X154383928Y-77009914D02*
X154345833Y-77086104D01*
X154345833Y-77086104D02*
X154307738Y-77124200D01*
X154307738Y-77124200D02*
X154231547Y-77162295D01*
X154231547Y-77162295D02*
X154155357Y-77162295D01*
X154155357Y-77162295D02*
X154079166Y-77124200D01*
X154079166Y-77124200D02*
X154041071Y-77086104D01*
X154041071Y-77086104D02*
X154002976Y-77009914D01*
X154002976Y-77009914D02*
X153964880Y-76857533D01*
X153964880Y-76857533D02*
X153964880Y-76667057D01*
X153964880Y-76667057D02*
X154002976Y-76514676D01*
X154002976Y-76514676D02*
X154041071Y-76438485D01*
X154041071Y-76438485D02*
X154079166Y-76400390D01*
X154079166Y-76400390D02*
X154155357Y-76362295D01*
X186036104Y-96633332D02*
X186074200Y-96671428D01*
X186074200Y-96671428D02*
X186112295Y-96785713D01*
X186112295Y-96785713D02*
X186112295Y-96861904D01*
X186112295Y-96861904D02*
X186074200Y-96976190D01*
X186074200Y-96976190D02*
X185998009Y-97052380D01*
X185998009Y-97052380D02*
X185921819Y-97090475D01*
X185921819Y-97090475D02*
X185769438Y-97128571D01*
X185769438Y-97128571D02*
X185655152Y-97128571D01*
X185655152Y-97128571D02*
X185502771Y-97090475D01*
X185502771Y-97090475D02*
X185426580Y-97052380D01*
X185426580Y-97052380D02*
X185350390Y-96976190D01*
X185350390Y-96976190D02*
X185312295Y-96861904D01*
X185312295Y-96861904D02*
X185312295Y-96785713D01*
X185312295Y-96785713D02*
X185350390Y-96671428D01*
X185350390Y-96671428D02*
X185388485Y-96633332D01*
X186112295Y-96252380D02*
X186112295Y-96099999D01*
X186112295Y-96099999D02*
X186074200Y-96023809D01*
X186074200Y-96023809D02*
X186036104Y-95985713D01*
X186036104Y-95985713D02*
X185921819Y-95909523D01*
X185921819Y-95909523D02*
X185769438Y-95871428D01*
X185769438Y-95871428D02*
X185464676Y-95871428D01*
X185464676Y-95871428D02*
X185388485Y-95909523D01*
X185388485Y-95909523D02*
X185350390Y-95947618D01*
X185350390Y-95947618D02*
X185312295Y-96023809D01*
X185312295Y-96023809D02*
X185312295Y-96176190D01*
X185312295Y-96176190D02*
X185350390Y-96252380D01*
X185350390Y-96252380D02*
X185388485Y-96290475D01*
X185388485Y-96290475D02*
X185464676Y-96328571D01*
X185464676Y-96328571D02*
X185655152Y-96328571D01*
X185655152Y-96328571D02*
X185731342Y-96290475D01*
X185731342Y-96290475D02*
X185769438Y-96252380D01*
X185769438Y-96252380D02*
X185807533Y-96176190D01*
X185807533Y-96176190D02*
X185807533Y-96023809D01*
X185807533Y-96023809D02*
X185769438Y-95947618D01*
X185769438Y-95947618D02*
X185731342Y-95909523D01*
X185731342Y-95909523D02*
X185655152Y-95871428D01*
X156062295Y-102133332D02*
X155681342Y-102399999D01*
X156062295Y-102590475D02*
X155262295Y-102590475D01*
X155262295Y-102590475D02*
X155262295Y-102285713D01*
X155262295Y-102285713D02*
X155300390Y-102209523D01*
X155300390Y-102209523D02*
X155338485Y-102171428D01*
X155338485Y-102171428D02*
X155414676Y-102133332D01*
X155414676Y-102133332D02*
X155528961Y-102133332D01*
X155528961Y-102133332D02*
X155605152Y-102171428D01*
X155605152Y-102171428D02*
X155643247Y-102209523D01*
X155643247Y-102209523D02*
X155681342Y-102285713D01*
X155681342Y-102285713D02*
X155681342Y-102590475D01*
X155262295Y-101866666D02*
X155262295Y-101333332D01*
X155262295Y-101333332D02*
X156062295Y-101676190D01*
X222785714Y-82062295D02*
X222519047Y-81681342D01*
X222328571Y-82062295D02*
X222328571Y-81262295D01*
X222328571Y-81262295D02*
X222633333Y-81262295D01*
X222633333Y-81262295D02*
X222709523Y-81300390D01*
X222709523Y-81300390D02*
X222747618Y-81338485D01*
X222747618Y-81338485D02*
X222785714Y-81414676D01*
X222785714Y-81414676D02*
X222785714Y-81528961D01*
X222785714Y-81528961D02*
X222747618Y-81605152D01*
X222747618Y-81605152D02*
X222709523Y-81643247D01*
X222709523Y-81643247D02*
X222633333Y-81681342D01*
X222633333Y-81681342D02*
X222328571Y-81681342D01*
X223547618Y-82062295D02*
X223090475Y-82062295D01*
X223319047Y-82062295D02*
X223319047Y-81262295D01*
X223319047Y-81262295D02*
X223242856Y-81376580D01*
X223242856Y-81376580D02*
X223166666Y-81452771D01*
X223166666Y-81452771D02*
X223090475Y-81490866D01*
X223928571Y-82062295D02*
X224080952Y-82062295D01*
X224080952Y-82062295D02*
X224157142Y-82024200D01*
X224157142Y-82024200D02*
X224195238Y-81986104D01*
X224195238Y-81986104D02*
X224271428Y-81871819D01*
X224271428Y-81871819D02*
X224309523Y-81719438D01*
X224309523Y-81719438D02*
X224309523Y-81414676D01*
X224309523Y-81414676D02*
X224271428Y-81338485D01*
X224271428Y-81338485D02*
X224233333Y-81300390D01*
X224233333Y-81300390D02*
X224157142Y-81262295D01*
X224157142Y-81262295D02*
X224004761Y-81262295D01*
X224004761Y-81262295D02*
X223928571Y-81300390D01*
X223928571Y-81300390D02*
X223890476Y-81338485D01*
X223890476Y-81338485D02*
X223852380Y-81414676D01*
X223852380Y-81414676D02*
X223852380Y-81605152D01*
X223852380Y-81605152D02*
X223890476Y-81681342D01*
X223890476Y-81681342D02*
X223928571Y-81719438D01*
X223928571Y-81719438D02*
X224004761Y-81757533D01*
X224004761Y-81757533D02*
X224157142Y-81757533D01*
X224157142Y-81757533D02*
X224233333Y-81719438D01*
X224233333Y-81719438D02*
X224271428Y-81681342D01*
X224271428Y-81681342D02*
X224309523Y-81605152D01*
X167885714Y-68486104D02*
X167847618Y-68524200D01*
X167847618Y-68524200D02*
X167733333Y-68562295D01*
X167733333Y-68562295D02*
X167657142Y-68562295D01*
X167657142Y-68562295D02*
X167542856Y-68524200D01*
X167542856Y-68524200D02*
X167466666Y-68448009D01*
X167466666Y-68448009D02*
X167428571Y-68371819D01*
X167428571Y-68371819D02*
X167390475Y-68219438D01*
X167390475Y-68219438D02*
X167390475Y-68105152D01*
X167390475Y-68105152D02*
X167428571Y-67952771D01*
X167428571Y-67952771D02*
X167466666Y-67876580D01*
X167466666Y-67876580D02*
X167542856Y-67800390D01*
X167542856Y-67800390D02*
X167657142Y-67762295D01*
X167657142Y-67762295D02*
X167733333Y-67762295D01*
X167733333Y-67762295D02*
X167847618Y-67800390D01*
X167847618Y-67800390D02*
X167885714Y-67838485D01*
X168647618Y-68562295D02*
X168190475Y-68562295D01*
X168419047Y-68562295D02*
X168419047Y-67762295D01*
X168419047Y-67762295D02*
X168342856Y-67876580D01*
X168342856Y-67876580D02*
X168266666Y-67952771D01*
X168266666Y-67952771D02*
X168190475Y-67990866D01*
X169028571Y-68562295D02*
X169180952Y-68562295D01*
X169180952Y-68562295D02*
X169257142Y-68524200D01*
X169257142Y-68524200D02*
X169295238Y-68486104D01*
X169295238Y-68486104D02*
X169371428Y-68371819D01*
X169371428Y-68371819D02*
X169409523Y-68219438D01*
X169409523Y-68219438D02*
X169409523Y-67914676D01*
X169409523Y-67914676D02*
X169371428Y-67838485D01*
X169371428Y-67838485D02*
X169333333Y-67800390D01*
X169333333Y-67800390D02*
X169257142Y-67762295D01*
X169257142Y-67762295D02*
X169104761Y-67762295D01*
X169104761Y-67762295D02*
X169028571Y-67800390D01*
X169028571Y-67800390D02*
X168990476Y-67838485D01*
X168990476Y-67838485D02*
X168952380Y-67914676D01*
X168952380Y-67914676D02*
X168952380Y-68105152D01*
X168952380Y-68105152D02*
X168990476Y-68181342D01*
X168990476Y-68181342D02*
X169028571Y-68219438D01*
X169028571Y-68219438D02*
X169104761Y-68257533D01*
X169104761Y-68257533D02*
X169257142Y-68257533D01*
X169257142Y-68257533D02*
X169333333Y-68219438D01*
X169333333Y-68219438D02*
X169371428Y-68181342D01*
X169371428Y-68181342D02*
X169409523Y-68105152D01*
X161966667Y-99962295D02*
X161700000Y-99581342D01*
X161509524Y-99962295D02*
X161509524Y-99162295D01*
X161509524Y-99162295D02*
X161814286Y-99162295D01*
X161814286Y-99162295D02*
X161890476Y-99200390D01*
X161890476Y-99200390D02*
X161928571Y-99238485D01*
X161928571Y-99238485D02*
X161966667Y-99314676D01*
X161966667Y-99314676D02*
X161966667Y-99428961D01*
X161966667Y-99428961D02*
X161928571Y-99505152D01*
X161928571Y-99505152D02*
X161890476Y-99543247D01*
X161890476Y-99543247D02*
X161814286Y-99581342D01*
X161814286Y-99581342D02*
X161509524Y-99581342D01*
X162728571Y-99962295D02*
X162271428Y-99962295D01*
X162500000Y-99962295D02*
X162500000Y-99162295D01*
X162500000Y-99162295D02*
X162423809Y-99276580D01*
X162423809Y-99276580D02*
X162347619Y-99352771D01*
X162347619Y-99352771D02*
X162271428Y-99390866D01*
X149062295Y-102133332D02*
X148681342Y-102399999D01*
X149062295Y-102590475D02*
X148262295Y-102590475D01*
X148262295Y-102590475D02*
X148262295Y-102285713D01*
X148262295Y-102285713D02*
X148300390Y-102209523D01*
X148300390Y-102209523D02*
X148338485Y-102171428D01*
X148338485Y-102171428D02*
X148414676Y-102133332D01*
X148414676Y-102133332D02*
X148528961Y-102133332D01*
X148528961Y-102133332D02*
X148605152Y-102171428D01*
X148605152Y-102171428D02*
X148643247Y-102209523D01*
X148643247Y-102209523D02*
X148681342Y-102285713D01*
X148681342Y-102285713D02*
X148681342Y-102590475D01*
X149062295Y-101752380D02*
X149062295Y-101599999D01*
X149062295Y-101599999D02*
X149024200Y-101523809D01*
X149024200Y-101523809D02*
X148986104Y-101485713D01*
X148986104Y-101485713D02*
X148871819Y-101409523D01*
X148871819Y-101409523D02*
X148719438Y-101371428D01*
X148719438Y-101371428D02*
X148414676Y-101371428D01*
X148414676Y-101371428D02*
X148338485Y-101409523D01*
X148338485Y-101409523D02*
X148300390Y-101447618D01*
X148300390Y-101447618D02*
X148262295Y-101523809D01*
X148262295Y-101523809D02*
X148262295Y-101676190D01*
X148262295Y-101676190D02*
X148300390Y-101752380D01*
X148300390Y-101752380D02*
X148338485Y-101790475D01*
X148338485Y-101790475D02*
X148414676Y-101828571D01*
X148414676Y-101828571D02*
X148605152Y-101828571D01*
X148605152Y-101828571D02*
X148681342Y-101790475D01*
X148681342Y-101790475D02*
X148719438Y-101752380D01*
X148719438Y-101752380D02*
X148757533Y-101676190D01*
X148757533Y-101676190D02*
X148757533Y-101523809D01*
X148757533Y-101523809D02*
X148719438Y-101447618D01*
X148719438Y-101447618D02*
X148681342Y-101409523D01*
X148681342Y-101409523D02*
X148605152Y-101371428D01*
X195172475Y-111205300D02*
X195286761Y-111243395D01*
X195286761Y-111243395D02*
X195477237Y-111243395D01*
X195477237Y-111243395D02*
X195553428Y-111205300D01*
X195553428Y-111205300D02*
X195591523Y-111167204D01*
X195591523Y-111167204D02*
X195629618Y-111091014D01*
X195629618Y-111091014D02*
X195629618Y-111014823D01*
X195629618Y-111014823D02*
X195591523Y-110938633D01*
X195591523Y-110938633D02*
X195553428Y-110900538D01*
X195553428Y-110900538D02*
X195477237Y-110862442D01*
X195477237Y-110862442D02*
X195324856Y-110824347D01*
X195324856Y-110824347D02*
X195248666Y-110786252D01*
X195248666Y-110786252D02*
X195210571Y-110748157D01*
X195210571Y-110748157D02*
X195172475Y-110671966D01*
X195172475Y-110671966D02*
X195172475Y-110595776D01*
X195172475Y-110595776D02*
X195210571Y-110519585D01*
X195210571Y-110519585D02*
X195248666Y-110481490D01*
X195248666Y-110481490D02*
X195324856Y-110443395D01*
X195324856Y-110443395D02*
X195515333Y-110443395D01*
X195515333Y-110443395D02*
X195629618Y-110481490D01*
X196391523Y-111243395D02*
X195934380Y-111243395D01*
X196162952Y-111243395D02*
X196162952Y-110443395D01*
X196162952Y-110443395D02*
X196086761Y-110557680D01*
X196086761Y-110557680D02*
X196010571Y-110633871D01*
X196010571Y-110633871D02*
X195934380Y-110671966D01*
X211425714Y-81886104D02*
X211387618Y-81924200D01*
X211387618Y-81924200D02*
X211273333Y-81962295D01*
X211273333Y-81962295D02*
X211197142Y-81962295D01*
X211197142Y-81962295D02*
X211082856Y-81924200D01*
X211082856Y-81924200D02*
X211006666Y-81848009D01*
X211006666Y-81848009D02*
X210968571Y-81771819D01*
X210968571Y-81771819D02*
X210930475Y-81619438D01*
X210930475Y-81619438D02*
X210930475Y-81505152D01*
X210930475Y-81505152D02*
X210968571Y-81352771D01*
X210968571Y-81352771D02*
X211006666Y-81276580D01*
X211006666Y-81276580D02*
X211082856Y-81200390D01*
X211082856Y-81200390D02*
X211197142Y-81162295D01*
X211197142Y-81162295D02*
X211273333Y-81162295D01*
X211273333Y-81162295D02*
X211387618Y-81200390D01*
X211387618Y-81200390D02*
X211425714Y-81238485D01*
X212187618Y-81962295D02*
X211730475Y-81962295D01*
X211959047Y-81962295D02*
X211959047Y-81162295D01*
X211959047Y-81162295D02*
X211882856Y-81276580D01*
X211882856Y-81276580D02*
X211806666Y-81352771D01*
X211806666Y-81352771D02*
X211730475Y-81390866D01*
X212492380Y-81238485D02*
X212530476Y-81200390D01*
X212530476Y-81200390D02*
X212606666Y-81162295D01*
X212606666Y-81162295D02*
X212797142Y-81162295D01*
X212797142Y-81162295D02*
X212873333Y-81200390D01*
X212873333Y-81200390D02*
X212911428Y-81238485D01*
X212911428Y-81238485D02*
X212949523Y-81314676D01*
X212949523Y-81314676D02*
X212949523Y-81390866D01*
X212949523Y-81390866D02*
X212911428Y-81505152D01*
X212911428Y-81505152D02*
X212454285Y-81962295D01*
X212454285Y-81962295D02*
X212949523Y-81962295D01*
X159716667Y-99962295D02*
X159450000Y-99581342D01*
X159259524Y-99962295D02*
X159259524Y-99162295D01*
X159259524Y-99162295D02*
X159564286Y-99162295D01*
X159564286Y-99162295D02*
X159640476Y-99200390D01*
X159640476Y-99200390D02*
X159678571Y-99238485D01*
X159678571Y-99238485D02*
X159716667Y-99314676D01*
X159716667Y-99314676D02*
X159716667Y-99428961D01*
X159716667Y-99428961D02*
X159678571Y-99505152D01*
X159678571Y-99505152D02*
X159640476Y-99543247D01*
X159640476Y-99543247D02*
X159564286Y-99581342D01*
X159564286Y-99581342D02*
X159259524Y-99581342D01*
X160402381Y-99162295D02*
X160250000Y-99162295D01*
X160250000Y-99162295D02*
X160173809Y-99200390D01*
X160173809Y-99200390D02*
X160135714Y-99238485D01*
X160135714Y-99238485D02*
X160059524Y-99352771D01*
X160059524Y-99352771D02*
X160021428Y-99505152D01*
X160021428Y-99505152D02*
X160021428Y-99809914D01*
X160021428Y-99809914D02*
X160059524Y-99886104D01*
X160059524Y-99886104D02*
X160097619Y-99924200D01*
X160097619Y-99924200D02*
X160173809Y-99962295D01*
X160173809Y-99962295D02*
X160326190Y-99962295D01*
X160326190Y-99962295D02*
X160402381Y-99924200D01*
X160402381Y-99924200D02*
X160440476Y-99886104D01*
X160440476Y-99886104D02*
X160478571Y-99809914D01*
X160478571Y-99809914D02*
X160478571Y-99619438D01*
X160478571Y-99619438D02*
X160440476Y-99543247D01*
X160440476Y-99543247D02*
X160402381Y-99505152D01*
X160402381Y-99505152D02*
X160326190Y-99467057D01*
X160326190Y-99467057D02*
X160173809Y-99467057D01*
X160173809Y-99467057D02*
X160097619Y-99505152D01*
X160097619Y-99505152D02*
X160059524Y-99543247D01*
X160059524Y-99543247D02*
X160021428Y-99619438D01*
X173668395Y-71827523D02*
X174316014Y-71827523D01*
X174316014Y-71827523D02*
X174392204Y-71789428D01*
X174392204Y-71789428D02*
X174430300Y-71751333D01*
X174430300Y-71751333D02*
X174468395Y-71675142D01*
X174468395Y-71675142D02*
X174468395Y-71522761D01*
X174468395Y-71522761D02*
X174430300Y-71446571D01*
X174430300Y-71446571D02*
X174392204Y-71408476D01*
X174392204Y-71408476D02*
X174316014Y-71370380D01*
X174316014Y-71370380D02*
X173668395Y-71370380D01*
X173668395Y-71065619D02*
X173668395Y-70532285D01*
X173668395Y-70532285D02*
X174468395Y-70875143D01*
X170983333Y-100743247D02*
X170716667Y-100743247D01*
X170716667Y-101162295D02*
X170716667Y-100362295D01*
X170716667Y-100362295D02*
X171097619Y-100362295D01*
X171821428Y-101162295D02*
X171364285Y-101162295D01*
X171592857Y-101162295D02*
X171592857Y-100362295D01*
X171592857Y-100362295D02*
X171516666Y-100476580D01*
X171516666Y-100476580D02*
X171440476Y-100552771D01*
X171440476Y-100552771D02*
X171364285Y-100590866D01*
X205466667Y-73386104D02*
X205428571Y-73424200D01*
X205428571Y-73424200D02*
X205314286Y-73462295D01*
X205314286Y-73462295D02*
X205238095Y-73462295D01*
X205238095Y-73462295D02*
X205123809Y-73424200D01*
X205123809Y-73424200D02*
X205047619Y-73348009D01*
X205047619Y-73348009D02*
X205009524Y-73271819D01*
X205009524Y-73271819D02*
X204971428Y-73119438D01*
X204971428Y-73119438D02*
X204971428Y-73005152D01*
X204971428Y-73005152D02*
X205009524Y-72852771D01*
X205009524Y-72852771D02*
X205047619Y-72776580D01*
X205047619Y-72776580D02*
X205123809Y-72700390D01*
X205123809Y-72700390D02*
X205238095Y-72662295D01*
X205238095Y-72662295D02*
X205314286Y-72662295D01*
X205314286Y-72662295D02*
X205428571Y-72700390D01*
X205428571Y-72700390D02*
X205466667Y-72738485D01*
X205733333Y-72662295D02*
X206266667Y-72662295D01*
X206266667Y-72662295D02*
X205923809Y-73462295D01*
X189935714Y-66262295D02*
X189669047Y-65881342D01*
X189478571Y-66262295D02*
X189478571Y-65462295D01*
X189478571Y-65462295D02*
X189783333Y-65462295D01*
X189783333Y-65462295D02*
X189859523Y-65500390D01*
X189859523Y-65500390D02*
X189897618Y-65538485D01*
X189897618Y-65538485D02*
X189935714Y-65614676D01*
X189935714Y-65614676D02*
X189935714Y-65728961D01*
X189935714Y-65728961D02*
X189897618Y-65805152D01*
X189897618Y-65805152D02*
X189859523Y-65843247D01*
X189859523Y-65843247D02*
X189783333Y-65881342D01*
X189783333Y-65881342D02*
X189478571Y-65881342D01*
X190240475Y-65538485D02*
X190278571Y-65500390D01*
X190278571Y-65500390D02*
X190354761Y-65462295D01*
X190354761Y-65462295D02*
X190545237Y-65462295D01*
X190545237Y-65462295D02*
X190621428Y-65500390D01*
X190621428Y-65500390D02*
X190659523Y-65538485D01*
X190659523Y-65538485D02*
X190697618Y-65614676D01*
X190697618Y-65614676D02*
X190697618Y-65690866D01*
X190697618Y-65690866D02*
X190659523Y-65805152D01*
X190659523Y-65805152D02*
X190202380Y-66262295D01*
X190202380Y-66262295D02*
X190697618Y-66262295D01*
X191383333Y-65728961D02*
X191383333Y-66262295D01*
X191192857Y-65424200D02*
X191002380Y-65995628D01*
X191002380Y-65995628D02*
X191497619Y-65995628D01*
X216016666Y-101854819D02*
X216016666Y-102569104D01*
X216016666Y-102569104D02*
X215969047Y-102711961D01*
X215969047Y-102711961D02*
X215873809Y-102807200D01*
X215873809Y-102807200D02*
X215730952Y-102854819D01*
X215730952Y-102854819D02*
X215635714Y-102854819D01*
X216397619Y-101854819D02*
X217016666Y-101854819D01*
X217016666Y-101854819D02*
X216683333Y-102235771D01*
X216683333Y-102235771D02*
X216826190Y-102235771D01*
X216826190Y-102235771D02*
X216921428Y-102283390D01*
X216921428Y-102283390D02*
X216969047Y-102331009D01*
X216969047Y-102331009D02*
X217016666Y-102426247D01*
X217016666Y-102426247D02*
X217016666Y-102664342D01*
X217016666Y-102664342D02*
X216969047Y-102759580D01*
X216969047Y-102759580D02*
X216921428Y-102807200D01*
X216921428Y-102807200D02*
X216826190Y-102854819D01*
X216826190Y-102854819D02*
X216540476Y-102854819D01*
X216540476Y-102854819D02*
X216445238Y-102807200D01*
X216445238Y-102807200D02*
X216397619Y-102759580D01*
X155433333Y-105962295D02*
X155433333Y-106533723D01*
X155433333Y-106533723D02*
X155395238Y-106648009D01*
X155395238Y-106648009D02*
X155319047Y-106724200D01*
X155319047Y-106724200D02*
X155204762Y-106762295D01*
X155204762Y-106762295D02*
X155128571Y-106762295D01*
X155776190Y-106038485D02*
X155814286Y-106000390D01*
X155814286Y-106000390D02*
X155890476Y-105962295D01*
X155890476Y-105962295D02*
X156080952Y-105962295D01*
X156080952Y-105962295D02*
X156157143Y-106000390D01*
X156157143Y-106000390D02*
X156195238Y-106038485D01*
X156195238Y-106038485D02*
X156233333Y-106114676D01*
X156233333Y-106114676D02*
X156233333Y-106190866D01*
X156233333Y-106190866D02*
X156195238Y-106305152D01*
X156195238Y-106305152D02*
X155738095Y-106762295D01*
X155738095Y-106762295D02*
X156233333Y-106762295D01*
X205285714Y-78562295D02*
X205019047Y-78181342D01*
X204828571Y-78562295D02*
X204828571Y-77762295D01*
X204828571Y-77762295D02*
X205133333Y-77762295D01*
X205133333Y-77762295D02*
X205209523Y-77800390D01*
X205209523Y-77800390D02*
X205247618Y-77838485D01*
X205247618Y-77838485D02*
X205285714Y-77914676D01*
X205285714Y-77914676D02*
X205285714Y-78028961D01*
X205285714Y-78028961D02*
X205247618Y-78105152D01*
X205247618Y-78105152D02*
X205209523Y-78143247D01*
X205209523Y-78143247D02*
X205133333Y-78181342D01*
X205133333Y-78181342D02*
X204828571Y-78181342D01*
X205590475Y-77838485D02*
X205628571Y-77800390D01*
X205628571Y-77800390D02*
X205704761Y-77762295D01*
X205704761Y-77762295D02*
X205895237Y-77762295D01*
X205895237Y-77762295D02*
X205971428Y-77800390D01*
X205971428Y-77800390D02*
X206009523Y-77838485D01*
X206009523Y-77838485D02*
X206047618Y-77914676D01*
X206047618Y-77914676D02*
X206047618Y-77990866D01*
X206047618Y-77990866D02*
X206009523Y-78105152D01*
X206009523Y-78105152D02*
X205552380Y-78562295D01*
X205552380Y-78562295D02*
X206047618Y-78562295D01*
X206542857Y-77762295D02*
X206619047Y-77762295D01*
X206619047Y-77762295D02*
X206695238Y-77800390D01*
X206695238Y-77800390D02*
X206733333Y-77838485D01*
X206733333Y-77838485D02*
X206771428Y-77914676D01*
X206771428Y-77914676D02*
X206809523Y-78067057D01*
X206809523Y-78067057D02*
X206809523Y-78257533D01*
X206809523Y-78257533D02*
X206771428Y-78409914D01*
X206771428Y-78409914D02*
X206733333Y-78486104D01*
X206733333Y-78486104D02*
X206695238Y-78524200D01*
X206695238Y-78524200D02*
X206619047Y-78562295D01*
X206619047Y-78562295D02*
X206542857Y-78562295D01*
X206542857Y-78562295D02*
X206466666Y-78524200D01*
X206466666Y-78524200D02*
X206428571Y-78486104D01*
X206428571Y-78486104D02*
X206390476Y-78409914D01*
X206390476Y-78409914D02*
X206352380Y-78257533D01*
X206352380Y-78257533D02*
X206352380Y-78067057D01*
X206352380Y-78067057D02*
X206390476Y-77914676D01*
X206390476Y-77914676D02*
X206428571Y-77838485D01*
X206428571Y-77838485D02*
X206466666Y-77800390D01*
X206466666Y-77800390D02*
X206542857Y-77762295D01*
X167748214Y-70812295D02*
X167481547Y-70431342D01*
X167291071Y-70812295D02*
X167291071Y-70012295D01*
X167291071Y-70012295D02*
X167595833Y-70012295D01*
X167595833Y-70012295D02*
X167672023Y-70050390D01*
X167672023Y-70050390D02*
X167710118Y-70088485D01*
X167710118Y-70088485D02*
X167748214Y-70164676D01*
X167748214Y-70164676D02*
X167748214Y-70278961D01*
X167748214Y-70278961D02*
X167710118Y-70355152D01*
X167710118Y-70355152D02*
X167672023Y-70393247D01*
X167672023Y-70393247D02*
X167595833Y-70431342D01*
X167595833Y-70431342D02*
X167291071Y-70431342D01*
X168014880Y-70012295D02*
X168510118Y-70012295D01*
X168510118Y-70012295D02*
X168243452Y-70317057D01*
X168243452Y-70317057D02*
X168357737Y-70317057D01*
X168357737Y-70317057D02*
X168433928Y-70355152D01*
X168433928Y-70355152D02*
X168472023Y-70393247D01*
X168472023Y-70393247D02*
X168510118Y-70469438D01*
X168510118Y-70469438D02*
X168510118Y-70659914D01*
X168510118Y-70659914D02*
X168472023Y-70736104D01*
X168472023Y-70736104D02*
X168433928Y-70774200D01*
X168433928Y-70774200D02*
X168357737Y-70812295D01*
X168357737Y-70812295D02*
X168129166Y-70812295D01*
X168129166Y-70812295D02*
X168052975Y-70774200D01*
X168052975Y-70774200D02*
X168014880Y-70736104D01*
X169005357Y-70012295D02*
X169081547Y-70012295D01*
X169081547Y-70012295D02*
X169157738Y-70050390D01*
X169157738Y-70050390D02*
X169195833Y-70088485D01*
X169195833Y-70088485D02*
X169233928Y-70164676D01*
X169233928Y-70164676D02*
X169272023Y-70317057D01*
X169272023Y-70317057D02*
X169272023Y-70507533D01*
X169272023Y-70507533D02*
X169233928Y-70659914D01*
X169233928Y-70659914D02*
X169195833Y-70736104D01*
X169195833Y-70736104D02*
X169157738Y-70774200D01*
X169157738Y-70774200D02*
X169081547Y-70812295D01*
X169081547Y-70812295D02*
X169005357Y-70812295D01*
X169005357Y-70812295D02*
X168929166Y-70774200D01*
X168929166Y-70774200D02*
X168891071Y-70736104D01*
X168891071Y-70736104D02*
X168852976Y-70659914D01*
X168852976Y-70659914D02*
X168814880Y-70507533D01*
X168814880Y-70507533D02*
X168814880Y-70317057D01*
X168814880Y-70317057D02*
X168852976Y-70164676D01*
X168852976Y-70164676D02*
X168891071Y-70088485D01*
X168891071Y-70088485D02*
X168929166Y-70050390D01*
X168929166Y-70050390D02*
X169005357Y-70012295D01*
X192262295Y-86114285D02*
X191881342Y-86380952D01*
X192262295Y-86571428D02*
X191462295Y-86571428D01*
X191462295Y-86571428D02*
X191462295Y-86266666D01*
X191462295Y-86266666D02*
X191500390Y-86190476D01*
X191500390Y-86190476D02*
X191538485Y-86152381D01*
X191538485Y-86152381D02*
X191614676Y-86114285D01*
X191614676Y-86114285D02*
X191728961Y-86114285D01*
X191728961Y-86114285D02*
X191805152Y-86152381D01*
X191805152Y-86152381D02*
X191843247Y-86190476D01*
X191843247Y-86190476D02*
X191881342Y-86266666D01*
X191881342Y-86266666D02*
X191881342Y-86571428D01*
X191538485Y-85809524D02*
X191500390Y-85771428D01*
X191500390Y-85771428D02*
X191462295Y-85695238D01*
X191462295Y-85695238D02*
X191462295Y-85504762D01*
X191462295Y-85504762D02*
X191500390Y-85428571D01*
X191500390Y-85428571D02*
X191538485Y-85390476D01*
X191538485Y-85390476D02*
X191614676Y-85352381D01*
X191614676Y-85352381D02*
X191690866Y-85352381D01*
X191690866Y-85352381D02*
X191805152Y-85390476D01*
X191805152Y-85390476D02*
X192262295Y-85847619D01*
X192262295Y-85847619D02*
X192262295Y-85352381D01*
X191538485Y-85047619D02*
X191500390Y-85009523D01*
X191500390Y-85009523D02*
X191462295Y-84933333D01*
X191462295Y-84933333D02*
X191462295Y-84742857D01*
X191462295Y-84742857D02*
X191500390Y-84666666D01*
X191500390Y-84666666D02*
X191538485Y-84628571D01*
X191538485Y-84628571D02*
X191614676Y-84590476D01*
X191614676Y-84590476D02*
X191690866Y-84590476D01*
X191690866Y-84590476D02*
X191805152Y-84628571D01*
X191805152Y-84628571D02*
X192262295Y-85085714D01*
X192262295Y-85085714D02*
X192262295Y-84590476D01*
X192485714Y-95012295D02*
X192219047Y-94631342D01*
X192028571Y-95012295D02*
X192028571Y-94212295D01*
X192028571Y-94212295D02*
X192333333Y-94212295D01*
X192333333Y-94212295D02*
X192409523Y-94250390D01*
X192409523Y-94250390D02*
X192447618Y-94288485D01*
X192447618Y-94288485D02*
X192485714Y-94364676D01*
X192485714Y-94364676D02*
X192485714Y-94478961D01*
X192485714Y-94478961D02*
X192447618Y-94555152D01*
X192447618Y-94555152D02*
X192409523Y-94593247D01*
X192409523Y-94593247D02*
X192333333Y-94631342D01*
X192333333Y-94631342D02*
X192028571Y-94631342D01*
X193247618Y-95012295D02*
X192790475Y-95012295D01*
X193019047Y-95012295D02*
X193019047Y-94212295D01*
X193019047Y-94212295D02*
X192942856Y-94326580D01*
X192942856Y-94326580D02*
X192866666Y-94402771D01*
X192866666Y-94402771D02*
X192790475Y-94440866D01*
X193514285Y-94212295D02*
X194009523Y-94212295D01*
X194009523Y-94212295D02*
X193742857Y-94517057D01*
X193742857Y-94517057D02*
X193857142Y-94517057D01*
X193857142Y-94517057D02*
X193933333Y-94555152D01*
X193933333Y-94555152D02*
X193971428Y-94593247D01*
X193971428Y-94593247D02*
X194009523Y-94669438D01*
X194009523Y-94669438D02*
X194009523Y-94859914D01*
X194009523Y-94859914D02*
X193971428Y-94936104D01*
X193971428Y-94936104D02*
X193933333Y-94974200D01*
X193933333Y-94974200D02*
X193857142Y-95012295D01*
X193857142Y-95012295D02*
X193628571Y-95012295D01*
X193628571Y-95012295D02*
X193552380Y-94974200D01*
X193552380Y-94974200D02*
X193514285Y-94936104D01*
X153066667Y-87036104D02*
X153028571Y-87074200D01*
X153028571Y-87074200D02*
X152914286Y-87112295D01*
X152914286Y-87112295D02*
X152838095Y-87112295D01*
X152838095Y-87112295D02*
X152723809Y-87074200D01*
X152723809Y-87074200D02*
X152647619Y-86998009D01*
X152647619Y-86998009D02*
X152609524Y-86921819D01*
X152609524Y-86921819D02*
X152571428Y-86769438D01*
X152571428Y-86769438D02*
X152571428Y-86655152D01*
X152571428Y-86655152D02*
X152609524Y-86502771D01*
X152609524Y-86502771D02*
X152647619Y-86426580D01*
X152647619Y-86426580D02*
X152723809Y-86350390D01*
X152723809Y-86350390D02*
X152838095Y-86312295D01*
X152838095Y-86312295D02*
X152914286Y-86312295D01*
X152914286Y-86312295D02*
X153028571Y-86350390D01*
X153028571Y-86350390D02*
X153066667Y-86388485D01*
X153752381Y-86578961D02*
X153752381Y-87112295D01*
X153561905Y-86274200D02*
X153371428Y-86845628D01*
X153371428Y-86845628D02*
X153866667Y-86845628D01*
X192185714Y-109236104D02*
X192147618Y-109274200D01*
X192147618Y-109274200D02*
X192033333Y-109312295D01*
X192033333Y-109312295D02*
X191957142Y-109312295D01*
X191957142Y-109312295D02*
X191842856Y-109274200D01*
X191842856Y-109274200D02*
X191766666Y-109198009D01*
X191766666Y-109198009D02*
X191728571Y-109121819D01*
X191728571Y-109121819D02*
X191690475Y-108969438D01*
X191690475Y-108969438D02*
X191690475Y-108855152D01*
X191690475Y-108855152D02*
X191728571Y-108702771D01*
X191728571Y-108702771D02*
X191766666Y-108626580D01*
X191766666Y-108626580D02*
X191842856Y-108550390D01*
X191842856Y-108550390D02*
X191957142Y-108512295D01*
X191957142Y-108512295D02*
X192033333Y-108512295D01*
X192033333Y-108512295D02*
X192147618Y-108550390D01*
X192147618Y-108550390D02*
X192185714Y-108588485D01*
X192490475Y-108588485D02*
X192528571Y-108550390D01*
X192528571Y-108550390D02*
X192604761Y-108512295D01*
X192604761Y-108512295D02*
X192795237Y-108512295D01*
X192795237Y-108512295D02*
X192871428Y-108550390D01*
X192871428Y-108550390D02*
X192909523Y-108588485D01*
X192909523Y-108588485D02*
X192947618Y-108664676D01*
X192947618Y-108664676D02*
X192947618Y-108740866D01*
X192947618Y-108740866D02*
X192909523Y-108855152D01*
X192909523Y-108855152D02*
X192452380Y-109312295D01*
X192452380Y-109312295D02*
X192947618Y-109312295D01*
X193252380Y-108588485D02*
X193290476Y-108550390D01*
X193290476Y-108550390D02*
X193366666Y-108512295D01*
X193366666Y-108512295D02*
X193557142Y-108512295D01*
X193557142Y-108512295D02*
X193633333Y-108550390D01*
X193633333Y-108550390D02*
X193671428Y-108588485D01*
X193671428Y-108588485D02*
X193709523Y-108664676D01*
X193709523Y-108664676D02*
X193709523Y-108740866D01*
X193709523Y-108740866D02*
X193671428Y-108855152D01*
X193671428Y-108855152D02*
X193214285Y-109312295D01*
X193214285Y-109312295D02*
X193709523Y-109312295D01*
X149266667Y-84586104D02*
X149228571Y-84624200D01*
X149228571Y-84624200D02*
X149114286Y-84662295D01*
X149114286Y-84662295D02*
X149038095Y-84662295D01*
X149038095Y-84662295D02*
X148923809Y-84624200D01*
X148923809Y-84624200D02*
X148847619Y-84548009D01*
X148847619Y-84548009D02*
X148809524Y-84471819D01*
X148809524Y-84471819D02*
X148771428Y-84319438D01*
X148771428Y-84319438D02*
X148771428Y-84205152D01*
X148771428Y-84205152D02*
X148809524Y-84052771D01*
X148809524Y-84052771D02*
X148847619Y-83976580D01*
X148847619Y-83976580D02*
X148923809Y-83900390D01*
X148923809Y-83900390D02*
X149038095Y-83862295D01*
X149038095Y-83862295D02*
X149114286Y-83862295D01*
X149114286Y-83862295D02*
X149228571Y-83900390D01*
X149228571Y-83900390D02*
X149266667Y-83938485D01*
X149990476Y-83862295D02*
X149609524Y-83862295D01*
X149609524Y-83862295D02*
X149571428Y-84243247D01*
X149571428Y-84243247D02*
X149609524Y-84205152D01*
X149609524Y-84205152D02*
X149685714Y-84167057D01*
X149685714Y-84167057D02*
X149876190Y-84167057D01*
X149876190Y-84167057D02*
X149952381Y-84205152D01*
X149952381Y-84205152D02*
X149990476Y-84243247D01*
X149990476Y-84243247D02*
X150028571Y-84319438D01*
X150028571Y-84319438D02*
X150028571Y-84509914D01*
X150028571Y-84509914D02*
X149990476Y-84586104D01*
X149990476Y-84586104D02*
X149952381Y-84624200D01*
X149952381Y-84624200D02*
X149876190Y-84662295D01*
X149876190Y-84662295D02*
X149685714Y-84662295D01*
X149685714Y-84662295D02*
X149609524Y-84624200D01*
X149609524Y-84624200D02*
X149571428Y-84586104D01*
X175990476Y-88462295D02*
X175990476Y-89109914D01*
X175990476Y-89109914D02*
X176028571Y-89186104D01*
X176028571Y-89186104D02*
X176066666Y-89224200D01*
X176066666Y-89224200D02*
X176142857Y-89262295D01*
X176142857Y-89262295D02*
X176295238Y-89262295D01*
X176295238Y-89262295D02*
X176371428Y-89224200D01*
X176371428Y-89224200D02*
X176409523Y-89186104D01*
X176409523Y-89186104D02*
X176447619Y-89109914D01*
X176447619Y-89109914D02*
X176447619Y-88462295D01*
X177171428Y-88728961D02*
X177171428Y-89262295D01*
X176980952Y-88424200D02*
X176790475Y-88995628D01*
X176790475Y-88995628D02*
X177285714Y-88995628D01*
D13*
%TO.C,MK1*%
X159162500Y-71500000D02*
G75*
G02*
X153162500Y-71500000I-3000000J0D01*
G01*
X153162500Y-71500000D02*
G75*
G02*
X159162500Y-71500000I3000000J0D01*
G01*
D14*
%TO.C,J5*%
X159620000Y-63580000D02*
X158290000Y-63580000D01*
X159620000Y-62250000D02*
X159620000Y-63580000D01*
X157020000Y-63580000D02*
X146800000Y-63580000D01*
X157020000Y-60920000D02*
X157020000Y-63580000D01*
X157020000Y-60920000D02*
X146800000Y-60920000D01*
X146800000Y-60920000D02*
X146800000Y-63580000D01*
%TO.C,R28*%
X164639564Y-72235000D02*
X164185436Y-72235000D01*
X164639564Y-70765000D02*
X164185436Y-70765000D01*
%TO.C,R25*%
X192015000Y-63827064D02*
X192015000Y-63372936D01*
X193485000Y-63827064D02*
X193485000Y-63372936D01*
%TO.C,C14*%
X188415000Y-82626252D02*
X188415000Y-82103748D01*
X189885000Y-82626252D02*
X189885000Y-82103748D01*
%TO.C,Q3*%
X194190000Y-101740000D02*
X195190000Y-101740000D01*
X194190000Y-103260000D02*
X194190000Y-101740000D01*
X194240000Y-103260000D02*
X194190000Y-103260000D01*
X196140000Y-103260000D02*
X195360000Y-103260000D01*
X196310000Y-101740000D02*
X197310000Y-101740000D01*
X197310000Y-101740000D02*
X197310000Y-103260000D01*
X197310000Y-103260000D02*
X197260000Y-103260000D01*
X195700000Y-104040000D02*
X195370000Y-103800000D01*
X195700000Y-103560000D01*
X195700000Y-104040000D01*
G36*
X195700000Y-104040000D02*
G01*
X195370000Y-103800000D01*
X195700000Y-103560000D01*
X195700000Y-104040000D01*
G37*
D13*
%TO.C,U2*%
X185615000Y-64945000D02*
X185615000Y-62345000D01*
X188385000Y-64945000D02*
X188385000Y-62345000D01*
D15*
X186050000Y-62045000D02*
G75*
G02*
X185950000Y-62045000I-50000J0D01*
G01*
X185950000Y-62045000D02*
G75*
G02*
X186050000Y-62045000I50000J0D01*
G01*
D13*
%TO.C,U3*%
X212250000Y-59900000D02*
X212250000Y-66230000D01*
X212250000Y-79900000D02*
X212250000Y-79770000D01*
X212250000Y-79900000D02*
X230250000Y-79900000D01*
X230250000Y-59900000D02*
X212250000Y-59900000D01*
X230250000Y-66230000D02*
X230250000Y-59900000D01*
X230250000Y-79900000D02*
X230250000Y-79770000D01*
D15*
X210850000Y-67000000D02*
G75*
G02*
X210650000Y-67000000I-100000J0D01*
G01*
X210650000Y-67000000D02*
G75*
G02*
X210850000Y-67000000I100000J0D01*
G01*
D14*
%TO.C,R14*%
X171015000Y-92935436D02*
X171015000Y-93389564D01*
X172485000Y-92935436D02*
X172485000Y-93389564D01*
D15*
%TO.C,LED1*%
X145950000Y-96600000D02*
X145950000Y-99250000D01*
X145950000Y-99250000D02*
X148050000Y-99250000D01*
X148050000Y-99250000D02*
X148050000Y-96600000D01*
D14*
%TO.C,R29*%
X171639564Y-72015000D02*
X171185436Y-72015000D01*
X171639564Y-73485000D02*
X171185436Y-73485000D01*
%TO.C,R32*%
X185265000Y-108227064D02*
X185265000Y-107772936D01*
X186735000Y-108227064D02*
X186735000Y-107772936D01*
%TO.C,R27*%
X171639564Y-74265000D02*
X171185436Y-74265000D01*
X171639564Y-75735000D02*
X171185436Y-75735000D01*
%TO.C,C6*%
X161226248Y-112015000D02*
X161748752Y-112015000D01*
X161226248Y-113485000D02*
X161748752Y-113485000D01*
%TO.C,C8*%
X209015000Y-68261252D02*
X209015000Y-67738748D01*
X210485000Y-68261252D02*
X210485000Y-67738748D01*
%TO.C,C21*%
X196011252Y-108015000D02*
X195488748Y-108015000D01*
X196011252Y-109485000D02*
X195488748Y-109485000D01*
%TO.C,R8*%
X149765000Y-101610436D02*
X149765000Y-102064564D01*
X151235000Y-101610436D02*
X151235000Y-102064564D01*
%TO.C,R3*%
X169765000Y-111227064D02*
X169765000Y-110772936D01*
X171235000Y-111227064D02*
X171235000Y-110772936D01*
D15*
%TO.C,C3*%
X162210000Y-88250000D02*
G75*
G02*
X162110000Y-88250000I-50000J0D01*
G01*
X162110000Y-88250000D02*
G75*
G02*
X162210000Y-88250000I50000J0D01*
G01*
D14*
%TO.C,C11*%
X188565000Y-91561252D02*
X188565000Y-91038748D01*
X190035000Y-91561252D02*
X190035000Y-91038748D01*
%TO.C,TP3*%
X203350000Y-78400000D02*
G75*
G02*
X201950000Y-78400000I-700000J0D01*
G01*
X201950000Y-78400000D02*
G75*
G02*
X203350000Y-78400000I700000J0D01*
G01*
%TO.C,C15*%
X186738748Y-65910000D02*
X187261252Y-65910000D01*
X186738748Y-67380000D02*
X187261252Y-67380000D01*
%TO.C,TP2*%
X196450000Y-89250000D02*
G75*
G02*
X195050000Y-89250000I-700000J0D01*
G01*
X195050000Y-89250000D02*
G75*
G02*
X196450000Y-89250000I700000J0D01*
G01*
D15*
%TO.C,U6*%
X192925000Y-78465000D02*
X197875000Y-78465000D01*
X192925000Y-83765000D02*
X192925000Y-78465000D01*
X197875000Y-78465000D02*
X197875000Y-83765000D01*
X197875000Y-83765000D02*
X192925000Y-83765000D01*
D13*
X191900000Y-78515000D02*
G75*
G02*
X191700000Y-78515000I-100000J0D01*
G01*
X191700000Y-78515000D02*
G75*
G02*
X191900000Y-78515000I100000J0D01*
G01*
X192023606Y-78515000D02*
G75*
G02*
X191576394Y-78515000I-223606J0D01*
G01*
X191576394Y-78515000D02*
G75*
G02*
X192023606Y-78515000I223606J0D01*
G01*
X192000000Y-78515000D02*
G75*
G02*
X191800000Y-78515000I-100000J0D01*
G01*
X191800000Y-78515000D02*
G75*
G02*
X192000000Y-78515000I100000J0D01*
G01*
X193700000Y-79215000D02*
G75*
G02*
X193500000Y-79215000I-100000J0D01*
G01*
X193500000Y-79215000D02*
G75*
G02*
X193700000Y-79215000I100000J0D01*
G01*
X193741419Y-79215000D02*
G75*
G02*
X193458581Y-79215000I-141419J0D01*
G01*
X193458581Y-79215000D02*
G75*
G02*
X193741419Y-79215000I141419J0D01*
G01*
X193823606Y-79215000D02*
G75*
G02*
X193376394Y-79215000I-223606J0D01*
G01*
X193376394Y-79215000D02*
G75*
G02*
X193823606Y-79215000I223606J0D01*
G01*
X193916225Y-79215000D02*
G75*
G02*
X193283775Y-79215000I-316225J0D01*
G01*
X193283775Y-79215000D02*
G75*
G02*
X193916225Y-79215000I316225J0D01*
G01*
X193700000Y-79315000D02*
G75*
G02*
X193500000Y-79315000I-100000J0D01*
G01*
X193500000Y-79315000D02*
G75*
G02*
X193700000Y-79315000I100000J0D01*
G01*
D14*
%TO.C,C17*%
X164151248Y-73015000D02*
X164673752Y-73015000D01*
X164151248Y-74485000D02*
X164673752Y-74485000D01*
%TO.C,C20*%
X181427500Y-71403752D02*
X181427500Y-70881248D01*
X182897500Y-71403752D02*
X182897500Y-70881248D01*
%TO.C,C2*%
X159761252Y-91015000D02*
X159238748Y-91015000D01*
X159761252Y-92485000D02*
X159238748Y-92485000D01*
%TO.C,R15*%
X208015000Y-75272936D02*
X208015000Y-75727064D01*
X209485000Y-75272936D02*
X209485000Y-75727064D01*
%TO.C,R5*%
X156765000Y-101685436D02*
X156765000Y-102139564D01*
X158235000Y-101685436D02*
X158235000Y-102139564D01*
%TO.C,R23*%
X182787064Y-78265000D02*
X182332936Y-78265000D01*
X182787064Y-79735000D02*
X182332936Y-79735000D01*
%TO.C,C1*%
X180015000Y-99111252D02*
X180015000Y-98588748D01*
X181485000Y-99111252D02*
X181485000Y-98588748D01*
%TO.C,R18*%
X167265000Y-92935436D02*
X167265000Y-93389564D01*
X168735000Y-92935436D02*
X168735000Y-93389564D01*
%TO.C,TP4*%
X228950000Y-85000000D02*
G75*
G02*
X227550000Y-85000000I-700000J0D01*
G01*
X227550000Y-85000000D02*
G75*
G02*
X228950000Y-85000000I700000J0D01*
G01*
%TO.C,R11*%
X177765000Y-87360436D02*
X177765000Y-87814564D01*
X179235000Y-87360436D02*
X179235000Y-87814564D01*
%TO.C,J4*%
X163550000Y-60920000D02*
X163550000Y-63580000D01*
X171230000Y-60920000D02*
X163550000Y-60920000D01*
X171230000Y-60920000D02*
X171230000Y-63580000D01*
X171230000Y-63580000D02*
X163550000Y-63580000D01*
X173830000Y-62250000D02*
X173830000Y-63580000D01*
X173830000Y-63580000D02*
X172500000Y-63580000D01*
%TO.C,R4*%
X169765000Y-107139564D02*
X169765000Y-106685436D01*
X171235000Y-107139564D02*
X171235000Y-106685436D01*
%TO.C,TP1*%
X199700000Y-89250000D02*
G75*
G02*
X198300000Y-89250000I-700000J0D01*
G01*
X198300000Y-89250000D02*
G75*
G02*
X199700000Y-89250000I700000J0D01*
G01*
%TO.C,U1*%
X159390000Y-106102500D02*
X160115000Y-106102500D01*
X159390000Y-106827500D02*
X159390000Y-106102500D01*
X159390000Y-110322500D02*
X159390000Y-109597500D01*
X160115000Y-110322500D02*
X159390000Y-110322500D01*
X162885000Y-106102500D02*
X163610000Y-106102500D01*
X163610000Y-106102500D02*
X163610000Y-106827500D01*
X163610000Y-109597500D02*
X163610000Y-110322500D01*
X163610000Y-110322500D02*
X162885000Y-110322500D01*
X164440000Y-109452500D02*
X164110000Y-109212500D01*
X164440000Y-108972500D01*
X164440000Y-109452500D01*
G36*
X164440000Y-109452500D02*
G01*
X164110000Y-109212500D01*
X164440000Y-108972500D01*
X164440000Y-109452500D01*
G37*
%TO.C,C18*%
X175901248Y-74015000D02*
X176423752Y-74015000D01*
X175901248Y-75485000D02*
X176423752Y-75485000D01*
%TO.C,R2*%
X163515000Y-102139564D02*
X163515000Y-101685436D01*
X164985000Y-102139564D02*
X164985000Y-101685436D01*
%TO.C,R16*%
X199227064Y-84765000D02*
X198772936Y-84765000D01*
X199227064Y-86235000D02*
X198772936Y-86235000D01*
%TO.C,C13*%
X217261252Y-84585000D02*
X216738748Y-84585000D01*
X217261252Y-86055000D02*
X216738748Y-86055000D01*
D13*
%TO.C,J1*%
X172880000Y-102950000D02*
X172880000Y-103650000D01*
X172880000Y-111120000D02*
X172880000Y-113200000D01*
X172880000Y-113200000D02*
X181620000Y-113200000D01*
X174030000Y-102950000D02*
X172880000Y-102950000D01*
X180470000Y-102950000D02*
X181620000Y-102950000D01*
X181620000Y-102950000D02*
X181620000Y-103650000D01*
X181620000Y-113200000D02*
X181620000Y-111120000D01*
D15*
X174550000Y-101350000D02*
G75*
G02*
X174350000Y-101350000I-100000J0D01*
G01*
X174350000Y-101350000D02*
G75*
G02*
X174550000Y-101350000I100000J0D01*
G01*
D14*
%TO.C,R12*%
X189772936Y-96565000D02*
X190227064Y-96565000D01*
X189772936Y-98035000D02*
X190227064Y-98035000D01*
D13*
%TO.C,S2*%
X189070000Y-111637500D02*
X190430000Y-111637500D01*
X189070000Y-113537500D02*
X190430000Y-113537500D01*
D15*
X187650000Y-111987500D02*
G75*
G02*
X187450000Y-111987500I-100000J0D01*
G01*
X187450000Y-111987500D02*
G75*
G02*
X187650000Y-111987500I100000J0D01*
G01*
D14*
%TO.C,R31*%
X179177500Y-71389564D02*
X179177500Y-70935436D01*
X180647500Y-71389564D02*
X180647500Y-70935436D01*
%TO.C,TP5*%
X197200000Y-74250000D02*
G75*
G02*
X195800000Y-74250000I-700000J0D01*
G01*
X195800000Y-74250000D02*
G75*
G02*
X197200000Y-74250000I700000J0D01*
G01*
D16*
%TO.C,VR1*%
X156250000Y-79900000D02*
X157490000Y-79900000D01*
X156250000Y-83400000D02*
X156250000Y-79900000D01*
X162750000Y-79900000D02*
X161510000Y-79900000D01*
X162750000Y-83400000D02*
X162750000Y-79900000D01*
D14*
%TO.C,R33*%
X189977064Y-105515000D02*
X189522936Y-105515000D01*
X189977064Y-106985000D02*
X189522936Y-106985000D01*
D13*
%TO.C,Q1*%
X181740000Y-80925000D02*
X184635000Y-80925000D01*
X184635000Y-80925000D02*
X184635000Y-81130000D01*
X184635000Y-82880000D02*
X184635000Y-83075000D01*
X184635000Y-83075000D02*
X181730000Y-83075000D01*
D15*
X179660000Y-81300000D02*
G75*
G02*
X179460000Y-81300000I-100000J0D01*
G01*
X179460000Y-81300000D02*
G75*
G02*
X179660000Y-81300000I100000J0D01*
G01*
D14*
%TO.C,U5*%
X175690000Y-97590000D02*
X175740000Y-97590000D01*
X175690000Y-99410000D02*
X175690000Y-97590000D01*
X175740000Y-99410000D02*
X175690000Y-99410000D01*
X178760000Y-97590000D02*
X178810000Y-97590000D01*
X178810000Y-97590000D02*
X178810000Y-99410000D01*
X178810000Y-99410000D02*
X178760000Y-99410000D01*
X179090000Y-97290000D02*
X178760000Y-97050000D01*
X179090000Y-96810000D01*
X179090000Y-97290000D01*
G36*
X179090000Y-97290000D02*
G01*
X178760000Y-97050000D01*
X179090000Y-96810000D01*
X179090000Y-97290000D01*
G37*
%TO.C,C10*%
X180515000Y-92238748D02*
X180515000Y-92761252D01*
X181985000Y-92238748D02*
X181985000Y-92761252D01*
%TO.C,R34*%
X195522936Y-105515000D02*
X195977064Y-105515000D01*
X195522936Y-106985000D02*
X195977064Y-106985000D01*
%TO.C,R26*%
X176389564Y-67015000D02*
X175935436Y-67015000D01*
X176389564Y-68485000D02*
X175935436Y-68485000D01*
%TO.C,Q2*%
X188190000Y-101740000D02*
X189190000Y-101740000D01*
X188190000Y-103260000D02*
X188190000Y-101740000D01*
X188240000Y-103260000D02*
X188190000Y-103260000D01*
X190140000Y-103260000D02*
X189360000Y-103260000D01*
X190310000Y-101740000D02*
X191310000Y-101740000D01*
X191310000Y-101740000D02*
X191310000Y-103260000D01*
X191310000Y-103260000D02*
X191260000Y-103260000D01*
X189700000Y-104040000D02*
X189370000Y-103800000D01*
X189700000Y-103560000D01*
X189700000Y-104040000D01*
G36*
X189700000Y-104040000D02*
G01*
X189370000Y-103800000D01*
X189700000Y-103560000D01*
X189700000Y-104040000D01*
G37*
%TO.C,C16*%
X164673752Y-68515000D02*
X164151248Y-68515000D01*
X164673752Y-69985000D02*
X164151248Y-69985000D01*
%TO.C,R10*%
X153185436Y-77715000D02*
X153639564Y-77715000D01*
X153185436Y-79185000D02*
X153639564Y-79185000D01*
D15*
%TO.C,C9*%
X185800000Y-89890000D02*
G75*
G02*
X185700000Y-89890000I-50000J0D01*
G01*
X185700000Y-89890000D02*
G75*
G02*
X185800000Y-89890000I50000J0D01*
G01*
D14*
%TO.C,R7*%
X153265000Y-101610436D02*
X153265000Y-102064564D01*
X154735000Y-101610436D02*
X154735000Y-102064564D01*
D15*
%TO.C,LED6*%
X166950000Y-87662500D02*
X166950000Y-90312500D01*
X166950000Y-90312500D02*
X169050000Y-90312500D01*
X169050000Y-90312500D02*
X169050000Y-87662500D01*
D14*
%TO.C,R19*%
X222515000Y-84477064D02*
X222515000Y-84022936D01*
X223985000Y-84477064D02*
X223985000Y-84022936D01*
%TO.C,C19*%
X171151248Y-67515000D02*
X171673752Y-67515000D01*
X171151248Y-68985000D02*
X171673752Y-68985000D01*
%TO.C,R1*%
X161265000Y-102139564D02*
X161265000Y-101685436D01*
X162735000Y-102139564D02*
X162735000Y-101685436D01*
%TO.C,R9*%
X146265000Y-101610436D02*
X146265000Y-102064564D01*
X147735000Y-101610436D02*
X147735000Y-102064564D01*
D13*
%TO.C,S1*%
X195070000Y-111637500D02*
X196430000Y-111637500D01*
X195070000Y-113537500D02*
X196430000Y-113537500D01*
D15*
X193650000Y-111987500D02*
G75*
G02*
X193450000Y-111987500I-100000J0D01*
G01*
X193450000Y-111987500D02*
G75*
G02*
X193650000Y-111987500I100000J0D01*
G01*
%TO.C,C12*%
X214650000Y-84500000D02*
G75*
G02*
X214550000Y-84500000I-50000J0D01*
G01*
X214550000Y-84500000D02*
G75*
G02*
X214650000Y-84500000I50000J0D01*
G01*
D14*
%TO.C,R6*%
X159015000Y-101685436D02*
X159015000Y-102139564D01*
X160485000Y-101685436D02*
X160485000Y-102139564D01*
D15*
%TO.C,LED3*%
X152950000Y-96600000D02*
X152950000Y-99250000D01*
X152950000Y-99250000D02*
X155050000Y-99250000D01*
X155050000Y-99250000D02*
X155050000Y-96600000D01*
%TO.C,LED5*%
X170700000Y-87662500D02*
X170700000Y-90312500D01*
X170700000Y-90312500D02*
X172800000Y-90312500D01*
X172800000Y-90312500D02*
X172800000Y-87662500D01*
D17*
%TO.C,U7*%
X174943300Y-70570000D02*
X174943300Y-71930000D01*
X177381700Y-71930000D02*
X177381700Y-70570000D01*
X174923300Y-73293800D02*
G75*
G02*
X175177300Y-73293800I127000J0D01*
G01*
X175177300Y-73293800D02*
G75*
G02*
X174923300Y-73293800I-127000J0D01*
G01*
D15*
%TO.C,F1*%
X171250000Y-99438000D02*
X171250000Y-97062000D01*
%TO.C,C7*%
X205550000Y-66650000D02*
G75*
G02*
X205450000Y-66650000I-50000J0D01*
G01*
X205450000Y-66650000D02*
G75*
G02*
X205550000Y-66650000I50000J0D01*
G01*
D14*
%TO.C,R24*%
X189765000Y-63827064D02*
X189765000Y-63372936D01*
X191235000Y-63827064D02*
X191235000Y-63372936D01*
D13*
%TO.C,J3*%
X203000000Y-91220000D02*
X203000000Y-109280000D01*
X203000000Y-113500000D02*
X203000000Y-112720000D01*
X209070000Y-88500000D02*
X209855000Y-88500000D01*
X211495000Y-88500000D02*
X212355000Y-88500000D01*
X213995000Y-88500000D02*
X214855000Y-88500000D01*
X216495000Y-88500000D02*
X217355000Y-88500000D01*
X218995000Y-88500000D02*
X219855000Y-88500000D01*
X221495000Y-88500000D02*
X222355000Y-88500000D01*
X223995000Y-88500000D02*
X224855000Y-88500000D01*
X228820000Y-88500000D02*
X229600000Y-88500000D01*
X229600000Y-88500000D02*
X229600000Y-109280000D01*
X229600000Y-113500000D02*
X203000000Y-113500000D01*
X229600000Y-113500000D02*
X229600000Y-112720000D01*
D15*
X223275000Y-86250000D02*
G75*
G02*
X223075000Y-86250000I-100000J0D01*
G01*
X223075000Y-86250000D02*
G75*
G02*
X223275000Y-86250000I100000J0D01*
G01*
D13*
%TO.C,J2*%
X146525000Y-106087500D02*
X154475000Y-106087500D01*
X146525000Y-106767500D02*
X146525000Y-106087500D01*
X146525000Y-111087500D02*
X146525000Y-110407500D01*
X148680000Y-111087500D02*
X146525000Y-111087500D01*
X154475000Y-106087500D02*
X154475000Y-106767500D01*
X154475000Y-111087500D02*
X152320000Y-111087500D01*
X154475000Y-111087500D02*
X154475000Y-110407500D01*
D15*
X149600000Y-114247500D02*
G75*
G02*
X149400000Y-114247500I-100000J0D01*
G01*
X149400000Y-114247500D02*
G75*
G02*
X149600000Y-114247500I100000J0D01*
G01*
D14*
%TO.C,R20*%
X205015000Y-75272936D02*
X205015000Y-75727064D01*
X206485000Y-75272936D02*
X206485000Y-75727064D01*
%TO.C,R30*%
X171639564Y-69765000D02*
X171185436Y-69765000D01*
X171639564Y-71235000D02*
X171185436Y-71235000D01*
%TO.C,R22*%
X194477064Y-84765000D02*
X194022936Y-84765000D01*
X194477064Y-86235000D02*
X194022936Y-86235000D01*
%TO.C,R13*%
X190227064Y-93815000D02*
X189772936Y-93815000D01*
X190227064Y-95285000D02*
X189772936Y-95285000D01*
D15*
%TO.C,LED2*%
X149450000Y-96600000D02*
X149450000Y-99250000D01*
X149450000Y-99250000D02*
X151550000Y-99250000D01*
X151550000Y-99250000D02*
X151550000Y-96600000D01*
%TO.C,C4*%
X153300000Y-80340000D02*
G75*
G02*
X153200000Y-80340000I-50000J0D01*
G01*
X153200000Y-80340000D02*
G75*
G02*
X153300000Y-80340000I50000J0D01*
G01*
D14*
%TO.C,C22*%
X190011252Y-108015000D02*
X189488748Y-108015000D01*
X190011252Y-109485000D02*
X189488748Y-109485000D01*
D15*
%TO.C,LED4*%
X148362500Y-79300000D02*
X151012500Y-79300000D01*
X151012500Y-77200000D02*
X148362500Y-77200000D01*
X151012500Y-79300000D02*
X151012500Y-77200000D01*
D14*
%TO.C,C5*%
X148515000Y-81488748D02*
X148515000Y-82011252D01*
X149985000Y-81488748D02*
X149985000Y-82011252D01*
%TO.C,U4*%
X175090000Y-90840000D02*
X175590000Y-90840000D01*
X175090000Y-91340000D02*
X175090000Y-90840000D01*
X175090000Y-93660000D02*
X175090000Y-93860000D01*
X175590000Y-94160000D02*
X175340000Y-94160000D01*
X178410000Y-90840000D02*
X177910000Y-90840000D01*
X178410000Y-91340000D02*
X178410000Y-90840000D01*
X178410000Y-93660000D02*
X178410000Y-94160000D01*
X178410000Y-94160000D02*
X177910000Y-94160000D01*
X175090000Y-94160000D02*
X174760000Y-94400000D01*
X174760000Y-93920000D01*
X175090000Y-94160000D01*
G36*
X175090000Y-94160000D02*
G01*
X174760000Y-94400000D01*
X174760000Y-93920000D01*
X175090000Y-94160000D01*
G37*
%TD*%
M02*
