M48
; DRILL file {KiCad 9.0.7} date 2026-09-13T13:28:07+0530
; FORMAT={-:-/ absolute / metric / decimal}
; #@! TF.CreationDate,2026-09-13T13:28:07+05:30
; #@! TF.GenerationSoftware,Kicad,Pcbnew,9.0.7
; #@! TF.FileFunction,Plated,1,4,PTH
FMAT,2
METRIC
; #@! TA.AperFunction,Plated,PTH,ViaDrill
T1C0.300
; #@! TA.AperFunction,Plated,PTH,ComponentDrill
T2C0.300
; #@! TA.AperFunction,Plated,PTH,ViaDrill
T3C0.400
; #@! TA.AperFunction,Plated,PTH,ComponentDrill
T4C0.450
; #@! TA.AperFunction,Plated,PTH,ComponentDrill
T5C0.650
; #@! TA.AperFunction,Plated,PTH,ComponentDrill
T6C0.700
; #@! TA.AperFunction,Plated,PTH,ComponentDrill
T7C1.000
%
G90
G05
T1
X147.0Y-79.9
X147.0Y-80.8
X148.1Y-111.8
X148.1Y-112.5
X148.1Y-113.2
X148.2Y-85.1
X148.7Y-96.6
X149.05Y-66.6
X149.45Y-85.1
X150.6Y-85.1
X151.8Y-86.7
X152.3Y-96.6
X154.45Y-86.75
X154.45Y-88.0
X155.3Y-77.0
X155.75Y-86.75
X155.75Y-88.0
X156.0Y-92.5
X156.05Y-91.05
X156.8Y-104.7
X156.8Y-105.5
X156.85Y-104.0
X157.033Y-77.0
X157.05Y-91.05
X157.05Y-92.5
X157.867Y-77.0
X158.6Y-101.0
X158.6Y-113.0
X158.7Y-77.0
X159.533Y-77.0
X159.8Y-69.3
X159.8Y-106.5
X160.367Y-77.0
X160.9Y-101.0
X160.9Y-111.325
X160.982Y-104.657
X161.2Y-77.0
X161.619Y-104.019
X161.8Y-111.3
X162.033Y-77.0
X162.3Y-62.9
X162.35Y-61.5
X162.55Y-111.3
X162.702Y-104.297
X163.1Y-101.0
X164.7Y-107.4
X164.7Y-108.9
X165.6Y-112.8
X165.85Y-108.2
X166.3Y-67.5
X168.35Y-97.2
X168.35Y-98.25
X168.35Y-99.25
X168.95Y-73.45
X170.05Y-87.35
X172.9Y-77.6
X173.5Y-91.1
X173.687Y-92.27
X173.7Y-101.0
X173.8Y-69.05
X173.943Y-87.193
X174.15Y-97.25
X174.15Y-98.3
X174.15Y-99.3
X174.4Y-77.7
X174.749Y-89.538
X174.9Y-100.999
X175.4Y-99.8
X175.5Y-95.6
X175.75Y-89.6
X176.1Y-77.6
X176.6Y-62.8
X176.9Y-89.6
X177.25Y-95.85
X177.25Y-100.7
X178.2Y-69.6
X178.6Y-108.2
X179.05Y-85.15
X179.2Y-99.8
X179.35Y-82.5
X179.375Y-100.975
X181.6Y-95.2
X181.7Y-90.0
X183.3Y-98.2
X184.1Y-96.7
X184.2Y-63.7
X184.2Y-65.0
X184.2Y-66.2
X184.3Y-62.1
X185.66Y-77.7
X186.4Y-88.7
X186.7Y-105.4
X187.0Y-110.5
X187.1Y-111.5
X187.5Y-96.5
X187.975Y-65.4
X188.5Y-84.9
X188.7Y-80.1
X188.8Y-88.7
X189.8Y-67.1
X189.8Y-104.9
X191.377Y-100.677
X191.9Y-67.1
X193.2Y-104.7
X194.0Y-110.5
X197.925Y-106.2
X197.95Y-71.95
X198.4Y-111.6
X200.9Y-73.7
X201.2Y-79.8
X202.0Y-86.4
X202.6Y-75.6
X202.7Y-67.3
X202.7Y-68.15
X202.7Y-68.9
X203.1Y-74.7
X205.8Y-109.5
X207.6Y-90.2
X210.5Y-71.6
X211.5Y-89.4
X213.975Y-93.775
X214.3Y-68.8
X214.3Y-76.1
X214.9Y-74.8
X214.954Y-74.102
X215.1Y-78.1
X215.1Y-93.8
X215.4Y-79.0
X217.4Y-77.9
X218.25Y-69.15
X218.5Y-90.0
X220.6Y-81.9
X221.4Y-93.1
X226.3Y-109.1
X227.1Y-87.3
X227.4Y-71.5
X227.8Y-77.6
X227.9Y-76.1
X228.0Y-68.7
X229.3Y-83.9
X231.5Y-68.1
T2
X221.11Y-72.65
X221.11Y-73.75
X221.66Y-72.1
X221.66Y-73.2
X221.66Y-74.3
X222.21Y-72.65
X222.21Y-73.75
X222.76Y-72.1
X222.76Y-73.2
X222.76Y-74.3
X223.31Y-72.65
X223.31Y-73.75
T3
X202.2Y-70.55
X202.2Y-72.25
X216.2Y-89.9
T4
X174.45Y-103.87
X174.85Y-104.58
X175.25Y-103.87
X175.65Y-104.58
X176.05Y-103.87
X176.45Y-104.58
X176.85Y-103.87
X177.65Y-103.87
X178.05Y-104.58
X178.45Y-103.87
X178.85Y-104.58
X179.25Y-103.87
X179.65Y-104.58
X180.05Y-103.87
T6
X157.162Y-70.55
X157.162Y-72.45
T7
X148.13Y-62.25
X150.67Y-62.25
X153.21Y-62.25
X155.75Y-62.25
X158.29Y-62.25
X164.88Y-62.25
X167.42Y-62.25
X169.96Y-62.25
X172.5Y-62.25
T5
G00X172.98Y-104.72
M15
G01X172.98Y-105.32
M16
G05
G00X172.98Y-109.45
M15
G01X172.98Y-110.05
M16
G05
G00X181.52Y-104.72
M15
G01X181.52Y-105.32
M16
G05
G00X181.52Y-109.45
M15
G01X181.52Y-110.05
M16
G05
M30
