%TF.GenerationSoftware,KiCad,Pcbnew,9.0.7*%
%TF.CreationDate,2026-09-13T13:28:00+05:30*%
%TF.ProjectId,KiCad 9 Esp32 Project,4b694361-6420-4392-9045-737033322050,rev?*%
%TF.SameCoordinates,Original*%
%TF.FileFunction,Copper,L3,Inr*%
%TF.FilePolarity,Positive*%
%FSLAX46Y46*%
G04 Gerber Fmt 4.6, Leading zero omitted, Abs format (unit mm)*
G04 Created by KiCad (PCBNEW 9.0.7) date 2026-09-13 13:28:00*
%MOMM*%
%LPD*%
G01*
G04 APERTURE LIST*
%TA.AperFunction,ComponentPad*%
%ADD10C,1.208000*%
%TD*%
%TA.AperFunction,ComponentPad*%
%ADD11C,1.700000*%
%TD*%
%TA.AperFunction,ComponentPad*%
%ADD12R,1.700000X1.700000*%
%TD*%
%TA.AperFunction,ComponentPad*%
%ADD13C,0.400000*%
%TD*%
%TA.AperFunction,ComponentPad*%
%ADD14C,0.650000*%
%TD*%
%TA.AperFunction,ComponentPad*%
%ADD15O,1.050000X2.100000*%
%TD*%
%TA.AperFunction,ViaPad*%
%ADD16C,0.500000*%
%TD*%
%TA.AperFunction,ViaPad*%
%ADD17C,0.800000*%
%TD*%
G04 APERTURE END LIST*
D10*
%TO.N,Net-(C17-Pad1)*%
%TO.C,MK1*%
X157162500Y-72450000D03*
%TO.N,GND*%
X157162500Y-70550000D03*
%TD*%
D11*
%TO.N,GND*%
%TO.C,J5*%
X148130000Y-62250000D03*
%TO.N,/ESP32-C3-02/GPIO19*%
X150670000Y-62250000D03*
%TO.N,/ESP32-C3-02/GPIO18*%
X153210000Y-62250000D03*
%TO.N,/ESP32-C3-02/GPIO8*%
X155750000Y-62250000D03*
D12*
%TO.N,+3.3V*%
X158290000Y-62250000D03*
%TD*%
D13*
%TO.N,GND*%
%TO.C,U3*%
X221660000Y-72100000D03*
X222760000Y-72100000D03*
X222210000Y-72650000D03*
X222760000Y-73200000D03*
X221110000Y-72650000D03*
X223310000Y-72650000D03*
X221110000Y-73750000D03*
X221660000Y-74300000D03*
X222760000Y-74300000D03*
X222210000Y-73750000D03*
X223310000Y-73750000D03*
X221660000Y-73200000D03*
%TD*%
D12*
%TO.N,+3.3V*%
%TO.C,J4*%
X172500000Y-62250000D03*
D11*
%TO.N,/ESP32-C3-02/SDA*%
X169960000Y-62250000D03*
%TO.N,/ESP32-C3-02/SCL*%
X167420000Y-62250000D03*
%TO.N,GND*%
X164880000Y-62250000D03*
%TD*%
D14*
%TO.N,GND*%
%TO.C,J1*%
X180050000Y-103870000D03*
%TO.N,unconnected-(J1-SSTXP2-PadB2)*%
X179650000Y-104580000D03*
%TO.N,unconnected-(J1-SSTXN2-PadB3)*%
X178850000Y-104580000D03*
%TO.N,/VBUS*%
X178450000Y-103870000D03*
%TO.N,Net-(J1-CC2)*%
X178050000Y-104580000D03*
%TO.N,/USB_DP*%
X177650000Y-103870000D03*
%TO.N,/USB_DN*%
X176850000Y-103870000D03*
%TO.N,unconnected-(J1-SBU2-PadB8)*%
X176450000Y-104580000D03*
%TO.N,/VBUS*%
X176050000Y-103870000D03*
%TO.N,unconnected-(J1-SSRXN1-PadB10)*%
X175650000Y-104580000D03*
%TO.N,unconnected-(J1-SSRXP1-PadB11)*%
X174850000Y-104580000D03*
%TO.N,GND*%
X174450000Y-103870000D03*
X179250000Y-103870000D03*
X175250000Y-103870000D03*
D15*
X172980000Y-105020000D03*
X181520000Y-105020000D03*
X172980000Y-109750000D03*
X181520000Y-109750000D03*
%TD*%
D16*
%TO.N,/ESP32-C3-02/GPIO19*%
X200900000Y-73700000D03*
%TO.N,/ESP32-C3-02/MIC_OUT*%
X210500000Y-71600000D03*
X197950000Y-71950000D03*
%TO.N,/VBUS*%
X179375000Y-100975000D03*
X174900000Y-100999000D03*
X174150000Y-97250000D03*
X177250000Y-100700000D03*
X174150000Y-99300000D03*
X174150000Y-98300000D03*
%TO.N,GND*%
X151800000Y-86700000D03*
X149450000Y-85100000D03*
X156000000Y-92500000D03*
X155750000Y-86750000D03*
X188800000Y-88700000D03*
X160900000Y-101000000D03*
X187100000Y-111500000D03*
X187500000Y-96500000D03*
X159800000Y-69300000D03*
X148200000Y-85100000D03*
X183300000Y-98200000D03*
X173800000Y-69050000D03*
X148100000Y-113200000D03*
X157050000Y-92500000D03*
X158600000Y-101000000D03*
X157050000Y-91050000D03*
X154450000Y-88000000D03*
X149050000Y-66600000D03*
X188500000Y-84900000D03*
X186400000Y-88700000D03*
X202000000Y-86400000D03*
X179350000Y-82500000D03*
X173700000Y-101000000D03*
X155750000Y-88000000D03*
X168950000Y-73450000D03*
X176100000Y-77600000D03*
X207600000Y-90200000D03*
X148100000Y-111800000D03*
X181700000Y-90000000D03*
X226300000Y-109100000D03*
D17*
X202200000Y-72250000D03*
D16*
X150600000Y-85100000D03*
X175500000Y-95600000D03*
X187975000Y-65400000D03*
X163100000Y-101000000D03*
X178600000Y-108200000D03*
X162300000Y-62900000D03*
X205800000Y-109500000D03*
X176900000Y-89600000D03*
X227100000Y-87300000D03*
X165850000Y-108200000D03*
X166300000Y-67500000D03*
X155300000Y-77000000D03*
X187000000Y-110500000D03*
X211500000Y-89400000D03*
X148100000Y-112500000D03*
X218500000Y-90000000D03*
X177250000Y-95850000D03*
X156050000Y-91050000D03*
X215100000Y-78100000D03*
X194000000Y-110500000D03*
X154450000Y-86750000D03*
X198400000Y-111600000D03*
X184300000Y-62100000D03*
X159800000Y-106500000D03*
X165600000Y-112800000D03*
%TO.N,+3.3V*%
X178200000Y-69600000D03*
X159533333Y-77000000D03*
D17*
X216200000Y-89900000D03*
D16*
X147000000Y-79900000D03*
X181600000Y-95200000D03*
X173943413Y-87193413D03*
X184100000Y-96700000D03*
X201200000Y-79800000D03*
X160366666Y-77000000D03*
X172900000Y-77600000D03*
D17*
X202200000Y-70550000D03*
D16*
X174400000Y-77700000D03*
X170050000Y-87350000D03*
X220600000Y-81900000D03*
X147000000Y-80800000D03*
X185660000Y-77700000D03*
X184200000Y-66200000D03*
X184200000Y-65000000D03*
X162033333Y-77000000D03*
X158700000Y-77000000D03*
X191900000Y-67100000D03*
X179050000Y-85150000D03*
X176600000Y-62800000D03*
X184200000Y-63700000D03*
X186700000Y-105400000D03*
X161200000Y-77000000D03*
X188700000Y-80100000D03*
X189800000Y-67100000D03*
X157033333Y-77000000D03*
X162350000Y-61500000D03*
X157866666Y-77000000D03*
%TO.N,/+5V_USB*%
X162550000Y-111300000D03*
X164700000Y-107400000D03*
X161800000Y-111300000D03*
X148700000Y-96600000D03*
X158600000Y-113000000D03*
X168350000Y-97200000D03*
X164700000Y-108900003D03*
X152300000Y-96600000D03*
X168350000Y-98250000D03*
X160900000Y-111325000D03*
X168350000Y-99250000D03*
%TO.N,/ESP32-C3-02/BOOT*%
X215100000Y-93800000D03*
X217400000Y-77900000D03*
%TO.N,/ESP32-C3-02/EN*%
X214300000Y-68800000D03*
X213975000Y-93775000D03*
%TO.N,/ESP32-C3-02/SCL*%
X202700000Y-67300000D03*
X227400000Y-71500000D03*
%TO.N,/ESP32-C3-02/SDA*%
X202700000Y-68150000D03*
X218250000Y-69150000D03*
%TO.N,/ESP32-C3-02/GPIO18*%
X214900000Y-74800000D03*
X203100000Y-74700000D03*
%TO.N,/ESP32-C3-02/GPIO19*%
X214953688Y-74102060D03*
%TO.N,/ESP32-C3-02/GPIO8*%
X214300000Y-76100000D03*
X202700000Y-68900000D03*
%TO.N,/ESP32-C3-02/RTS*%
X191377482Y-100677482D03*
X174748513Y-89538313D03*
%TO.N,Net-(Q3-B)*%
X197925000Y-106200000D03*
X193200000Y-104700000D03*
%TO.N,/ESP32-C3-02/DTR*%
X189800000Y-104900000D03*
X175750000Y-89600000D03*
%TO.N,/CHARGING_POWER_GOOD*%
X156850000Y-104000000D03*
X161619087Y-104019087D03*
%TO.N,/CHARGED*%
X160981587Y-104656587D03*
X156800000Y-104700000D03*
%TO.N,/CHARGING*%
X156800000Y-105500000D03*
X162702500Y-104297500D03*
%TO.N,/ESP32-C3-02/CS_SD*%
X231500000Y-68100000D03*
X229300000Y-83900000D03*
%TO.N,/ESP32-C3-02/PHOTO_C*%
X228000000Y-68700000D03*
X221400000Y-93100000D03*
%TO.N,/ESP32-C3-02/CS*%
X215400000Y-79000000D03*
X202600000Y-75600000D03*
%TO.N,/USB_DP*%
X175400000Y-99800000D03*
%TO.N,/USB_DN*%
X179200000Y-99800000D03*
%TO.N,/ESP32-C3-02/TX_RX*%
X173686777Y-92270249D03*
X227800000Y-77600000D03*
%TO.N,/ESP32-C3-02/RX_TX*%
X227900000Y-76100000D03*
X173500000Y-91100000D03*
%TD*%
%TA.AperFunction,Conductor*%
%TO.N,GND*%
G36*
X195506061Y-59701097D02*
G01*
X195516051Y-59702080D01*
X195643824Y-59714665D01*
X195667652Y-59719404D01*
X195794277Y-59757815D01*
X195816725Y-59767114D01*
X195933406Y-59829482D01*
X195953616Y-59842986D01*
X196055891Y-59926920D01*
X196073079Y-59944108D01*
X196157012Y-60046381D01*
X196170517Y-60066593D01*
X196232883Y-60183271D01*
X196242186Y-60205728D01*
X196280593Y-60332338D01*
X196285335Y-60356180D01*
X196298903Y-60493938D01*
X196299500Y-60506092D01*
X196299500Y-64594486D01*
X196329059Y-64781118D01*
X196387454Y-64960836D01*
X196440698Y-65065332D01*
X196473240Y-65129199D01*
X196584310Y-65282073D01*
X196717927Y-65415690D01*
X196870801Y-65526760D01*
X196929495Y-65556666D01*
X197039163Y-65612545D01*
X197039165Y-65612545D01*
X197039168Y-65612547D01*
X197081674Y-65626358D01*
X197218881Y-65670940D01*
X197405514Y-65700500D01*
X197405519Y-65700500D01*
X197460118Y-65700500D01*
X210460118Y-65700500D01*
X230960118Y-65700500D01*
X230993908Y-65700500D01*
X231006061Y-65701097D01*
X231016051Y-65702080D01*
X231143824Y-65714665D01*
X231167652Y-65719404D01*
X231294277Y-65757815D01*
X231316725Y-65767114D01*
X231433406Y-65829482D01*
X231453616Y-65842986D01*
X231555891Y-65926920D01*
X231573079Y-65944108D01*
X231657012Y-66046381D01*
X231670517Y-66066593D01*
X231732883Y-66183271D01*
X231742186Y-66205728D01*
X231780593Y-66332338D01*
X231785335Y-66356180D01*
X231798903Y-66493938D01*
X231799500Y-66506092D01*
X231799500Y-67243276D01*
X231779815Y-67310315D01*
X231727011Y-67356070D01*
X231657853Y-67366014D01*
X231651309Y-67364893D01*
X231573922Y-67349500D01*
X231573918Y-67349500D01*
X231426082Y-67349500D01*
X231426080Y-67349500D01*
X231281092Y-67378340D01*
X231281082Y-67378343D01*
X231144511Y-67434912D01*
X231144498Y-67434919D01*
X231021584Y-67517048D01*
X231021580Y-67517051D01*
X230917051Y-67621580D01*
X230917048Y-67621584D01*
X230834919Y-67744498D01*
X230834912Y-67744511D01*
X230778343Y-67881082D01*
X230778340Y-67881092D01*
X230749500Y-68026079D01*
X230749500Y-68026082D01*
X230749500Y-68173918D01*
X230749500Y-68173920D01*
X230749499Y-68173920D01*
X230778340Y-68318907D01*
X230778343Y-68318917D01*
X230834912Y-68455488D01*
X230834919Y-68455501D01*
X230917048Y-68578415D01*
X230917051Y-68578419D01*
X231021580Y-68682948D01*
X231021584Y-68682951D01*
X231144498Y-68765080D01*
X231144511Y-68765087D01*
X231215548Y-68794511D01*
X231281087Y-68821658D01*
X231281091Y-68821658D01*
X231281092Y-68821659D01*
X231426079Y-68850500D01*
X231426082Y-68850500D01*
X231573920Y-68850500D01*
X231651308Y-68835106D01*
X231720899Y-68841333D01*
X231776077Y-68884195D01*
X231799322Y-68950085D01*
X231799500Y-68956723D01*
X231799500Y-113493907D01*
X231798903Y-113506060D01*
X231798903Y-113506061D01*
X231785335Y-113643819D01*
X231780593Y-113667661D01*
X231742186Y-113794271D01*
X231732883Y-113816728D01*
X231670517Y-113933406D01*
X231657012Y-113953618D01*
X231573079Y-114055891D01*
X231555891Y-114073079D01*
X231453618Y-114157012D01*
X231433406Y-114170517D01*
X231316728Y-114232883D01*
X231294271Y-114242186D01*
X231167661Y-114280593D01*
X231143819Y-114285335D01*
X231006062Y-114298903D01*
X230993908Y-114299500D01*
X146006092Y-114299500D01*
X145993938Y-114298903D01*
X145856180Y-114285335D01*
X145832340Y-114280593D01*
X145705728Y-114242186D01*
X145683271Y-114232883D01*
X145566593Y-114170517D01*
X145546381Y-114157012D01*
X145444108Y-114073079D01*
X145426920Y-114055891D01*
X145342986Y-113953616D01*
X145329482Y-113933406D01*
X145267116Y-113816728D01*
X145257815Y-113794277D01*
X145219404Y-113667652D01*
X145214665Y-113643824D01*
X145201097Y-113506060D01*
X145200500Y-113493907D01*
X145200500Y-113073920D01*
X157849499Y-113073920D01*
X157878340Y-113218907D01*
X157878343Y-113218917D01*
X157934912Y-113355488D01*
X157934919Y-113355501D01*
X158017048Y-113478415D01*
X158017051Y-113478419D01*
X158121580Y-113582948D01*
X158121584Y-113582951D01*
X158244498Y-113665080D01*
X158244511Y-113665087D01*
X158381082Y-113721656D01*
X158381087Y-113721658D01*
X158381091Y-113721658D01*
X158381092Y-113721659D01*
X158526079Y-113750500D01*
X158526082Y-113750500D01*
X158673920Y-113750500D01*
X158771462Y-113731096D01*
X158818913Y-113721658D01*
X158955495Y-113665084D01*
X159078416Y-113582951D01*
X159182951Y-113478416D01*
X159265084Y-113355495D01*
X159321658Y-113218913D01*
X159350500Y-113073918D01*
X159350500Y-112926082D01*
X159350500Y-112926079D01*
X159321659Y-112781092D01*
X159321658Y-112781091D01*
X159321658Y-112781087D01*
X159321656Y-112781082D01*
X159265087Y-112644511D01*
X159265080Y-112644498D01*
X159182951Y-112521584D01*
X159182948Y-112521580D01*
X159078419Y-112417051D01*
X159078415Y-112417048D01*
X158955501Y-112334919D01*
X158955488Y-112334912D01*
X158818917Y-112278343D01*
X158818907Y-112278340D01*
X158673920Y-112249500D01*
X158673918Y-112249500D01*
X158526082Y-112249500D01*
X158526080Y-112249500D01*
X158381092Y-112278340D01*
X158381082Y-112278343D01*
X158244511Y-112334912D01*
X158244498Y-112334919D01*
X158121584Y-112417048D01*
X158121580Y-112417051D01*
X158017051Y-112521580D01*
X158017048Y-112521584D01*
X157934919Y-112644498D01*
X157934912Y-112644511D01*
X157878343Y-112781082D01*
X157878340Y-112781092D01*
X157849500Y-112926079D01*
X157849500Y-112926082D01*
X157849500Y-113073918D01*
X157849500Y-113073920D01*
X157849499Y-113073920D01*
X145200500Y-113073920D01*
X145200500Y-111398920D01*
X160149499Y-111398920D01*
X160178340Y-111543907D01*
X160178343Y-111543917D01*
X160234912Y-111680488D01*
X160234919Y-111680501D01*
X160317048Y-111803415D01*
X160317051Y-111803419D01*
X160421580Y-111907948D01*
X160421584Y-111907951D01*
X160544498Y-111990080D01*
X160544511Y-111990087D01*
X160681082Y-112046656D01*
X160681087Y-112046658D01*
X160681091Y-112046658D01*
X160681092Y-112046659D01*
X160826079Y-112075500D01*
X160826082Y-112075500D01*
X160973920Y-112075500D01*
X161099598Y-112050500D01*
X161118913Y-112046658D01*
X161255495Y-111990084D01*
X161299818Y-111960467D01*
X161366491Y-111939590D01*
X161433872Y-111958073D01*
X161437567Y-111960448D01*
X161444505Y-111965084D01*
X161444507Y-111965085D01*
X161444509Y-111965086D01*
X161581082Y-112021656D01*
X161581087Y-112021658D01*
X161581091Y-112021658D01*
X161581092Y-112021659D01*
X161726079Y-112050500D01*
X161726082Y-112050500D01*
X161873920Y-112050500D01*
X161971462Y-112031096D01*
X162018913Y-112021658D01*
X162127548Y-111976659D01*
X162197016Y-111969191D01*
X162222449Y-111976658D01*
X162331087Y-112021658D01*
X162331091Y-112021658D01*
X162331092Y-112021659D01*
X162476079Y-112050500D01*
X162476082Y-112050500D01*
X162623920Y-112050500D01*
X162721462Y-112031096D01*
X162768913Y-112021658D01*
X162905495Y-111965084D01*
X163028416Y-111882951D01*
X163132951Y-111778416D01*
X163215084Y-111655495D01*
X163271658Y-111518913D01*
X163300500Y-111373918D01*
X163300500Y-111226082D01*
X163300500Y-111226079D01*
X163271659Y-111081092D01*
X163271658Y-111081091D01*
X163271658Y-111081087D01*
X163225442Y-110969511D01*
X163215087Y-110944511D01*
X163215080Y-110944498D01*
X163132951Y-110821584D01*
X163132948Y-110821580D01*
X163028419Y-110717051D01*
X163028415Y-110717048D01*
X162905501Y-110634919D01*
X162905488Y-110634912D01*
X162768917Y-110578343D01*
X162768907Y-110578340D01*
X162623920Y-110549500D01*
X162623918Y-110549500D01*
X162476082Y-110549500D01*
X162476080Y-110549500D01*
X162331092Y-110578340D01*
X162331082Y-110578343D01*
X162222452Y-110623339D01*
X162152983Y-110630808D01*
X162127548Y-110623339D01*
X162018917Y-110578343D01*
X162018907Y-110578340D01*
X161873920Y-110549500D01*
X161873918Y-110549500D01*
X161726082Y-110549500D01*
X161726080Y-110549500D01*
X161581092Y-110578340D01*
X161581082Y-110578343D01*
X161444506Y-110634914D01*
X161444504Y-110634915D01*
X161400181Y-110664531D01*
X161333504Y-110685408D01*
X161266124Y-110666922D01*
X161262400Y-110664529D01*
X161255503Y-110659920D01*
X161255488Y-110659912D01*
X161118917Y-110603343D01*
X161118907Y-110603340D01*
X160973920Y-110574500D01*
X160973918Y-110574500D01*
X160826082Y-110574500D01*
X160826080Y-110574500D01*
X160681092Y-110603340D01*
X160681082Y-110603343D01*
X160544511Y-110659912D01*
X160544498Y-110659919D01*
X160421584Y-110742048D01*
X160421580Y-110742051D01*
X160317051Y-110846580D01*
X160317048Y-110846584D01*
X160234919Y-110969498D01*
X160234912Y-110969511D01*
X160178343Y-111106082D01*
X160178340Y-111106092D01*
X160149500Y-111251079D01*
X160149500Y-111251082D01*
X160149500Y-111398918D01*
X160149500Y-111398920D01*
X160149499Y-111398920D01*
X145200500Y-111398920D01*
X145200500Y-107473920D01*
X163949499Y-107473920D01*
X163978340Y-107618907D01*
X163978343Y-107618917D01*
X164034912Y-107755488D01*
X164034919Y-107755501D01*
X164117048Y-107878415D01*
X164117051Y-107878419D01*
X164221580Y-107982948D01*
X164221588Y-107982954D01*
X164317288Y-108046899D01*
X164362094Y-108100511D01*
X164370801Y-108169836D01*
X164340647Y-108232863D01*
X164317289Y-108253103D01*
X164221584Y-108317051D01*
X164221580Y-108317054D01*
X164117051Y-108421583D01*
X164117048Y-108421587D01*
X164034919Y-108544501D01*
X164034912Y-108544514D01*
X163978343Y-108681085D01*
X163978340Y-108681095D01*
X163949500Y-108826082D01*
X163949500Y-108826085D01*
X163949500Y-108973921D01*
X163949500Y-108973923D01*
X163949499Y-108973923D01*
X163978340Y-109118910D01*
X163978343Y-109118920D01*
X164034912Y-109255491D01*
X164034919Y-109255504D01*
X164117048Y-109378418D01*
X164117051Y-109378422D01*
X164221580Y-109482951D01*
X164221584Y-109482954D01*
X164344498Y-109565083D01*
X164344511Y-109565090D01*
X164481082Y-109621659D01*
X164481087Y-109621661D01*
X164481091Y-109621661D01*
X164481092Y-109621662D01*
X164626079Y-109650503D01*
X164626082Y-109650503D01*
X164773920Y-109650503D01*
X164871462Y-109631099D01*
X164918913Y-109621661D01*
X165055495Y-109565087D01*
X165178416Y-109482954D01*
X165282951Y-109378419D01*
X165365084Y-109255498D01*
X165419535Y-109124041D01*
X171955000Y-109124041D01*
X171955000Y-109500000D01*
X172655000Y-109500000D01*
X172655000Y-110000000D01*
X171955000Y-110000000D01*
X171955000Y-110375958D01*
X171994387Y-110573974D01*
X171994390Y-110573983D01*
X172071652Y-110760513D01*
X172071659Y-110760526D01*
X172183829Y-110928399D01*
X172183832Y-110928403D01*
X172326596Y-111071167D01*
X172326600Y-111071170D01*
X172494473Y-111183340D01*
X172494486Y-111183347D01*
X172681016Y-111260609D01*
X172681025Y-111260612D01*
X172730000Y-111270353D01*
X172730000Y-110259618D01*
X172780446Y-110310064D01*
X172854555Y-110352851D01*
X172937213Y-110375000D01*
X173022787Y-110375000D01*
X173105445Y-110352851D01*
X173179554Y-110310064D01*
X173230000Y-110259618D01*
X173230000Y-111270352D01*
X173278974Y-111260612D01*
X173278983Y-111260609D01*
X173465513Y-111183347D01*
X173465526Y-111183340D01*
X173633399Y-111071170D01*
X173633403Y-111071167D01*
X173776167Y-110928403D01*
X173776170Y-110928399D01*
X173888340Y-110760526D01*
X173888347Y-110760513D01*
X173965609Y-110573983D01*
X173965612Y-110573974D01*
X174004999Y-110375958D01*
X174005000Y-110375955D01*
X174005000Y-110000000D01*
X173305000Y-110000000D01*
X173305000Y-109500000D01*
X174005000Y-109500000D01*
X174005000Y-109124045D01*
X174004999Y-109124041D01*
X180495000Y-109124041D01*
X180495000Y-109500000D01*
X181195000Y-109500000D01*
X181195000Y-110000000D01*
X180495000Y-110000000D01*
X180495000Y-110375958D01*
X180534387Y-110573974D01*
X180534390Y-110573983D01*
X180611652Y-110760513D01*
X180611659Y-110760526D01*
X180723829Y-110928399D01*
X180723832Y-110928403D01*
X180866596Y-111071167D01*
X180866600Y-111071170D01*
X181034473Y-111183340D01*
X181034486Y-111183347D01*
X181221016Y-111260609D01*
X181221025Y-111260612D01*
X181270000Y-111270353D01*
X181270000Y-110259618D01*
X181320446Y-110310064D01*
X181394555Y-110352851D01*
X181477213Y-110375000D01*
X181562787Y-110375000D01*
X181645445Y-110352851D01*
X181719554Y-110310064D01*
X181770000Y-110259618D01*
X181770000Y-111270352D01*
X181818974Y-111260612D01*
X181818983Y-111260609D01*
X182005513Y-111183347D01*
X182005526Y-111183340D01*
X182173399Y-111071170D01*
X182173403Y-111071167D01*
X182316167Y-110928403D01*
X182316170Y-110928399D01*
X182428340Y-110760526D01*
X182428347Y-110760513D01*
X182505609Y-110573983D01*
X182505612Y-110573974D01*
X182544999Y-110375958D01*
X182545000Y-110375955D01*
X182545000Y-110000000D01*
X181845000Y-110000000D01*
X181845000Y-109500000D01*
X182545000Y-109500000D01*
X182545000Y-109124045D01*
X182544999Y-109124041D01*
X182505612Y-108926025D01*
X182505609Y-108926016D01*
X182428347Y-108739486D01*
X182428340Y-108739473D01*
X182316170Y-108571600D01*
X182316167Y-108571596D01*
X182173403Y-108428832D01*
X182173399Y-108428829D01*
X182005526Y-108316659D01*
X182005513Y-108316652D01*
X181818984Y-108239390D01*
X181818977Y-108239388D01*
X181770000Y-108229645D01*
X181770000Y-109240382D01*
X181719554Y-109189936D01*
X181645445Y-109147149D01*
X181562787Y-109125000D01*
X181477213Y-109125000D01*
X181394555Y-109147149D01*
X181320446Y-109189936D01*
X181270000Y-109240382D01*
X181270000Y-108229646D01*
X181269999Y-108229645D01*
X181221022Y-108239388D01*
X181221015Y-108239390D01*
X181034486Y-108316652D01*
X181034473Y-108316659D01*
X180866600Y-108428829D01*
X180866596Y-108428832D01*
X180723832Y-108571596D01*
X180723829Y-108571600D01*
X180611659Y-108739473D01*
X180611652Y-108739486D01*
X180534390Y-108926016D01*
X180534387Y-108926025D01*
X180495000Y-109124041D01*
X174004999Y-109124041D01*
X173965612Y-108926025D01*
X173965609Y-108926016D01*
X173888347Y-108739486D01*
X173888340Y-108739473D01*
X173776170Y-108571600D01*
X173776167Y-108571596D01*
X173633403Y-108428832D01*
X173633399Y-108428829D01*
X173465526Y-108316659D01*
X173465513Y-108316652D01*
X173278984Y-108239390D01*
X173278977Y-108239388D01*
X173230000Y-108229645D01*
X173230000Y-109240382D01*
X173179554Y-109189936D01*
X173105445Y-109147149D01*
X173022787Y-109125000D01*
X172937213Y-109125000D01*
X172854555Y-109147149D01*
X172780446Y-109189936D01*
X172730000Y-109240382D01*
X172730000Y-108229646D01*
X172729999Y-108229645D01*
X172681022Y-108239388D01*
X172681015Y-108239390D01*
X172494486Y-108316652D01*
X172494473Y-108316659D01*
X172326600Y-108428829D01*
X172326596Y-108428832D01*
X172183832Y-108571596D01*
X172183829Y-108571600D01*
X172071659Y-108739473D01*
X172071652Y-108739486D01*
X171994390Y-108926016D01*
X171994387Y-108926025D01*
X171955000Y-109124041D01*
X165419535Y-109124041D01*
X165421658Y-109118916D01*
X165450500Y-108973921D01*
X165450500Y-108826085D01*
X165450500Y-108826082D01*
X165421659Y-108681095D01*
X165421658Y-108681094D01*
X165421658Y-108681090D01*
X165376306Y-108571600D01*
X165365087Y-108544514D01*
X165365080Y-108544501D01*
X165282951Y-108421587D01*
X165282948Y-108421583D01*
X165178419Y-108317054D01*
X165178415Y-108317051D01*
X165082710Y-108253103D01*
X165037905Y-108199491D01*
X165029198Y-108130166D01*
X165059352Y-108067139D01*
X165082706Y-108046901D01*
X165178416Y-107982951D01*
X165282951Y-107878416D01*
X165365084Y-107755495D01*
X165421658Y-107618913D01*
X165450500Y-107473918D01*
X165450500Y-107326082D01*
X165450500Y-107326079D01*
X165421659Y-107181092D01*
X165421658Y-107181091D01*
X165421658Y-107181087D01*
X165421656Y-107181082D01*
X165365087Y-107044511D01*
X165365080Y-107044498D01*
X165282951Y-106921584D01*
X165282948Y-106921580D01*
X165178419Y-106817051D01*
X165178415Y-106817048D01*
X165055501Y-106734919D01*
X165055488Y-106734912D01*
X164918917Y-106678343D01*
X164918907Y-106678340D01*
X164773920Y-106649500D01*
X164773918Y-106649500D01*
X164626082Y-106649500D01*
X164626080Y-106649500D01*
X164481092Y-106678340D01*
X164481082Y-106678343D01*
X164344511Y-106734912D01*
X164344498Y-106734919D01*
X164221584Y-106817048D01*
X164221580Y-106817051D01*
X164117051Y-106921580D01*
X164117048Y-106921584D01*
X164034919Y-107044498D01*
X164034912Y-107044511D01*
X163978343Y-107181082D01*
X163978340Y-107181092D01*
X163949500Y-107326079D01*
X163949500Y-107326082D01*
X163949500Y-107473918D01*
X163949500Y-107473920D01*
X163949499Y-107473920D01*
X145200500Y-107473920D01*
X145200500Y-104773920D01*
X156049499Y-104773920D01*
X156078340Y-104918907D01*
X156078343Y-104918917D01*
X156133694Y-105052548D01*
X156141163Y-105122018D01*
X156133694Y-105147452D01*
X156078343Y-105281082D01*
X156078340Y-105281092D01*
X156049500Y-105426079D01*
X156049500Y-105426082D01*
X156049500Y-105573918D01*
X156049500Y-105573920D01*
X156049499Y-105573920D01*
X156078340Y-105718907D01*
X156078343Y-105718917D01*
X156134912Y-105855488D01*
X156134919Y-105855501D01*
X156217048Y-105978415D01*
X156217051Y-105978419D01*
X156321580Y-106082948D01*
X156321584Y-106082951D01*
X156444498Y-106165080D01*
X156444511Y-106165087D01*
X156524944Y-106198403D01*
X156581087Y-106221658D01*
X156581091Y-106221658D01*
X156581092Y-106221659D01*
X156726079Y-106250500D01*
X156726082Y-106250500D01*
X156873920Y-106250500D01*
X156971462Y-106231096D01*
X157018913Y-106221658D01*
X157155495Y-106165084D01*
X157278416Y-106082951D01*
X157382951Y-105978416D01*
X157465084Y-105855495D01*
X157521658Y-105718913D01*
X157536361Y-105645000D01*
X157550500Y-105573920D01*
X157550500Y-105426079D01*
X157521659Y-105281092D01*
X157521658Y-105281091D01*
X157521658Y-105281087D01*
X157466304Y-105147452D01*
X157458836Y-105077983D01*
X157466305Y-105052547D01*
X157521658Y-104918913D01*
X157550500Y-104773918D01*
X157550500Y-104730507D01*
X160231086Y-104730507D01*
X160259927Y-104875494D01*
X160259930Y-104875504D01*
X160316499Y-105012075D01*
X160316506Y-105012088D01*
X160398635Y-105135002D01*
X160398638Y-105135006D01*
X160503167Y-105239535D01*
X160503171Y-105239538D01*
X160626085Y-105321667D01*
X160626098Y-105321674D01*
X160751880Y-105373774D01*
X160762674Y-105378245D01*
X160762678Y-105378245D01*
X160762679Y-105378246D01*
X160907666Y-105407087D01*
X160907669Y-105407087D01*
X161055507Y-105407087D01*
X161153049Y-105387683D01*
X161200500Y-105378245D01*
X161337082Y-105321671D01*
X161460003Y-105239538D01*
X161564538Y-105135003D01*
X161646671Y-105012082D01*
X161703245Y-104875500D01*
X161709438Y-104844363D01*
X161741821Y-104782455D01*
X161789355Y-104751777D01*
X161797928Y-104748715D01*
X161838000Y-104740745D01*
X161948955Y-104694785D01*
X161951845Y-104693754D01*
X161983768Y-104691920D01*
X162015561Y-104688502D01*
X162018413Y-104689930D01*
X162021600Y-104689747D01*
X162049453Y-104705467D01*
X162078040Y-104719777D01*
X162081027Y-104723288D01*
X162082447Y-104724089D01*
X162083652Y-104726372D01*
X162096647Y-104741642D01*
X162119545Y-104775911D01*
X162119551Y-104775919D01*
X162224080Y-104880448D01*
X162224084Y-104880451D01*
X162346998Y-104962580D01*
X162347011Y-104962587D01*
X162466487Y-105012075D01*
X162483587Y-105019158D01*
X162483591Y-105019158D01*
X162483592Y-105019159D01*
X162628579Y-105048000D01*
X162628582Y-105048000D01*
X162776420Y-105048000D01*
X162873962Y-105028596D01*
X162921413Y-105019158D01*
X163057995Y-104962584D01*
X163180916Y-104880451D01*
X163285451Y-104775916D01*
X163367584Y-104652995D01*
X163424158Y-104516413D01*
X163448500Y-104394041D01*
X171955000Y-104394041D01*
X171955000Y-104770000D01*
X172655000Y-104770000D01*
X172655000Y-105270000D01*
X171955000Y-105270000D01*
X171955000Y-105645958D01*
X171994387Y-105843974D01*
X171994390Y-105843983D01*
X172071652Y-106030513D01*
X172071659Y-106030526D01*
X172183829Y-106198399D01*
X172183832Y-106198403D01*
X172326596Y-106341167D01*
X172326600Y-106341170D01*
X172494473Y-106453340D01*
X172494486Y-106453347D01*
X172681016Y-106530609D01*
X172681025Y-106530612D01*
X172730000Y-106540353D01*
X172730000Y-105529618D01*
X172780446Y-105580064D01*
X172854555Y-105622851D01*
X172937213Y-105645000D01*
X173022787Y-105645000D01*
X173105445Y-105622851D01*
X173179554Y-105580064D01*
X173230000Y-105529618D01*
X173230000Y-106540352D01*
X173278974Y-106530612D01*
X173278983Y-106530609D01*
X173465513Y-106453347D01*
X173465526Y-106453340D01*
X173633399Y-106341170D01*
X173633403Y-106341167D01*
X173776167Y-106198403D01*
X173776170Y-106198399D01*
X173888340Y-106030526D01*
X173888347Y-106030513D01*
X173965609Y-105843983D01*
X173965612Y-105843974D01*
X174004999Y-105645958D01*
X174005000Y-105645955D01*
X174005000Y-105201796D01*
X174024685Y-105134757D01*
X174077489Y-105089002D01*
X174146647Y-105079058D01*
X174210203Y-105108083D01*
X174216681Y-105114115D01*
X174323771Y-105221205D01*
X174323779Y-105221211D01*
X174458976Y-105311547D01*
X174458980Y-105311549D01*
X174588234Y-105365087D01*
X174609211Y-105373776D01*
X174609215Y-105373776D01*
X174609216Y-105373777D01*
X174768692Y-105405500D01*
X174768695Y-105405500D01*
X174931307Y-105405500D01*
X175038598Y-105384157D01*
X175090789Y-105373776D01*
X175202548Y-105327483D01*
X175272016Y-105320015D01*
X175297449Y-105327482D01*
X175409211Y-105373776D01*
X175409215Y-105373776D01*
X175409216Y-105373777D01*
X175568692Y-105405500D01*
X175568695Y-105405500D01*
X175731307Y-105405500D01*
X175838598Y-105384157D01*
X175890789Y-105373776D01*
X176002548Y-105327483D01*
X176072016Y-105320015D01*
X176097449Y-105327482D01*
X176209211Y-105373776D01*
X176209215Y-105373776D01*
X176209216Y-105373777D01*
X176368692Y-105405500D01*
X176368695Y-105405500D01*
X176531307Y-105405500D01*
X176638598Y-105384157D01*
X176690789Y-105373776D01*
X176841021Y-105311548D01*
X176841023Y-105311547D01*
X176948792Y-105239538D01*
X176976225Y-105221208D01*
X177091208Y-105106225D01*
X177146898Y-105022877D01*
X177200509Y-104978074D01*
X177269834Y-104969366D01*
X177332862Y-104999520D01*
X177353099Y-105022875D01*
X177389921Y-105077983D01*
X177408793Y-105106227D01*
X177523771Y-105221205D01*
X177523779Y-105221211D01*
X177658976Y-105311547D01*
X177658980Y-105311549D01*
X177788234Y-105365087D01*
X177809211Y-105373776D01*
X177809215Y-105373776D01*
X177809216Y-105373777D01*
X177968692Y-105405500D01*
X177968695Y-105405500D01*
X178131307Y-105405500D01*
X178238598Y-105384157D01*
X178290789Y-105373776D01*
X178402548Y-105327483D01*
X178472016Y-105320015D01*
X178497449Y-105327482D01*
X178609211Y-105373776D01*
X178609215Y-105373776D01*
X178609216Y-105373777D01*
X178768692Y-105405500D01*
X178768695Y-105405500D01*
X178931307Y-105405500D01*
X179038598Y-105384157D01*
X179090789Y-105373776D01*
X179202548Y-105327483D01*
X179272016Y-105320015D01*
X179297449Y-105327482D01*
X179409211Y-105373776D01*
X179409215Y-105373776D01*
X179409216Y-105373777D01*
X179568692Y-105405500D01*
X179568695Y-105405500D01*
X179731307Y-105405500D01*
X179838598Y-105384157D01*
X179890789Y-105373776D01*
X180041021Y-105311548D01*
X180041023Y-105311547D01*
X180148792Y-105239538D01*
X180176225Y-105221208D01*
X180219018Y-105178415D01*
X180283319Y-105114115D01*
X180344642Y-105080630D01*
X180414334Y-105085614D01*
X180470267Y-105127486D01*
X180494684Y-105192950D01*
X180495000Y-105201796D01*
X180495000Y-105645958D01*
X180534387Y-105843974D01*
X180534390Y-105843983D01*
X180611652Y-106030513D01*
X180611659Y-106030526D01*
X180723829Y-106198399D01*
X180723832Y-106198403D01*
X180866596Y-106341167D01*
X180866600Y-106341170D01*
X181034473Y-106453340D01*
X181034486Y-106453347D01*
X181221016Y-106530609D01*
X181221025Y-106530612D01*
X181270000Y-106540353D01*
X181270000Y-105529618D01*
X181320446Y-105580064D01*
X181394555Y-105622851D01*
X181477213Y-105645000D01*
X181562787Y-105645000D01*
X181645445Y-105622851D01*
X181719554Y-105580064D01*
X181770000Y-105529618D01*
X181770000Y-106540352D01*
X181818974Y-106530612D01*
X181818983Y-106530609D01*
X182005513Y-106453347D01*
X182005526Y-106453340D01*
X182173399Y-106341170D01*
X182173403Y-106341167D01*
X182240650Y-106273920D01*
X197174499Y-106273920D01*
X197203340Y-106418907D01*
X197203343Y-106418917D01*
X197259912Y-106555488D01*
X197259919Y-106555501D01*
X197342048Y-106678415D01*
X197342051Y-106678419D01*
X197446580Y-106782948D01*
X197446584Y-106782951D01*
X197569498Y-106865080D01*
X197569511Y-106865087D01*
X197705899Y-106921580D01*
X197706087Y-106921658D01*
X197706091Y-106921658D01*
X197706092Y-106921659D01*
X197851079Y-106950500D01*
X197851082Y-106950500D01*
X197998920Y-106950500D01*
X198096462Y-106931096D01*
X198143913Y-106921658D01*
X198280495Y-106865084D01*
X198403416Y-106782951D01*
X198507951Y-106678416D01*
X198590084Y-106555495D01*
X198646658Y-106418913D01*
X198656096Y-106371462D01*
X198675500Y-106273920D01*
X198675500Y-106126079D01*
X198646659Y-105981092D01*
X198646658Y-105981091D01*
X198646658Y-105981087D01*
X198604132Y-105878419D01*
X198590087Y-105844511D01*
X198590080Y-105844498D01*
X198507951Y-105721584D01*
X198507948Y-105721580D01*
X198403419Y-105617051D01*
X198403415Y-105617048D01*
X198280501Y-105534919D01*
X198280488Y-105534912D01*
X198143917Y-105478343D01*
X198143907Y-105478340D01*
X197998920Y-105449500D01*
X197998918Y-105449500D01*
X197851082Y-105449500D01*
X197851080Y-105449500D01*
X197706092Y-105478340D01*
X197706082Y-105478343D01*
X197569511Y-105534912D01*
X197569498Y-105534919D01*
X197446584Y-105617048D01*
X197446580Y-105617051D01*
X197342051Y-105721580D01*
X197342048Y-105721584D01*
X197259919Y-105844498D01*
X197259912Y-105844511D01*
X197203343Y-105981082D01*
X197203340Y-105981092D01*
X197174500Y-106126079D01*
X197174500Y-106126082D01*
X197174500Y-106273918D01*
X197174500Y-106273920D01*
X197174499Y-106273920D01*
X182240650Y-106273920D01*
X182316167Y-106198403D01*
X182316170Y-106198399D01*
X182428340Y-106030526D01*
X182428347Y-106030513D01*
X182505609Y-105843983D01*
X182505612Y-105843974D01*
X182544999Y-105645958D01*
X182545000Y-105645955D01*
X182545000Y-105473920D01*
X185949499Y-105473920D01*
X185978340Y-105618907D01*
X185978343Y-105618917D01*
X186034912Y-105755488D01*
X186034919Y-105755501D01*
X186117048Y-105878415D01*
X186117051Y-105878419D01*
X186221580Y-105982948D01*
X186221584Y-105982951D01*
X186344498Y-106065080D01*
X186344511Y-106065087D01*
X186481082Y-106121656D01*
X186481087Y-106121658D01*
X186481091Y-106121658D01*
X186481092Y-106121659D01*
X186626079Y-106150500D01*
X186626082Y-106150500D01*
X186773920Y-106150500D01*
X186871462Y-106131096D01*
X186918913Y-106121658D01*
X187055495Y-106065084D01*
X187107215Y-106030526D01*
X187127626Y-106016888D01*
X187178416Y-105982951D01*
X187282948Y-105878419D01*
X187282951Y-105878416D01*
X187365084Y-105755495D01*
X187421658Y-105618913D01*
X187438366Y-105534919D01*
X187450500Y-105473920D01*
X187450500Y-105326079D01*
X187421659Y-105181092D01*
X187421658Y-105181091D01*
X187421658Y-105181087D01*
X187420551Y-105178415D01*
X187365087Y-105044511D01*
X187365080Y-105044498D01*
X187317921Y-104973920D01*
X189049499Y-104973920D01*
X189078340Y-105118907D01*
X189078343Y-105118917D01*
X189134912Y-105255488D01*
X189134919Y-105255501D01*
X189217048Y-105378415D01*
X189217051Y-105378419D01*
X189321580Y-105482948D01*
X189321584Y-105482951D01*
X189444498Y-105565080D01*
X189444511Y-105565087D01*
X189581082Y-105621656D01*
X189581087Y-105621658D01*
X189581091Y-105621658D01*
X189581092Y-105621659D01*
X189726079Y-105650500D01*
X189726082Y-105650500D01*
X189873920Y-105650500D01*
X189971462Y-105631096D01*
X190018913Y-105621658D01*
X190155495Y-105565084D01*
X190278416Y-105482951D01*
X190382951Y-105378416D01*
X190465084Y-105255495D01*
X190521658Y-105118913D01*
X190536459Y-105044505D01*
X190550500Y-104973920D01*
X190550500Y-104826079D01*
X190540124Y-104773920D01*
X192449499Y-104773920D01*
X192478340Y-104918907D01*
X192478343Y-104918917D01*
X192534912Y-105055488D01*
X192534919Y-105055501D01*
X192617048Y-105178415D01*
X192617051Y-105178419D01*
X192721580Y-105282948D01*
X192721584Y-105282951D01*
X192844498Y-105365080D01*
X192844511Y-105365087D01*
X192942078Y-105405500D01*
X192981087Y-105421658D01*
X192981091Y-105421658D01*
X192981092Y-105421659D01*
X193126079Y-105450500D01*
X193126082Y-105450500D01*
X193273920Y-105450500D01*
X193371462Y-105431096D01*
X193418913Y-105421658D01*
X193534513Y-105373775D01*
X193555488Y-105365087D01*
X193555488Y-105365086D01*
X193555495Y-105365084D01*
X193678416Y-105282951D01*
X193782951Y-105178416D01*
X193865084Y-105055495D01*
X193921658Y-104918913D01*
X193950500Y-104773918D01*
X193950500Y-104626082D01*
X193950500Y-104626080D01*
X193950500Y-104626079D01*
X193921659Y-104481092D01*
X193921658Y-104481091D01*
X193921658Y-104481087D01*
X193897011Y-104421584D01*
X193865087Y-104344511D01*
X193865080Y-104344498D01*
X193782951Y-104221584D01*
X193782948Y-104221580D01*
X193678419Y-104117051D01*
X193678415Y-104117048D01*
X193555501Y-104034919D01*
X193555488Y-104034912D01*
X193418917Y-103978343D01*
X193418907Y-103978340D01*
X193273920Y-103949500D01*
X193273918Y-103949500D01*
X193126082Y-103949500D01*
X193126080Y-103949500D01*
X192981092Y-103978340D01*
X192981082Y-103978343D01*
X192844511Y-104034912D01*
X192844498Y-104034919D01*
X192721584Y-104117048D01*
X192721580Y-104117051D01*
X192617051Y-104221580D01*
X192617048Y-104221584D01*
X192534919Y-104344498D01*
X192534912Y-104344511D01*
X192478343Y-104481082D01*
X192478340Y-104481092D01*
X192449500Y-104626079D01*
X192449500Y-104626080D01*
X192449500Y-104626082D01*
X192449500Y-104773918D01*
X192449500Y-104773920D01*
X192449499Y-104773920D01*
X190540124Y-104773920D01*
X190521659Y-104681092D01*
X190521656Y-104681081D01*
X190516007Y-104667444D01*
X190516006Y-104667442D01*
X190465087Y-104544511D01*
X190465080Y-104544498D01*
X190382951Y-104421584D01*
X190382948Y-104421580D01*
X190278419Y-104317051D01*
X190278415Y-104317048D01*
X190155501Y-104234919D01*
X190155488Y-104234912D01*
X190018917Y-104178343D01*
X190018907Y-104178340D01*
X189873920Y-104149500D01*
X189873918Y-104149500D01*
X189726082Y-104149500D01*
X189726080Y-104149500D01*
X189581092Y-104178340D01*
X189581082Y-104178343D01*
X189444511Y-104234912D01*
X189444498Y-104234919D01*
X189321584Y-104317048D01*
X189321580Y-104317051D01*
X189217051Y-104421580D01*
X189217048Y-104421584D01*
X189134919Y-104544498D01*
X189134912Y-104544511D01*
X189078343Y-104681082D01*
X189078340Y-104681092D01*
X189049500Y-104826079D01*
X189049500Y-104826082D01*
X189049500Y-104973918D01*
X189049500Y-104973920D01*
X189049499Y-104973920D01*
X187317921Y-104973920D01*
X187282951Y-104921584D01*
X187282948Y-104921580D01*
X187178419Y-104817051D01*
X187178415Y-104817048D01*
X187055501Y-104734919D01*
X187055488Y-104734912D01*
X186918917Y-104678343D01*
X186918907Y-104678340D01*
X186773920Y-104649500D01*
X186773918Y-104649500D01*
X186626082Y-104649500D01*
X186626080Y-104649500D01*
X186481092Y-104678340D01*
X186481082Y-104678343D01*
X186344511Y-104734912D01*
X186344498Y-104734919D01*
X186221584Y-104817048D01*
X186221580Y-104817051D01*
X186117051Y-104921580D01*
X186117048Y-104921584D01*
X186034919Y-105044498D01*
X186034912Y-105044511D01*
X185978343Y-105181082D01*
X185978340Y-105181092D01*
X185949500Y-105326079D01*
X185949500Y-105326082D01*
X185949500Y-105473918D01*
X185949500Y-105473920D01*
X185949499Y-105473920D01*
X182545000Y-105473920D01*
X182545000Y-105270000D01*
X181845000Y-105270000D01*
X181845000Y-104770000D01*
X182545000Y-104770000D01*
X182545000Y-104394045D01*
X182544999Y-104394041D01*
X182505612Y-104196025D01*
X182505609Y-104196016D01*
X182428347Y-104009486D01*
X182428340Y-104009473D01*
X182316170Y-103841600D01*
X182316167Y-103841596D01*
X182173403Y-103698832D01*
X182173399Y-103698829D01*
X182005526Y-103586659D01*
X182005513Y-103586652D01*
X181818984Y-103509390D01*
X181818977Y-103509388D01*
X181770000Y-103499645D01*
X181770000Y-104510382D01*
X181719554Y-104459936D01*
X181645445Y-104417149D01*
X181562787Y-104395000D01*
X181477213Y-104395000D01*
X181394555Y-104417149D01*
X181320446Y-104459936D01*
X181270000Y-104510382D01*
X181270000Y-103499646D01*
X181269999Y-103499645D01*
X181221022Y-103509388D01*
X181221015Y-103509390D01*
X181034486Y-103586652D01*
X181034475Y-103586658D01*
X180996516Y-103612022D01*
X180929838Y-103632899D01*
X180862458Y-103614414D01*
X180815769Y-103562435D01*
X180813065Y-103556372D01*
X180784980Y-103488571D01*
X180342770Y-103930782D01*
X180315303Y-103945780D01*
X180288789Y-103962434D01*
X180284878Y-103962393D01*
X180281447Y-103964267D01*
X180255267Y-103962394D01*
X180275000Y-103914755D01*
X180275000Y-103825245D01*
X180240746Y-103742548D01*
X180177452Y-103679254D01*
X180094755Y-103645000D01*
X180005245Y-103645000D01*
X179930539Y-103675943D01*
X179932403Y-103649889D01*
X179960904Y-103605542D01*
X180431427Y-103135018D01*
X180290644Y-103076704D01*
X180290636Y-103076702D01*
X180131259Y-103045000D01*
X179968740Y-103045000D01*
X179809363Y-103076702D01*
X179809351Y-103076705D01*
X179697452Y-103123055D01*
X179627983Y-103130524D01*
X179602548Y-103123055D01*
X179490648Y-103076705D01*
X179490636Y-103076702D01*
X179331259Y-103045000D01*
X179168740Y-103045000D01*
X179009363Y-103076702D01*
X179009360Y-103076703D01*
X178898103Y-103122786D01*
X178828633Y-103130254D01*
X178803199Y-103122785D01*
X178690793Y-103076225D01*
X178690783Y-103076222D01*
X178531307Y-103044500D01*
X178531305Y-103044500D01*
X178368695Y-103044500D01*
X178368693Y-103044500D01*
X178209216Y-103076222D01*
X178209210Y-103076224D01*
X178153640Y-103099242D01*
X178097451Y-103122516D01*
X178027984Y-103129985D01*
X178002550Y-103122517D01*
X177890789Y-103076224D01*
X177890783Y-103076222D01*
X177731307Y-103044500D01*
X177731305Y-103044500D01*
X177568695Y-103044500D01*
X177568693Y-103044500D01*
X177409216Y-103076222D01*
X177409210Y-103076224D01*
X177353640Y-103099242D01*
X177297451Y-103122516D01*
X177227984Y-103129985D01*
X177202550Y-103122517D01*
X177090789Y-103076224D01*
X177090783Y-103076222D01*
X176931307Y-103044500D01*
X176931305Y-103044500D01*
X176768695Y-103044500D01*
X176768693Y-103044500D01*
X176609216Y-103076222D01*
X176609210Y-103076224D01*
X176553640Y-103099242D01*
X176497451Y-103122516D01*
X176427984Y-103129985D01*
X176402550Y-103122517D01*
X176290789Y-103076224D01*
X176290783Y-103076222D01*
X176131307Y-103044500D01*
X176131305Y-103044500D01*
X175968695Y-103044500D01*
X175968693Y-103044500D01*
X175809216Y-103076222D01*
X175809215Y-103076223D01*
X175809214Y-103076223D01*
X175809211Y-103076224D01*
X175744049Y-103103214D01*
X175696799Y-103122786D01*
X175627329Y-103130254D01*
X175601895Y-103122785D01*
X175490648Y-103076705D01*
X175490636Y-103076702D01*
X175331259Y-103045000D01*
X175168740Y-103045000D01*
X175009363Y-103076702D01*
X175009351Y-103076705D01*
X174897452Y-103123055D01*
X174827983Y-103130524D01*
X174802548Y-103123055D01*
X174690648Y-103076705D01*
X174690636Y-103076702D01*
X174531259Y-103045000D01*
X174368740Y-103045000D01*
X174209363Y-103076701D01*
X174209354Y-103076704D01*
X174068571Y-103135018D01*
X174539095Y-103605541D01*
X174543433Y-103613486D01*
X174550682Y-103618913D01*
X174559916Y-103643672D01*
X174572580Y-103666864D01*
X174571934Y-103675894D01*
X174572407Y-103677164D01*
X174494755Y-103645000D01*
X174405245Y-103645000D01*
X174322548Y-103679254D01*
X174259254Y-103742548D01*
X174225000Y-103825245D01*
X174225000Y-103914755D01*
X174245352Y-103963890D01*
X174190377Y-103954467D01*
X174157229Y-103930783D01*
X173715018Y-103488571D01*
X173686934Y-103556372D01*
X173643093Y-103610775D01*
X173576799Y-103632840D01*
X173509099Y-103615561D01*
X173503482Y-103612021D01*
X173465526Y-103586659D01*
X173465513Y-103586652D01*
X173278984Y-103509390D01*
X173278977Y-103509388D01*
X173230000Y-103499645D01*
X173230000Y-104510382D01*
X173179554Y-104459936D01*
X173105445Y-104417149D01*
X173022787Y-104395000D01*
X172937213Y-104395000D01*
X172854555Y-104417149D01*
X172780446Y-104459936D01*
X172730000Y-104510382D01*
X172730000Y-103499646D01*
X172729999Y-103499645D01*
X172681022Y-103509388D01*
X172681015Y-103509390D01*
X172494486Y-103586652D01*
X172494473Y-103586659D01*
X172326600Y-103698829D01*
X172326596Y-103698832D01*
X172183832Y-103841596D01*
X172183829Y-103841600D01*
X172071659Y-104009473D01*
X172071652Y-104009486D01*
X171994390Y-104196016D01*
X171994387Y-104196025D01*
X171955000Y-104394041D01*
X163448500Y-104394041D01*
X163453000Y-104371418D01*
X163453000Y-104223582D01*
X163453000Y-104223579D01*
X163424159Y-104078592D01*
X163424158Y-104078591D01*
X163424158Y-104078587D01*
X163406067Y-104034912D01*
X163367587Y-103942011D01*
X163367580Y-103941998D01*
X163285451Y-103819084D01*
X163285448Y-103819080D01*
X163180919Y-103714551D01*
X163180915Y-103714548D01*
X163058001Y-103632419D01*
X163057988Y-103632412D01*
X162921417Y-103575843D01*
X162921407Y-103575840D01*
X162776420Y-103547000D01*
X162776418Y-103547000D01*
X162628582Y-103547000D01*
X162628580Y-103547000D01*
X162483592Y-103575840D01*
X162483582Y-103575843D01*
X162375493Y-103620615D01*
X162306024Y-103628084D01*
X162243545Y-103596808D01*
X162224938Y-103574944D01*
X162202036Y-103540668D01*
X162097506Y-103436138D01*
X162097502Y-103436135D01*
X161974588Y-103354006D01*
X161974575Y-103353999D01*
X161838004Y-103297430D01*
X161837994Y-103297427D01*
X161693007Y-103268587D01*
X161693005Y-103268587D01*
X161545169Y-103268587D01*
X161545167Y-103268587D01*
X161400179Y-103297427D01*
X161400169Y-103297430D01*
X161263598Y-103353999D01*
X161263585Y-103354006D01*
X161140671Y-103436135D01*
X161140667Y-103436138D01*
X161036138Y-103540667D01*
X161036135Y-103540671D01*
X160954006Y-103663585D01*
X160953999Y-103663598D01*
X160897429Y-103800171D01*
X160897427Y-103800179D01*
X160891235Y-103831310D01*
X160858850Y-103893221D01*
X160798134Y-103927795D01*
X160793810Y-103928735D01*
X160762679Y-103934927D01*
X160762671Y-103934929D01*
X160626098Y-103991499D01*
X160626085Y-103991506D01*
X160503171Y-104073635D01*
X160503167Y-104073638D01*
X160398638Y-104178167D01*
X160398635Y-104178171D01*
X160316506Y-104301085D01*
X160316499Y-104301098D01*
X160259930Y-104437669D01*
X160259927Y-104437679D01*
X160231087Y-104582666D01*
X160231087Y-104582669D01*
X160231087Y-104730505D01*
X160231087Y-104730507D01*
X160231086Y-104730507D01*
X157550500Y-104730507D01*
X157550500Y-104626082D01*
X157550499Y-104626079D01*
X157545983Y-104603374D01*
X157545982Y-104603373D01*
X157521658Y-104481087D01*
X157508273Y-104448775D01*
X157506015Y-104439514D01*
X157507209Y-104413756D01*
X157504453Y-104388114D01*
X157509006Y-104375023D01*
X157509253Y-104369719D01*
X157512388Y-104365304D01*
X157513705Y-104361518D01*
X157512753Y-104361124D01*
X157569725Y-104223579D01*
X157571658Y-104218913D01*
X157581096Y-104171462D01*
X157600500Y-104073920D01*
X157600500Y-103926079D01*
X157571659Y-103781092D01*
X157571658Y-103781091D01*
X157571658Y-103781087D01*
X157553212Y-103736555D01*
X157515087Y-103644511D01*
X157515080Y-103644498D01*
X157432951Y-103521584D01*
X157432948Y-103521580D01*
X157328419Y-103417051D01*
X157328415Y-103417048D01*
X157205501Y-103334919D01*
X157205488Y-103334912D01*
X157068917Y-103278343D01*
X157068907Y-103278340D01*
X156923920Y-103249500D01*
X156923918Y-103249500D01*
X156776082Y-103249500D01*
X156776080Y-103249500D01*
X156631092Y-103278340D01*
X156631082Y-103278343D01*
X156494511Y-103334912D01*
X156494498Y-103334919D01*
X156371584Y-103417048D01*
X156371580Y-103417051D01*
X156267051Y-103521580D01*
X156267048Y-103521584D01*
X156184919Y-103644498D01*
X156184912Y-103644511D01*
X156128343Y-103781082D01*
X156128340Y-103781092D01*
X156099500Y-103926079D01*
X156099500Y-103926082D01*
X156099500Y-104073918D01*
X156099500Y-104073920D01*
X156099499Y-104073920D01*
X156128340Y-104218906D01*
X156128341Y-104218910D01*
X156128342Y-104218913D01*
X156138078Y-104242418D01*
X156145547Y-104311885D01*
X156136301Y-104338486D01*
X156137247Y-104338878D01*
X156078342Y-104481086D01*
X156078340Y-104481092D01*
X156049500Y-104626079D01*
X156049500Y-104626080D01*
X156049500Y-104626082D01*
X156049500Y-104773918D01*
X156049500Y-104773920D01*
X156049499Y-104773920D01*
X145200500Y-104773920D01*
X145200500Y-96673920D01*
X147949499Y-96673920D01*
X147978340Y-96818907D01*
X147978343Y-96818917D01*
X148034912Y-96955488D01*
X148034919Y-96955501D01*
X148117048Y-97078415D01*
X148117051Y-97078419D01*
X148221580Y-97182948D01*
X148221584Y-97182951D01*
X148344498Y-97265080D01*
X148344511Y-97265087D01*
X148481082Y-97321656D01*
X148481087Y-97321658D01*
X148481091Y-97321658D01*
X148481092Y-97321659D01*
X148626079Y-97350500D01*
X148626082Y-97350500D01*
X148773920Y-97350500D01*
X148907551Y-97323918D01*
X148918913Y-97321658D01*
X149055495Y-97265084D01*
X149178416Y-97182951D01*
X149282951Y-97078416D01*
X149365084Y-96955495D01*
X149421658Y-96818913D01*
X149431096Y-96771462D01*
X149450500Y-96673920D01*
X151549499Y-96673920D01*
X151578340Y-96818907D01*
X151578343Y-96818917D01*
X151634912Y-96955488D01*
X151634919Y-96955501D01*
X151717048Y-97078415D01*
X151717051Y-97078419D01*
X151821580Y-97182948D01*
X151821584Y-97182951D01*
X151944498Y-97265080D01*
X151944511Y-97265087D01*
X152081082Y-97321656D01*
X152081087Y-97321658D01*
X152081091Y-97321658D01*
X152081092Y-97321659D01*
X152226079Y-97350500D01*
X152226082Y-97350500D01*
X152373920Y-97350500D01*
X152507551Y-97323918D01*
X152518913Y-97321658D01*
X152634163Y-97273920D01*
X167599499Y-97273920D01*
X167628340Y-97418907D01*
X167628343Y-97418917D01*
X167684912Y-97555488D01*
X167684922Y-97555506D01*
X167752143Y-97656110D01*
X167773021Y-97722787D01*
X167754536Y-97790167D01*
X167752143Y-97793890D01*
X167684922Y-97894493D01*
X167684912Y-97894511D01*
X167628343Y-98031082D01*
X167628340Y-98031092D01*
X167599500Y-98176079D01*
X167599500Y-98176082D01*
X167599500Y-98323918D01*
X167599500Y-98323920D01*
X167599499Y-98323920D01*
X167628340Y-98468907D01*
X167628343Y-98468917D01*
X167684912Y-98605488D01*
X167684919Y-98605501D01*
X167735439Y-98681109D01*
X167756317Y-98747787D01*
X167737832Y-98815167D01*
X167735439Y-98818891D01*
X167684919Y-98894498D01*
X167684912Y-98894511D01*
X167628343Y-99031082D01*
X167628340Y-99031092D01*
X167599500Y-99176079D01*
X167599500Y-99176082D01*
X167599500Y-99323918D01*
X167599500Y-99323920D01*
X167599499Y-99323920D01*
X167628340Y-99468907D01*
X167628343Y-99468917D01*
X167684912Y-99605488D01*
X167684919Y-99605501D01*
X167767048Y-99728415D01*
X167767051Y-99728419D01*
X167871580Y-99832948D01*
X167871584Y-99832951D01*
X167994498Y-99915080D01*
X167994511Y-99915087D01*
X168111867Y-99963697D01*
X168131087Y-99971658D01*
X168131091Y-99971658D01*
X168131092Y-99971659D01*
X168276079Y-100000500D01*
X168276082Y-100000500D01*
X168423920Y-100000500D01*
X168535321Y-99978340D01*
X168568913Y-99971658D01*
X168705495Y-99915084D01*
X168828416Y-99832951D01*
X168932951Y-99728416D01*
X169015084Y-99605495D01*
X169071658Y-99468913D01*
X169100500Y-99323918D01*
X169100500Y-99176082D01*
X169100500Y-99176079D01*
X169071659Y-99031092D01*
X169071658Y-99031091D01*
X169071658Y-99031087D01*
X169035795Y-98944505D01*
X169015087Y-98894511D01*
X169015083Y-98894504D01*
X169015079Y-98894498D01*
X168964559Y-98818888D01*
X168943682Y-98752214D01*
X168962166Y-98684834D01*
X168964531Y-98681151D01*
X169015084Y-98605495D01*
X169071658Y-98468913D01*
X169100500Y-98323918D01*
X169100500Y-98176082D01*
X169100500Y-98176079D01*
X169071659Y-98031092D01*
X169071658Y-98031091D01*
X169071658Y-98031087D01*
X169035790Y-97944493D01*
X169015087Y-97894511D01*
X169015080Y-97894498D01*
X168947856Y-97793891D01*
X168926978Y-97727214D01*
X168945462Y-97659834D01*
X168947856Y-97656109D01*
X169015080Y-97555501D01*
X169015080Y-97555500D01*
X169015084Y-97555495D01*
X169071658Y-97418913D01*
X169090554Y-97323920D01*
X173399499Y-97323920D01*
X173428340Y-97468907D01*
X173428343Y-97468917D01*
X173484912Y-97605488D01*
X173484922Y-97605506D01*
X173552143Y-97706110D01*
X173573021Y-97772787D01*
X173554536Y-97840167D01*
X173552143Y-97843890D01*
X173484922Y-97944493D01*
X173484912Y-97944511D01*
X173428343Y-98081082D01*
X173428340Y-98081092D01*
X173399500Y-98226079D01*
X173399500Y-98226082D01*
X173399500Y-98373918D01*
X173399500Y-98373920D01*
X173399499Y-98373920D01*
X173428340Y-98518907D01*
X173428343Y-98518917D01*
X173484912Y-98655488D01*
X173484919Y-98655501D01*
X173535439Y-98731109D01*
X173556317Y-98797787D01*
X173537832Y-98865167D01*
X173535439Y-98868891D01*
X173484919Y-98944498D01*
X173484912Y-98944511D01*
X173428343Y-99081082D01*
X173428340Y-99081092D01*
X173399500Y-99226079D01*
X173399500Y-99226082D01*
X173399500Y-99373918D01*
X173399500Y-99373920D01*
X173399499Y-99373920D01*
X173428340Y-99518907D01*
X173428343Y-99518917D01*
X173484912Y-99655488D01*
X173484919Y-99655501D01*
X173567048Y-99778415D01*
X173567051Y-99778419D01*
X173671580Y-99882948D01*
X173671584Y-99882951D01*
X173794498Y-99965080D01*
X173794511Y-99965087D01*
X173931082Y-100021656D01*
X173931087Y-100021658D01*
X173931091Y-100021658D01*
X173931092Y-100021659D01*
X174076079Y-100050500D01*
X174076082Y-100050500D01*
X174223920Y-100050500D01*
X174321462Y-100031096D01*
X174368913Y-100021658D01*
X174505495Y-99965084D01*
X174505505Y-99965076D01*
X174508088Y-99963697D01*
X174509610Y-99963379D01*
X174511124Y-99962753D01*
X174511242Y-99963039D01*
X174522887Y-99960614D01*
X174535885Y-99952903D01*
X174556394Y-99953635D01*
X174576490Y-99949450D01*
X174590605Y-99954857D01*
X174605710Y-99955397D01*
X174622568Y-99967102D01*
X174641736Y-99974445D01*
X174651598Y-99987258D01*
X174663102Y-99995245D01*
X174681111Y-100025599D01*
X174722659Y-100125906D01*
X174730128Y-100195375D01*
X174698853Y-100257854D01*
X174655551Y-100287919D01*
X174544507Y-100333914D01*
X174544498Y-100333919D01*
X174421584Y-100416048D01*
X174421580Y-100416051D01*
X174317051Y-100520580D01*
X174317048Y-100520584D01*
X174234919Y-100643498D01*
X174234912Y-100643511D01*
X174178343Y-100780082D01*
X174178340Y-100780092D01*
X174149500Y-100925079D01*
X174149500Y-100925082D01*
X174149500Y-101072918D01*
X174149500Y-101072920D01*
X174149499Y-101072920D01*
X174178340Y-101217907D01*
X174178343Y-101217917D01*
X174234912Y-101354488D01*
X174234919Y-101354501D01*
X174317048Y-101477415D01*
X174317051Y-101477419D01*
X174421580Y-101581948D01*
X174421584Y-101581951D01*
X174544498Y-101664080D01*
X174544511Y-101664087D01*
X174623148Y-101696659D01*
X174681087Y-101720658D01*
X174681091Y-101720658D01*
X174681092Y-101720659D01*
X174826079Y-101749500D01*
X174826082Y-101749500D01*
X174973920Y-101749500D01*
X175094571Y-101725500D01*
X175118913Y-101720658D01*
X175255495Y-101664084D01*
X175378416Y-101581951D01*
X175482951Y-101477416D01*
X175565084Y-101354495D01*
X175621658Y-101217913D01*
X175650500Y-101072918D01*
X175650500Y-100925082D01*
X175650500Y-100925079D01*
X175621659Y-100780092D01*
X175621658Y-100780091D01*
X175621658Y-100780087D01*
X175619104Y-100773920D01*
X176499499Y-100773920D01*
X176528340Y-100918907D01*
X176528343Y-100918917D01*
X176584912Y-101055488D01*
X176584919Y-101055501D01*
X176667048Y-101178415D01*
X176667051Y-101178419D01*
X176771580Y-101282948D01*
X176771584Y-101282951D01*
X176894498Y-101365080D01*
X176894511Y-101365087D01*
X177031082Y-101421656D01*
X177031087Y-101421658D01*
X177031091Y-101421658D01*
X177031092Y-101421659D01*
X177176079Y-101450500D01*
X177176082Y-101450500D01*
X177323920Y-101450500D01*
X177437121Y-101427982D01*
X177468913Y-101421658D01*
X177605495Y-101365084D01*
X177728416Y-101282951D01*
X177832951Y-101178416D01*
X177915084Y-101055495D01*
X177917808Y-101048920D01*
X177927902Y-101024547D01*
X177971658Y-100918913D01*
X178000500Y-100773918D01*
X178000500Y-100626082D01*
X178000500Y-100626079D01*
X177971659Y-100481092D01*
X177971658Y-100481091D01*
X177971658Y-100481087D01*
X177962329Y-100458564D01*
X177915087Y-100344511D01*
X177915080Y-100344498D01*
X177832951Y-100221584D01*
X177832948Y-100221580D01*
X177728419Y-100117051D01*
X177728415Y-100117048D01*
X177605501Y-100034919D01*
X177605488Y-100034912D01*
X177468917Y-99978343D01*
X177468907Y-99978340D01*
X177323920Y-99949500D01*
X177323918Y-99949500D01*
X177176082Y-99949500D01*
X177176080Y-99949500D01*
X177031092Y-99978340D01*
X177031082Y-99978343D01*
X176894511Y-100034912D01*
X176894498Y-100034919D01*
X176771584Y-100117048D01*
X176771580Y-100117051D01*
X176667051Y-100221580D01*
X176667048Y-100221584D01*
X176584919Y-100344498D01*
X176584912Y-100344511D01*
X176528343Y-100481082D01*
X176528340Y-100481092D01*
X176499500Y-100626079D01*
X176499500Y-100626082D01*
X176499500Y-100773918D01*
X176499500Y-100773920D01*
X176499499Y-100773920D01*
X175619104Y-100773920D01*
X175577339Y-100673093D01*
X175576372Y-100664091D01*
X175571753Y-100656306D01*
X175572696Y-100629900D01*
X175569871Y-100603624D01*
X175573923Y-100595527D01*
X175574247Y-100586481D01*
X175589316Y-100564777D01*
X175601146Y-100541145D01*
X175609987Y-100535006D01*
X175614096Y-100529089D01*
X175644445Y-100511082D01*
X175755495Y-100465084D01*
X175878416Y-100382951D01*
X175982951Y-100278416D01*
X176065084Y-100155495D01*
X176121658Y-100018913D01*
X176134207Y-99955825D01*
X176150500Y-99873920D01*
X178449499Y-99873920D01*
X178478340Y-100018907D01*
X178478343Y-100018917D01*
X178534912Y-100155488D01*
X178534919Y-100155501D01*
X178617048Y-100278415D01*
X178617051Y-100278419D01*
X178721580Y-100382948D01*
X178726292Y-100386815D01*
X178725146Y-100388211D01*
X178764499Y-100435310D01*
X178773198Y-100504636D01*
X178753900Y-100553677D01*
X178709918Y-100619500D01*
X178709912Y-100619511D01*
X178653343Y-100756082D01*
X178653340Y-100756092D01*
X178624500Y-100901079D01*
X178624500Y-100901082D01*
X178624500Y-101048918D01*
X178624500Y-101048920D01*
X178624499Y-101048920D01*
X178653340Y-101193907D01*
X178653343Y-101193917D01*
X178709912Y-101330488D01*
X178709919Y-101330501D01*
X178792048Y-101453415D01*
X178792051Y-101453419D01*
X178896580Y-101557948D01*
X178896584Y-101557951D01*
X179019498Y-101640080D01*
X179019511Y-101640087D01*
X179077453Y-101664087D01*
X179156087Y-101696658D01*
X179156091Y-101696658D01*
X179156092Y-101696659D01*
X179301079Y-101725500D01*
X179301082Y-101725500D01*
X179448920Y-101725500D01*
X179546462Y-101706096D01*
X179593913Y-101696658D01*
X179730495Y-101640084D01*
X179853416Y-101557951D01*
X179957951Y-101453416D01*
X180040084Y-101330495D01*
X180096658Y-101193913D01*
X180125500Y-101048918D01*
X180125500Y-100901082D01*
X180125500Y-100901079D01*
X180096659Y-100756092D01*
X180096658Y-100756091D01*
X180096658Y-100756087D01*
X180094717Y-100751402D01*
X190626981Y-100751402D01*
X190655822Y-100896389D01*
X190655825Y-100896399D01*
X190712394Y-101032970D01*
X190712401Y-101032983D01*
X190794530Y-101155897D01*
X190794533Y-101155901D01*
X190899062Y-101260430D01*
X190899066Y-101260433D01*
X191021980Y-101342562D01*
X191021993Y-101342569D01*
X191158564Y-101399138D01*
X191158569Y-101399140D01*
X191158573Y-101399140D01*
X191158574Y-101399141D01*
X191303561Y-101427982D01*
X191303564Y-101427982D01*
X191451402Y-101427982D01*
X191548944Y-101408578D01*
X191596395Y-101399140D01*
X191732977Y-101342566D01*
X191855898Y-101260433D01*
X191960433Y-101155898D01*
X192042566Y-101032977D01*
X192099140Y-100896395D01*
X192122277Y-100780082D01*
X192127982Y-100751402D01*
X192127982Y-100603561D01*
X192099141Y-100458574D01*
X192099140Y-100458573D01*
X192099140Y-100458569D01*
X192081527Y-100416048D01*
X192042569Y-100321993D01*
X192042562Y-100321980D01*
X191960433Y-100199066D01*
X191960430Y-100199062D01*
X191855901Y-100094533D01*
X191855897Y-100094530D01*
X191732983Y-100012401D01*
X191732970Y-100012394D01*
X191596399Y-99955825D01*
X191596389Y-99955822D01*
X191451402Y-99926982D01*
X191451400Y-99926982D01*
X191303564Y-99926982D01*
X191303562Y-99926982D01*
X191158574Y-99955822D01*
X191158564Y-99955825D01*
X191021993Y-100012394D01*
X191021980Y-100012401D01*
X190899066Y-100094530D01*
X190899062Y-100094533D01*
X190794533Y-100199062D01*
X190794530Y-100199066D01*
X190712401Y-100321980D01*
X190712394Y-100321993D01*
X190655825Y-100458564D01*
X190655822Y-100458574D01*
X190626982Y-100603561D01*
X190626982Y-100603564D01*
X190626982Y-100751400D01*
X190626982Y-100751402D01*
X190626981Y-100751402D01*
X180094717Y-100751402D01*
X180040084Y-100619505D01*
X180040081Y-100619500D01*
X180040080Y-100619498D01*
X179957951Y-100496584D01*
X179957948Y-100496580D01*
X179853419Y-100392051D01*
X179848708Y-100388185D01*
X179849855Y-100386786D01*
X179810508Y-100339706D01*
X179801798Y-100270381D01*
X179821100Y-100221322D01*
X179865080Y-100155501D01*
X179865080Y-100155500D01*
X179865084Y-100155495D01*
X179921658Y-100018913D01*
X179934207Y-99955825D01*
X179950500Y-99873920D01*
X179950500Y-99726079D01*
X179921659Y-99581092D01*
X179921658Y-99581091D01*
X179921658Y-99581087D01*
X179921656Y-99581082D01*
X179865087Y-99444511D01*
X179865080Y-99444498D01*
X179782951Y-99321584D01*
X179782948Y-99321580D01*
X179678419Y-99217051D01*
X179678415Y-99217048D01*
X179555501Y-99134919D01*
X179555488Y-99134912D01*
X179418917Y-99078343D01*
X179418907Y-99078340D01*
X179273920Y-99049500D01*
X179273918Y-99049500D01*
X179126082Y-99049500D01*
X179126080Y-99049500D01*
X178981092Y-99078340D01*
X178981082Y-99078343D01*
X178844511Y-99134912D01*
X178844498Y-99134919D01*
X178721584Y-99217048D01*
X178721580Y-99217051D01*
X178617051Y-99321580D01*
X178617048Y-99321584D01*
X178534919Y-99444498D01*
X178534912Y-99444511D01*
X178478343Y-99581082D01*
X178478340Y-99581092D01*
X178449500Y-99726079D01*
X178449500Y-99726082D01*
X178449500Y-99873918D01*
X178449500Y-99873920D01*
X178449499Y-99873920D01*
X176150500Y-99873920D01*
X176150500Y-99726079D01*
X176121659Y-99581092D01*
X176121658Y-99581091D01*
X176121658Y-99581087D01*
X176121656Y-99581082D01*
X176065087Y-99444511D01*
X176065080Y-99444498D01*
X175982951Y-99321584D01*
X175982948Y-99321580D01*
X175878419Y-99217051D01*
X175878415Y-99217048D01*
X175755501Y-99134919D01*
X175755488Y-99134912D01*
X175618917Y-99078343D01*
X175618907Y-99078340D01*
X175473920Y-99049500D01*
X175473918Y-99049500D01*
X175326082Y-99049500D01*
X175326080Y-99049500D01*
X175181092Y-99078340D01*
X175181082Y-99078343D01*
X175044498Y-99134918D01*
X175041894Y-99136310D01*
X175040374Y-99136626D01*
X175038876Y-99137247D01*
X175038758Y-99136962D01*
X174973491Y-99150547D01*
X174908249Y-99125543D01*
X174868888Y-99074400D01*
X174815087Y-98944511D01*
X174815083Y-98944504D01*
X174815079Y-98944498D01*
X174764559Y-98868888D01*
X174743682Y-98802214D01*
X174762166Y-98734834D01*
X174764531Y-98731151D01*
X174815084Y-98655495D01*
X174871658Y-98518913D01*
X174900500Y-98373918D01*
X174900500Y-98226082D01*
X174900500Y-98226079D01*
X174871659Y-98081092D01*
X174871658Y-98081091D01*
X174871658Y-98081087D01*
X174871656Y-98081082D01*
X174815087Y-97944511D01*
X174815080Y-97944498D01*
X174747856Y-97843891D01*
X174726978Y-97777214D01*
X174745462Y-97709834D01*
X174747856Y-97706109D01*
X174815080Y-97605501D01*
X174815080Y-97605500D01*
X174815084Y-97605495D01*
X174871658Y-97468913D01*
X174892311Y-97365087D01*
X174900500Y-97323920D01*
X174900500Y-97176079D01*
X174871659Y-97031092D01*
X174871658Y-97031091D01*
X174871658Y-97031087D01*
X174871656Y-97031082D01*
X174815087Y-96894511D01*
X174815080Y-96894498D01*
X174734512Y-96773920D01*
X183349499Y-96773920D01*
X183378340Y-96918907D01*
X183378343Y-96918917D01*
X183434912Y-97055488D01*
X183434919Y-97055501D01*
X183517048Y-97178415D01*
X183517051Y-97178419D01*
X183621580Y-97282948D01*
X183621584Y-97282951D01*
X183744498Y-97365080D01*
X183744511Y-97365087D01*
X183881082Y-97421656D01*
X183881087Y-97421658D01*
X183881091Y-97421658D01*
X183881092Y-97421659D01*
X184026079Y-97450500D01*
X184026082Y-97450500D01*
X184173920Y-97450500D01*
X184271462Y-97431096D01*
X184318913Y-97421658D01*
X184455495Y-97365084D01*
X184578416Y-97282951D01*
X184682951Y-97178416D01*
X184765084Y-97055495D01*
X184821658Y-96918913D01*
X184836459Y-96844505D01*
X184850500Y-96773920D01*
X184850500Y-96626079D01*
X184821659Y-96481092D01*
X184821658Y-96481091D01*
X184821658Y-96481087D01*
X184780235Y-96381082D01*
X184765087Y-96344511D01*
X184765080Y-96344498D01*
X184682951Y-96221584D01*
X184682948Y-96221580D01*
X184578419Y-96117051D01*
X184578415Y-96117048D01*
X184455501Y-96034919D01*
X184455488Y-96034912D01*
X184318917Y-95978343D01*
X184318907Y-95978340D01*
X184173920Y-95949500D01*
X184173918Y-95949500D01*
X184026082Y-95949500D01*
X184026080Y-95949500D01*
X183881092Y-95978340D01*
X183881082Y-95978343D01*
X183744511Y-96034912D01*
X183744498Y-96034919D01*
X183621584Y-96117048D01*
X183621580Y-96117051D01*
X183517051Y-96221580D01*
X183517048Y-96221584D01*
X183434919Y-96344498D01*
X183434912Y-96344511D01*
X183378343Y-96481082D01*
X183378340Y-96481092D01*
X183349500Y-96626079D01*
X183349500Y-96626082D01*
X183349500Y-96773918D01*
X183349500Y-96773920D01*
X183349499Y-96773920D01*
X174734512Y-96773920D01*
X174732951Y-96771584D01*
X174732948Y-96771580D01*
X174628419Y-96667051D01*
X174628415Y-96667048D01*
X174505501Y-96584919D01*
X174505488Y-96584912D01*
X174368917Y-96528343D01*
X174368907Y-96528340D01*
X174223920Y-96499500D01*
X174223918Y-96499500D01*
X174076082Y-96499500D01*
X174076080Y-96499500D01*
X173931092Y-96528340D01*
X173931082Y-96528343D01*
X173794511Y-96584912D01*
X173794498Y-96584919D01*
X173671584Y-96667048D01*
X173671580Y-96667051D01*
X173567051Y-96771580D01*
X173567048Y-96771584D01*
X173484919Y-96894498D01*
X173484912Y-96894511D01*
X173428343Y-97031082D01*
X173428340Y-97031092D01*
X173399500Y-97176079D01*
X173399500Y-97176082D01*
X173399500Y-97323918D01*
X173399500Y-97323920D01*
X173399499Y-97323920D01*
X169090554Y-97323920D01*
X169090554Y-97323918D01*
X169100500Y-97273920D01*
X169100500Y-97126079D01*
X169071659Y-96981092D01*
X169071658Y-96981091D01*
X169071658Y-96981087D01*
X169061060Y-96955501D01*
X169015087Y-96844511D01*
X169015080Y-96844498D01*
X168932951Y-96721584D01*
X168932948Y-96721580D01*
X168828419Y-96617051D01*
X168828415Y-96617048D01*
X168705501Y-96534919D01*
X168705488Y-96534912D01*
X168568917Y-96478343D01*
X168568907Y-96478340D01*
X168423920Y-96449500D01*
X168423918Y-96449500D01*
X168276082Y-96449500D01*
X168276080Y-96449500D01*
X168131092Y-96478340D01*
X168131082Y-96478343D01*
X167994511Y-96534912D01*
X167994498Y-96534919D01*
X167871584Y-96617048D01*
X167871580Y-96617051D01*
X167767051Y-96721580D01*
X167767048Y-96721584D01*
X167684919Y-96844498D01*
X167684912Y-96844511D01*
X167628343Y-96981082D01*
X167628340Y-96981092D01*
X167599500Y-97126079D01*
X167599500Y-97126082D01*
X167599500Y-97273918D01*
X167599500Y-97273920D01*
X167599499Y-97273920D01*
X152634163Y-97273920D01*
X152655495Y-97265084D01*
X152778416Y-97182951D01*
X152882951Y-97078416D01*
X152894309Y-97061416D01*
X152901204Y-97051099D01*
X152965080Y-96955501D01*
X152965080Y-96955500D01*
X152965084Y-96955495D01*
X153021658Y-96818913D01*
X153031096Y-96771462D01*
X153050500Y-96673920D01*
X153050500Y-96526079D01*
X153021659Y-96381092D01*
X153021658Y-96381091D01*
X153021658Y-96381087D01*
X153006505Y-96344505D01*
X152965087Y-96244511D01*
X152965080Y-96244498D01*
X152882951Y-96121584D01*
X152882948Y-96121580D01*
X152778419Y-96017051D01*
X152778415Y-96017048D01*
X152655501Y-95934919D01*
X152655488Y-95934912D01*
X152518917Y-95878343D01*
X152518907Y-95878340D01*
X152373920Y-95849500D01*
X152373918Y-95849500D01*
X152226082Y-95849500D01*
X152226080Y-95849500D01*
X152081092Y-95878340D01*
X152081082Y-95878343D01*
X151944511Y-95934912D01*
X151944498Y-95934919D01*
X151821584Y-96017048D01*
X151821580Y-96017051D01*
X151717051Y-96121580D01*
X151717048Y-96121584D01*
X151634919Y-96244498D01*
X151634912Y-96244511D01*
X151578343Y-96381082D01*
X151578340Y-96381092D01*
X151549500Y-96526079D01*
X151549500Y-96526082D01*
X151549500Y-96673918D01*
X151549500Y-96673920D01*
X151549499Y-96673920D01*
X149450500Y-96673920D01*
X149450500Y-96526079D01*
X149421659Y-96381092D01*
X149421658Y-96381091D01*
X149421658Y-96381087D01*
X149406505Y-96344505D01*
X149365087Y-96244511D01*
X149365080Y-96244498D01*
X149282951Y-96121584D01*
X149282948Y-96121580D01*
X149178419Y-96017051D01*
X149178415Y-96017048D01*
X149055501Y-95934919D01*
X149055488Y-95934912D01*
X148918917Y-95878343D01*
X148918907Y-95878340D01*
X148773920Y-95849500D01*
X148773918Y-95849500D01*
X148626082Y-95849500D01*
X148626080Y-95849500D01*
X148481092Y-95878340D01*
X148481082Y-95878343D01*
X148344511Y-95934912D01*
X148344498Y-95934919D01*
X148221584Y-96017048D01*
X148221580Y-96017051D01*
X148117051Y-96121580D01*
X148117048Y-96121584D01*
X148034919Y-96244498D01*
X148034912Y-96244511D01*
X147978343Y-96381082D01*
X147978340Y-96381092D01*
X147949500Y-96526079D01*
X147949500Y-96526082D01*
X147949500Y-96673918D01*
X147949500Y-96673920D01*
X147949499Y-96673920D01*
X145200500Y-96673920D01*
X145200500Y-95273920D01*
X180849499Y-95273920D01*
X180878340Y-95418907D01*
X180878343Y-95418917D01*
X180934912Y-95555488D01*
X180934919Y-95555501D01*
X181017048Y-95678415D01*
X181017051Y-95678419D01*
X181121580Y-95782948D01*
X181121584Y-95782951D01*
X181244498Y-95865080D01*
X181244511Y-95865087D01*
X181381082Y-95921656D01*
X181381087Y-95921658D01*
X181381091Y-95921658D01*
X181381092Y-95921659D01*
X181526079Y-95950500D01*
X181526082Y-95950500D01*
X181673920Y-95950500D01*
X181771462Y-95931096D01*
X181818913Y-95921658D01*
X181955495Y-95865084D01*
X182078416Y-95782951D01*
X182182951Y-95678416D01*
X182265084Y-95555495D01*
X182321658Y-95418913D01*
X182350500Y-95273918D01*
X182350500Y-95126082D01*
X182350500Y-95126079D01*
X182321659Y-94981092D01*
X182321658Y-94981091D01*
X182321658Y-94981087D01*
X182321656Y-94981082D01*
X182265087Y-94844511D01*
X182265080Y-94844498D01*
X182182951Y-94721584D01*
X182182948Y-94721580D01*
X182078419Y-94617051D01*
X182078415Y-94617048D01*
X181955501Y-94534919D01*
X181955488Y-94534912D01*
X181818917Y-94478343D01*
X181818907Y-94478340D01*
X181673920Y-94449500D01*
X181673918Y-94449500D01*
X181526082Y-94449500D01*
X181526080Y-94449500D01*
X181381092Y-94478340D01*
X181381082Y-94478343D01*
X181244511Y-94534912D01*
X181244498Y-94534919D01*
X181121584Y-94617048D01*
X181121580Y-94617051D01*
X181017051Y-94721580D01*
X181017048Y-94721584D01*
X180934919Y-94844498D01*
X180934912Y-94844511D01*
X180878343Y-94981082D01*
X180878340Y-94981092D01*
X180849500Y-95126079D01*
X180849500Y-95126082D01*
X180849500Y-95273918D01*
X180849500Y-95273920D01*
X180849499Y-95273920D01*
X145200500Y-95273920D01*
X145200500Y-93848920D01*
X213224499Y-93848920D01*
X213253340Y-93993907D01*
X213253343Y-93993917D01*
X213309912Y-94130488D01*
X213309919Y-94130501D01*
X213392048Y-94253415D01*
X213392051Y-94253419D01*
X213496580Y-94357948D01*
X213496584Y-94357951D01*
X213619498Y-94440080D01*
X213619511Y-94440087D01*
X213756082Y-94496656D01*
X213756087Y-94496658D01*
X213756091Y-94496658D01*
X213756092Y-94496659D01*
X213901079Y-94525500D01*
X213901082Y-94525500D01*
X214048920Y-94525500D01*
X214146462Y-94506096D01*
X214193913Y-94496658D01*
X214330495Y-94440084D01*
X214453416Y-94357951D01*
X214453418Y-94357948D01*
X214454624Y-94357143D01*
X214521301Y-94336265D01*
X214588681Y-94354749D01*
X214611196Y-94372564D01*
X214621580Y-94382948D01*
X214621584Y-94382951D01*
X214744498Y-94465080D01*
X214744511Y-94465087D01*
X214881082Y-94521656D01*
X214881087Y-94521658D01*
X214881091Y-94521658D01*
X214881092Y-94521659D01*
X215026079Y-94550500D01*
X215026082Y-94550500D01*
X215173920Y-94550500D01*
X215299598Y-94525500D01*
X215318913Y-94521658D01*
X215455495Y-94465084D01*
X215578416Y-94382951D01*
X215682951Y-94278416D01*
X215765084Y-94155495D01*
X215821658Y-94018913D01*
X215850500Y-93873918D01*
X215850500Y-93726082D01*
X215850500Y-93726079D01*
X215821659Y-93581092D01*
X215821658Y-93581091D01*
X215821658Y-93581087D01*
X215769639Y-93455501D01*
X215765087Y-93444511D01*
X215765080Y-93444498D01*
X215682951Y-93321584D01*
X215682948Y-93321580D01*
X215578419Y-93217051D01*
X215578415Y-93217048D01*
X215513870Y-93173920D01*
X220649499Y-93173920D01*
X220678340Y-93318907D01*
X220678343Y-93318917D01*
X220734912Y-93455488D01*
X220734919Y-93455501D01*
X220817048Y-93578415D01*
X220817051Y-93578419D01*
X220921580Y-93682948D01*
X220921584Y-93682951D01*
X221044498Y-93765080D01*
X221044511Y-93765087D01*
X221181082Y-93821656D01*
X221181087Y-93821658D01*
X221181091Y-93821658D01*
X221181092Y-93821659D01*
X221326079Y-93850500D01*
X221326082Y-93850500D01*
X221473920Y-93850500D01*
X221571462Y-93831096D01*
X221618913Y-93821658D01*
X221755495Y-93765084D01*
X221878416Y-93682951D01*
X221982951Y-93578416D01*
X222065084Y-93455495D01*
X222121658Y-93318913D01*
X222141921Y-93217048D01*
X222150500Y-93173920D01*
X222150500Y-93026079D01*
X222121659Y-92881092D01*
X222121658Y-92881091D01*
X222121658Y-92881087D01*
X222110106Y-92853197D01*
X222065087Y-92744511D01*
X222065080Y-92744498D01*
X221982951Y-92621584D01*
X221982948Y-92621580D01*
X221878419Y-92517051D01*
X221878415Y-92517048D01*
X221755501Y-92434919D01*
X221755488Y-92434912D01*
X221618917Y-92378343D01*
X221618907Y-92378340D01*
X221473920Y-92349500D01*
X221473918Y-92349500D01*
X221326082Y-92349500D01*
X221326080Y-92349500D01*
X221181092Y-92378340D01*
X221181082Y-92378343D01*
X221044511Y-92434912D01*
X221044498Y-92434919D01*
X220921584Y-92517048D01*
X220921580Y-92517051D01*
X220817051Y-92621580D01*
X220817048Y-92621584D01*
X220734919Y-92744498D01*
X220734912Y-92744511D01*
X220678343Y-92881082D01*
X220678340Y-92881092D01*
X220649500Y-93026079D01*
X220649500Y-93026082D01*
X220649500Y-93173918D01*
X220649500Y-93173920D01*
X220649499Y-93173920D01*
X215513870Y-93173920D01*
X215455501Y-93134919D01*
X215455494Y-93134915D01*
X215454616Y-93134552D01*
X215454614Y-93134550D01*
X215318917Y-93078343D01*
X215318907Y-93078340D01*
X215173920Y-93049500D01*
X215173918Y-93049500D01*
X215026082Y-93049500D01*
X215026080Y-93049500D01*
X214881092Y-93078340D01*
X214881082Y-93078343D01*
X214744511Y-93134912D01*
X214744498Y-93134919D01*
X214620375Y-93217856D01*
X214553697Y-93238734D01*
X214486317Y-93220249D01*
X214463803Y-93202435D01*
X214453419Y-93192051D01*
X214453415Y-93192048D01*
X214330501Y-93109919D01*
X214330488Y-93109912D01*
X214193917Y-93053343D01*
X214193907Y-93053340D01*
X214048920Y-93024500D01*
X214048918Y-93024500D01*
X213901082Y-93024500D01*
X213901080Y-93024500D01*
X213756092Y-93053340D01*
X213756082Y-93053343D01*
X213619511Y-93109912D01*
X213619498Y-93109919D01*
X213496584Y-93192048D01*
X213496580Y-93192051D01*
X213392051Y-93296580D01*
X213392048Y-93296584D01*
X213309919Y-93419498D01*
X213309912Y-93419511D01*
X213253343Y-93556082D01*
X213253340Y-93556092D01*
X213224500Y-93701079D01*
X213224500Y-93701082D01*
X213224500Y-93848918D01*
X213224500Y-93848920D01*
X213224499Y-93848920D01*
X145200500Y-93848920D01*
X145200500Y-91173920D01*
X172749499Y-91173920D01*
X172778340Y-91318907D01*
X172778343Y-91318917D01*
X172834912Y-91455488D01*
X172834919Y-91455501D01*
X172917048Y-91578415D01*
X172917051Y-91578419D01*
X173021581Y-91682949D01*
X173021584Y-91682951D01*
X173025630Y-91685655D01*
X173070438Y-91739263D01*
X173079150Y-91808588D01*
X173059847Y-91857650D01*
X173021699Y-91914742D01*
X173021689Y-91914760D01*
X172965120Y-92051331D01*
X172965117Y-92051341D01*
X172936277Y-92196328D01*
X172936277Y-92196331D01*
X172936277Y-92344167D01*
X172936277Y-92344169D01*
X172936276Y-92344169D01*
X172965117Y-92489156D01*
X172965120Y-92489166D01*
X173021689Y-92625737D01*
X173021696Y-92625750D01*
X173103825Y-92748664D01*
X173103828Y-92748668D01*
X173208357Y-92853197D01*
X173208361Y-92853200D01*
X173331275Y-92935329D01*
X173331288Y-92935336D01*
X173467859Y-92991905D01*
X173467864Y-92991907D01*
X173467868Y-92991907D01*
X173467869Y-92991908D01*
X173612856Y-93020749D01*
X173612859Y-93020749D01*
X173760697Y-93020749D01*
X173858239Y-93001345D01*
X173905690Y-92991907D01*
X174042272Y-92935333D01*
X174165193Y-92853200D01*
X174269728Y-92748665D01*
X174351861Y-92625744D01*
X174408435Y-92489162D01*
X174430479Y-92378342D01*
X174437277Y-92344169D01*
X174437277Y-92196328D01*
X174408436Y-92051341D01*
X174408435Y-92051340D01*
X174408435Y-92051336D01*
X174408433Y-92051331D01*
X174351864Y-91914760D01*
X174351857Y-91914747D01*
X174269728Y-91791833D01*
X174269725Y-91791829D01*
X174165196Y-91687300D01*
X174165190Y-91687295D01*
X174161140Y-91684589D01*
X174116335Y-91630976D01*
X174107629Y-91561651D01*
X174126930Y-91512597D01*
X174165080Y-91455501D01*
X174165080Y-91455500D01*
X174165084Y-91455495D01*
X174221658Y-91318913D01*
X174247850Y-91187240D01*
X174250500Y-91173920D01*
X174250500Y-91026079D01*
X174221659Y-90881092D01*
X174221658Y-90881091D01*
X174221658Y-90881087D01*
X174188278Y-90800500D01*
X174165087Y-90744511D01*
X174165080Y-90744498D01*
X174082951Y-90621584D01*
X174082948Y-90621580D01*
X173978419Y-90517051D01*
X173978415Y-90517048D01*
X173855501Y-90434919D01*
X173855488Y-90434912D01*
X173828214Y-90423615D01*
X204024500Y-90423615D01*
X204024500Y-90576384D01*
X204054300Y-90726197D01*
X204054302Y-90726205D01*
X204112759Y-90867334D01*
X204112764Y-90867343D01*
X204197629Y-90994351D01*
X204197632Y-90994355D01*
X204305644Y-91102367D01*
X204305648Y-91102370D01*
X204432656Y-91187235D01*
X204432662Y-91187238D01*
X204432663Y-91187239D01*
X204573795Y-91245698D01*
X204723615Y-91275499D01*
X204723619Y-91275500D01*
X204723620Y-91275500D01*
X204876381Y-91275500D01*
X204876382Y-91275499D01*
X205026205Y-91245698D01*
X205167337Y-91187239D01*
X205294352Y-91102370D01*
X205402370Y-90994352D01*
X205487239Y-90867337D01*
X205545698Y-90726205D01*
X205575500Y-90576380D01*
X205575500Y-90423620D01*
X205545698Y-90273795D01*
X205499663Y-90162658D01*
X205487240Y-90132665D01*
X205487235Y-90132656D01*
X205402370Y-90005648D01*
X205402367Y-90005644D01*
X205294360Y-89897637D01*
X205294354Y-89897632D01*
X205294352Y-89897630D01*
X205217505Y-89846282D01*
X205167343Y-89812764D01*
X205167334Y-89812759D01*
X205163821Y-89811304D01*
X215299500Y-89811304D01*
X215299500Y-89988695D01*
X215334103Y-90162658D01*
X215334106Y-90162667D01*
X215401983Y-90326540D01*
X215401990Y-90326553D01*
X215500535Y-90474034D01*
X215500538Y-90474038D01*
X215625961Y-90599461D01*
X215625965Y-90599464D01*
X215773446Y-90698009D01*
X215773459Y-90698016D01*
X215841515Y-90726205D01*
X215937334Y-90765894D01*
X215937336Y-90765894D01*
X215937341Y-90765896D01*
X216111304Y-90800499D01*
X216111307Y-90800500D01*
X216111309Y-90800500D01*
X216288693Y-90800500D01*
X216288694Y-90800499D01*
X216346682Y-90788964D01*
X216462658Y-90765896D01*
X216462661Y-90765894D01*
X216462666Y-90765894D01*
X216626547Y-90698013D01*
X216774035Y-90599464D01*
X216899464Y-90474035D01*
X216949606Y-90398992D01*
X224774500Y-90398992D01*
X224774500Y-90601007D01*
X224813907Y-90799119D01*
X224813909Y-90799127D01*
X224891212Y-90985752D01*
X224891217Y-90985762D01*
X225003441Y-91153718D01*
X225146281Y-91296558D01*
X225314237Y-91408782D01*
X225314241Y-91408784D01*
X225314244Y-91408786D01*
X225500873Y-91486091D01*
X225634129Y-91512597D01*
X225698992Y-91525499D01*
X225698996Y-91525500D01*
X225698997Y-91525500D01*
X225901004Y-91525500D01*
X225901005Y-91525499D01*
X226099127Y-91486091D01*
X226285756Y-91408786D01*
X226453718Y-91296558D01*
X226596558Y-91153718D01*
X226708786Y-90985756D01*
X226786091Y-90799127D01*
X226825500Y-90601003D01*
X226825500Y-90398997D01*
X226786091Y-90200873D01*
X226708786Y-90014244D01*
X226708784Y-90014241D01*
X226708782Y-90014237D01*
X226596558Y-89846281D01*
X226453718Y-89703441D01*
X226285762Y-89591217D01*
X226285752Y-89591212D01*
X226099127Y-89513909D01*
X226099119Y-89513907D01*
X225901007Y-89474500D01*
X225901003Y-89474500D01*
X225698997Y-89474500D01*
X225698992Y-89474500D01*
X225500880Y-89513907D01*
X225500872Y-89513909D01*
X225314247Y-89591212D01*
X225314237Y-89591217D01*
X225146281Y-89703441D01*
X225003441Y-89846281D01*
X224891217Y-90014237D01*
X224891212Y-90014247D01*
X224813909Y-90200872D01*
X224813907Y-90200880D01*
X224774500Y-90398992D01*
X216949606Y-90398992D01*
X216998013Y-90326547D01*
X217065894Y-90162666D01*
X217065959Y-90162342D01*
X217094923Y-90016728D01*
X217100500Y-89988691D01*
X217100500Y-89811309D01*
X217100500Y-89811306D01*
X217100499Y-89811304D01*
X217065896Y-89637341D01*
X217065893Y-89637332D01*
X216998016Y-89473459D01*
X216998009Y-89473446D01*
X216899464Y-89325965D01*
X216899461Y-89325961D01*
X216774038Y-89200538D01*
X216774034Y-89200535D01*
X216626553Y-89101990D01*
X216626540Y-89101983D01*
X216462667Y-89034106D01*
X216462658Y-89034103D01*
X216288694Y-88999500D01*
X216288691Y-88999500D01*
X216111309Y-88999500D01*
X216111306Y-88999500D01*
X215937341Y-89034103D01*
X215937332Y-89034106D01*
X215773459Y-89101983D01*
X215773446Y-89101990D01*
X215625965Y-89200535D01*
X215625961Y-89200538D01*
X215500538Y-89325961D01*
X215500535Y-89325965D01*
X215401990Y-89473446D01*
X215401983Y-89473459D01*
X215334106Y-89637332D01*
X215334103Y-89637341D01*
X215299500Y-89811304D01*
X205163821Y-89811304D01*
X205026205Y-89754302D01*
X205026197Y-89754300D01*
X204876384Y-89724500D01*
X204876380Y-89724500D01*
X204723620Y-89724500D01*
X204723615Y-89724500D01*
X204573802Y-89754300D01*
X204573794Y-89754302D01*
X204432665Y-89812759D01*
X204432656Y-89812764D01*
X204305648Y-89897629D01*
X204305644Y-89897632D01*
X204197632Y-90005644D01*
X204197629Y-90005648D01*
X204112764Y-90132656D01*
X204112759Y-90132665D01*
X204054302Y-90273794D01*
X204054300Y-90273802D01*
X204024500Y-90423615D01*
X173828214Y-90423615D01*
X173718917Y-90378343D01*
X173718907Y-90378340D01*
X173573920Y-90349500D01*
X173573918Y-90349500D01*
X173426082Y-90349500D01*
X173426080Y-90349500D01*
X173281092Y-90378340D01*
X173281082Y-90378343D01*
X173144511Y-90434912D01*
X173144498Y-90434919D01*
X173021584Y-90517048D01*
X173021580Y-90517051D01*
X172917051Y-90621580D01*
X172917048Y-90621584D01*
X172834919Y-90744498D01*
X172834912Y-90744511D01*
X172778343Y-90881082D01*
X172778340Y-90881092D01*
X172749500Y-91026079D01*
X172749500Y-91026082D01*
X172749500Y-91173918D01*
X172749500Y-91173920D01*
X172749499Y-91173920D01*
X145200500Y-91173920D01*
X145200500Y-89612233D01*
X173998012Y-89612233D01*
X174026853Y-89757220D01*
X174026856Y-89757230D01*
X174083425Y-89893801D01*
X174083432Y-89893814D01*
X174165561Y-90016728D01*
X174165564Y-90016732D01*
X174270093Y-90121261D01*
X174270097Y-90121264D01*
X174393011Y-90203393D01*
X174393024Y-90203400D01*
X174529595Y-90259969D01*
X174529600Y-90259971D01*
X174529604Y-90259971D01*
X174529605Y-90259972D01*
X174674592Y-90288813D01*
X174674595Y-90288813D01*
X174822433Y-90288813D01*
X174919975Y-90269409D01*
X174967426Y-90259971D01*
X175104008Y-90203397D01*
X175134202Y-90183221D01*
X175200878Y-90162342D01*
X175268259Y-90180825D01*
X175271986Y-90183220D01*
X175394498Y-90265080D01*
X175394511Y-90265087D01*
X175531082Y-90321656D01*
X175531087Y-90321658D01*
X175531091Y-90321658D01*
X175531092Y-90321659D01*
X175676079Y-90350500D01*
X175676082Y-90350500D01*
X175823920Y-90350500D01*
X175921462Y-90331096D01*
X175968913Y-90321658D01*
X175991305Y-90312382D01*
X176014038Y-90302967D01*
X176105488Y-90265087D01*
X176105488Y-90265086D01*
X176105495Y-90265084D01*
X176228416Y-90182951D01*
X176332951Y-90078416D01*
X176415084Y-89955495D01*
X176471658Y-89818913D01*
X176484511Y-89754300D01*
X176500500Y-89673920D01*
X176500500Y-89526079D01*
X176471659Y-89381092D01*
X176471658Y-89381091D01*
X176471658Y-89381087D01*
X176446109Y-89319405D01*
X176415087Y-89244511D01*
X176415080Y-89244498D01*
X176332951Y-89121584D01*
X176332948Y-89121580D01*
X176228419Y-89017051D01*
X176228415Y-89017048D01*
X176105501Y-88934919D01*
X176105488Y-88934912D01*
X175968917Y-88878343D01*
X175968907Y-88878340D01*
X175823920Y-88849500D01*
X175823918Y-88849500D01*
X175676082Y-88849500D01*
X175676080Y-88849500D01*
X175531092Y-88878340D01*
X175531086Y-88878342D01*
X175394508Y-88934914D01*
X175394492Y-88934923D01*
X175364303Y-88955094D01*
X175297625Y-88975970D01*
X175230246Y-88957483D01*
X175226525Y-88955092D01*
X175104014Y-88873232D01*
X175104001Y-88873225D01*
X174967430Y-88816656D01*
X174967420Y-88816653D01*
X174822433Y-88787813D01*
X174822431Y-88787813D01*
X174674595Y-88787813D01*
X174674593Y-88787813D01*
X174529605Y-88816653D01*
X174529595Y-88816656D01*
X174393024Y-88873225D01*
X174393011Y-88873232D01*
X174270097Y-88955361D01*
X174270093Y-88955364D01*
X174165564Y-89059893D01*
X174165561Y-89059897D01*
X174083432Y-89182811D01*
X174083425Y-89182824D01*
X174026856Y-89319395D01*
X174026853Y-89319405D01*
X173998013Y-89464392D01*
X173998013Y-89464395D01*
X173998013Y-89612231D01*
X173998013Y-89612233D01*
X173998012Y-89612233D01*
X145200500Y-89612233D01*
X145200500Y-87423920D01*
X169299499Y-87423920D01*
X169328340Y-87568907D01*
X169328343Y-87568917D01*
X169384912Y-87705488D01*
X169384919Y-87705501D01*
X169467048Y-87828415D01*
X169467051Y-87828419D01*
X169571580Y-87932948D01*
X169571584Y-87932951D01*
X169694498Y-88015080D01*
X169694511Y-88015087D01*
X169831082Y-88071656D01*
X169831087Y-88071658D01*
X169831091Y-88071658D01*
X169831092Y-88071659D01*
X169976079Y-88100500D01*
X169976082Y-88100500D01*
X170123920Y-88100500D01*
X170221462Y-88081096D01*
X170268913Y-88071658D01*
X170405495Y-88015084D01*
X170528416Y-87932951D01*
X170632951Y-87828416D01*
X170715084Y-87705495D01*
X170771658Y-87568913D01*
X170800500Y-87423918D01*
X170800500Y-87276082D01*
X170800500Y-87276079D01*
X170798760Y-87267333D01*
X173192912Y-87267333D01*
X173221753Y-87412320D01*
X173221756Y-87412330D01*
X173278325Y-87548901D01*
X173278332Y-87548914D01*
X173360461Y-87671828D01*
X173360464Y-87671832D01*
X173464993Y-87776361D01*
X173464997Y-87776364D01*
X173587911Y-87858493D01*
X173587924Y-87858500D01*
X173724495Y-87915069D01*
X173724500Y-87915071D01*
X173724504Y-87915071D01*
X173724505Y-87915072D01*
X173869492Y-87943913D01*
X173869495Y-87943913D01*
X174017333Y-87943913D01*
X174114875Y-87924509D01*
X174162326Y-87915071D01*
X174298908Y-87858497D01*
X174421829Y-87776364D01*
X174526364Y-87671829D01*
X174608497Y-87548908D01*
X174665071Y-87412326D01*
X174674509Y-87364875D01*
X174693913Y-87267333D01*
X174693913Y-87119492D01*
X174665072Y-86974505D01*
X174665071Y-86974504D01*
X174665071Y-86974500D01*
X174622442Y-86871584D01*
X174608500Y-86837924D01*
X174608493Y-86837911D01*
X174526364Y-86714997D01*
X174526361Y-86714993D01*
X174421832Y-86610464D01*
X174421828Y-86610461D01*
X174298914Y-86528332D01*
X174298901Y-86528325D01*
X174162330Y-86471756D01*
X174162320Y-86471753D01*
X174017333Y-86442913D01*
X174017331Y-86442913D01*
X173869495Y-86442913D01*
X173869493Y-86442913D01*
X173724505Y-86471753D01*
X173724495Y-86471756D01*
X173587924Y-86528325D01*
X173587911Y-86528332D01*
X173464997Y-86610461D01*
X173464993Y-86610464D01*
X173360464Y-86714993D01*
X173360461Y-86714997D01*
X173278332Y-86837911D01*
X173278325Y-86837924D01*
X173221756Y-86974495D01*
X173221753Y-86974505D01*
X173192913Y-87119492D01*
X173192913Y-87119495D01*
X173192913Y-87267331D01*
X173192913Y-87267333D01*
X173192912Y-87267333D01*
X170798760Y-87267333D01*
X170772953Y-87137595D01*
X170771659Y-87131091D01*
X170771656Y-87131082D01*
X170715087Y-86994511D01*
X170715080Y-86994498D01*
X170632951Y-86871584D01*
X170632948Y-86871580D01*
X170528419Y-86767051D01*
X170528415Y-86767048D01*
X170405501Y-86684919D01*
X170405488Y-86684912D01*
X170268917Y-86628343D01*
X170268907Y-86628340D01*
X170123920Y-86599500D01*
X170123918Y-86599500D01*
X169976082Y-86599500D01*
X169976080Y-86599500D01*
X169831092Y-86628340D01*
X169831082Y-86628343D01*
X169694511Y-86684912D01*
X169694498Y-86684919D01*
X169571584Y-86767048D01*
X169571580Y-86767051D01*
X169467051Y-86871580D01*
X169467048Y-86871584D01*
X169384919Y-86994498D01*
X169384912Y-86994511D01*
X169328343Y-87131082D01*
X169328340Y-87131092D01*
X169299500Y-87276079D01*
X169299500Y-87276082D01*
X169299500Y-87423918D01*
X169299500Y-87423920D01*
X169299499Y-87423920D01*
X145200500Y-87423920D01*
X145200500Y-85223920D01*
X178299499Y-85223920D01*
X178328340Y-85368907D01*
X178328343Y-85368917D01*
X178384912Y-85505488D01*
X178384919Y-85505501D01*
X178467048Y-85628415D01*
X178467051Y-85628419D01*
X178571580Y-85732948D01*
X178571584Y-85732951D01*
X178694498Y-85815080D01*
X178694511Y-85815087D01*
X178831082Y-85871656D01*
X178831087Y-85871658D01*
X178831091Y-85871658D01*
X178831092Y-85871659D01*
X178976079Y-85900500D01*
X178976082Y-85900500D01*
X179123920Y-85900500D01*
X179221462Y-85881096D01*
X179268913Y-85871658D01*
X179405495Y-85815084D01*
X179528416Y-85732951D01*
X179632951Y-85628416D01*
X179715084Y-85505495D01*
X179771658Y-85368913D01*
X179800500Y-85223918D01*
X179800500Y-85076082D01*
X179800500Y-85076079D01*
X179771659Y-84931092D01*
X179771658Y-84931091D01*
X179771658Y-84931087D01*
X179771656Y-84931082D01*
X179715087Y-84794511D01*
X179715080Y-84794498D01*
X179632951Y-84671584D01*
X179632948Y-84671580D01*
X179528419Y-84567051D01*
X179528415Y-84567048D01*
X179405501Y-84484919D01*
X179405488Y-84484912D01*
X179268917Y-84428343D01*
X179268907Y-84428340D01*
X179123920Y-84399500D01*
X179123918Y-84399500D01*
X178976082Y-84399500D01*
X178976080Y-84399500D01*
X178831092Y-84428340D01*
X178831082Y-84428343D01*
X178694511Y-84484912D01*
X178694498Y-84484919D01*
X178571584Y-84567048D01*
X178571580Y-84567051D01*
X178467051Y-84671580D01*
X178467048Y-84671584D01*
X178384919Y-84794498D01*
X178384912Y-84794511D01*
X178328343Y-84931082D01*
X178328340Y-84931092D01*
X178299500Y-85076079D01*
X178299500Y-85076082D01*
X178299500Y-85223918D01*
X178299500Y-85223920D01*
X178299499Y-85223920D01*
X145200500Y-85223920D01*
X145200500Y-83973920D01*
X228549499Y-83973920D01*
X228578340Y-84118907D01*
X228578343Y-84118917D01*
X228634912Y-84255488D01*
X228634919Y-84255501D01*
X228717048Y-84378415D01*
X228717051Y-84378419D01*
X228821580Y-84482948D01*
X228821584Y-84482951D01*
X228944498Y-84565080D01*
X228944511Y-84565087D01*
X229081082Y-84621656D01*
X229081087Y-84621658D01*
X229081091Y-84621658D01*
X229081092Y-84621659D01*
X229226079Y-84650500D01*
X229226082Y-84650500D01*
X229373920Y-84650500D01*
X229471462Y-84631096D01*
X229518913Y-84621658D01*
X229650751Y-84567049D01*
X229655488Y-84565087D01*
X229655488Y-84565086D01*
X229655495Y-84565084D01*
X229778416Y-84482951D01*
X229882951Y-84378416D01*
X229965084Y-84255495D01*
X230021658Y-84118913D01*
X230050500Y-83973918D01*
X230050500Y-83826082D01*
X230050500Y-83826079D01*
X230021659Y-83681092D01*
X230021658Y-83681091D01*
X230021658Y-83681087D01*
X230021656Y-83681082D01*
X229965087Y-83544511D01*
X229965080Y-83544498D01*
X229882951Y-83421584D01*
X229882948Y-83421580D01*
X229778419Y-83317051D01*
X229778415Y-83317048D01*
X229655501Y-83234919D01*
X229655488Y-83234912D01*
X229518917Y-83178343D01*
X229518907Y-83178340D01*
X229373920Y-83149500D01*
X229373918Y-83149500D01*
X229226082Y-83149500D01*
X229226080Y-83149500D01*
X229081092Y-83178340D01*
X229081082Y-83178343D01*
X228944511Y-83234912D01*
X228944498Y-83234919D01*
X228821584Y-83317048D01*
X228821580Y-83317051D01*
X228717051Y-83421580D01*
X228717048Y-83421584D01*
X228634919Y-83544498D01*
X228634912Y-83544511D01*
X228578343Y-83681082D01*
X228578340Y-83681092D01*
X228549500Y-83826079D01*
X228549500Y-83826082D01*
X228549500Y-83973918D01*
X228549500Y-83973920D01*
X228549499Y-83973920D01*
X145200500Y-83973920D01*
X145200500Y-81973920D01*
X219849499Y-81973920D01*
X219878340Y-82118907D01*
X219878343Y-82118917D01*
X219934912Y-82255488D01*
X219934919Y-82255501D01*
X220017048Y-82378415D01*
X220017051Y-82378419D01*
X220121580Y-82482948D01*
X220121584Y-82482951D01*
X220244498Y-82565080D01*
X220244511Y-82565087D01*
X220381082Y-82621656D01*
X220381087Y-82621658D01*
X220381091Y-82621658D01*
X220381092Y-82621659D01*
X220526079Y-82650500D01*
X220526082Y-82650500D01*
X220673920Y-82650500D01*
X220771462Y-82631096D01*
X220818913Y-82621658D01*
X220955495Y-82565084D01*
X221078416Y-82482951D01*
X221182951Y-82378416D01*
X221265084Y-82255495D01*
X221321658Y-82118913D01*
X221350500Y-81973918D01*
X221350500Y-81826082D01*
X221350500Y-81826079D01*
X221321659Y-81681092D01*
X221321658Y-81681091D01*
X221321658Y-81681087D01*
X221321656Y-81681082D01*
X221265087Y-81544511D01*
X221265080Y-81544498D01*
X221182951Y-81421584D01*
X221182948Y-81421580D01*
X221078419Y-81317051D01*
X221078415Y-81317048D01*
X220955501Y-81234919D01*
X220955488Y-81234912D01*
X220818917Y-81178343D01*
X220818907Y-81178340D01*
X220673920Y-81149500D01*
X220673918Y-81149500D01*
X220526082Y-81149500D01*
X220526080Y-81149500D01*
X220381092Y-81178340D01*
X220381082Y-81178343D01*
X220244511Y-81234912D01*
X220244498Y-81234919D01*
X220121584Y-81317048D01*
X220121580Y-81317051D01*
X220017051Y-81421580D01*
X220017048Y-81421584D01*
X219934919Y-81544498D01*
X219934912Y-81544511D01*
X219878343Y-81681082D01*
X219878340Y-81681092D01*
X219849500Y-81826079D01*
X219849500Y-81826082D01*
X219849500Y-81973918D01*
X219849500Y-81973920D01*
X219849499Y-81973920D01*
X145200500Y-81973920D01*
X145200500Y-79973920D01*
X146249499Y-79973920D01*
X146278340Y-80118907D01*
X146278343Y-80118917D01*
X146334914Y-80255493D01*
X146334915Y-80255495D01*
X146352031Y-80281111D01*
X146372908Y-80347789D01*
X146354422Y-80415169D01*
X146352031Y-80418889D01*
X146334915Y-80444504D01*
X146334914Y-80444506D01*
X146278343Y-80581082D01*
X146278340Y-80581092D01*
X146249500Y-80726079D01*
X146249500Y-80726082D01*
X146249500Y-80873918D01*
X146249500Y-80873920D01*
X146249499Y-80873920D01*
X146278340Y-81018907D01*
X146278343Y-81018917D01*
X146334912Y-81155488D01*
X146334919Y-81155501D01*
X146417048Y-81278415D01*
X146417051Y-81278419D01*
X146521580Y-81382948D01*
X146521584Y-81382951D01*
X146644498Y-81465080D01*
X146644511Y-81465087D01*
X146781082Y-81521656D01*
X146781087Y-81521658D01*
X146781091Y-81521658D01*
X146781092Y-81521659D01*
X146926079Y-81550500D01*
X146926082Y-81550500D01*
X147073920Y-81550500D01*
X147171462Y-81531096D01*
X147218913Y-81521658D01*
X147355495Y-81465084D01*
X147478416Y-81382951D01*
X147582951Y-81278416D01*
X147665084Y-81155495D01*
X147721658Y-81018913D01*
X147750500Y-80873918D01*
X147750500Y-80726082D01*
X147750500Y-80726079D01*
X147721659Y-80581092D01*
X147721658Y-80581091D01*
X147721658Y-80581087D01*
X147708988Y-80550500D01*
X147665086Y-80444510D01*
X147665084Y-80444505D01*
X147647967Y-80418889D01*
X147627090Y-80352216D01*
X147645573Y-80284835D01*
X147647933Y-80281161D01*
X147665084Y-80255495D01*
X147698873Y-80173920D01*
X187949499Y-80173920D01*
X187978340Y-80318907D01*
X187978343Y-80318917D01*
X188034912Y-80455488D01*
X188034919Y-80455501D01*
X188117048Y-80578415D01*
X188117051Y-80578419D01*
X188221580Y-80682948D01*
X188221584Y-80682951D01*
X188344498Y-80765080D01*
X188344511Y-80765087D01*
X188481082Y-80821656D01*
X188481087Y-80821658D01*
X188481091Y-80821658D01*
X188481092Y-80821659D01*
X188626079Y-80850500D01*
X188626082Y-80850500D01*
X188773920Y-80850500D01*
X188871462Y-80831096D01*
X188918913Y-80821658D01*
X189055495Y-80765084D01*
X189178416Y-80682951D01*
X189282951Y-80578416D01*
X189365084Y-80455495D01*
X189421658Y-80318913D01*
X189450500Y-80173918D01*
X189450500Y-80026082D01*
X189450500Y-80026079D01*
X189421659Y-79881092D01*
X189421658Y-79881091D01*
X189421658Y-79881087D01*
X189418689Y-79873920D01*
X200449499Y-79873920D01*
X200478340Y-80018907D01*
X200478343Y-80018917D01*
X200534912Y-80155488D01*
X200534919Y-80155501D01*
X200617048Y-80278415D01*
X200617051Y-80278419D01*
X200721580Y-80382948D01*
X200721584Y-80382951D01*
X200844498Y-80465080D01*
X200844511Y-80465087D01*
X200981082Y-80521656D01*
X200981087Y-80521658D01*
X200981091Y-80521658D01*
X200981092Y-80521659D01*
X201126079Y-80550500D01*
X201126082Y-80550500D01*
X201273920Y-80550500D01*
X201371462Y-80531096D01*
X201418913Y-80521658D01*
X201555495Y-80465084D01*
X201678416Y-80382951D01*
X201782951Y-80278416D01*
X201865084Y-80155495D01*
X201921658Y-80018913D01*
X201949074Y-79881087D01*
X201950500Y-79873920D01*
X201950500Y-79726079D01*
X201921659Y-79581092D01*
X201921658Y-79581091D01*
X201921658Y-79581087D01*
X201906505Y-79544505D01*
X201865087Y-79444511D01*
X201865080Y-79444498D01*
X201782951Y-79321584D01*
X201782948Y-79321580D01*
X201678419Y-79217051D01*
X201678415Y-79217048D01*
X201555501Y-79134919D01*
X201555488Y-79134912D01*
X201418917Y-79078343D01*
X201418907Y-79078340D01*
X201396686Y-79073920D01*
X214649499Y-79073920D01*
X214678340Y-79218907D01*
X214678343Y-79218917D01*
X214734912Y-79355488D01*
X214734919Y-79355501D01*
X214817048Y-79478415D01*
X214817051Y-79478419D01*
X214921580Y-79582948D01*
X214921584Y-79582951D01*
X215044498Y-79665080D01*
X215044511Y-79665087D01*
X215181082Y-79721656D01*
X215181087Y-79721658D01*
X215181091Y-79721658D01*
X215181092Y-79721659D01*
X215326079Y-79750500D01*
X215326082Y-79750500D01*
X215473920Y-79750500D01*
X215571462Y-79731096D01*
X215618913Y-79721658D01*
X215755495Y-79665084D01*
X215878416Y-79582951D01*
X215982951Y-79478416D01*
X216065084Y-79355495D01*
X216121658Y-79218913D01*
X216131096Y-79171462D01*
X216150500Y-79073920D01*
X216150500Y-78926079D01*
X216121659Y-78781092D01*
X216121658Y-78781091D01*
X216121658Y-78781087D01*
X216121656Y-78781082D01*
X216065087Y-78644511D01*
X216065080Y-78644498D01*
X215982951Y-78521584D01*
X215982948Y-78521580D01*
X215878419Y-78417051D01*
X215878415Y-78417048D01*
X215755501Y-78334919D01*
X215755488Y-78334912D01*
X215618917Y-78278343D01*
X215618907Y-78278340D01*
X215473920Y-78249500D01*
X215473918Y-78249500D01*
X215326082Y-78249500D01*
X215326080Y-78249500D01*
X215181092Y-78278340D01*
X215181082Y-78278343D01*
X215044511Y-78334912D01*
X215044498Y-78334919D01*
X214921584Y-78417048D01*
X214921580Y-78417051D01*
X214817051Y-78521580D01*
X214817048Y-78521584D01*
X214734919Y-78644498D01*
X214734912Y-78644511D01*
X214678343Y-78781082D01*
X214678340Y-78781092D01*
X214649500Y-78926079D01*
X214649500Y-78926082D01*
X214649500Y-79073918D01*
X214649500Y-79073920D01*
X214649499Y-79073920D01*
X201396686Y-79073920D01*
X201273920Y-79049500D01*
X201273918Y-79049500D01*
X201126082Y-79049500D01*
X201126080Y-79049500D01*
X200981092Y-79078340D01*
X200981082Y-79078343D01*
X200844511Y-79134912D01*
X200844498Y-79134919D01*
X200721584Y-79217048D01*
X200721580Y-79217051D01*
X200617051Y-79321580D01*
X200617048Y-79321584D01*
X200534919Y-79444498D01*
X200534912Y-79444511D01*
X200478343Y-79581082D01*
X200478340Y-79581092D01*
X200449500Y-79726079D01*
X200449500Y-79726082D01*
X200449500Y-79873918D01*
X200449500Y-79873920D01*
X200449499Y-79873920D01*
X189418689Y-79873920D01*
X189365084Y-79744505D01*
X189365080Y-79744498D01*
X189282951Y-79621584D01*
X189282948Y-79621580D01*
X189178419Y-79517051D01*
X189178415Y-79517048D01*
X189055501Y-79434919D01*
X189055488Y-79434912D01*
X188918917Y-79378343D01*
X188918907Y-79378340D01*
X188773920Y-79349500D01*
X188773918Y-79349500D01*
X188626082Y-79349500D01*
X188626080Y-79349500D01*
X188481092Y-79378340D01*
X188481082Y-79378343D01*
X188344511Y-79434912D01*
X188344498Y-79434919D01*
X188221584Y-79517048D01*
X188221580Y-79517051D01*
X188117051Y-79621580D01*
X188117048Y-79621584D01*
X188034919Y-79744498D01*
X188034912Y-79744511D01*
X187978343Y-79881082D01*
X187978340Y-79881092D01*
X187949500Y-80026079D01*
X187949500Y-80026082D01*
X187949500Y-80173918D01*
X187949500Y-80173920D01*
X187949499Y-80173920D01*
X147698873Y-80173920D01*
X147721658Y-80118913D01*
X147750500Y-79973918D01*
X147750500Y-79826082D01*
X147750500Y-79826079D01*
X147721659Y-79681092D01*
X147721658Y-79681091D01*
X147721658Y-79681087D01*
X147697011Y-79621584D01*
X147665087Y-79544511D01*
X147665080Y-79544498D01*
X147582951Y-79421584D01*
X147582948Y-79421580D01*
X147478419Y-79317051D01*
X147478415Y-79317048D01*
X147355501Y-79234919D01*
X147355488Y-79234912D01*
X147218917Y-79178343D01*
X147218907Y-79178340D01*
X147073920Y-79149500D01*
X147073918Y-79149500D01*
X146926082Y-79149500D01*
X146926080Y-79149500D01*
X146781092Y-79178340D01*
X146781082Y-79178343D01*
X146644511Y-79234912D01*
X146644498Y-79234919D01*
X146521584Y-79317048D01*
X146521580Y-79317051D01*
X146417051Y-79421580D01*
X146417048Y-79421584D01*
X146334919Y-79544498D01*
X146334912Y-79544511D01*
X146278343Y-79681082D01*
X146278340Y-79681092D01*
X146249500Y-79826079D01*
X146249500Y-79826082D01*
X146249500Y-79973918D01*
X146249500Y-79973920D01*
X146249499Y-79973920D01*
X145200500Y-79973920D01*
X145200500Y-77073920D01*
X156282832Y-77073920D01*
X156311673Y-77218907D01*
X156311676Y-77218917D01*
X156368245Y-77355488D01*
X156368252Y-77355501D01*
X156450381Y-77478415D01*
X156450384Y-77478419D01*
X156554913Y-77582948D01*
X156554917Y-77582951D01*
X156677831Y-77665080D01*
X156677844Y-77665087D01*
X156814415Y-77721656D01*
X156814420Y-77721658D01*
X156814424Y-77721658D01*
X156814425Y-77721659D01*
X156959412Y-77750500D01*
X156959415Y-77750500D01*
X157107253Y-77750500D01*
X157204795Y-77731096D01*
X157252246Y-77721658D01*
X157388828Y-77665084D01*
X157388838Y-77665076D01*
X157391531Y-77663638D01*
X157393119Y-77663307D01*
X157394457Y-77662753D01*
X157394562Y-77663006D01*
X157459932Y-77649388D01*
X157505533Y-77662773D01*
X157505542Y-77662753D01*
X157505732Y-77662831D01*
X157508448Y-77663629D01*
X157511172Y-77665085D01*
X157647748Y-77721656D01*
X157647753Y-77721658D01*
X157647757Y-77721658D01*
X157647758Y-77721659D01*
X157792745Y-77750500D01*
X157792748Y-77750500D01*
X157940586Y-77750500D01*
X158038128Y-77731096D01*
X158085579Y-77721658D01*
X158222161Y-77665084D01*
X158222166Y-77665080D01*
X158224877Y-77663632D01*
X158226467Y-77663300D01*
X158227790Y-77662753D01*
X158227893Y-77663003D01*
X158293279Y-77649389D01*
X158338867Y-77662774D01*
X158338876Y-77662753D01*
X158339072Y-77662834D01*
X158341789Y-77663632D01*
X158344511Y-77665087D01*
X158481082Y-77721656D01*
X158481087Y-77721658D01*
X158481091Y-77721658D01*
X158481092Y-77721659D01*
X158626079Y-77750500D01*
X158626082Y-77750500D01*
X158773920Y-77750500D01*
X158871462Y-77731096D01*
X158918913Y-77721658D01*
X159055495Y-77665084D01*
X159055505Y-77665076D01*
X159058198Y-77663638D01*
X159059786Y-77663307D01*
X159061124Y-77662753D01*
X159061229Y-77663006D01*
X159126599Y-77649388D01*
X159172200Y-77662773D01*
X159172209Y-77662753D01*
X159172399Y-77662831D01*
X159175115Y-77663629D01*
X159177839Y-77665085D01*
X159314415Y-77721656D01*
X159314420Y-77721658D01*
X159314424Y-77721658D01*
X159314425Y-77721659D01*
X159459412Y-77750500D01*
X159459415Y-77750500D01*
X159607253Y-77750500D01*
X159704795Y-77731096D01*
X159752246Y-77721658D01*
X159888828Y-77665084D01*
X159888838Y-77665076D01*
X159891531Y-77663638D01*
X159893119Y-77663307D01*
X159894457Y-77662753D01*
X159894562Y-77663006D01*
X159959932Y-77649388D01*
X160005533Y-77662773D01*
X160005542Y-77662753D01*
X160005732Y-77662831D01*
X160008448Y-77663629D01*
X160011172Y-77665085D01*
X160147748Y-77721656D01*
X160147753Y-77721658D01*
X160147757Y-77721658D01*
X160147758Y-77721659D01*
X160292745Y-77750500D01*
X160292748Y-77750500D01*
X160440586Y-77750500D01*
X160538128Y-77731096D01*
X160585579Y-77721658D01*
X160722161Y-77665084D01*
X160722166Y-77665080D01*
X160724877Y-77663632D01*
X160726467Y-77663300D01*
X160727790Y-77662753D01*
X160727893Y-77663003D01*
X160793279Y-77649389D01*
X160838867Y-77662774D01*
X160838876Y-77662753D01*
X160839072Y-77662834D01*
X160841789Y-77663632D01*
X160844511Y-77665087D01*
X160981082Y-77721656D01*
X160981087Y-77721658D01*
X160981091Y-77721658D01*
X160981092Y-77721659D01*
X161126079Y-77750500D01*
X161126082Y-77750500D01*
X161273920Y-77750500D01*
X161371462Y-77731096D01*
X161418913Y-77721658D01*
X161555495Y-77665084D01*
X161555505Y-77665076D01*
X161558198Y-77663638D01*
X161559786Y-77663307D01*
X161561124Y-77662753D01*
X161561229Y-77663006D01*
X161626599Y-77649388D01*
X161672200Y-77662773D01*
X161672209Y-77662753D01*
X161672399Y-77662831D01*
X161675115Y-77663629D01*
X161677839Y-77665085D01*
X161814415Y-77721656D01*
X161814420Y-77721658D01*
X161814424Y-77721658D01*
X161814425Y-77721659D01*
X161959412Y-77750500D01*
X161959415Y-77750500D01*
X162107253Y-77750500D01*
X162204795Y-77731096D01*
X162252246Y-77721658D01*
X162367496Y-77673920D01*
X172149499Y-77673920D01*
X172178340Y-77818907D01*
X172178343Y-77818917D01*
X172234912Y-77955488D01*
X172234919Y-77955501D01*
X172317048Y-78078415D01*
X172317051Y-78078419D01*
X172421580Y-78182948D01*
X172421584Y-78182951D01*
X172544498Y-78265080D01*
X172544511Y-78265087D01*
X172681082Y-78321656D01*
X172681087Y-78321658D01*
X172681091Y-78321658D01*
X172681092Y-78321659D01*
X172826079Y-78350500D01*
X172826082Y-78350500D01*
X172973920Y-78350500D01*
X173071462Y-78331096D01*
X173118913Y-78321658D01*
X173255495Y-78265084D01*
X173378416Y-78182951D01*
X173482951Y-78078416D01*
X173515468Y-78029749D01*
X173569079Y-77984946D01*
X173638404Y-77976237D01*
X173701431Y-78006391D01*
X173733128Y-78051180D01*
X173734913Y-78055490D01*
X173734919Y-78055501D01*
X173817048Y-78178415D01*
X173817051Y-78178419D01*
X173921580Y-78282948D01*
X173921584Y-78282951D01*
X174044498Y-78365080D01*
X174044511Y-78365087D01*
X174181082Y-78421656D01*
X174181087Y-78421658D01*
X174181091Y-78421658D01*
X174181092Y-78421659D01*
X174326079Y-78450500D01*
X174326082Y-78450500D01*
X174473920Y-78450500D01*
X174571462Y-78431096D01*
X174618913Y-78421658D01*
X174755495Y-78365084D01*
X174878416Y-78282951D01*
X174982951Y-78178416D01*
X175065084Y-78055495D01*
X175075748Y-78029751D01*
X175077902Y-78024547D01*
X175121658Y-77918913D01*
X175150500Y-77773920D01*
X184909499Y-77773920D01*
X184938340Y-77918907D01*
X184938343Y-77918917D01*
X184994912Y-78055488D01*
X184994919Y-78055501D01*
X185077048Y-78178415D01*
X185077051Y-78178419D01*
X185181580Y-78282948D01*
X185181584Y-78282951D01*
X185304498Y-78365080D01*
X185304511Y-78365087D01*
X185441082Y-78421656D01*
X185441087Y-78421658D01*
X185441091Y-78421658D01*
X185441092Y-78421659D01*
X185586079Y-78450500D01*
X185586082Y-78450500D01*
X185733920Y-78450500D01*
X185831462Y-78431096D01*
X185878913Y-78421658D01*
X186015495Y-78365084D01*
X186138416Y-78282951D01*
X186242951Y-78178416D01*
X186325084Y-78055495D01*
X186335748Y-78029751D01*
X186337902Y-78024547D01*
X186358873Y-77973920D01*
X216649499Y-77973920D01*
X216678340Y-78118907D01*
X216678343Y-78118917D01*
X216734912Y-78255488D01*
X216734919Y-78255501D01*
X216817048Y-78378415D01*
X216817051Y-78378419D01*
X216921580Y-78482948D01*
X216921584Y-78482951D01*
X217044498Y-78565080D01*
X217044511Y-78565087D01*
X217181082Y-78621656D01*
X217181087Y-78621658D01*
X217181091Y-78621658D01*
X217181092Y-78621659D01*
X217326079Y-78650500D01*
X217326082Y-78650500D01*
X217473920Y-78650500D01*
X217571462Y-78631096D01*
X217618913Y-78621658D01*
X217755495Y-78565084D01*
X217878416Y-78482951D01*
X217982951Y-78378416D01*
X218065084Y-78255495D01*
X218121658Y-78118913D01*
X218144041Y-78006391D01*
X218150500Y-77973920D01*
X218150500Y-77826079D01*
X218121659Y-77681092D01*
X218121658Y-77681091D01*
X218121658Y-77681087D01*
X218118689Y-77673920D01*
X227049499Y-77673920D01*
X227078340Y-77818907D01*
X227078343Y-77818917D01*
X227134912Y-77955488D01*
X227134919Y-77955501D01*
X227217048Y-78078415D01*
X227217051Y-78078419D01*
X227321580Y-78182948D01*
X227321584Y-78182951D01*
X227444498Y-78265080D01*
X227444511Y-78265087D01*
X227581082Y-78321656D01*
X227581087Y-78321658D01*
X227581091Y-78321658D01*
X227581092Y-78321659D01*
X227726079Y-78350500D01*
X227726082Y-78350500D01*
X227873920Y-78350500D01*
X227971462Y-78331096D01*
X228018913Y-78321658D01*
X228155495Y-78265084D01*
X228278416Y-78182951D01*
X228382951Y-78078416D01*
X228465084Y-77955495D01*
X228521658Y-77818913D01*
X228535267Y-77750500D01*
X228550500Y-77673920D01*
X228550500Y-77526079D01*
X228521659Y-77381092D01*
X228521658Y-77381091D01*
X228521658Y-77381087D01*
X228511060Y-77355501D01*
X228465087Y-77244511D01*
X228465080Y-77244498D01*
X228382951Y-77121584D01*
X228382948Y-77121580D01*
X228278419Y-77017051D01*
X228278415Y-77017048D01*
X228229750Y-76984531D01*
X228184945Y-76930919D01*
X228176238Y-76861594D01*
X228206392Y-76798566D01*
X228251190Y-76766867D01*
X228255495Y-76765084D01*
X228378416Y-76682951D01*
X228482951Y-76578416D01*
X228565084Y-76455495D01*
X228621658Y-76318913D01*
X228632366Y-76265080D01*
X228650500Y-76173920D01*
X228650500Y-76026079D01*
X228621659Y-75881092D01*
X228621658Y-75881091D01*
X228621658Y-75881087D01*
X228621656Y-75881082D01*
X228565087Y-75744511D01*
X228565080Y-75744498D01*
X228482951Y-75621584D01*
X228482948Y-75621580D01*
X228378419Y-75517051D01*
X228378415Y-75517048D01*
X228255501Y-75434919D01*
X228255488Y-75434912D01*
X228118917Y-75378343D01*
X228118907Y-75378340D01*
X227973920Y-75349500D01*
X227973918Y-75349500D01*
X227826082Y-75349500D01*
X227826080Y-75349500D01*
X227681092Y-75378340D01*
X227681082Y-75378343D01*
X227544511Y-75434912D01*
X227544498Y-75434919D01*
X227421584Y-75517048D01*
X227421580Y-75517051D01*
X227317051Y-75621580D01*
X227317048Y-75621584D01*
X227234919Y-75744498D01*
X227234912Y-75744511D01*
X227178343Y-75881082D01*
X227178340Y-75881092D01*
X227149500Y-76026079D01*
X227149500Y-76026082D01*
X227149500Y-76173918D01*
X227149500Y-76173920D01*
X227149499Y-76173920D01*
X227178340Y-76318907D01*
X227178343Y-76318917D01*
X227234912Y-76455488D01*
X227234919Y-76455501D01*
X227317048Y-76578415D01*
X227317051Y-76578419D01*
X227421580Y-76682948D01*
X227421588Y-76682954D01*
X227470248Y-76715468D01*
X227515054Y-76769080D01*
X227523761Y-76838405D01*
X227493607Y-76901432D01*
X227448823Y-76933126D01*
X227444513Y-76934911D01*
X227444498Y-76934919D01*
X227321584Y-77017048D01*
X227321580Y-77017051D01*
X227217051Y-77121580D01*
X227217048Y-77121584D01*
X227134919Y-77244498D01*
X227134912Y-77244511D01*
X227078343Y-77381082D01*
X227078340Y-77381092D01*
X227049500Y-77526079D01*
X227049500Y-77526082D01*
X227049500Y-77673918D01*
X227049500Y-77673920D01*
X227049499Y-77673920D01*
X218118689Y-77673920D01*
X218065084Y-77544505D01*
X218065080Y-77544498D01*
X217982951Y-77421584D01*
X217982948Y-77421580D01*
X217878419Y-77317051D01*
X217878415Y-77317048D01*
X217755501Y-77234919D01*
X217755488Y-77234912D01*
X217618917Y-77178343D01*
X217618907Y-77178340D01*
X217473920Y-77149500D01*
X217473918Y-77149500D01*
X217326082Y-77149500D01*
X217326080Y-77149500D01*
X217181092Y-77178340D01*
X217181082Y-77178343D01*
X217044511Y-77234912D01*
X217044498Y-77234919D01*
X216921584Y-77317048D01*
X216921580Y-77317051D01*
X216817051Y-77421580D01*
X216817048Y-77421584D01*
X216734919Y-77544498D01*
X216734912Y-77544511D01*
X216678343Y-77681082D01*
X216678340Y-77681092D01*
X216649500Y-77826079D01*
X216649500Y-77826082D01*
X216649500Y-77973918D01*
X216649500Y-77973920D01*
X216649499Y-77973920D01*
X186358873Y-77973920D01*
X186381658Y-77918913D01*
X186410500Y-77773918D01*
X186410500Y-77626082D01*
X186410500Y-77626079D01*
X186381659Y-77481092D01*
X186381658Y-77481091D01*
X186381658Y-77481087D01*
X186357011Y-77421584D01*
X186325087Y-77344511D01*
X186325080Y-77344498D01*
X186242951Y-77221584D01*
X186242948Y-77221580D01*
X186138419Y-77117051D01*
X186138415Y-77117048D01*
X186015501Y-77034919D01*
X186015488Y-77034912D01*
X185878917Y-76978343D01*
X185878907Y-76978340D01*
X185733920Y-76949500D01*
X185733918Y-76949500D01*
X185586082Y-76949500D01*
X185586080Y-76949500D01*
X185441092Y-76978340D01*
X185441082Y-76978343D01*
X185304511Y-77034912D01*
X185304498Y-77034919D01*
X185181584Y-77117048D01*
X185181580Y-77117051D01*
X185077051Y-77221580D01*
X185077048Y-77221584D01*
X184994919Y-77344498D01*
X184994912Y-77344511D01*
X184938343Y-77481082D01*
X184938340Y-77481092D01*
X184909500Y-77626079D01*
X184909500Y-77626082D01*
X184909500Y-77773918D01*
X184909500Y-77773920D01*
X184909499Y-77773920D01*
X175150500Y-77773920D01*
X175150500Y-77773918D01*
X175150500Y-77626082D01*
X175150500Y-77626079D01*
X175121659Y-77481092D01*
X175121658Y-77481091D01*
X175121658Y-77481087D01*
X175097011Y-77421584D01*
X175065087Y-77344511D01*
X175065080Y-77344498D01*
X174982951Y-77221584D01*
X174982948Y-77221580D01*
X174878419Y-77117051D01*
X174878415Y-77117048D01*
X174755501Y-77034919D01*
X174755488Y-77034912D01*
X174618917Y-76978343D01*
X174618907Y-76978340D01*
X174473920Y-76949500D01*
X174473918Y-76949500D01*
X174326082Y-76949500D01*
X174326080Y-76949500D01*
X174181092Y-76978340D01*
X174181082Y-76978343D01*
X174044511Y-77034912D01*
X174044498Y-77034919D01*
X173921584Y-77117048D01*
X173921580Y-77117051D01*
X173817051Y-77221580D01*
X173784531Y-77270250D01*
X173730918Y-77315054D01*
X173661593Y-77323761D01*
X173598566Y-77293606D01*
X173566869Y-77248813D01*
X173565086Y-77244510D01*
X173565080Y-77244498D01*
X173482951Y-77121584D01*
X173482948Y-77121580D01*
X173378419Y-77017051D01*
X173378415Y-77017048D01*
X173255501Y-76934919D01*
X173255488Y-76934912D01*
X173118917Y-76878343D01*
X173118907Y-76878340D01*
X172973920Y-76849500D01*
X172973918Y-76849500D01*
X172826082Y-76849500D01*
X172826080Y-76849500D01*
X172681092Y-76878340D01*
X172681082Y-76878343D01*
X172544511Y-76934912D01*
X172544498Y-76934919D01*
X172421584Y-77017048D01*
X172421580Y-77017051D01*
X172317051Y-77121580D01*
X172317048Y-77121584D01*
X172234919Y-77244498D01*
X172234912Y-77244511D01*
X172178343Y-77381082D01*
X172178340Y-77381092D01*
X172149500Y-77526079D01*
X172149500Y-77526082D01*
X172149500Y-77673918D01*
X172149500Y-77673920D01*
X172149499Y-77673920D01*
X162367496Y-77673920D01*
X162388828Y-77665084D01*
X162511749Y-77582951D01*
X162616284Y-77478416D01*
X162698417Y-77355495D01*
X162754991Y-77218913D01*
X162764429Y-77171462D01*
X162783833Y-77073920D01*
X162783833Y-76926079D01*
X162754992Y-76781092D01*
X162754991Y-76781091D01*
X162754991Y-76781087D01*
X162714341Y-76682948D01*
X162698420Y-76644511D01*
X162698413Y-76644498D01*
X162616284Y-76521584D01*
X162616281Y-76521580D01*
X162511752Y-76417051D01*
X162511748Y-76417048D01*
X162388834Y-76334919D01*
X162388821Y-76334912D01*
X162252250Y-76278343D01*
X162252240Y-76278340D01*
X162107253Y-76249500D01*
X162107251Y-76249500D01*
X161959415Y-76249500D01*
X161959413Y-76249500D01*
X161814425Y-76278340D01*
X161814419Y-76278342D01*
X161677828Y-76334919D01*
X161675106Y-76336375D01*
X161673518Y-76336705D01*
X161672211Y-76337247D01*
X161672108Y-76336998D01*
X161606701Y-76350609D01*
X161561132Y-76337225D01*
X161561124Y-76337247D01*
X161560927Y-76337165D01*
X161558215Y-76336369D01*
X161555496Y-76334916D01*
X161418917Y-76278343D01*
X161418907Y-76278340D01*
X161273920Y-76249500D01*
X161273918Y-76249500D01*
X161126082Y-76249500D01*
X161126080Y-76249500D01*
X160981092Y-76278340D01*
X160981086Y-76278342D01*
X160844504Y-76334916D01*
X160841783Y-76336371D01*
X160840194Y-76336701D01*
X160838878Y-76337247D01*
X160838774Y-76336997D01*
X160773380Y-76350611D01*
X160727796Y-76337226D01*
X160727788Y-76337247D01*
X160727597Y-76337167D01*
X160724883Y-76336371D01*
X160722161Y-76334916D01*
X160585579Y-76278342D01*
X160585573Y-76278340D01*
X160440586Y-76249500D01*
X160440584Y-76249500D01*
X160292748Y-76249500D01*
X160292746Y-76249500D01*
X160147758Y-76278340D01*
X160147752Y-76278342D01*
X160011161Y-76334919D01*
X160008439Y-76336375D01*
X160006851Y-76336705D01*
X160005544Y-76337247D01*
X160005441Y-76336998D01*
X159940034Y-76350609D01*
X159894465Y-76337225D01*
X159894457Y-76337247D01*
X159894260Y-76337165D01*
X159891548Y-76336369D01*
X159888829Y-76334916D01*
X159752250Y-76278343D01*
X159752240Y-76278340D01*
X159607253Y-76249500D01*
X159607251Y-76249500D01*
X159459415Y-76249500D01*
X159459413Y-76249500D01*
X159314425Y-76278340D01*
X159314419Y-76278342D01*
X159177828Y-76334919D01*
X159175106Y-76336375D01*
X159173518Y-76336705D01*
X159172211Y-76337247D01*
X159172108Y-76336998D01*
X159106701Y-76350609D01*
X159061132Y-76337225D01*
X159061124Y-76337247D01*
X159060927Y-76337165D01*
X159058215Y-76336369D01*
X159055496Y-76334916D01*
X158918917Y-76278343D01*
X158918907Y-76278340D01*
X158773920Y-76249500D01*
X158773918Y-76249500D01*
X158626082Y-76249500D01*
X158626080Y-76249500D01*
X158481092Y-76278340D01*
X158481086Y-76278342D01*
X158344504Y-76334916D01*
X158341783Y-76336371D01*
X158340194Y-76336701D01*
X158338878Y-76337247D01*
X158338774Y-76336997D01*
X158273380Y-76350611D01*
X158227796Y-76337226D01*
X158227788Y-76337247D01*
X158227597Y-76337167D01*
X158224883Y-76336371D01*
X158222161Y-76334916D01*
X158085579Y-76278342D01*
X158085573Y-76278340D01*
X157940586Y-76249500D01*
X157940584Y-76249500D01*
X157792748Y-76249500D01*
X157792746Y-76249500D01*
X157647758Y-76278340D01*
X157647752Y-76278342D01*
X157511161Y-76334919D01*
X157508439Y-76336375D01*
X157506851Y-76336705D01*
X157505544Y-76337247D01*
X157505441Y-76336998D01*
X157440034Y-76350609D01*
X157394465Y-76337225D01*
X157394457Y-76337247D01*
X157394260Y-76337165D01*
X157391548Y-76336369D01*
X157388829Y-76334916D01*
X157252250Y-76278343D01*
X157252240Y-76278340D01*
X157107253Y-76249500D01*
X157107251Y-76249500D01*
X156959415Y-76249500D01*
X156959413Y-76249500D01*
X156814425Y-76278340D01*
X156814415Y-76278343D01*
X156677844Y-76334912D01*
X156677831Y-76334919D01*
X156554917Y-76417048D01*
X156554913Y-76417051D01*
X156450384Y-76521580D01*
X156450381Y-76521584D01*
X156368252Y-76644498D01*
X156368245Y-76644511D01*
X156311676Y-76781082D01*
X156311673Y-76781092D01*
X156282833Y-76926079D01*
X156282833Y-76926082D01*
X156282833Y-77073918D01*
X156282833Y-77073920D01*
X156282832Y-77073920D01*
X145200500Y-77073920D01*
X145200500Y-75673920D01*
X201849499Y-75673920D01*
X201878340Y-75818907D01*
X201878343Y-75818917D01*
X201934912Y-75955488D01*
X201934919Y-75955501D01*
X202017048Y-76078415D01*
X202017051Y-76078419D01*
X202121580Y-76182948D01*
X202121584Y-76182951D01*
X202244498Y-76265080D01*
X202244511Y-76265087D01*
X202381082Y-76321656D01*
X202381087Y-76321658D01*
X202381091Y-76321658D01*
X202381092Y-76321659D01*
X202526079Y-76350500D01*
X202526082Y-76350500D01*
X202673920Y-76350500D01*
X202771462Y-76331096D01*
X202818913Y-76321658D01*
X202955495Y-76265084D01*
X203078416Y-76182951D01*
X203087447Y-76173920D01*
X213549499Y-76173920D01*
X213578340Y-76318907D01*
X213578343Y-76318917D01*
X213634912Y-76455488D01*
X213634919Y-76455501D01*
X213717048Y-76578415D01*
X213717051Y-76578419D01*
X213821580Y-76682948D01*
X213821584Y-76682951D01*
X213944498Y-76765080D01*
X213944511Y-76765087D01*
X214081082Y-76821656D01*
X214081087Y-76821658D01*
X214081091Y-76821658D01*
X214081092Y-76821659D01*
X214226079Y-76850500D01*
X214226082Y-76850500D01*
X214373920Y-76850500D01*
X214471462Y-76831096D01*
X214518913Y-76821658D01*
X214645848Y-76769080D01*
X214655488Y-76765087D01*
X214655488Y-76765086D01*
X214655495Y-76765084D01*
X214778416Y-76682951D01*
X214882951Y-76578416D01*
X214965084Y-76455495D01*
X215021658Y-76318913D01*
X215032366Y-76265080D01*
X215050500Y-76173920D01*
X215050500Y-76026079D01*
X215021659Y-75881092D01*
X215021658Y-75881091D01*
X215021658Y-75881087D01*
X215021656Y-75881082D01*
X214965087Y-75744511D01*
X214965081Y-75744500D01*
X214954800Y-75729113D01*
X214933923Y-75662435D01*
X214952408Y-75595055D01*
X215004387Y-75548366D01*
X215033712Y-75538606D01*
X215040997Y-75537156D01*
X215118913Y-75521658D01*
X215255495Y-75465084D01*
X215378416Y-75382951D01*
X215482951Y-75278416D01*
X215565084Y-75155495D01*
X215621658Y-75018913D01*
X215638366Y-74934919D01*
X215641739Y-74917961D01*
X221324880Y-74917961D01*
X221324880Y-74917962D01*
X221328429Y-74920334D01*
X221455813Y-74973097D01*
X221455823Y-74973100D01*
X221591053Y-75000000D01*
X221728946Y-75000000D01*
X221864176Y-74973100D01*
X221864186Y-74973097D01*
X221991570Y-74920334D01*
X221991572Y-74920332D01*
X221995119Y-74917961D01*
X222424880Y-74917961D01*
X222424880Y-74917962D01*
X222428429Y-74920334D01*
X222555813Y-74973097D01*
X222555823Y-74973100D01*
X222691053Y-75000000D01*
X222828946Y-75000000D01*
X222964176Y-74973100D01*
X222964186Y-74973097D01*
X223091570Y-74920334D01*
X223091572Y-74920332D01*
X223095119Y-74917961D01*
X222760001Y-74582842D01*
X222760000Y-74582842D01*
X222424880Y-74917961D01*
X221995119Y-74917961D01*
X221660001Y-74582842D01*
X221660000Y-74582842D01*
X221324880Y-74917961D01*
X215641739Y-74917961D01*
X215650500Y-74873920D01*
X215650500Y-74726079D01*
X215621659Y-74581092D01*
X215621658Y-74581091D01*
X215621658Y-74581087D01*
X215614012Y-74562628D01*
X215610933Y-74533990D01*
X215604927Y-74505826D01*
X215607102Y-74498352D01*
X215606544Y-74493159D01*
X215612570Y-74471369D01*
X215616506Y-74460946D01*
X215618772Y-74457555D01*
X215655883Y-74367961D01*
X220774880Y-74367961D01*
X220774880Y-74367962D01*
X220778425Y-74370331D01*
X220911446Y-74425429D01*
X220910863Y-74426836D01*
X220963032Y-74461015D01*
X220983725Y-74498903D01*
X220984570Y-74498554D01*
X221039668Y-74631573D01*
X221039668Y-74631574D01*
X221042037Y-74635119D01*
X221377157Y-74300000D01*
X221377157Y-74299999D01*
X221347321Y-74270163D01*
X221510000Y-74270163D01*
X221510000Y-74329837D01*
X221532836Y-74384968D01*
X221575032Y-74427164D01*
X221630163Y-74450000D01*
X221689837Y-74450000D01*
X221744968Y-74427164D01*
X221787164Y-74384968D01*
X221810000Y-74329837D01*
X221810000Y-74300000D01*
X221942842Y-74300000D01*
X222210000Y-74567157D01*
X222210001Y-74567157D01*
X222477157Y-74300001D01*
X222477157Y-74299999D01*
X222447321Y-74270163D01*
X222610000Y-74270163D01*
X222610000Y-74329837D01*
X222632836Y-74384968D01*
X222675032Y-74427164D01*
X222730163Y-74450000D01*
X222789837Y-74450000D01*
X222844968Y-74427164D01*
X222887164Y-74384968D01*
X222910000Y-74329837D01*
X222910000Y-74300000D01*
X223042842Y-74300000D01*
X223377961Y-74635119D01*
X223380332Y-74631572D01*
X223380334Y-74631570D01*
X223435430Y-74498554D01*
X223436832Y-74499135D01*
X223471029Y-74446956D01*
X223508903Y-74426274D01*
X223508554Y-74425430D01*
X223641570Y-74370334D01*
X223641572Y-74370332D01*
X223645119Y-74367961D01*
X223310001Y-74032842D01*
X223310000Y-74032842D01*
X223042842Y-74300000D01*
X222910000Y-74300000D01*
X222910000Y-74270163D01*
X222887164Y-74215032D01*
X222844968Y-74172836D01*
X222789837Y-74150000D01*
X222730163Y-74150000D01*
X222675032Y-74172836D01*
X222632836Y-74215032D01*
X222610000Y-74270163D01*
X222447321Y-74270163D01*
X222210000Y-74032842D01*
X221942842Y-74300000D01*
X221810000Y-74300000D01*
X221810000Y-74270163D01*
X221787164Y-74215032D01*
X221744968Y-74172836D01*
X221689837Y-74150000D01*
X221630163Y-74150000D01*
X221575032Y-74172836D01*
X221532836Y-74215032D01*
X221510000Y-74270163D01*
X221347321Y-74270163D01*
X221235737Y-74158579D01*
X221235737Y-74158580D01*
X221109998Y-74032842D01*
X220774880Y-74367961D01*
X215655883Y-74367961D01*
X215675346Y-74320973D01*
X215696627Y-74213986D01*
X215704188Y-74175980D01*
X215704188Y-74028139D01*
X215675346Y-73883147D01*
X215675344Y-73883142D01*
X215648753Y-73818946D01*
X220409999Y-73818946D01*
X220436899Y-73954176D01*
X220436901Y-73954182D01*
X220489668Y-74081573D01*
X220489668Y-74081574D01*
X220492037Y-74085119D01*
X220827157Y-73750000D01*
X220797320Y-73720163D01*
X220960000Y-73720163D01*
X220960000Y-73779837D01*
X220982836Y-73834968D01*
X221025032Y-73877164D01*
X221080163Y-73900000D01*
X221139837Y-73900000D01*
X221194968Y-73877164D01*
X221237164Y-73834968D01*
X221260000Y-73779837D01*
X221260000Y-73750000D01*
X221392842Y-73750000D01*
X221525989Y-73883147D01*
X221660000Y-74017157D01*
X221794011Y-73883147D01*
X221927157Y-73750001D01*
X221927157Y-73749999D01*
X221897321Y-73720163D01*
X222060000Y-73720163D01*
X222060000Y-73779837D01*
X222082836Y-73834968D01*
X222125032Y-73877164D01*
X222180163Y-73900000D01*
X222239837Y-73900000D01*
X222294968Y-73877164D01*
X222337164Y-73834968D01*
X222360000Y-73779837D01*
X222360000Y-73750000D01*
X222492842Y-73750000D01*
X222625989Y-73883147D01*
X222760000Y-74017157D01*
X222894011Y-73883147D01*
X223027157Y-73750000D01*
X223027157Y-73749999D01*
X222997321Y-73720163D01*
X223160000Y-73720163D01*
X223160000Y-73779837D01*
X223182836Y-73834968D01*
X223225032Y-73877164D01*
X223280163Y-73900000D01*
X223339837Y-73900000D01*
X223394968Y-73877164D01*
X223437164Y-73834968D01*
X223460000Y-73779837D01*
X223460000Y-73750000D01*
X223592842Y-73750000D01*
X223927961Y-74085119D01*
X223930332Y-74081572D01*
X223930334Y-74081570D01*
X223983097Y-73954186D01*
X223983100Y-73954176D01*
X224010000Y-73818946D01*
X224010000Y-73681053D01*
X223983100Y-73545823D01*
X223983097Y-73545813D01*
X223930334Y-73418429D01*
X223927961Y-73414880D01*
X223592842Y-73750000D01*
X223460000Y-73750000D01*
X223460000Y-73720163D01*
X223437164Y-73665032D01*
X223394968Y-73622836D01*
X223339837Y-73600000D01*
X223280163Y-73600000D01*
X223225032Y-73622836D01*
X223182836Y-73665032D01*
X223160000Y-73720163D01*
X222997321Y-73720163D01*
X222760000Y-73482842D01*
X222492842Y-73750000D01*
X222360000Y-73750000D01*
X222360000Y-73720163D01*
X222337164Y-73665032D01*
X222294968Y-73622836D01*
X222239837Y-73600000D01*
X222180163Y-73600000D01*
X222125032Y-73622836D01*
X222082836Y-73665032D01*
X222060000Y-73720163D01*
X221897321Y-73720163D01*
X221660000Y-73482842D01*
X221392842Y-73750000D01*
X221260000Y-73750000D01*
X221260000Y-73720163D01*
X221237164Y-73665032D01*
X221194968Y-73622836D01*
X221139837Y-73600000D01*
X221080163Y-73600000D01*
X221025032Y-73622836D01*
X220982836Y-73665032D01*
X220960000Y-73720163D01*
X220797320Y-73720163D01*
X220492037Y-73414880D01*
X220492036Y-73414880D01*
X220489667Y-73418427D01*
X220489666Y-73418428D01*
X220436902Y-73545813D01*
X220436899Y-73545823D01*
X220410000Y-73681053D01*
X220410000Y-73818946D01*
X220409999Y-73818946D01*
X215648753Y-73818946D01*
X215618775Y-73746571D01*
X215618769Y-73746560D01*
X215616961Y-73743854D01*
X215616960Y-73743853D01*
X215536639Y-73623644D01*
X215536636Y-73623640D01*
X215432107Y-73519111D01*
X215432103Y-73519108D01*
X215309189Y-73436979D01*
X215309176Y-73436972D01*
X215172605Y-73380403D01*
X215172595Y-73380400D01*
X215027608Y-73351560D01*
X215027606Y-73351560D01*
X214879770Y-73351560D01*
X214879768Y-73351560D01*
X214734780Y-73380400D01*
X214734770Y-73380403D01*
X214598199Y-73436972D01*
X214598186Y-73436979D01*
X214475272Y-73519108D01*
X214475268Y-73519111D01*
X214370739Y-73623640D01*
X214370736Y-73623644D01*
X214288607Y-73746558D01*
X214288600Y-73746571D01*
X214232031Y-73883142D01*
X214232030Y-73883147D01*
X214203188Y-74028139D01*
X214203188Y-74028142D01*
X214203188Y-74175978D01*
X214203188Y-74175980D01*
X214203187Y-74175980D01*
X214232028Y-74320966D01*
X214232029Y-74320969D01*
X214232030Y-74320973D01*
X214239676Y-74339432D01*
X214247144Y-74408900D01*
X214236785Y-74438686D01*
X214237247Y-74438878D01*
X214178342Y-74581086D01*
X214178340Y-74581092D01*
X214149500Y-74726079D01*
X214149500Y-74726082D01*
X214149500Y-74873918D01*
X214149500Y-74873920D01*
X214149499Y-74873920D01*
X214178340Y-75018907D01*
X214178343Y-75018917D01*
X214234912Y-75155488D01*
X214234917Y-75155497D01*
X214245200Y-75170887D01*
X214266076Y-75237565D01*
X214247590Y-75304945D01*
X214195610Y-75351634D01*
X214166289Y-75361393D01*
X214081091Y-75378340D01*
X214081082Y-75378343D01*
X213944511Y-75434912D01*
X213944498Y-75434919D01*
X213821584Y-75517048D01*
X213821580Y-75517051D01*
X213717051Y-75621580D01*
X213717048Y-75621584D01*
X213634919Y-75744498D01*
X213634912Y-75744511D01*
X213578343Y-75881082D01*
X213578340Y-75881092D01*
X213549500Y-76026079D01*
X213549500Y-76026082D01*
X213549500Y-76173918D01*
X213549500Y-76173920D01*
X213549499Y-76173920D01*
X203087447Y-76173920D01*
X203182951Y-76078416D01*
X203265084Y-75955495D01*
X203321658Y-75818913D01*
X203336460Y-75744500D01*
X203350500Y-75673920D01*
X203350500Y-75526082D01*
X203349620Y-75521658D01*
X203348759Y-75517330D01*
X203354985Y-75447739D01*
X203397846Y-75392560D01*
X203422919Y-75378576D01*
X203455495Y-75365084D01*
X203578416Y-75282951D01*
X203682951Y-75178416D01*
X203765084Y-75055495D01*
X203821658Y-74918913D01*
X203848758Y-74782676D01*
X203850500Y-74773920D01*
X203850500Y-74626079D01*
X203821659Y-74481092D01*
X203821658Y-74481091D01*
X203821658Y-74481087D01*
X203811911Y-74457555D01*
X203765087Y-74344511D01*
X203765080Y-74344498D01*
X203682951Y-74221584D01*
X203682948Y-74221580D01*
X203578419Y-74117051D01*
X203578415Y-74117048D01*
X203455501Y-74034919D01*
X203455488Y-74034912D01*
X203318917Y-73978343D01*
X203318907Y-73978340D01*
X203173920Y-73949500D01*
X203173918Y-73949500D01*
X203026082Y-73949500D01*
X203026080Y-73949500D01*
X202881092Y-73978340D01*
X202881082Y-73978343D01*
X202744511Y-74034912D01*
X202744498Y-74034919D01*
X202621584Y-74117048D01*
X202621580Y-74117051D01*
X202517051Y-74221580D01*
X202517048Y-74221584D01*
X202434919Y-74344498D01*
X202434912Y-74344511D01*
X202378343Y-74481082D01*
X202378340Y-74481092D01*
X202349500Y-74626079D01*
X202349500Y-74773922D01*
X202351241Y-74782676D01*
X202345011Y-74852268D01*
X202302146Y-74907443D01*
X202277077Y-74921424D01*
X202244505Y-74934916D01*
X202244498Y-74934919D01*
X202121584Y-75017048D01*
X202121580Y-75017051D01*
X202017051Y-75121580D01*
X202017048Y-75121584D01*
X201934919Y-75244498D01*
X201934912Y-75244511D01*
X201878343Y-75381082D01*
X201878340Y-75381092D01*
X201849500Y-75526079D01*
X201849500Y-75526082D01*
X201849500Y-75673918D01*
X201849500Y-75673920D01*
X201849499Y-75673920D01*
X145200500Y-75673920D01*
X145200500Y-73773920D01*
X200149499Y-73773920D01*
X200178340Y-73918907D01*
X200178343Y-73918917D01*
X200234912Y-74055488D01*
X200234919Y-74055501D01*
X200317048Y-74178415D01*
X200317051Y-74178419D01*
X200421580Y-74282948D01*
X200421584Y-74282951D01*
X200544498Y-74365080D01*
X200544511Y-74365087D01*
X200628551Y-74399897D01*
X200681087Y-74421658D01*
X200681091Y-74421658D01*
X200681092Y-74421659D01*
X200826079Y-74450500D01*
X200826082Y-74450500D01*
X200973920Y-74450500D01*
X201099955Y-74425429D01*
X201118913Y-74421658D01*
X201255495Y-74365084D01*
X201378416Y-74282951D01*
X201482951Y-74178416D01*
X201565084Y-74055495D01*
X201621658Y-73918913D01*
X201650500Y-73773918D01*
X201650500Y-73626082D01*
X201650500Y-73626079D01*
X201621659Y-73481092D01*
X201621658Y-73481091D01*
X201621658Y-73481087D01*
X201603385Y-73436972D01*
X201565087Y-73344511D01*
X201565080Y-73344498D01*
X201482952Y-73221584D01*
X201461367Y-73199999D01*
X220842842Y-73199999D01*
X220842842Y-73200000D01*
X221109998Y-73467156D01*
X221243577Y-73333578D01*
X221243581Y-73333575D01*
X221377157Y-73200000D01*
X221377157Y-73199999D01*
X221347321Y-73170163D01*
X221510000Y-73170163D01*
X221510000Y-73229837D01*
X221532836Y-73284968D01*
X221575032Y-73327164D01*
X221630163Y-73350000D01*
X221689837Y-73350000D01*
X221744968Y-73327164D01*
X221787164Y-73284968D01*
X221810000Y-73229837D01*
X221810000Y-73200000D01*
X221942842Y-73200000D01*
X222076406Y-73333564D01*
X222076421Y-73333578D01*
X222210000Y-73467157D01*
X222210001Y-73467157D01*
X222343578Y-73333579D01*
X222477157Y-73200000D01*
X222477157Y-73199999D01*
X222447321Y-73170163D01*
X222610000Y-73170163D01*
X222610000Y-73229837D01*
X222632836Y-73284968D01*
X222675032Y-73327164D01*
X222730163Y-73350000D01*
X222789837Y-73350000D01*
X222844968Y-73327164D01*
X222887164Y-73284968D01*
X222910000Y-73229837D01*
X222910000Y-73200000D01*
X223042842Y-73200000D01*
X223176406Y-73333564D01*
X223176421Y-73333578D01*
X223310000Y-73467157D01*
X223577157Y-73200000D01*
X223577157Y-73199999D01*
X223310001Y-72932842D01*
X223310000Y-72932842D01*
X223042842Y-73200000D01*
X222910000Y-73200000D01*
X222910000Y-73170163D01*
X222887164Y-73115032D01*
X222844968Y-73072836D01*
X222789837Y-73050000D01*
X222730163Y-73050000D01*
X222675032Y-73072836D01*
X222632836Y-73115032D01*
X222610000Y-73170163D01*
X222447321Y-73170163D01*
X222210000Y-72932842D01*
X221942842Y-73200000D01*
X221810000Y-73200000D01*
X221810000Y-73170163D01*
X221787164Y-73115032D01*
X221744968Y-73072836D01*
X221689837Y-73050000D01*
X221630163Y-73050000D01*
X221575032Y-73072836D01*
X221532836Y-73115032D01*
X221510000Y-73170163D01*
X221347321Y-73170163D01*
X221235737Y-73058579D01*
X221235737Y-73058580D01*
X221109998Y-72932842D01*
X220842842Y-73199999D01*
X201461367Y-73199999D01*
X201378419Y-73117051D01*
X201378415Y-73117048D01*
X201255501Y-73034919D01*
X201255488Y-73034912D01*
X201118917Y-72978343D01*
X201118907Y-72978340D01*
X200973920Y-72949500D01*
X200973918Y-72949500D01*
X200826082Y-72949500D01*
X200826080Y-72949500D01*
X200681092Y-72978340D01*
X200681082Y-72978343D01*
X200544511Y-73034912D01*
X200544498Y-73034919D01*
X200421584Y-73117048D01*
X200421580Y-73117051D01*
X200317051Y-73221580D01*
X200317048Y-73221584D01*
X200234919Y-73344498D01*
X200234912Y-73344511D01*
X200178343Y-73481082D01*
X200178340Y-73481092D01*
X200149500Y-73626079D01*
X200149500Y-73626082D01*
X200149500Y-73773918D01*
X200149500Y-73773920D01*
X200149499Y-73773920D01*
X145200500Y-73773920D01*
X145200500Y-72363074D01*
X156058000Y-72363074D01*
X156058000Y-72536925D01*
X156085197Y-72708639D01*
X156085197Y-72708642D01*
X156138918Y-72873978D01*
X156217847Y-73028884D01*
X156320035Y-73169533D01*
X156442967Y-73292465D01*
X156583616Y-73394653D01*
X156725911Y-73467156D01*
X156738521Y-73473581D01*
X156903858Y-73527302D01*
X156903859Y-73527302D01*
X156903862Y-73527303D01*
X157075574Y-73554500D01*
X157075575Y-73554500D01*
X157249425Y-73554500D01*
X157249426Y-73554500D01*
X157421138Y-73527303D01*
X157421141Y-73527302D01*
X157421142Y-73527302D01*
X157498833Y-73502059D01*
X157586478Y-73473581D01*
X157586478Y-73473580D01*
X157586481Y-73473580D01*
X157741384Y-73394653D01*
X157882033Y-73292465D01*
X158004965Y-73169533D01*
X158107153Y-73028884D01*
X158186080Y-72873981D01*
X158236454Y-72718946D01*
X220409999Y-72718946D01*
X220436899Y-72854176D01*
X220436901Y-72854182D01*
X220489668Y-72981573D01*
X220489668Y-72981574D01*
X220492037Y-72985119D01*
X220827157Y-72650000D01*
X220797320Y-72620163D01*
X220960000Y-72620163D01*
X220960000Y-72679837D01*
X220982836Y-72734968D01*
X221025032Y-72777164D01*
X221080163Y-72800000D01*
X221139837Y-72800000D01*
X221194968Y-72777164D01*
X221237164Y-72734968D01*
X221260000Y-72679837D01*
X221260000Y-72650000D01*
X221392842Y-72650000D01*
X221526406Y-72783564D01*
X221526421Y-72783578D01*
X221660000Y-72917157D01*
X221660001Y-72917157D01*
X221793578Y-72783579D01*
X221927157Y-72650000D01*
X221927157Y-72649999D01*
X221897321Y-72620163D01*
X222060000Y-72620163D01*
X222060000Y-72679837D01*
X222082836Y-72734968D01*
X222125032Y-72777164D01*
X222180163Y-72800000D01*
X222239837Y-72800000D01*
X222294968Y-72777164D01*
X222337164Y-72734968D01*
X222360000Y-72679837D01*
X222360000Y-72650000D01*
X222492842Y-72650000D01*
X222626406Y-72783564D01*
X222626421Y-72783578D01*
X222760000Y-72917157D01*
X222760001Y-72917157D01*
X222893578Y-72783579D01*
X223027157Y-72650000D01*
X223027157Y-72649999D01*
X222997321Y-72620163D01*
X223160000Y-72620163D01*
X223160000Y-72679837D01*
X223182836Y-72734968D01*
X223225032Y-72777164D01*
X223280163Y-72800000D01*
X223339837Y-72800000D01*
X223394968Y-72777164D01*
X223437164Y-72734968D01*
X223460000Y-72679837D01*
X223460000Y-72650000D01*
X223592842Y-72650000D01*
X223927961Y-72985119D01*
X223930332Y-72981572D01*
X223930334Y-72981570D01*
X223983097Y-72854186D01*
X223983100Y-72854176D01*
X224010000Y-72718946D01*
X224010000Y-72581053D01*
X223983100Y-72445823D01*
X223983097Y-72445813D01*
X223930334Y-72318429D01*
X223927961Y-72314880D01*
X223592842Y-72650000D01*
X223460000Y-72650000D01*
X223460000Y-72620163D01*
X223437164Y-72565032D01*
X223394968Y-72522836D01*
X223339837Y-72500000D01*
X223280163Y-72500000D01*
X223225032Y-72522836D01*
X223182836Y-72565032D01*
X223160000Y-72620163D01*
X222997321Y-72620163D01*
X222760000Y-72382842D01*
X222492842Y-72650000D01*
X222360000Y-72650000D01*
X222360000Y-72620163D01*
X222337164Y-72565032D01*
X222294968Y-72522836D01*
X222239837Y-72500000D01*
X222180163Y-72500000D01*
X222125032Y-72522836D01*
X222082836Y-72565032D01*
X222060000Y-72620163D01*
X221897321Y-72620163D01*
X221660000Y-72382842D01*
X221392842Y-72650000D01*
X221260000Y-72650000D01*
X221260000Y-72620163D01*
X221237164Y-72565032D01*
X221194968Y-72522836D01*
X221139837Y-72500000D01*
X221080163Y-72500000D01*
X221025032Y-72522836D01*
X220982836Y-72565032D01*
X220960000Y-72620163D01*
X220797320Y-72620163D01*
X220492037Y-72314880D01*
X220492036Y-72314880D01*
X220489667Y-72318427D01*
X220489666Y-72318428D01*
X220436902Y-72445813D01*
X220436899Y-72445823D01*
X220410000Y-72581053D01*
X220410000Y-72718946D01*
X220409999Y-72718946D01*
X158236454Y-72718946D01*
X158239803Y-72708638D01*
X158267000Y-72536926D01*
X158267000Y-72363074D01*
X158239803Y-72191362D01*
X158239802Y-72191358D01*
X158239802Y-72191357D01*
X158186081Y-72026021D01*
X158185010Y-72023920D01*
X197199499Y-72023920D01*
X197228340Y-72168907D01*
X197228343Y-72168917D01*
X197284912Y-72305488D01*
X197284919Y-72305501D01*
X197367048Y-72428415D01*
X197367051Y-72428419D01*
X197471580Y-72532948D01*
X197471584Y-72532951D01*
X197594498Y-72615080D01*
X197594511Y-72615087D01*
X197731082Y-72671656D01*
X197731087Y-72671658D01*
X197731091Y-72671658D01*
X197731092Y-72671659D01*
X197876079Y-72700500D01*
X197876082Y-72700500D01*
X198023920Y-72700500D01*
X198127795Y-72679837D01*
X198168913Y-72671658D01*
X198305495Y-72615084D01*
X198428416Y-72532951D01*
X198438531Y-72522836D01*
X198474085Y-72487283D01*
X198532948Y-72428419D01*
X198532951Y-72428416D01*
X198615084Y-72305495D01*
X198671658Y-72168913D01*
X198689659Y-72078419D01*
X198700500Y-72023920D01*
X198700500Y-71876079D01*
X198671659Y-71731092D01*
X198671658Y-71731091D01*
X198671658Y-71731087D01*
X198647979Y-71673920D01*
X209749499Y-71673920D01*
X209778340Y-71818907D01*
X209778343Y-71818917D01*
X209834912Y-71955488D01*
X209834919Y-71955501D01*
X209917048Y-72078415D01*
X209917051Y-72078419D01*
X210021580Y-72182948D01*
X210021584Y-72182951D01*
X210144498Y-72265080D01*
X210144511Y-72265087D01*
X210273289Y-72318428D01*
X210281087Y-72321658D01*
X210281091Y-72321658D01*
X210281092Y-72321659D01*
X210426079Y-72350500D01*
X210426082Y-72350500D01*
X210573920Y-72350500D01*
X210671462Y-72331096D01*
X210718913Y-72321658D01*
X210855495Y-72265084D01*
X210978416Y-72182951D01*
X211082951Y-72078416D01*
X211101217Y-72051077D01*
X211113941Y-72032036D01*
X220774880Y-72032036D01*
X220774880Y-72032037D01*
X221109998Y-72367157D01*
X221255500Y-72221657D01*
X221377157Y-72099998D01*
X221347322Y-72070163D01*
X221510000Y-72070163D01*
X221510000Y-72129837D01*
X221532836Y-72184968D01*
X221575032Y-72227164D01*
X221630163Y-72250000D01*
X221689837Y-72250000D01*
X221744968Y-72227164D01*
X221787164Y-72184968D01*
X221810000Y-72129837D01*
X221810000Y-72099998D01*
X221942842Y-72099998D01*
X222064501Y-72221658D01*
X222064500Y-72221658D01*
X222210000Y-72367157D01*
X222355499Y-72221658D01*
X222477157Y-72099998D01*
X222447322Y-72070163D01*
X222610000Y-72070163D01*
X222610000Y-72129837D01*
X222632836Y-72184968D01*
X222675032Y-72227164D01*
X222730163Y-72250000D01*
X222789837Y-72250000D01*
X222844968Y-72227164D01*
X222887164Y-72184968D01*
X222910000Y-72129837D01*
X222910000Y-72099998D01*
X223042842Y-72099998D01*
X223164501Y-72221658D01*
X223164500Y-72221658D01*
X223310000Y-72367157D01*
X223310001Y-72367157D01*
X223645119Y-72032037D01*
X223641574Y-72029668D01*
X223508554Y-71974570D01*
X223509134Y-71973168D01*
X223456949Y-71938963D01*
X223436276Y-71901094D01*
X223435429Y-71901446D01*
X223380331Y-71768425D01*
X223377962Y-71764880D01*
X223377961Y-71764880D01*
X223042842Y-72099998D01*
X222910000Y-72099998D01*
X222910000Y-72070163D01*
X222887164Y-72015032D01*
X222844968Y-71972836D01*
X222789837Y-71950000D01*
X222730163Y-71950000D01*
X222675032Y-71972836D01*
X222632836Y-72015032D01*
X222610000Y-72070163D01*
X222447322Y-72070163D01*
X222210001Y-71832842D01*
X222210000Y-71832842D01*
X221942842Y-72099998D01*
X221810000Y-72099998D01*
X221810000Y-72070163D01*
X221787164Y-72015032D01*
X221744968Y-71972836D01*
X221689837Y-71950000D01*
X221630163Y-71950000D01*
X221575032Y-71972836D01*
X221532836Y-72015032D01*
X221510000Y-72070163D01*
X221347322Y-72070163D01*
X221042037Y-71764880D01*
X221042036Y-71764880D01*
X221039667Y-71768427D01*
X221039666Y-71768428D01*
X220984570Y-71901445D01*
X220983171Y-71900865D01*
X220948951Y-71953059D01*
X220911096Y-71973728D01*
X220911445Y-71974570D01*
X220778428Y-72029666D01*
X220778427Y-72029667D01*
X220774880Y-72032036D01*
X211113941Y-72032036D01*
X211129097Y-72009355D01*
X211165081Y-71955499D01*
X211165084Y-71955495D01*
X211221658Y-71818913D01*
X211239129Y-71731082D01*
X211250500Y-71673920D01*
X211250500Y-71526079D01*
X211241739Y-71482036D01*
X221324880Y-71482036D01*
X221324880Y-71482037D01*
X221660000Y-71817157D01*
X221660001Y-71817157D01*
X221995119Y-71482037D01*
X221995118Y-71482036D01*
X222424880Y-71482036D01*
X222424880Y-71482037D01*
X222760000Y-71817157D01*
X222760001Y-71817157D01*
X223003237Y-71573920D01*
X226649499Y-71573920D01*
X226678340Y-71718907D01*
X226678343Y-71718917D01*
X226734912Y-71855488D01*
X226734919Y-71855501D01*
X226817048Y-71978415D01*
X226817051Y-71978419D01*
X226921580Y-72082948D01*
X226921584Y-72082951D01*
X227044498Y-72165080D01*
X227044511Y-72165087D01*
X227181082Y-72221656D01*
X227181087Y-72221658D01*
X227181091Y-72221658D01*
X227181092Y-72221659D01*
X227326079Y-72250500D01*
X227326082Y-72250500D01*
X227473920Y-72250500D01*
X227591233Y-72227164D01*
X227618913Y-72221658D01*
X227746251Y-72168913D01*
X227755488Y-72165087D01*
X227755488Y-72165086D01*
X227755495Y-72165084D01*
X227878416Y-72082951D01*
X227982951Y-71978416D01*
X228065084Y-71855495D01*
X228121658Y-71718913D01*
X228146405Y-71594505D01*
X228150500Y-71573920D01*
X228150500Y-71426079D01*
X228121659Y-71281092D01*
X228121658Y-71281091D01*
X228121658Y-71281087D01*
X228121656Y-71281082D01*
X228065087Y-71144511D01*
X228065080Y-71144498D01*
X227982951Y-71021584D01*
X227982948Y-71021580D01*
X227878419Y-70917051D01*
X227878415Y-70917048D01*
X227755501Y-70834919D01*
X227755488Y-70834912D01*
X227618917Y-70778343D01*
X227618907Y-70778340D01*
X227473920Y-70749500D01*
X227473918Y-70749500D01*
X227326082Y-70749500D01*
X227326080Y-70749500D01*
X227181092Y-70778340D01*
X227181082Y-70778343D01*
X227044511Y-70834912D01*
X227044498Y-70834919D01*
X226921584Y-70917048D01*
X226921580Y-70917051D01*
X226817051Y-71021580D01*
X226817048Y-71021584D01*
X226734919Y-71144498D01*
X226734912Y-71144511D01*
X226678343Y-71281082D01*
X226678340Y-71281092D01*
X226649500Y-71426079D01*
X226649500Y-71426082D01*
X226649500Y-71573918D01*
X226649500Y-71573920D01*
X226649499Y-71573920D01*
X223003237Y-71573920D01*
X223095119Y-71482037D01*
X223091574Y-71479668D01*
X222964182Y-71426901D01*
X222964176Y-71426899D01*
X222828946Y-71400000D01*
X222691054Y-71400000D01*
X222555823Y-71426899D01*
X222555813Y-71426902D01*
X222428428Y-71479666D01*
X222428427Y-71479667D01*
X222424880Y-71482036D01*
X221995118Y-71482036D01*
X221991574Y-71479668D01*
X221864182Y-71426901D01*
X221864176Y-71426899D01*
X221728946Y-71400000D01*
X221591054Y-71400000D01*
X221455823Y-71426899D01*
X221455813Y-71426902D01*
X221328428Y-71479666D01*
X221328427Y-71479667D01*
X221324880Y-71482036D01*
X211241739Y-71482036D01*
X211221659Y-71381092D01*
X211221658Y-71381091D01*
X211221658Y-71381087D01*
X211207960Y-71348016D01*
X211165087Y-71244511D01*
X211165080Y-71244498D01*
X211082951Y-71121584D01*
X211082948Y-71121580D01*
X210978419Y-71017051D01*
X210978415Y-71017048D01*
X210855501Y-70934919D01*
X210855488Y-70934912D01*
X210718917Y-70878343D01*
X210718907Y-70878340D01*
X210573920Y-70849500D01*
X210573918Y-70849500D01*
X210426082Y-70849500D01*
X210426080Y-70849500D01*
X210281092Y-70878340D01*
X210281082Y-70878343D01*
X210144511Y-70934912D01*
X210144498Y-70934919D01*
X210021584Y-71017048D01*
X210021580Y-71017051D01*
X209917051Y-71121580D01*
X209917048Y-71121584D01*
X209834919Y-71244498D01*
X209834912Y-71244511D01*
X209778343Y-71381082D01*
X209778340Y-71381092D01*
X209749500Y-71526079D01*
X209749500Y-71526082D01*
X209749500Y-71673918D01*
X209749500Y-71673920D01*
X209749499Y-71673920D01*
X198647979Y-71673920D01*
X198647978Y-71673918D01*
X198615087Y-71594511D01*
X198615080Y-71594498D01*
X198532951Y-71471584D01*
X198532948Y-71471580D01*
X198428419Y-71367051D01*
X198428415Y-71367048D01*
X198305501Y-71284919D01*
X198305488Y-71284912D01*
X198168917Y-71228343D01*
X198168907Y-71228340D01*
X198023920Y-71199500D01*
X198023918Y-71199500D01*
X197876082Y-71199500D01*
X197876080Y-71199500D01*
X197731092Y-71228340D01*
X197731082Y-71228343D01*
X197594511Y-71284912D01*
X197594498Y-71284919D01*
X197471584Y-71367048D01*
X197471580Y-71367051D01*
X197367051Y-71471580D01*
X197367048Y-71471584D01*
X197284919Y-71594498D01*
X197284912Y-71594511D01*
X197228343Y-71731082D01*
X197228340Y-71731092D01*
X197199500Y-71876079D01*
X197199500Y-71876082D01*
X197199500Y-72023918D01*
X197199500Y-72023920D01*
X197199499Y-72023920D01*
X158185010Y-72023920D01*
X158107153Y-71871116D01*
X158004965Y-71730467D01*
X157882033Y-71607535D01*
X157882032Y-71607534D01*
X157802708Y-71549901D01*
X157782023Y-71523076D01*
X157162501Y-70903553D01*
X157162500Y-70903553D01*
X156558876Y-71507174D01*
X156558652Y-71508242D01*
X156522289Y-71549903D01*
X156442967Y-71607534D01*
X156320037Y-71730464D01*
X156320037Y-71730465D01*
X156320035Y-71730467D01*
X156292455Y-71768428D01*
X156217847Y-71871115D01*
X156138918Y-72026021D01*
X156085197Y-72191357D01*
X156085197Y-72191360D01*
X156058000Y-72363074D01*
X145200500Y-72363074D01*
X145200500Y-70635837D01*
X147049500Y-70635837D01*
X147049500Y-70864162D01*
X147085215Y-71089660D01*
X147155770Y-71306803D01*
X147228988Y-71450500D01*
X147259421Y-71510228D01*
X147393621Y-71694937D01*
X147555063Y-71856379D01*
X147739772Y-71990579D01*
X147787764Y-72015032D01*
X147943196Y-72094229D01*
X147943198Y-72094229D01*
X147943201Y-72094231D01*
X148052785Y-72129837D01*
X148160339Y-72164784D01*
X148385838Y-72200500D01*
X148385843Y-72200500D01*
X148614162Y-72200500D01*
X148839660Y-72164784D01*
X149056799Y-72094231D01*
X149260228Y-71990579D01*
X149444937Y-71856379D01*
X149606379Y-71694937D01*
X149740579Y-71510228D01*
X149844231Y-71306799D01*
X149914784Y-71089660D01*
X149926284Y-71017051D01*
X149950500Y-70864162D01*
X149950500Y-70635837D01*
X149925443Y-70477639D01*
X149925443Y-70477638D01*
X149923142Y-70463107D01*
X156058500Y-70463107D01*
X156058500Y-70636892D01*
X156085683Y-70808521D01*
X156139384Y-70973793D01*
X156218276Y-71128624D01*
X156218277Y-71128626D01*
X156223344Y-71135600D01*
X156223346Y-71135601D01*
X156808946Y-70550001D01*
X156808946Y-70549999D01*
X156762869Y-70503922D01*
X156812500Y-70503922D01*
X156812500Y-70596078D01*
X156836352Y-70685095D01*
X156882430Y-70764905D01*
X156947595Y-70830070D01*
X157027405Y-70876148D01*
X157116422Y-70900000D01*
X157208578Y-70900000D01*
X157297595Y-70876148D01*
X157377405Y-70830070D01*
X157442570Y-70764905D01*
X157488648Y-70685095D01*
X157512500Y-70596078D01*
X157512500Y-70549999D01*
X157516053Y-70549999D01*
X157516053Y-70550000D01*
X158101653Y-71135600D01*
X158106724Y-71128624D01*
X158185615Y-70973793D01*
X158239316Y-70808521D01*
X158266500Y-70636892D01*
X158266500Y-70463107D01*
X158266214Y-70461304D01*
X201299500Y-70461304D01*
X201299500Y-70638695D01*
X201334103Y-70812658D01*
X201334106Y-70812667D01*
X201401983Y-70976540D01*
X201401990Y-70976553D01*
X201500535Y-71124034D01*
X201500538Y-71124038D01*
X201625961Y-71249461D01*
X201625965Y-71249464D01*
X201773446Y-71348009D01*
X201773459Y-71348016D01*
X201896363Y-71398923D01*
X201937334Y-71415894D01*
X201937336Y-71415894D01*
X201937341Y-71415896D01*
X202111304Y-71450499D01*
X202111307Y-71450500D01*
X202111309Y-71450500D01*
X202288693Y-71450500D01*
X202288694Y-71450499D01*
X202346682Y-71438964D01*
X202462658Y-71415896D01*
X202462661Y-71415894D01*
X202462666Y-71415894D01*
X202546686Y-71381092D01*
X202626540Y-71348016D01*
X202626540Y-71348015D01*
X202626547Y-71348013D01*
X202774035Y-71249464D01*
X202899464Y-71124035D01*
X202998013Y-70976547D01*
X203065894Y-70812666D01*
X203066719Y-70808521D01*
X203100499Y-70638695D01*
X203100500Y-70638693D01*
X203100500Y-70461306D01*
X203100499Y-70461304D01*
X203065896Y-70287341D01*
X203065893Y-70287332D01*
X202998016Y-70123459D01*
X202998009Y-70123446D01*
X202899464Y-69975965D01*
X202899461Y-69975961D01*
X202771208Y-69847708D01*
X202737723Y-69786385D01*
X202742707Y-69716693D01*
X202784579Y-69660760D01*
X202834698Y-69638410D01*
X202854983Y-69634374D01*
X202918913Y-69621658D01*
X203055495Y-69565084D01*
X203178416Y-69482951D01*
X203282951Y-69378416D01*
X203365084Y-69255495D01*
X203421658Y-69118913D01*
X203450500Y-68973918D01*
X203450500Y-68873920D01*
X213549499Y-68873920D01*
X213578340Y-69018907D01*
X213578343Y-69018917D01*
X213634912Y-69155488D01*
X213634919Y-69155501D01*
X213717048Y-69278415D01*
X213717051Y-69278419D01*
X213821580Y-69382948D01*
X213821584Y-69382951D01*
X213944498Y-69465080D01*
X213944511Y-69465087D01*
X214042049Y-69505488D01*
X214081087Y-69521658D01*
X214081091Y-69521658D01*
X214081092Y-69521659D01*
X214226079Y-69550500D01*
X214226082Y-69550500D01*
X214373920Y-69550500D01*
X214471462Y-69531096D01*
X214518913Y-69521658D01*
X214655495Y-69465084D01*
X214778416Y-69382951D01*
X214882951Y-69278416D01*
X214919364Y-69223920D01*
X217499499Y-69223920D01*
X217528340Y-69368907D01*
X217528343Y-69368917D01*
X217584912Y-69505488D01*
X217584919Y-69505501D01*
X217667048Y-69628415D01*
X217667051Y-69628419D01*
X217771580Y-69732948D01*
X217771584Y-69732951D01*
X217894498Y-69815080D01*
X217894511Y-69815087D01*
X218031082Y-69871656D01*
X218031087Y-69871658D01*
X218031091Y-69871658D01*
X218031092Y-69871659D01*
X218176079Y-69900500D01*
X218176082Y-69900500D01*
X218323920Y-69900500D01*
X218421462Y-69881096D01*
X218468913Y-69871658D01*
X218596251Y-69818913D01*
X218605488Y-69815087D01*
X218605488Y-69815086D01*
X218605495Y-69815084D01*
X218728416Y-69732951D01*
X218832951Y-69628416D01*
X218915084Y-69505495D01*
X218971658Y-69368913D01*
X218981096Y-69321462D01*
X219000500Y-69223920D01*
X219000500Y-69076079D01*
X218971659Y-68931092D01*
X218971658Y-68931091D01*
X218971658Y-68931087D01*
X218949811Y-68878343D01*
X218915087Y-68794511D01*
X218915080Y-68794498D01*
X218901330Y-68773920D01*
X227249499Y-68773920D01*
X227278340Y-68918907D01*
X227278343Y-68918917D01*
X227334912Y-69055488D01*
X227334919Y-69055501D01*
X227417048Y-69178415D01*
X227417051Y-69178419D01*
X227521580Y-69282948D01*
X227521584Y-69282951D01*
X227644498Y-69365080D01*
X227644511Y-69365087D01*
X227781082Y-69421656D01*
X227781087Y-69421658D01*
X227781091Y-69421658D01*
X227781092Y-69421659D01*
X227926079Y-69450500D01*
X227926082Y-69450500D01*
X228073920Y-69450500D01*
X228171462Y-69431096D01*
X228218913Y-69421658D01*
X228346251Y-69368913D01*
X228355488Y-69365087D01*
X228355488Y-69365086D01*
X228355495Y-69365084D01*
X228478416Y-69282951D01*
X228582951Y-69178416D01*
X228665084Y-69055495D01*
X228721658Y-68918913D01*
X228735267Y-68850500D01*
X228750500Y-68773920D01*
X228750500Y-68626079D01*
X228721659Y-68481092D01*
X228721658Y-68481091D01*
X228721658Y-68481087D01*
X228711060Y-68455501D01*
X228665087Y-68344511D01*
X228665080Y-68344498D01*
X228582951Y-68221584D01*
X228582948Y-68221580D01*
X228478419Y-68117051D01*
X228478415Y-68117048D01*
X228355501Y-68034919D01*
X228355488Y-68034912D01*
X228218917Y-67978343D01*
X228218907Y-67978340D01*
X228073920Y-67949500D01*
X228073918Y-67949500D01*
X227926082Y-67949500D01*
X227926080Y-67949500D01*
X227781092Y-67978340D01*
X227781082Y-67978343D01*
X227644511Y-68034912D01*
X227644498Y-68034919D01*
X227521584Y-68117048D01*
X227521580Y-68117051D01*
X227417051Y-68221580D01*
X227417048Y-68221584D01*
X227334919Y-68344498D01*
X227334912Y-68344511D01*
X227278343Y-68481082D01*
X227278340Y-68481092D01*
X227249500Y-68626079D01*
X227249500Y-68626082D01*
X227249500Y-68773918D01*
X227249500Y-68773920D01*
X227249499Y-68773920D01*
X218901330Y-68773920D01*
X218844509Y-68688881D01*
X218832951Y-68671584D01*
X218832948Y-68671580D01*
X218728419Y-68567051D01*
X218728415Y-68567048D01*
X218605501Y-68484919D01*
X218605488Y-68484912D01*
X218468917Y-68428343D01*
X218468907Y-68428340D01*
X218323920Y-68399500D01*
X218323918Y-68399500D01*
X218176082Y-68399500D01*
X218176080Y-68399500D01*
X218031092Y-68428340D01*
X218031082Y-68428343D01*
X217894511Y-68484912D01*
X217894498Y-68484919D01*
X217771584Y-68567048D01*
X217771580Y-68567051D01*
X217667051Y-68671580D01*
X217667048Y-68671584D01*
X217584919Y-68794498D01*
X217584912Y-68794511D01*
X217528343Y-68931082D01*
X217528340Y-68931092D01*
X217499500Y-69076079D01*
X217499500Y-69076082D01*
X217499500Y-69223918D01*
X217499500Y-69223920D01*
X217499499Y-69223920D01*
X214919364Y-69223920D01*
X214965084Y-69155495D01*
X215021658Y-69018913D01*
X215038366Y-68934919D01*
X215050500Y-68873920D01*
X215050500Y-68726079D01*
X215021659Y-68581092D01*
X215021658Y-68581091D01*
X215021658Y-68581087D01*
X214989307Y-68502984D01*
X214965087Y-68444511D01*
X214965080Y-68444498D01*
X214882951Y-68321584D01*
X214882948Y-68321580D01*
X214778419Y-68217051D01*
X214778415Y-68217048D01*
X214655501Y-68134919D01*
X214655488Y-68134912D01*
X214518917Y-68078343D01*
X214518907Y-68078340D01*
X214373920Y-68049500D01*
X214373918Y-68049500D01*
X214226082Y-68049500D01*
X214226080Y-68049500D01*
X214081092Y-68078340D01*
X214081082Y-68078343D01*
X213944511Y-68134912D01*
X213944498Y-68134919D01*
X213821584Y-68217048D01*
X213821580Y-68217051D01*
X213717051Y-68321580D01*
X213717048Y-68321584D01*
X213634919Y-68444498D01*
X213634912Y-68444511D01*
X213578343Y-68581082D01*
X213578340Y-68581092D01*
X213549500Y-68726079D01*
X213549500Y-68726082D01*
X213549500Y-68873918D01*
X213549500Y-68873920D01*
X213549499Y-68873920D01*
X203450500Y-68873920D01*
X203450500Y-68826082D01*
X203450500Y-68826079D01*
X203435705Y-68751703D01*
X203435704Y-68751701D01*
X203421658Y-68681087D01*
X203374934Y-68568285D01*
X203373514Y-68563999D01*
X203372463Y-68533421D01*
X203369191Y-68502984D01*
X203371184Y-68496194D01*
X203371115Y-68494171D01*
X203372425Y-68491969D01*
X203376660Y-68477547D01*
X203385792Y-68455501D01*
X203421658Y-68368913D01*
X203450500Y-68223918D01*
X203450500Y-68076082D01*
X203450500Y-68076079D01*
X203421659Y-67931092D01*
X203421658Y-67931091D01*
X203421658Y-67931087D01*
X203421656Y-67931082D01*
X203365087Y-67794511D01*
X203365083Y-67794504D01*
X203365078Y-67794497D01*
X203364676Y-67793895D01*
X203364561Y-67793528D01*
X203362211Y-67789130D01*
X203363044Y-67788684D01*
X203343796Y-67727220D01*
X203362277Y-67659838D01*
X203364677Y-67656104D01*
X203365084Y-67655495D01*
X203421658Y-67518913D01*
X203438366Y-67434919D01*
X203450500Y-67373920D01*
X203450500Y-67226079D01*
X203421659Y-67081092D01*
X203421658Y-67081091D01*
X203421658Y-67081087D01*
X203398873Y-67026079D01*
X203365087Y-66944511D01*
X203365080Y-66944498D01*
X203282951Y-66821584D01*
X203282948Y-66821580D01*
X203178419Y-66717051D01*
X203178415Y-66717048D01*
X203055501Y-66634919D01*
X203055488Y-66634912D01*
X202918917Y-66578343D01*
X202918907Y-66578340D01*
X202773920Y-66549500D01*
X202773918Y-66549500D01*
X202626082Y-66549500D01*
X202626080Y-66549500D01*
X202481092Y-66578340D01*
X202481082Y-66578343D01*
X202344511Y-66634912D01*
X202344498Y-66634919D01*
X202221584Y-66717048D01*
X202221580Y-66717051D01*
X202117051Y-66821580D01*
X202117048Y-66821584D01*
X202034919Y-66944498D01*
X202034912Y-66944511D01*
X201978343Y-67081082D01*
X201978340Y-67081092D01*
X201949500Y-67226079D01*
X201949500Y-67226082D01*
X201949500Y-67373918D01*
X201949500Y-67373920D01*
X201949499Y-67373920D01*
X201978340Y-67518907D01*
X201978342Y-67518913D01*
X202034914Y-67655491D01*
X202034920Y-67655502D01*
X202035328Y-67656112D01*
X202035443Y-67656480D01*
X202037789Y-67660869D01*
X202036956Y-67661313D01*
X202056204Y-67722791D01*
X202037717Y-67790170D01*
X202035328Y-67793888D01*
X202034920Y-67794497D01*
X202034914Y-67794508D01*
X201978342Y-67931086D01*
X201978340Y-67931092D01*
X201949500Y-68076079D01*
X201949500Y-68076082D01*
X201949500Y-68223918D01*
X201949500Y-68223920D01*
X201949499Y-68223920D01*
X201978340Y-68368907D01*
X201978343Y-68368917D01*
X202023339Y-68477548D01*
X202030808Y-68547017D01*
X202023339Y-68572452D01*
X201978343Y-68681082D01*
X201978340Y-68681092D01*
X201949500Y-68826079D01*
X201949500Y-68826082D01*
X201949500Y-68973918D01*
X201949500Y-68973920D01*
X201949499Y-68973920D01*
X201978340Y-69118907D01*
X201978343Y-69118917D01*
X202034912Y-69255488D01*
X202034919Y-69255501D01*
X202117048Y-69378415D01*
X202117051Y-69378419D01*
X202178163Y-69439531D01*
X202211648Y-69500854D01*
X202206664Y-69570546D01*
X202164792Y-69626479D01*
X202114674Y-69648829D01*
X201937340Y-69684104D01*
X201937332Y-69684106D01*
X201773459Y-69751983D01*
X201773446Y-69751990D01*
X201625965Y-69850535D01*
X201625961Y-69850538D01*
X201500538Y-69975961D01*
X201500535Y-69975965D01*
X201401990Y-70123446D01*
X201401983Y-70123459D01*
X201334106Y-70287332D01*
X201334103Y-70287341D01*
X201299500Y-70461304D01*
X158266214Y-70461304D01*
X158239316Y-70291478D01*
X158185615Y-70126206D01*
X158106728Y-69971382D01*
X158101653Y-69964398D01*
X157516053Y-70549999D01*
X157512500Y-70549999D01*
X157512500Y-70503922D01*
X157488648Y-70414905D01*
X157442570Y-70335095D01*
X157377405Y-70269930D01*
X157297595Y-70223852D01*
X157208578Y-70200000D01*
X157116422Y-70200000D01*
X157027405Y-70223852D01*
X156947595Y-70269930D01*
X156882430Y-70335095D01*
X156836352Y-70414905D01*
X156812500Y-70503922D01*
X156762869Y-70503922D01*
X156223345Y-69964398D01*
X156223344Y-69964398D01*
X156218275Y-69971375D01*
X156139384Y-70126206D01*
X156085683Y-70291478D01*
X156058500Y-70463107D01*
X149923142Y-70463107D01*
X149914784Y-70410340D01*
X149914784Y-70410339D01*
X149844229Y-70193196D01*
X149740578Y-69989771D01*
X149606379Y-69805063D01*
X149444937Y-69643621D01*
X149399824Y-69610844D01*
X156576898Y-69610844D01*
X156576898Y-69610845D01*
X157162500Y-70196446D01*
X157162501Y-70196446D01*
X157685027Y-69673920D01*
X177449499Y-69673920D01*
X177478340Y-69818907D01*
X177478343Y-69818917D01*
X177534912Y-69955488D01*
X177534919Y-69955501D01*
X177617048Y-70078415D01*
X177617051Y-70078419D01*
X177721580Y-70182948D01*
X177721584Y-70182951D01*
X177844498Y-70265080D01*
X177844511Y-70265087D01*
X177981082Y-70321656D01*
X177981087Y-70321658D01*
X177981091Y-70321658D01*
X177981092Y-70321659D01*
X178126079Y-70350500D01*
X178126082Y-70350500D01*
X178273920Y-70350500D01*
X178358880Y-70333600D01*
X178399450Y-70325529D01*
X178418913Y-70321658D01*
X178555495Y-70265084D01*
X178678416Y-70182951D01*
X178782951Y-70078416D01*
X178865084Y-69955495D01*
X178921658Y-69818913D01*
X178938758Y-69732948D01*
X178950500Y-69673920D01*
X178950500Y-69526079D01*
X178921659Y-69381092D01*
X178921658Y-69381091D01*
X178921658Y-69381087D01*
X178879132Y-69278419D01*
X178865087Y-69244511D01*
X178865080Y-69244498D01*
X178782951Y-69121584D01*
X178782948Y-69121580D01*
X178678419Y-69017051D01*
X178678415Y-69017048D01*
X178555501Y-68934919D01*
X178555488Y-68934912D01*
X178418917Y-68878343D01*
X178418907Y-68878340D01*
X178273920Y-68849500D01*
X178273918Y-68849500D01*
X178126082Y-68849500D01*
X178126080Y-68849500D01*
X177981092Y-68878340D01*
X177981082Y-68878343D01*
X177844511Y-68934912D01*
X177844498Y-68934919D01*
X177721584Y-69017048D01*
X177721580Y-69017051D01*
X177617051Y-69121580D01*
X177617048Y-69121584D01*
X177534919Y-69244498D01*
X177534912Y-69244511D01*
X177478343Y-69381082D01*
X177478340Y-69381092D01*
X177449500Y-69526079D01*
X177449500Y-69526082D01*
X177449500Y-69673918D01*
X177449500Y-69673920D01*
X177449499Y-69673920D01*
X157685027Y-69673920D01*
X157748101Y-69610846D01*
X157748100Y-69610844D01*
X157741133Y-69605781D01*
X157741124Y-69605776D01*
X157586293Y-69526884D01*
X157421021Y-69473183D01*
X157249392Y-69446000D01*
X157075608Y-69446000D01*
X156903978Y-69473183D01*
X156738706Y-69526884D01*
X156583875Y-69605775D01*
X156576898Y-69610844D01*
X149399824Y-69610844D01*
X149260228Y-69509421D01*
X149189107Y-69473183D01*
X149056803Y-69405770D01*
X148839660Y-69335215D01*
X148614162Y-69299500D01*
X148614157Y-69299500D01*
X148385843Y-69299500D01*
X148385838Y-69299500D01*
X148160339Y-69335215D01*
X147943196Y-69405770D01*
X147739771Y-69509421D01*
X147555061Y-69643622D01*
X147393622Y-69805061D01*
X147259421Y-69989771D01*
X147155770Y-70193196D01*
X147085215Y-70410339D01*
X147049500Y-70635837D01*
X145200500Y-70635837D01*
X145200500Y-67173920D01*
X189049499Y-67173920D01*
X189078340Y-67318907D01*
X189078343Y-67318917D01*
X189134912Y-67455488D01*
X189134919Y-67455501D01*
X189217048Y-67578415D01*
X189217051Y-67578419D01*
X189321580Y-67682948D01*
X189321584Y-67682951D01*
X189444498Y-67765080D01*
X189444511Y-67765087D01*
X189515548Y-67794511D01*
X189581087Y-67821658D01*
X189581091Y-67821658D01*
X189581092Y-67821659D01*
X189726079Y-67850500D01*
X189726082Y-67850500D01*
X189873920Y-67850500D01*
X189976946Y-67830006D01*
X190018913Y-67821658D01*
X190155495Y-67765084D01*
X190278416Y-67682951D01*
X190382951Y-67578416D01*
X190465084Y-67455495D01*
X190521658Y-67318913D01*
X190550500Y-67173920D01*
X191149499Y-67173920D01*
X191178340Y-67318907D01*
X191178343Y-67318917D01*
X191234912Y-67455488D01*
X191234919Y-67455501D01*
X191317048Y-67578415D01*
X191317051Y-67578419D01*
X191421580Y-67682948D01*
X191421584Y-67682951D01*
X191544498Y-67765080D01*
X191544511Y-67765087D01*
X191615548Y-67794511D01*
X191681087Y-67821658D01*
X191681091Y-67821658D01*
X191681092Y-67821659D01*
X191826079Y-67850500D01*
X191826082Y-67850500D01*
X191973920Y-67850500D01*
X192076946Y-67830006D01*
X192118913Y-67821658D01*
X192255495Y-67765084D01*
X192378416Y-67682951D01*
X192482951Y-67578416D01*
X192565084Y-67455495D01*
X192621658Y-67318913D01*
X192650500Y-67173918D01*
X192650500Y-67026082D01*
X192650500Y-67026079D01*
X192621659Y-66881092D01*
X192621658Y-66881091D01*
X192621658Y-66881087D01*
X192597011Y-66821584D01*
X192565087Y-66744511D01*
X192565080Y-66744498D01*
X192482951Y-66621584D01*
X192482948Y-66621580D01*
X192378419Y-66517051D01*
X192378415Y-66517048D01*
X192255501Y-66434919D01*
X192255488Y-66434912D01*
X192118917Y-66378343D01*
X192118907Y-66378340D01*
X191973920Y-66349500D01*
X191973918Y-66349500D01*
X191826082Y-66349500D01*
X191826080Y-66349500D01*
X191681092Y-66378340D01*
X191681082Y-66378343D01*
X191544511Y-66434912D01*
X191544498Y-66434919D01*
X191421584Y-66517048D01*
X191421580Y-66517051D01*
X191317051Y-66621580D01*
X191317048Y-66621584D01*
X191234919Y-66744498D01*
X191234912Y-66744511D01*
X191178343Y-66881082D01*
X191178340Y-66881092D01*
X191149500Y-67026079D01*
X191149500Y-67026082D01*
X191149500Y-67173918D01*
X191149500Y-67173920D01*
X191149499Y-67173920D01*
X190550500Y-67173920D01*
X190550500Y-67173918D01*
X190550500Y-67026082D01*
X190550500Y-67026079D01*
X190521659Y-66881092D01*
X190521658Y-66881091D01*
X190521658Y-66881087D01*
X190497011Y-66821584D01*
X190465087Y-66744511D01*
X190465080Y-66744498D01*
X190382951Y-66621584D01*
X190382948Y-66621580D01*
X190278419Y-66517051D01*
X190278415Y-66517048D01*
X190155501Y-66434919D01*
X190155488Y-66434912D01*
X190018917Y-66378343D01*
X190018907Y-66378340D01*
X189873920Y-66349500D01*
X189873918Y-66349500D01*
X189726082Y-66349500D01*
X189726080Y-66349500D01*
X189581092Y-66378340D01*
X189581082Y-66378343D01*
X189444511Y-66434912D01*
X189444498Y-66434919D01*
X189321584Y-66517048D01*
X189321580Y-66517051D01*
X189217051Y-66621580D01*
X189217048Y-66621584D01*
X189134919Y-66744498D01*
X189134912Y-66744511D01*
X189078343Y-66881082D01*
X189078340Y-66881092D01*
X189049500Y-67026079D01*
X189049500Y-67026082D01*
X189049500Y-67173918D01*
X189049500Y-67173920D01*
X189049499Y-67173920D01*
X145200500Y-67173920D01*
X145200500Y-63773920D01*
X183449499Y-63773920D01*
X183478340Y-63918907D01*
X183478343Y-63918917D01*
X183534912Y-64055488D01*
X183534919Y-64055501D01*
X183617048Y-64178415D01*
X183617051Y-64178419D01*
X183700951Y-64262319D01*
X183734436Y-64323642D01*
X183729452Y-64393334D01*
X183700951Y-64437681D01*
X183617051Y-64521580D01*
X183617048Y-64521584D01*
X183534919Y-64644498D01*
X183534912Y-64644511D01*
X183478343Y-64781082D01*
X183478340Y-64781092D01*
X183449500Y-64926079D01*
X183449500Y-64926082D01*
X183449500Y-65073918D01*
X183449500Y-65073920D01*
X183449499Y-65073920D01*
X183478340Y-65218907D01*
X183478343Y-65218917D01*
X183534912Y-65355488D01*
X183534919Y-65355501D01*
X183617048Y-65478415D01*
X183617051Y-65478419D01*
X183650951Y-65512319D01*
X183684436Y-65573642D01*
X183679452Y-65643334D01*
X183650951Y-65687681D01*
X183617051Y-65721580D01*
X183617048Y-65721584D01*
X183534919Y-65844498D01*
X183534912Y-65844511D01*
X183478343Y-65981082D01*
X183478340Y-65981092D01*
X183449500Y-66126079D01*
X183449500Y-66126082D01*
X183449500Y-66273918D01*
X183449500Y-66273920D01*
X183449499Y-66273920D01*
X183478340Y-66418907D01*
X183478343Y-66418917D01*
X183534912Y-66555488D01*
X183534919Y-66555501D01*
X183617048Y-66678415D01*
X183617051Y-66678419D01*
X183721580Y-66782948D01*
X183721584Y-66782951D01*
X183844498Y-66865080D01*
X183844511Y-66865087D01*
X183981082Y-66921656D01*
X183981087Y-66921658D01*
X183981091Y-66921658D01*
X183981092Y-66921659D01*
X184126079Y-66950500D01*
X184126082Y-66950500D01*
X184273920Y-66950500D01*
X184371462Y-66931096D01*
X184418913Y-66921658D01*
X184555495Y-66865084D01*
X184678416Y-66782951D01*
X184782951Y-66678416D01*
X184865084Y-66555495D01*
X184921658Y-66418913D01*
X184934137Y-66356180D01*
X184950500Y-66273920D01*
X184950500Y-66126079D01*
X184921659Y-65981092D01*
X184921658Y-65981091D01*
X184921658Y-65981087D01*
X184902431Y-65934668D01*
X184865087Y-65844511D01*
X184865080Y-65844498D01*
X184782951Y-65721584D01*
X184782948Y-65721580D01*
X184749049Y-65687681D01*
X184715564Y-65626358D01*
X184720548Y-65556666D01*
X184749049Y-65512319D01*
X184782948Y-65478419D01*
X184782951Y-65478416D01*
X184865084Y-65355495D01*
X184921658Y-65218913D01*
X184950500Y-65073918D01*
X184950500Y-64926082D01*
X184950500Y-64926079D01*
X184921659Y-64781092D01*
X184921658Y-64781091D01*
X184921658Y-64781087D01*
X184869835Y-64655975D01*
X184865087Y-64644511D01*
X184865080Y-64644498D01*
X184782951Y-64521584D01*
X184782948Y-64521580D01*
X184699049Y-64437681D01*
X184665564Y-64376358D01*
X184670548Y-64306666D01*
X184699049Y-64262319D01*
X184782948Y-64178419D01*
X184782951Y-64178416D01*
X184865084Y-64055495D01*
X184921658Y-63918913D01*
X184950500Y-63773918D01*
X184950500Y-63626082D01*
X184950500Y-63626079D01*
X184921659Y-63481092D01*
X184921658Y-63481091D01*
X184921658Y-63481087D01*
X184915028Y-63465080D01*
X184865087Y-63344511D01*
X184865080Y-63344498D01*
X184782951Y-63221584D01*
X184782948Y-63221580D01*
X184678419Y-63117051D01*
X184678415Y-63117048D01*
X184555501Y-63034919D01*
X184555488Y-63034912D01*
X184418917Y-62978343D01*
X184418907Y-62978340D01*
X184273920Y-62949500D01*
X184273918Y-62949500D01*
X184126082Y-62949500D01*
X184126080Y-62949500D01*
X183981092Y-62978340D01*
X183981082Y-62978343D01*
X183844511Y-63034912D01*
X183844498Y-63034919D01*
X183721584Y-63117048D01*
X183721580Y-63117051D01*
X183617051Y-63221580D01*
X183617048Y-63221584D01*
X183534919Y-63344498D01*
X183534912Y-63344511D01*
X183478343Y-63481082D01*
X183478340Y-63481092D01*
X183449500Y-63626079D01*
X183449500Y-63626082D01*
X183449500Y-63773918D01*
X183449500Y-63773920D01*
X183449499Y-63773920D01*
X145200500Y-63773920D01*
X145200500Y-62143753D01*
X146780000Y-62143753D01*
X146780000Y-62356246D01*
X146813242Y-62566127D01*
X146813242Y-62566130D01*
X146878904Y-62768217D01*
X146975375Y-62957550D01*
X147014728Y-63011716D01*
X147647037Y-62379408D01*
X147664075Y-62442993D01*
X147729901Y-62557007D01*
X147822993Y-62650099D01*
X147937007Y-62715925D01*
X148000590Y-62732962D01*
X147368282Y-63365269D01*
X147368282Y-63365270D01*
X147422449Y-63404624D01*
X147611782Y-63501095D01*
X147813870Y-63566757D01*
X148023754Y-63600000D01*
X148236246Y-63600000D01*
X148446127Y-63566757D01*
X148446130Y-63566757D01*
X148648217Y-63501095D01*
X148837554Y-63404622D01*
X148891716Y-63365270D01*
X148891717Y-63365270D01*
X148259408Y-62732962D01*
X148322993Y-62715925D01*
X148437007Y-62650099D01*
X148530099Y-62557007D01*
X148595925Y-62442993D01*
X148612962Y-62379409D01*
X149245270Y-63011717D01*
X149245270Y-63011716D01*
X149284622Y-62957555D01*
X149289232Y-62948507D01*
X149337205Y-62897709D01*
X149405025Y-62880912D01*
X149471161Y-62903447D01*
X149510204Y-62948504D01*
X149514949Y-62957817D01*
X149639890Y-63129786D01*
X149790213Y-63280109D01*
X149962179Y-63405048D01*
X149962181Y-63405049D01*
X149962184Y-63405051D01*
X150151588Y-63501557D01*
X150353757Y-63567246D01*
X150563713Y-63600500D01*
X150563714Y-63600500D01*
X150776286Y-63600500D01*
X150776287Y-63600500D01*
X150986243Y-63567246D01*
X151188412Y-63501557D01*
X151377816Y-63405051D01*
X151464138Y-63342335D01*
X151549786Y-63280109D01*
X151549788Y-63280106D01*
X151549792Y-63280104D01*
X151700104Y-63129792D01*
X151700106Y-63129788D01*
X151700109Y-63129786D01*
X151825048Y-62957820D01*
X151825050Y-62957817D01*
X151825051Y-62957816D01*
X151829514Y-62949054D01*
X151877488Y-62898259D01*
X151945308Y-62881463D01*
X152011444Y-62903999D01*
X152050486Y-62949056D01*
X152054951Y-62957820D01*
X152179890Y-63129786D01*
X152330213Y-63280109D01*
X152502179Y-63405048D01*
X152502181Y-63405049D01*
X152502184Y-63405051D01*
X152691588Y-63501557D01*
X152893757Y-63567246D01*
X153103713Y-63600500D01*
X153103714Y-63600500D01*
X153316286Y-63600500D01*
X153316287Y-63600500D01*
X153526243Y-63567246D01*
X153728412Y-63501557D01*
X153917816Y-63405051D01*
X154004138Y-63342335D01*
X154089786Y-63280109D01*
X154089788Y-63280106D01*
X154089792Y-63280104D01*
X154240104Y-63129792D01*
X154240106Y-63129788D01*
X154240109Y-63129786D01*
X154365048Y-62957820D01*
X154365050Y-62957817D01*
X154365051Y-62957816D01*
X154369514Y-62949054D01*
X154417488Y-62898259D01*
X154485308Y-62881463D01*
X154551444Y-62903999D01*
X154590486Y-62949056D01*
X154594951Y-62957820D01*
X154719890Y-63129786D01*
X154870213Y-63280109D01*
X155042179Y-63405048D01*
X155042181Y-63405049D01*
X155042184Y-63405051D01*
X155231588Y-63501557D01*
X155433757Y-63567246D01*
X155643713Y-63600500D01*
X155643714Y-63600500D01*
X155856286Y-63600500D01*
X155856287Y-63600500D01*
X156066243Y-63567246D01*
X156268412Y-63501557D01*
X156457816Y-63405051D01*
X156629792Y-63280104D01*
X156743329Y-63166566D01*
X156804648Y-63133084D01*
X156874340Y-63138068D01*
X156930274Y-63179939D01*
X156947189Y-63210917D01*
X156996202Y-63342328D01*
X156996206Y-63342335D01*
X157082452Y-63457544D01*
X157082455Y-63457547D01*
X157197664Y-63543793D01*
X157197671Y-63543797D01*
X157332517Y-63594091D01*
X157332516Y-63594091D01*
X157339444Y-63594835D01*
X157392127Y-63600500D01*
X159187872Y-63600499D01*
X159247483Y-63594091D01*
X159382331Y-63543796D01*
X159497546Y-63457546D01*
X159583796Y-63342331D01*
X159634091Y-63207483D01*
X159640500Y-63147873D01*
X159640499Y-61573920D01*
X161599499Y-61573920D01*
X161628340Y-61718907D01*
X161628343Y-61718917D01*
X161684912Y-61855488D01*
X161684919Y-61855501D01*
X161767048Y-61978415D01*
X161767051Y-61978419D01*
X161871580Y-62082948D01*
X161871584Y-62082951D01*
X161994498Y-62165080D01*
X161994511Y-62165087D01*
X162131082Y-62221656D01*
X162131087Y-62221658D01*
X162131091Y-62221658D01*
X162131092Y-62221659D01*
X162276079Y-62250500D01*
X162276082Y-62250500D01*
X162423920Y-62250500D01*
X162521462Y-62231096D01*
X162568913Y-62221658D01*
X162705495Y-62165084D01*
X162737419Y-62143753D01*
X163530000Y-62143753D01*
X163530000Y-62356246D01*
X163563242Y-62566127D01*
X163563242Y-62566130D01*
X163628904Y-62768217D01*
X163725375Y-62957550D01*
X163764728Y-63011716D01*
X164397037Y-62379408D01*
X164414075Y-62442993D01*
X164479901Y-62557007D01*
X164572993Y-62650099D01*
X164687007Y-62715925D01*
X164750590Y-62732962D01*
X164118282Y-63365269D01*
X164118282Y-63365270D01*
X164172449Y-63404624D01*
X164361782Y-63501095D01*
X164563870Y-63566757D01*
X164773754Y-63600000D01*
X164986246Y-63600000D01*
X165196127Y-63566757D01*
X165196130Y-63566757D01*
X165398217Y-63501095D01*
X165587554Y-63404622D01*
X165641716Y-63365270D01*
X165641717Y-63365270D01*
X165009408Y-62732962D01*
X165072993Y-62715925D01*
X165187007Y-62650099D01*
X165280099Y-62557007D01*
X165345925Y-62442993D01*
X165362962Y-62379408D01*
X165995270Y-63011717D01*
X165995270Y-63011716D01*
X166034622Y-62957555D01*
X166039232Y-62948507D01*
X166087205Y-62897709D01*
X166155025Y-62880912D01*
X166221161Y-62903447D01*
X166260204Y-62948504D01*
X166264949Y-62957817D01*
X166389890Y-63129786D01*
X166540213Y-63280109D01*
X166712179Y-63405048D01*
X166712181Y-63405049D01*
X166712184Y-63405051D01*
X166901588Y-63501557D01*
X167103757Y-63567246D01*
X167313713Y-63600500D01*
X167313714Y-63600500D01*
X167526286Y-63600500D01*
X167526287Y-63600500D01*
X167736243Y-63567246D01*
X167938412Y-63501557D01*
X168127816Y-63405051D01*
X168214138Y-63342335D01*
X168299786Y-63280109D01*
X168299788Y-63280106D01*
X168299792Y-63280104D01*
X168450104Y-63129792D01*
X168450106Y-63129788D01*
X168450109Y-63129786D01*
X168575048Y-62957820D01*
X168575050Y-62957817D01*
X168575051Y-62957816D01*
X168579514Y-62949054D01*
X168627488Y-62898259D01*
X168695308Y-62881463D01*
X168761444Y-62903999D01*
X168800486Y-62949056D01*
X168804951Y-62957820D01*
X168929890Y-63129786D01*
X169080213Y-63280109D01*
X169252179Y-63405048D01*
X169252181Y-63405049D01*
X169252184Y-63405051D01*
X169441588Y-63501557D01*
X169643757Y-63567246D01*
X169853713Y-63600500D01*
X169853714Y-63600500D01*
X170066286Y-63600500D01*
X170066287Y-63600500D01*
X170276243Y-63567246D01*
X170478412Y-63501557D01*
X170667816Y-63405051D01*
X170839792Y-63280104D01*
X170953329Y-63166566D01*
X171014648Y-63133084D01*
X171084340Y-63138068D01*
X171140274Y-63179939D01*
X171157189Y-63210917D01*
X171206202Y-63342328D01*
X171206206Y-63342335D01*
X171292452Y-63457544D01*
X171292455Y-63457547D01*
X171407664Y-63543793D01*
X171407671Y-63543797D01*
X171542517Y-63594091D01*
X171542516Y-63594091D01*
X171549444Y-63594835D01*
X171602127Y-63600500D01*
X173397872Y-63600499D01*
X173457483Y-63594091D01*
X173592331Y-63543796D01*
X173707546Y-63457546D01*
X173793796Y-63342331D01*
X173844091Y-63207483D01*
X173850500Y-63147873D01*
X173850500Y-62873920D01*
X175849499Y-62873920D01*
X175878340Y-63018907D01*
X175878343Y-63018917D01*
X175934912Y-63155488D01*
X175934919Y-63155501D01*
X176017048Y-63278415D01*
X176017051Y-63278419D01*
X176121580Y-63382948D01*
X176121584Y-63382951D01*
X176244498Y-63465080D01*
X176244511Y-63465087D01*
X176381082Y-63521656D01*
X176381087Y-63521658D01*
X176381091Y-63521658D01*
X176381092Y-63521659D01*
X176526079Y-63550500D01*
X176526082Y-63550500D01*
X176673920Y-63550500D01*
X176771462Y-63531096D01*
X176818913Y-63521658D01*
X176955495Y-63465084D01*
X177078416Y-63382951D01*
X177182951Y-63278416D01*
X177265084Y-63155495D01*
X177272303Y-63138068D01*
X177321656Y-63018917D01*
X177321658Y-63018913D01*
X177331096Y-62971462D01*
X177350500Y-62873920D01*
X177350500Y-62726079D01*
X177321659Y-62581092D01*
X177321658Y-62581091D01*
X177321658Y-62581087D01*
X177321656Y-62581082D01*
X177265087Y-62444511D01*
X177265080Y-62444498D01*
X177182951Y-62321584D01*
X177182948Y-62321580D01*
X177078419Y-62217051D01*
X177078415Y-62217048D01*
X176955501Y-62134919D01*
X176955488Y-62134912D01*
X176818917Y-62078343D01*
X176818907Y-62078340D01*
X176673920Y-62049500D01*
X176673918Y-62049500D01*
X176526082Y-62049500D01*
X176526080Y-62049500D01*
X176381092Y-62078340D01*
X176381082Y-62078343D01*
X176244511Y-62134912D01*
X176244498Y-62134919D01*
X176121584Y-62217048D01*
X176121580Y-62217051D01*
X176017051Y-62321580D01*
X176017048Y-62321584D01*
X175934919Y-62444498D01*
X175934912Y-62444511D01*
X175878343Y-62581082D01*
X175878340Y-62581092D01*
X175849500Y-62726079D01*
X175849500Y-62726082D01*
X175849500Y-62873918D01*
X175849500Y-62873920D01*
X175849499Y-62873920D01*
X173850500Y-62873920D01*
X173850499Y-62250000D01*
X173850499Y-61352129D01*
X173850498Y-61352123D01*
X173844091Y-61292516D01*
X173793797Y-61157671D01*
X173793793Y-61157664D01*
X173707547Y-61042455D01*
X173707544Y-61042452D01*
X173592335Y-60956206D01*
X173592328Y-60956202D01*
X173457482Y-60905908D01*
X173457483Y-60905908D01*
X173397883Y-60899501D01*
X173397881Y-60899500D01*
X173397873Y-60899500D01*
X173397864Y-60899500D01*
X171602129Y-60899500D01*
X171602123Y-60899501D01*
X171542516Y-60905908D01*
X171407671Y-60956202D01*
X171407664Y-60956206D01*
X171292455Y-61042452D01*
X171292452Y-61042455D01*
X171206206Y-61157664D01*
X171206203Y-61157669D01*
X171157189Y-61289083D01*
X171115317Y-61345016D01*
X171049853Y-61369433D01*
X170981580Y-61354581D01*
X170953326Y-61333430D01*
X170839786Y-61219890D01*
X170667820Y-61094951D01*
X170478414Y-60998444D01*
X170478413Y-60998443D01*
X170478412Y-60998443D01*
X170276243Y-60932754D01*
X170276241Y-60932753D01*
X170276240Y-60932753D01*
X170114957Y-60907208D01*
X170066287Y-60899500D01*
X169853713Y-60899500D01*
X169805042Y-60907208D01*
X169643760Y-60932753D01*
X169441585Y-60998444D01*
X169252179Y-61094951D01*
X169080213Y-61219890D01*
X168929890Y-61370213D01*
X168804949Y-61542182D01*
X168800484Y-61550946D01*
X168752509Y-61601742D01*
X168684688Y-61618536D01*
X168618553Y-61595998D01*
X168579516Y-61550946D01*
X168575050Y-61542182D01*
X168450109Y-61370213D01*
X168299786Y-61219890D01*
X168127820Y-61094951D01*
X167938414Y-60998444D01*
X167938413Y-60998443D01*
X167938412Y-60998443D01*
X167736243Y-60932754D01*
X167736241Y-60932753D01*
X167736240Y-60932753D01*
X167574957Y-60907208D01*
X167526287Y-60899500D01*
X167313713Y-60899500D01*
X167265042Y-60907208D01*
X167103760Y-60932753D01*
X166901585Y-60998444D01*
X166712179Y-61094951D01*
X166540213Y-61219890D01*
X166389890Y-61370213D01*
X166264949Y-61542182D01*
X166260202Y-61551499D01*
X166212227Y-61602293D01*
X166144405Y-61619087D01*
X166078271Y-61596548D01*
X166039234Y-61551495D01*
X166034626Y-61542452D01*
X165995270Y-61488282D01*
X165995269Y-61488282D01*
X165362962Y-62120590D01*
X165345925Y-62057007D01*
X165280099Y-61942993D01*
X165187007Y-61849901D01*
X165072993Y-61784075D01*
X165009409Y-61767037D01*
X165641716Y-61134728D01*
X165587550Y-61095375D01*
X165398217Y-60998904D01*
X165196129Y-60933242D01*
X164986246Y-60900000D01*
X164773754Y-60900000D01*
X164563872Y-60933242D01*
X164563869Y-60933242D01*
X164361782Y-60998904D01*
X164172439Y-61095380D01*
X164118282Y-61134727D01*
X164118282Y-61134728D01*
X164750591Y-61767037D01*
X164687007Y-61784075D01*
X164572993Y-61849901D01*
X164479901Y-61942993D01*
X164414075Y-62057007D01*
X164397037Y-62120591D01*
X163764728Y-61488282D01*
X163764727Y-61488282D01*
X163725380Y-61542439D01*
X163628904Y-61731782D01*
X163563242Y-61933869D01*
X163563242Y-61933872D01*
X163530000Y-62143753D01*
X162737419Y-62143753D01*
X162828416Y-62082951D01*
X162833027Y-62078340D01*
X162860168Y-62051200D01*
X162932948Y-61978419D01*
X162932951Y-61978416D01*
X163015084Y-61855495D01*
X163071658Y-61718913D01*
X163094856Y-61602293D01*
X163100500Y-61573920D01*
X163100500Y-61426079D01*
X163071659Y-61281092D01*
X163071658Y-61281091D01*
X163071658Y-61281087D01*
X163020535Y-61157664D01*
X163015087Y-61144511D01*
X163015080Y-61144498D01*
X162932951Y-61021584D01*
X162932948Y-61021580D01*
X162828419Y-60917051D01*
X162828415Y-60917048D01*
X162705501Y-60834919D01*
X162705488Y-60834912D01*
X162568917Y-60778343D01*
X162568907Y-60778340D01*
X162423920Y-60749500D01*
X162423918Y-60749500D01*
X162276082Y-60749500D01*
X162276080Y-60749500D01*
X162131092Y-60778340D01*
X162131082Y-60778343D01*
X161994511Y-60834912D01*
X161994498Y-60834919D01*
X161871584Y-60917048D01*
X161871580Y-60917051D01*
X161767051Y-61021580D01*
X161767048Y-61021584D01*
X161684919Y-61144498D01*
X161684912Y-61144511D01*
X161628343Y-61281082D01*
X161628340Y-61281092D01*
X161599500Y-61426079D01*
X161599500Y-61426082D01*
X161599500Y-61573918D01*
X161599500Y-61573920D01*
X161599499Y-61573920D01*
X159640499Y-61573920D01*
X159640499Y-61352128D01*
X159634091Y-61292517D01*
X159632810Y-61289083D01*
X159583797Y-61157671D01*
X159583793Y-61157664D01*
X159497547Y-61042455D01*
X159497544Y-61042452D01*
X159382335Y-60956206D01*
X159382328Y-60956202D01*
X159247482Y-60905908D01*
X159247483Y-60905908D01*
X159187883Y-60899501D01*
X159187881Y-60899500D01*
X159187873Y-60899500D01*
X159187864Y-60899500D01*
X157392129Y-60899500D01*
X157392123Y-60899501D01*
X157332516Y-60905908D01*
X157197671Y-60956202D01*
X157197664Y-60956206D01*
X157082455Y-61042452D01*
X157082452Y-61042455D01*
X156996206Y-61157664D01*
X156996203Y-61157669D01*
X156947189Y-61289083D01*
X156905317Y-61345016D01*
X156839853Y-61369433D01*
X156771580Y-61354581D01*
X156743326Y-61333430D01*
X156629786Y-61219890D01*
X156457820Y-61094951D01*
X156268414Y-60998444D01*
X156268413Y-60998443D01*
X156268412Y-60998443D01*
X156066243Y-60932754D01*
X156066241Y-60932753D01*
X156066240Y-60932753D01*
X155904957Y-60907208D01*
X155856287Y-60899500D01*
X155643713Y-60899500D01*
X155595042Y-60907208D01*
X155433760Y-60932753D01*
X155231585Y-60998444D01*
X155042179Y-61094951D01*
X154870213Y-61219890D01*
X154719890Y-61370213D01*
X154594949Y-61542182D01*
X154590484Y-61550946D01*
X154542509Y-61601742D01*
X154474688Y-61618536D01*
X154408553Y-61595998D01*
X154369516Y-61550946D01*
X154365050Y-61542182D01*
X154240109Y-61370213D01*
X154089786Y-61219890D01*
X153917820Y-61094951D01*
X153728414Y-60998444D01*
X153728413Y-60998443D01*
X153728412Y-60998443D01*
X153526243Y-60932754D01*
X153526241Y-60932753D01*
X153526240Y-60932753D01*
X153364957Y-60907208D01*
X153316287Y-60899500D01*
X153103713Y-60899500D01*
X153055042Y-60907208D01*
X152893760Y-60932753D01*
X152691585Y-60998444D01*
X152502179Y-61094951D01*
X152330213Y-61219890D01*
X152179890Y-61370213D01*
X152054949Y-61542182D01*
X152050484Y-61550946D01*
X152002509Y-61601742D01*
X151934688Y-61618536D01*
X151868553Y-61595998D01*
X151829516Y-61550946D01*
X151825050Y-61542182D01*
X151700109Y-61370213D01*
X151549786Y-61219890D01*
X151377820Y-61094951D01*
X151188414Y-60998444D01*
X151188413Y-60998443D01*
X151188412Y-60998443D01*
X150986243Y-60932754D01*
X150986241Y-60932753D01*
X150986240Y-60932753D01*
X150824957Y-60907208D01*
X150776287Y-60899500D01*
X150563713Y-60899500D01*
X150515042Y-60907208D01*
X150353760Y-60932753D01*
X150151585Y-60998444D01*
X149962179Y-61094951D01*
X149790213Y-61219890D01*
X149639890Y-61370213D01*
X149514949Y-61542182D01*
X149510202Y-61551499D01*
X149462227Y-61602293D01*
X149394405Y-61619087D01*
X149328271Y-61596548D01*
X149289234Y-61551495D01*
X149284626Y-61542452D01*
X149245270Y-61488282D01*
X149245269Y-61488282D01*
X148612962Y-62120590D01*
X148595925Y-62057007D01*
X148530099Y-61942993D01*
X148437007Y-61849901D01*
X148322993Y-61784075D01*
X148259409Y-61767037D01*
X148891716Y-61134728D01*
X148837550Y-61095375D01*
X148648217Y-60998904D01*
X148446129Y-60933242D01*
X148236246Y-60900000D01*
X148023754Y-60900000D01*
X147813872Y-60933242D01*
X147813869Y-60933242D01*
X147611782Y-60998904D01*
X147422439Y-61095380D01*
X147368282Y-61134727D01*
X147368282Y-61134728D01*
X148000591Y-61767037D01*
X147937007Y-61784075D01*
X147822993Y-61849901D01*
X147729901Y-61942993D01*
X147664075Y-62057007D01*
X147647037Y-62120591D01*
X147014728Y-61488282D01*
X147014727Y-61488282D01*
X146975380Y-61542439D01*
X146878904Y-61731782D01*
X146813242Y-61933869D01*
X146813242Y-61933872D01*
X146780000Y-62143753D01*
X145200500Y-62143753D01*
X145200500Y-60506092D01*
X145201097Y-60493939D01*
X145209805Y-60405519D01*
X145214665Y-60356171D01*
X145219403Y-60332349D01*
X145257816Y-60205719D01*
X145267113Y-60183278D01*
X145329485Y-60066587D01*
X145342982Y-60046387D01*
X145426924Y-59944103D01*
X145444103Y-59926924D01*
X145546387Y-59842982D01*
X145566587Y-59829485D01*
X145683278Y-59767113D01*
X145705719Y-59757816D01*
X145832349Y-59719403D01*
X145856173Y-59714665D01*
X145985170Y-59701960D01*
X145993939Y-59701097D01*
X146006092Y-59700500D01*
X146039882Y-59700500D01*
X195460118Y-59700500D01*
X195493908Y-59700500D01*
X195506061Y-59701097D01*
G37*
%TD.AperFunction*%
%TD*%
M02*
