M48
; DRILL file {KiCad 9.0.7} date 2026-09-13T11:20:47+0530
; FORMAT={-:-/ absolute / inch / decimal}
; #@! TF.CreationDate,2026-09-13T11:20:47+05:30
; #@! TF.GenerationSoftware,Kicad,Pcbnew,9.0.7
; #@! TF.FileFunction,Plated,1,4,PTH
FMAT,2
INCH
; #@! TA.AperFunction,Plated,PTH,ViaDrill
T1C0.0118
; #@! TA.AperFunction,Plated,PTH,ComponentDrill
T2C0.0118
; #@! TA.AperFunction,Plated,PTH,ViaDrill
T3C0.0157
; #@! TA.AperFunction,Plated,PTH,ComponentDrill
T4C0.0177
; #@! TA.AperFunction,Plated,PTH,ComponentDrill
T5C0.0256
; #@! TA.AperFunction,Plated,PTH,ComponentDrill
T6C0.0276
; #@! TA.AperFunction,Plated,PTH,ComponentDrill
T7C0.0394
%
G90
G05
T1
X5.7874Y-3.1457
X5.7874Y-3.1811
X5.8307Y-4.4016
X5.8307Y-4.4291
X5.8307Y-4.4567
X5.8346Y-3.3504
X5.8543Y-3.8031
X5.8622Y-2.5689
X5.8839Y-3.3504
X5.9291Y-3.3504
X5.9764Y-3.4134
X5.9961Y-3.8031
X6.0866Y-3.4134
X6.1142Y-3.0315
X6.1142Y-3.437
X6.1142Y-3.4882
X6.1142Y-3.5394
X6.1142Y-3.5866
X6.1142Y-3.6378
X6.1614Y-3.5846
X6.1614Y-3.6378
X6.1732Y-4.122
X6.1732Y-4.1535
X6.1752Y-4.0945
X6.1824Y-3.0315
X6.2152Y-3.0315
X6.2441Y-3.9764
X6.2441Y-4.4488
X6.248Y-3.0315
X6.2808Y-3.0315
X6.2913Y-2.7283
X6.2913Y-4.1929
X6.3136Y-3.0315
X6.3346Y-3.9764
X6.3346Y-4.3829
X6.3379Y-4.1203
X6.3465Y-3.0315
X6.3622Y-2.4331
X6.363Y-4.0952
X6.3701Y-4.3819
X6.3793Y-3.0315
X6.3898Y-2.4764
X6.3996Y-4.3819
X6.4056Y-4.1062
X6.4213Y-3.9764
X6.4843Y-4.2283
X6.4843Y-4.2874
X6.5197Y-4.4409
X6.5295Y-4.2598
X6.5472Y-2.6575
X6.6142Y-3.3661
X6.628Y-3.8268
X6.628Y-3.8681
X6.628Y-3.9075
X6.6339Y-2.9094
X6.7618Y-3.372
X6.8071Y-3.0551
X6.8307Y-3.5866
X6.8381Y-3.6327
X6.8386Y-3.9764
X6.8425Y-2.7185
X6.8563Y-3.8287
X6.8563Y-3.8701
X6.8563Y-3.9094
X6.8661Y-3.0591
X6.8799Y-3.5251
X6.8858Y-3.9763
X6.9055Y-3.9291
X6.9094Y-3.7638
X6.9193Y-3.5276
X6.9331Y-3.0551
X6.9528Y-2.4724
X6.9646Y-3.5276
X6.9685Y-3.2205
X6.9783Y-3.7736
X6.9783Y-3.9646
X7.0157Y-2.7402
X7.0276Y-3.3386
X7.0315Y-4.2598
X7.0551Y-3.9291
X7.062Y-3.9754
X7.1496Y-3.748
X7.1535Y-3.5433
X7.2165Y-3.8661
X7.248Y-3.0591
X7.248Y-3.8071
X7.252Y-2.5079
X7.252Y-2.5591
X7.252Y-2.6063
X7.2559Y-2.4449
X7.3386Y-3.4921
X7.3504Y-4.1496
X7.3622Y-4.3504
X7.3661Y-4.3898
X7.3819Y-3.7992
X7.4006Y-2.5748
X7.4213Y-3.3425
X7.4291Y-3.1535
X7.4331Y-3.4921
X7.4724Y-2.6417
X7.4724Y-4.1299
X7.5345Y-3.9637
X7.5551Y-2.6417
X7.6063Y-4.122
X7.6378Y-4.3504
X7.7923Y-4.1811
X7.7933Y-2.8327
X7.811Y-4.3937
X7.9094Y-2.9016
X7.9213Y-3.1417
X7.9528Y-3.4016
X7.9764Y-2.9764
X7.9803Y-2.6496
X7.9803Y-2.6831
X7.9803Y-2.7126
X7.9961Y-2.9409
X8.1024Y-4.311
X8.1732Y-3.5512
X8.2874Y-2.8189
X8.3268Y-3.5197
X8.4242Y-3.6919
X8.437Y-2.7087
X8.437Y-2.9961
X8.4606Y-2.9449
X8.4627Y-2.9174
X8.4685Y-3.0748
X8.4685Y-3.6929
X8.4803Y-3.1102
X8.5591Y-3.0669
X8.5925Y-2.7224
X8.6024Y-3.5433
X8.685Y-3.2244
X8.7165Y-3.6654
X8.9094Y-4.2953
X8.9409Y-3.437
X8.9528Y-2.815
X8.9685Y-3.0551
X8.9724Y-2.9961
X8.9764Y-2.7047
X9.0276Y-3.3031
X9.1142Y-2.6811
T2
X8.7051Y-2.8602
X8.7051Y-2.9035
X8.7268Y-2.8386
X8.7268Y-2.8819
X8.7268Y-2.9252
X8.7484Y-2.8602
X8.7484Y-2.9035
X8.7701Y-2.8386
X8.7701Y-2.8819
X8.7701Y-2.9252
X8.7917Y-2.8602
X8.7917Y-2.9035
T3
X7.9606Y-2.7776
X7.9606Y-2.8445
X8.5118Y-3.5394
T4
X6.8681Y-4.0894
X6.8839Y-4.1173
X6.8996Y-4.0894
X6.9154Y-4.1173
X6.9311Y-4.0894
X6.9469Y-4.1173
X6.9626Y-4.0894
X6.9941Y-4.0894
X7.0098Y-4.1173
X7.0256Y-4.0894
X7.0413Y-4.1173
X7.0571Y-4.0894
X7.0728Y-4.1173
X7.0886Y-4.0894
T6
X6.1875Y-2.7776
X6.1875Y-2.8524
T7
X5.8319Y-2.4508
X5.9319Y-2.4508
X6.0319Y-2.4508
X6.1319Y-2.4508
X6.2319Y-2.4508
X6.4913Y-2.4508
X6.5913Y-2.4508
X6.6913Y-2.4508
X6.7913Y-2.4508
T5
G00X6.8102Y-4.1228
M15
G01X6.8102Y-4.1465
M16
G05
G00X6.8102Y-4.3091
M15
G01X6.8102Y-4.3327
M16
G05
G00X7.1465Y-4.1228
M15
G01X7.1465Y-4.1465
M16
G05
G00X7.1465Y-4.3091
M15
G01X7.1465Y-4.3327
M16
G05
M30
