%TF.GenerationSoftware,KiCad,Pcbnew,9.0.7*%
%TF.CreationDate,2026-09-13T11:20:47+05:30*%
%TF.ProjectId,KiCad 9 Esp32 Project,4b694361-6420-4392-9045-737033322050,rev?*%
%TF.SameCoordinates,Original*%
%TF.FileFunction,Paste,Top*%
%TF.FilePolarity,Positive*%
%FSLAX46Y46*%
G04 Gerber Fmt 4.6, Leading zero omitted, Abs format (unit mm)*
G04 Created by KiCad (PCBNEW 9.0.7) date 2026-09-13 11:20:47*
%MOMM*%
%LPD*%
G01*
G04 APERTURE LIST*
G04 Aperture macros list*
%AMRoundRect*
0 Rectangle with rounded corners*
0 $1 Rounding radius*
0 $2 $3 $4 $5 $6 $7 $8 $9 X,Y pos of 4 corners*
0 Add a 4 corners polygon primitive as box body*
4,1,4,$2,$3,$4,$5,$6,$7,$8,$9,$2,$3,0*
0 Add four circle primitives for the rounded corners*
1,1,$1+$1,$2,$3*
1,1,$1+$1,$4,$5*
1,1,$1+$1,$6,$7*
1,1,$1+$1,$8,$9*
0 Add four rect primitives between the rounded corners*
20,1,$1+$1,$2,$3,$4,$5,0*
20,1,$1+$1,$4,$5,$6,$7,0*
20,1,$1+$1,$6,$7,$8,$9,0*
20,1,$1+$1,$8,$9,$2,$3,0*%
G04 Aperture macros list end*
%ADD10RoundRect,0.250000X0.450000X-0.262500X0.450000X0.262500X-0.450000X0.262500X-0.450000X-0.262500X0*%
%ADD11RoundRect,0.250000X0.475000X-0.250000X0.475000X0.250000X-0.475000X0.250000X-0.475000X-0.250000X0*%
%ADD12RoundRect,0.150000X0.150000X-0.587500X0.150000X0.587500X-0.150000X0.587500X-0.150000X-0.587500X0*%
%ADD13RoundRect,0.056250X0.168750X-0.188750X0.168750X0.188750X-0.168750X0.188750X-0.168750X-0.188750X0*%
%ADD14R,1.500000X0.900000*%
%ADD15R,0.700000X0.700000*%
%ADD16RoundRect,0.250000X-0.450000X0.262500X-0.450000X-0.262500X0.450000X-0.262500X0.450000X0.262500X0*%
%ADD17R,1.400000X1.000000*%
%ADD18RoundRect,0.250000X0.262500X0.450000X-0.262500X0.450000X-0.262500X-0.450000X0.262500X-0.450000X0*%
%ADD19RoundRect,0.250000X-0.250000X-0.475000X0.250000X-0.475000X0.250000X0.475000X-0.250000X0.475000X0*%
%ADD20RoundRect,0.250000X0.250000X0.475000X-0.250000X0.475000X-0.250000X-0.475000X0.250000X-0.475000X0*%
%ADD21R,1.800000X1.230000*%
%ADD22O,1.600000X0.600000*%
%ADD23RoundRect,0.250000X0.255000X0.255000X-0.255000X0.255000X-0.255000X-0.255000X0.255000X-0.255000X0*%
%ADD24RoundRect,0.062500X0.350000X0.062500X-0.350000X0.062500X-0.350000X-0.062500X0.350000X-0.062500X0*%
%ADD25RoundRect,0.062500X0.062500X0.350000X-0.062500X0.350000X-0.062500X-0.350000X0.062500X-0.350000X0*%
%ADD26R,0.300000X1.200000*%
%ADD27R,0.200000X1.000000*%
%ADD28RoundRect,0.250000X-0.262500X-0.450000X0.262500X-0.450000X0.262500X0.450000X-0.262500X0.450000X0*%
%ADD29R,0.550000X0.570000*%
%ADD30R,0.950000X2.150000*%
%ADD31R,3.250000X2.150000*%
%ADD32R,1.100000X0.800000*%
%ADD33R,1.100000X1.000000*%
%ADD34RoundRect,0.150000X-0.150000X0.512500X-0.150000X-0.512500X0.150000X-0.512500X0.150000X0.512500X0*%
%ADD35RoundRect,0.250000X-0.475000X0.250000X-0.475000X-0.250000X0.475000X-0.250000X0.475000X0.250000X0*%
%ADD36R,1.230000X1.800000*%
%ADD37RoundRect,0.100000X0.100000X-0.495000X0.100000X0.495000X-0.100000X0.495000X-0.100000X-0.495000X0*%
%ADD38R,0.910000X2.810000*%
%ADD39R,1.000000X1.500000*%
%ADD40R,0.700000X1.500000*%
%ADD41R,1.500000X2.800000*%
%ADD42R,1.000000X5.500000*%
%ADD43R,1.600000X3.000000*%
%ADD44R,1.000000X1.400000*%
%ADD45R,0.540000X0.540000*%
%ADD46R,0.300000X0.300000*%
%ADD47R,0.300000X0.900000*%
%ADD48R,0.900000X0.300000*%
G04 APERTURE END LIST*
D10*
%TO.C,R25*%
X192750000Y-64512500D03*
X192750000Y-62687500D03*
%TD*%
D11*
%TO.C,C14*%
X189150000Y-83315000D03*
X189150000Y-81415000D03*
%TD*%
D12*
%TO.C,Q3*%
X194800000Y-103437500D03*
X196700000Y-103437500D03*
X195750000Y-101562500D03*
%TD*%
D13*
%TO.C,U2*%
X186025000Y-62675000D03*
X186675000Y-62675000D03*
X187325000Y-62675000D03*
X187975000Y-62675000D03*
X187975000Y-64615000D03*
X187325000Y-64615000D03*
X186675000Y-64615000D03*
X186025000Y-64615000D03*
%TD*%
D14*
%TO.C,U3*%
X212500000Y-67000000D03*
X212500000Y-68500000D03*
X212500000Y-70000000D03*
X212500000Y-71500000D03*
X212500000Y-73000000D03*
X212500000Y-74500000D03*
X212500000Y-76000000D03*
X212500000Y-77500000D03*
X212500000Y-79000000D03*
X230000000Y-79000000D03*
X230000000Y-77500000D03*
X230000000Y-76000000D03*
X230000000Y-74500000D03*
X230000000Y-73000000D03*
X230000000Y-71500000D03*
X230000000Y-70000000D03*
X230000000Y-68500000D03*
X230000000Y-67000000D03*
D15*
X221110000Y-72100000D03*
X222210000Y-72100000D03*
X223310000Y-72100000D03*
X221110000Y-73200000D03*
X222210000Y-73200000D03*
X223310000Y-73200000D03*
X221110000Y-74300000D03*
X222210000Y-74300000D03*
X223310000Y-74300000D03*
%TD*%
D16*
%TO.C,R14*%
X171750000Y-92250000D03*
X171750000Y-94075000D03*
%TD*%
D17*
%TO.C,LED1*%
X147000000Y-98400000D03*
X147000000Y-96600000D03*
%TD*%
D18*
%TO.C,R29*%
X172325000Y-72750000D03*
X170500000Y-72750000D03*
%TD*%
D10*
%TO.C,R32*%
X186000000Y-108912500D03*
X186000000Y-107087500D03*
%TD*%
D18*
%TO.C,R27*%
X172325000Y-75000000D03*
X170500000Y-75000000D03*
%TD*%
D19*
%TO.C,C6*%
X160537500Y-112750000D03*
X162437500Y-112750000D03*
%TD*%
D11*
%TO.C,C8*%
X209750000Y-68950000D03*
X209750000Y-67050000D03*
%TD*%
D20*
%TO.C,C21*%
X196700000Y-108750000D03*
X194800000Y-108750000D03*
%TD*%
D16*
%TO.C,R8*%
X150500000Y-100925000D03*
X150500000Y-102750000D03*
%TD*%
D10*
%TO.C,R3*%
X170500000Y-111912500D03*
X170500000Y-110087500D03*
%TD*%
D21*
%TO.C,C3*%
X160810000Y-88250000D03*
X158190000Y-88250000D03*
%TD*%
D11*
%TO.C,C11*%
X189300000Y-92250000D03*
X189300000Y-90350000D03*
%TD*%
D19*
%TO.C,C15*%
X186050000Y-66645000D03*
X187950000Y-66645000D03*
%TD*%
D22*
%TO.C,U6*%
X191800000Y-79210000D03*
X191800000Y-80480000D03*
X191800000Y-81750000D03*
X191800000Y-83020000D03*
X199000000Y-83020000D03*
X199000000Y-81750000D03*
X199000000Y-80480000D03*
X199000000Y-79210000D03*
%TD*%
D19*
%TO.C,C17*%
X163462500Y-73750000D03*
X165362500Y-73750000D03*
%TD*%
D11*
%TO.C,C20*%
X182162500Y-72092500D03*
X182162500Y-70192500D03*
%TD*%
D20*
%TO.C,C2*%
X160450000Y-91750000D03*
X158550000Y-91750000D03*
%TD*%
D16*
%TO.C,R15*%
X208750000Y-74587500D03*
X208750000Y-76412500D03*
%TD*%
%TO.C,R5*%
X157500000Y-101000000D03*
X157500000Y-102825000D03*
%TD*%
D18*
%TO.C,R23*%
X181912500Y-79000000D03*
X180087500Y-79000000D03*
%TD*%
D11*
%TO.C,C1*%
X180750000Y-99800000D03*
X180750000Y-97900000D03*
%TD*%
D16*
%TO.C,R18*%
X168000000Y-92250000D03*
X168000000Y-94075000D03*
%TD*%
%TO.C,R11*%
X178500000Y-86675000D03*
X178500000Y-88500000D03*
%TD*%
D10*
%TO.C,R4*%
X170500000Y-107825000D03*
X170500000Y-106000000D03*
%TD*%
D23*
%TO.C,U1*%
X162125000Y-108837500D03*
X162125000Y-107587500D03*
X160875000Y-108837500D03*
X160875000Y-107587500D03*
D24*
X163437500Y-109212500D03*
X163437500Y-108712500D03*
X163437500Y-108212500D03*
X163437500Y-107712500D03*
X163437500Y-107212500D03*
D25*
X162500000Y-106275000D03*
X162000000Y-106275000D03*
X161500000Y-106275000D03*
X161000000Y-106275000D03*
X160500000Y-106275000D03*
D24*
X159562500Y-107212500D03*
X159562500Y-107712500D03*
X159562500Y-108212500D03*
X159562500Y-108712500D03*
X159562500Y-109212500D03*
D25*
X160500000Y-110150000D03*
X161000000Y-110150000D03*
X161500000Y-110150000D03*
X162000000Y-110150000D03*
X162500000Y-110150000D03*
%TD*%
D19*
%TO.C,C18*%
X175212500Y-74750000D03*
X177112500Y-74750000D03*
%TD*%
D10*
%TO.C,R2*%
X164250000Y-102825000D03*
X164250000Y-101000000D03*
%TD*%
D18*
%TO.C,R16*%
X199912500Y-85500000D03*
X198087500Y-85500000D03*
%TD*%
D20*
%TO.C,C13*%
X217950000Y-85320000D03*
X216050000Y-85320000D03*
%TD*%
D26*
%TO.C,J1*%
X174500000Y-102620000D03*
X175000000Y-102620000D03*
X175500000Y-102620000D03*
X176000000Y-102620000D03*
X176500000Y-102620000D03*
X177000000Y-102620000D03*
X177500000Y-102620000D03*
X178000000Y-102620000D03*
X178500000Y-102620000D03*
X179000000Y-102620000D03*
X179500000Y-102620000D03*
X180000000Y-102620000D03*
D27*
X177250000Y-107200000D03*
X177250000Y-110300000D03*
%TD*%
D28*
%TO.C,R12*%
X189087500Y-97300000D03*
X190912500Y-97300000D03*
%TD*%
D29*
%TO.C,S2*%
X188475000Y-112007500D03*
X191025000Y-112007500D03*
X188475000Y-113167500D03*
X191025000Y-113167500D03*
%TD*%
D10*
%TO.C,R31*%
X179912500Y-72075000D03*
X179912500Y-70250000D03*
%TD*%
D30*
%TO.C,VR1*%
X157200000Y-84550000D03*
X159500000Y-84550000D03*
X161800000Y-84550000D03*
D31*
X159500000Y-78750000D03*
%TD*%
D18*
%TO.C,R33*%
X190662500Y-106250000D03*
X188837500Y-106250000D03*
%TD*%
D32*
%TO.C,Q1*%
X179245000Y-81450000D03*
X179245000Y-82550000D03*
D33*
X182755000Y-82000000D03*
%TD*%
D34*
%TO.C,U5*%
X178200000Y-97362500D03*
X177250000Y-97362500D03*
X176300000Y-97362500D03*
X176300000Y-99637500D03*
X177250000Y-99637500D03*
X178200000Y-99637500D03*
%TD*%
D35*
%TO.C,C10*%
X181250000Y-91550000D03*
X181250000Y-93450000D03*
%TD*%
D18*
%TO.C,R28*%
X165325000Y-71500000D03*
X163500000Y-71500000D03*
%TD*%
D28*
%TO.C,R34*%
X194837500Y-106250000D03*
X196662500Y-106250000D03*
%TD*%
D18*
%TO.C,R26*%
X177075000Y-67750000D03*
X175250000Y-67750000D03*
%TD*%
D12*
%TO.C,Q2*%
X188800000Y-103437500D03*
X190700000Y-103437500D03*
X189750000Y-101562500D03*
%TD*%
D20*
%TO.C,C16*%
X165362500Y-69250000D03*
X163462500Y-69250000D03*
%TD*%
D28*
%TO.C,R10*%
X152500000Y-78450000D03*
X154325000Y-78450000D03*
%TD*%
D36*
%TO.C,C9*%
X185750000Y-91240000D03*
X185750000Y-93860000D03*
%TD*%
D16*
%TO.C,R7*%
X154000000Y-100925000D03*
X154000000Y-102750000D03*
%TD*%
D17*
%TO.C,LED6*%
X168000000Y-89462500D03*
X168000000Y-87662500D03*
%TD*%
D10*
%TO.C,R19*%
X223250000Y-85162500D03*
X223250000Y-83337500D03*
%TD*%
D19*
%TO.C,C19*%
X170462500Y-68250000D03*
X172362500Y-68250000D03*
%TD*%
D10*
%TO.C,R1*%
X162000000Y-102825000D03*
X162000000Y-101000000D03*
%TD*%
D16*
%TO.C,R9*%
X147000000Y-100925000D03*
X147000000Y-102750000D03*
%TD*%
D29*
%TO.C,S1*%
X194475000Y-112007500D03*
X197025000Y-112007500D03*
X194475000Y-113167500D03*
X197025000Y-113167500D03*
%TD*%
D21*
%TO.C,C12*%
X213250000Y-84500000D03*
X210630000Y-84500000D03*
%TD*%
D16*
%TO.C,R6*%
X159750000Y-101000000D03*
X159750000Y-102825000D03*
%TD*%
D17*
%TO.C,LED3*%
X154000000Y-98400000D03*
X154000000Y-96600000D03*
%TD*%
%TO.C,LED5*%
X171750000Y-89462500D03*
X171750000Y-87662500D03*
%TD*%
D37*
%TO.C,U7*%
X175512500Y-72210000D03*
X176162500Y-72210000D03*
X176812500Y-72210000D03*
X176812500Y-70290000D03*
X175512500Y-70290000D03*
%TD*%
D38*
%TO.C,F1*%
X172870000Y-98250000D03*
X169630000Y-98250000D03*
%TD*%
D36*
%TO.C,C7*%
X205500000Y-68000000D03*
X205500000Y-70620000D03*
%TD*%
D10*
%TO.C,R24*%
X190500000Y-64512500D03*
X190500000Y-62687500D03*
%TD*%
D39*
%TO.C,J3*%
X223175000Y-87700000D03*
X220675000Y-87700000D03*
X218175000Y-87700000D03*
X215675000Y-87700000D03*
X213175000Y-87700000D03*
X210675000Y-87700000D03*
X208250000Y-87700000D03*
X206550000Y-87700000D03*
X225675000Y-87700000D03*
D40*
X205250000Y-87700000D03*
D41*
X202650000Y-89500000D03*
X227750000Y-89500000D03*
X229950000Y-111000000D03*
X202650000Y-111000000D03*
D40*
X204050000Y-87700000D03*
%TD*%
D42*
%TO.C,J2*%
X149500000Y-110837500D03*
X151500000Y-110837500D03*
D43*
X147100000Y-108587500D03*
X153900000Y-108587500D03*
%TD*%
D16*
%TO.C,R20*%
X205750000Y-74587500D03*
X205750000Y-76412500D03*
%TD*%
D18*
%TO.C,R30*%
X172325000Y-70500000D03*
X170500000Y-70500000D03*
%TD*%
%TO.C,R22*%
X196312500Y-85500000D03*
X194487500Y-85500000D03*
%TD*%
%TO.C,R13*%
X190912500Y-94550000D03*
X189087500Y-94550000D03*
%TD*%
D17*
%TO.C,LED2*%
X150500000Y-98400000D03*
X150500000Y-96600000D03*
%TD*%
D36*
%TO.C,C4*%
X153250000Y-81690000D03*
X153250000Y-84310000D03*
%TD*%
D20*
%TO.C,C22*%
X190700000Y-108750000D03*
X188800000Y-108750000D03*
%TD*%
D44*
%TO.C,LED4*%
X150162500Y-78250000D03*
X148362500Y-78250000D03*
%TD*%
D35*
%TO.C,C5*%
X149250000Y-80800000D03*
X149250000Y-82700000D03*
%TD*%
D45*
%TO.C,U4*%
X176300000Y-92950000D03*
X177200000Y-92950000D03*
X176300000Y-92050000D03*
X177200000Y-92050000D03*
D46*
X175500000Y-93750000D03*
D47*
X176000000Y-94050000D03*
X176500000Y-94050000D03*
X177000000Y-94050000D03*
X177500000Y-94050000D03*
D46*
X178000000Y-93750000D03*
D48*
X178300000Y-93250000D03*
X178300000Y-92750000D03*
X178300000Y-92250000D03*
X178300000Y-91750000D03*
D46*
X178000000Y-91250000D03*
D47*
X177500000Y-90950000D03*
X177000000Y-90950000D03*
X176500000Y-90950000D03*
X176000000Y-90950000D03*
D46*
X175500000Y-91250000D03*
D48*
X175200000Y-91750000D03*
X175200000Y-92250000D03*
X175200000Y-92750000D03*
X175200000Y-93250000D03*
%TD*%
M02*
