%TF.GenerationSoftware,KiCad,Pcbnew,9.0.7*%
%TF.CreationDate,2026-09-13T11:20:47+05:30*%
%TF.ProjectId,KiCad 9 Esp32 Project,4b694361-6420-4392-9045-737033322050,rev?*%
%TF.SameCoordinates,Original*%
%TF.FileFunction,Legend,Top*%
%TF.FilePolarity,Positive*%
%FSLAX46Y46*%
G04 Gerber Fmt 4.6, Leading zero omitted, Abs format (unit mm)*
G04 Created by KiCad (PCBNEW 9.0.7) date 2026-09-13 11:20:47*
%MOMM*%
%LPD*%
G01*
G04 APERTURE LIST*
G04 Aperture macros list*
%AMRoundRect*
0 Rectangle with rounded corners*
0 $1 Rounding radius*
0 $2 $3 $4 $5 $6 $7 $8 $9 X,Y pos of 4 corners*
0 Add a 4 corners polygon primitive as box body*
4,1,4,$2,$3,$4,$5,$6,$7,$8,$9,$2,$3,0*
0 Add four circle primitives for the rounded corners*
1,1,$1+$1,$2,$3*
1,1,$1+$1,$4,$5*
1,1,$1+$1,$6,$7*
1,1,$1+$1,$8,$9*
0 Add four rect primitives between the rounded corners*
20,1,$1+$1,$2,$3,$4,$5,0*
20,1,$1+$1,$4,$5,$6,$7,0*
20,1,$1+$1,$6,$7,$8,$9,0*
20,1,$1+$1,$8,$9,$2,$3,0*%
G04 Aperture macros list end*
%ADD10C,0.125000*%
%ADD11C,0.150000*%
%ADD12C,0.120000*%
%ADD13C,0.127000*%
%ADD14C,0.200000*%
%ADD15C,0.203200*%
%ADD16C,0.152400*%
%ADD17RoundRect,0.250000X0.450000X-0.262500X0.450000X0.262500X-0.450000X0.262500X-0.450000X-0.262500X0*%
%ADD18RoundRect,0.250000X0.475000X-0.250000X0.475000X0.250000X-0.475000X0.250000X-0.475000X-0.250000X0*%
%ADD19RoundRect,0.150000X0.150000X-0.587500X0.150000X0.587500X-0.150000X0.587500X-0.150000X-0.587500X0*%
%ADD20RoundRect,0.081750X0.245250X-0.265250X0.245250X0.265250X-0.245250X0.265250X-0.245250X-0.265250X0*%
%ADD21RoundRect,0.102000X-0.750000X-0.450000X0.750000X-0.450000X0.750000X0.450000X-0.750000X0.450000X0*%
%ADD22RoundRect,0.102000X-0.350000X-0.350000X0.350000X-0.350000X0.350000X0.350000X-0.350000X0.350000X0*%
%ADD23RoundRect,0.250000X-0.450000X0.262500X-0.450000X-0.262500X0.450000X-0.262500X0.450000X0.262500X0*%
%ADD24R,1.400000X1.000000*%
%ADD25RoundRect,0.250000X0.262500X0.450000X-0.262500X0.450000X-0.262500X-0.450000X0.262500X-0.450000X0*%
%ADD26RoundRect,0.250000X-0.250000X-0.475000X0.250000X-0.475000X0.250000X0.475000X-0.250000X0.475000X0*%
%ADD27RoundRect,0.250000X0.250000X0.475000X-0.250000X0.475000X-0.250000X-0.475000X0.250000X-0.475000X0*%
%ADD28R,1.800000X1.230000*%
%ADD29C,1.000000*%
%ADD30O,1.804000X0.804000*%
%ADD31C,1.412000*%
%ADD32C,2.500000*%
%ADD33R,1.700000X1.700000*%
%ADD34C,1.700000*%
%ADD35RoundRect,0.062500X0.350000X0.062500X-0.350000X0.062500X-0.350000X-0.062500X0.350000X-0.062500X0*%
%ADD36RoundRect,0.062500X0.062500X0.350000X-0.062500X0.350000X-0.062500X-0.350000X0.062500X-0.350000X0*%
%ADD37R,2.500000X2.500000*%
%ADD38RoundRect,0.102000X-0.150000X-0.600000X0.150000X-0.600000X0.150000X0.600000X-0.150000X0.600000X0*%
%ADD39C,0.854000*%
%ADD40RoundRect,0.102000X-0.100000X-0.500000X0.100000X-0.500000X0.100000X0.500000X-0.100000X0.500000X0*%
%ADD41O,1.254000X2.304000*%
%ADD42RoundRect,0.250000X-0.262500X-0.450000X0.262500X-0.450000X0.262500X0.450000X-0.262500X0.450000X0*%
%ADD43RoundRect,0.102000X-0.275000X-0.285000X0.275000X-0.285000X0.275000X0.285000X-0.275000X0.285000X0*%
%ADD44RoundRect,0.102000X0.475000X-1.075000X0.475000X1.075000X-0.475000X1.075000X-0.475000X-1.075000X0*%
%ADD45RoundRect,0.102000X1.625000X-1.075000X1.625000X1.075000X-1.625000X1.075000X-1.625000X-1.075000X0*%
%ADD46RoundRect,0.102000X-0.550000X-0.400000X0.550000X-0.400000X0.550000X0.400000X-0.550000X0.400000X0*%
%ADD47RoundRect,0.102000X-0.550000X-0.500000X0.550000X-0.500000X0.550000X0.500000X-0.550000X0.500000X0*%
%ADD48RoundRect,0.150000X-0.150000X0.512500X-0.150000X-0.512500X0.150000X-0.512500X0.150000X0.512500X0*%
%ADD49RoundRect,0.250000X-0.475000X0.250000X-0.475000X-0.250000X0.475000X-0.250000X0.475000X0.250000X0*%
%ADD50R,1.230000X1.800000*%
%ADD51RoundRect,0.151000X0.151000X-0.546000X0.151000X0.546000X-0.151000X0.546000X-0.151000X-0.546000X0*%
%ADD52R,0.910000X2.810000*%
%ADD53C,1.150000*%
%ADD54C,1.650000*%
%ADD55RoundRect,0.102000X-0.500000X-0.750000X0.500000X-0.750000X0.500000X0.750000X-0.500000X0.750000X0*%
%ADD56RoundRect,0.102000X-0.350000X-0.750000X0.350000X-0.750000X0.350000X0.750000X-0.350000X0.750000X0*%
%ADD57RoundRect,0.102000X-0.750000X-1.400000X0.750000X-1.400000X0.750000X1.400000X-0.750000X1.400000X0*%
%ADD58RoundRect,0.102000X-0.500000X-2.750000X0.500000X-2.750000X0.500000X2.750000X-0.500000X2.750000X0*%
%ADD59RoundRect,0.102000X-0.800000X-1.500000X0.800000X-1.500000X0.800000X1.500000X-0.800000X1.500000X0*%
%ADD60R,1.000000X1.400000*%
%ADD61R,0.300000X0.300000*%
%ADD62R,0.300000X0.900000*%
%ADD63R,0.900000X0.300000*%
%ADD64R,1.800000X1.800000*%
G04 APERTURE END LIST*
D10*
X192185714Y-66263595D02*
X191919047Y-65882642D01*
X191728571Y-66263595D02*
X191728571Y-65463595D01*
X191728571Y-65463595D02*
X192033333Y-65463595D01*
X192033333Y-65463595D02*
X192109523Y-65501690D01*
X192109523Y-65501690D02*
X192147618Y-65539785D01*
X192147618Y-65539785D02*
X192185714Y-65615976D01*
X192185714Y-65615976D02*
X192185714Y-65730261D01*
X192185714Y-65730261D02*
X192147618Y-65806452D01*
X192147618Y-65806452D02*
X192109523Y-65844547D01*
X192109523Y-65844547D02*
X192033333Y-65882642D01*
X192033333Y-65882642D02*
X191728571Y-65882642D01*
X192490475Y-65539785D02*
X192528571Y-65501690D01*
X192528571Y-65501690D02*
X192604761Y-65463595D01*
X192604761Y-65463595D02*
X192795237Y-65463595D01*
X192795237Y-65463595D02*
X192871428Y-65501690D01*
X192871428Y-65501690D02*
X192909523Y-65539785D01*
X192909523Y-65539785D02*
X192947618Y-65615976D01*
X192947618Y-65615976D02*
X192947618Y-65692166D01*
X192947618Y-65692166D02*
X192909523Y-65806452D01*
X192909523Y-65806452D02*
X192452380Y-66263595D01*
X192452380Y-66263595D02*
X192947618Y-66263595D01*
X193671428Y-65463595D02*
X193290476Y-65463595D01*
X193290476Y-65463595D02*
X193252380Y-65844547D01*
X193252380Y-65844547D02*
X193290476Y-65806452D01*
X193290476Y-65806452D02*
X193366666Y-65768357D01*
X193366666Y-65768357D02*
X193557142Y-65768357D01*
X193557142Y-65768357D02*
X193633333Y-65806452D01*
X193633333Y-65806452D02*
X193671428Y-65844547D01*
X193671428Y-65844547D02*
X193709523Y-65920738D01*
X193709523Y-65920738D02*
X193709523Y-66111214D01*
X193709523Y-66111214D02*
X193671428Y-66187404D01*
X193671428Y-66187404D02*
X193633333Y-66225500D01*
X193633333Y-66225500D02*
X193557142Y-66263595D01*
X193557142Y-66263595D02*
X193366666Y-66263595D01*
X193366666Y-66263595D02*
X193290476Y-66225500D01*
X193290476Y-66225500D02*
X193252380Y-66187404D01*
D11*
X187756104Y-82879285D02*
X187794200Y-82917381D01*
X187794200Y-82917381D02*
X187832295Y-83031666D01*
X187832295Y-83031666D02*
X187832295Y-83107857D01*
X187832295Y-83107857D02*
X187794200Y-83222143D01*
X187794200Y-83222143D02*
X187718009Y-83298333D01*
X187718009Y-83298333D02*
X187641819Y-83336428D01*
X187641819Y-83336428D02*
X187489438Y-83374524D01*
X187489438Y-83374524D02*
X187375152Y-83374524D01*
X187375152Y-83374524D02*
X187222771Y-83336428D01*
X187222771Y-83336428D02*
X187146580Y-83298333D01*
X187146580Y-83298333D02*
X187070390Y-83222143D01*
X187070390Y-83222143D02*
X187032295Y-83107857D01*
X187032295Y-83107857D02*
X187032295Y-83031666D01*
X187032295Y-83031666D02*
X187070390Y-82917381D01*
X187070390Y-82917381D02*
X187108485Y-82879285D01*
X187832295Y-82117381D02*
X187832295Y-82574524D01*
X187832295Y-82345952D02*
X187032295Y-82345952D01*
X187032295Y-82345952D02*
X187146580Y-82422143D01*
X187146580Y-82422143D02*
X187222771Y-82498333D01*
X187222771Y-82498333D02*
X187260866Y-82574524D01*
X187298961Y-81431666D02*
X187832295Y-81431666D01*
X186994200Y-81622142D02*
X187565628Y-81812619D01*
X187565628Y-81812619D02*
X187565628Y-81317380D01*
X198223809Y-102938485D02*
X198147619Y-102900390D01*
X198147619Y-102900390D02*
X198071428Y-102824200D01*
X198071428Y-102824200D02*
X197957142Y-102709914D01*
X197957142Y-102709914D02*
X197880952Y-102671819D01*
X197880952Y-102671819D02*
X197804761Y-102671819D01*
X197842857Y-102862295D02*
X197766666Y-102824200D01*
X197766666Y-102824200D02*
X197690476Y-102748009D01*
X197690476Y-102748009D02*
X197652380Y-102595628D01*
X197652380Y-102595628D02*
X197652380Y-102328961D01*
X197652380Y-102328961D02*
X197690476Y-102176580D01*
X197690476Y-102176580D02*
X197766666Y-102100390D01*
X197766666Y-102100390D02*
X197842857Y-102062295D01*
X197842857Y-102062295D02*
X197995238Y-102062295D01*
X197995238Y-102062295D02*
X198071428Y-102100390D01*
X198071428Y-102100390D02*
X198147619Y-102176580D01*
X198147619Y-102176580D02*
X198185714Y-102328961D01*
X198185714Y-102328961D02*
X198185714Y-102595628D01*
X198185714Y-102595628D02*
X198147619Y-102748009D01*
X198147619Y-102748009D02*
X198071428Y-102824200D01*
X198071428Y-102824200D02*
X197995238Y-102862295D01*
X197995238Y-102862295D02*
X197842857Y-102862295D01*
X198452380Y-102062295D02*
X198947618Y-102062295D01*
X198947618Y-102062295D02*
X198680952Y-102367057D01*
X198680952Y-102367057D02*
X198795237Y-102367057D01*
X198795237Y-102367057D02*
X198871428Y-102405152D01*
X198871428Y-102405152D02*
X198909523Y-102443247D01*
X198909523Y-102443247D02*
X198947618Y-102519438D01*
X198947618Y-102519438D02*
X198947618Y-102709914D01*
X198947618Y-102709914D02*
X198909523Y-102786104D01*
X198909523Y-102786104D02*
X198871428Y-102824200D01*
X198871428Y-102824200D02*
X198795237Y-102862295D01*
X198795237Y-102862295D02*
X198566666Y-102862295D01*
X198566666Y-102862295D02*
X198490475Y-102824200D01*
X198490475Y-102824200D02*
X198452380Y-102786104D01*
X184790476Y-60962295D02*
X184790476Y-61609914D01*
X184790476Y-61609914D02*
X184828571Y-61686104D01*
X184828571Y-61686104D02*
X184866666Y-61724200D01*
X184866666Y-61724200D02*
X184942857Y-61762295D01*
X184942857Y-61762295D02*
X185095238Y-61762295D01*
X185095238Y-61762295D02*
X185171428Y-61724200D01*
X185171428Y-61724200D02*
X185209523Y-61686104D01*
X185209523Y-61686104D02*
X185247619Y-61609914D01*
X185247619Y-61609914D02*
X185247619Y-60962295D01*
X185590475Y-61038485D02*
X185628571Y-61000390D01*
X185628571Y-61000390D02*
X185704761Y-60962295D01*
X185704761Y-60962295D02*
X185895237Y-60962295D01*
X185895237Y-60962295D02*
X185971428Y-61000390D01*
X185971428Y-61000390D02*
X186009523Y-61038485D01*
X186009523Y-61038485D02*
X186047618Y-61114676D01*
X186047618Y-61114676D02*
X186047618Y-61190866D01*
X186047618Y-61190866D02*
X186009523Y-61305152D01*
X186009523Y-61305152D02*
X185552380Y-61762295D01*
X185552380Y-61762295D02*
X186047618Y-61762295D01*
X229490476Y-80462295D02*
X229490476Y-81109914D01*
X229490476Y-81109914D02*
X229528571Y-81186104D01*
X229528571Y-81186104D02*
X229566666Y-81224200D01*
X229566666Y-81224200D02*
X229642857Y-81262295D01*
X229642857Y-81262295D02*
X229795238Y-81262295D01*
X229795238Y-81262295D02*
X229871428Y-81224200D01*
X229871428Y-81224200D02*
X229909523Y-81186104D01*
X229909523Y-81186104D02*
X229947619Y-81109914D01*
X229947619Y-81109914D02*
X229947619Y-80462295D01*
X230252380Y-80462295D02*
X230747618Y-80462295D01*
X230747618Y-80462295D02*
X230480952Y-80767057D01*
X230480952Y-80767057D02*
X230595237Y-80767057D01*
X230595237Y-80767057D02*
X230671428Y-80805152D01*
X230671428Y-80805152D02*
X230709523Y-80843247D01*
X230709523Y-80843247D02*
X230747618Y-80919438D01*
X230747618Y-80919438D02*
X230747618Y-81109914D01*
X230747618Y-81109914D02*
X230709523Y-81186104D01*
X230709523Y-81186104D02*
X230671428Y-81224200D01*
X230671428Y-81224200D02*
X230595237Y-81262295D01*
X230595237Y-81262295D02*
X230366666Y-81262295D01*
X230366666Y-81262295D02*
X230290475Y-81224200D01*
X230290475Y-81224200D02*
X230252380Y-81186104D01*
X170412295Y-93676785D02*
X170031342Y-93943452D01*
X170412295Y-94133928D02*
X169612295Y-94133928D01*
X169612295Y-94133928D02*
X169612295Y-93829166D01*
X169612295Y-93829166D02*
X169650390Y-93752976D01*
X169650390Y-93752976D02*
X169688485Y-93714881D01*
X169688485Y-93714881D02*
X169764676Y-93676785D01*
X169764676Y-93676785D02*
X169878961Y-93676785D01*
X169878961Y-93676785D02*
X169955152Y-93714881D01*
X169955152Y-93714881D02*
X169993247Y-93752976D01*
X169993247Y-93752976D02*
X170031342Y-93829166D01*
X170031342Y-93829166D02*
X170031342Y-94133928D01*
X170412295Y-92914881D02*
X170412295Y-93372024D01*
X170412295Y-93143452D02*
X169612295Y-93143452D01*
X169612295Y-93143452D02*
X169726580Y-93219643D01*
X169726580Y-93219643D02*
X169802771Y-93295833D01*
X169802771Y-93295833D02*
X169840866Y-93372024D01*
X169878961Y-92229166D02*
X170412295Y-92229166D01*
X169574200Y-92419642D02*
X170145628Y-92610119D01*
X170145628Y-92610119D02*
X170145628Y-92114880D01*
D10*
X146104761Y-95063595D02*
X145723809Y-95063595D01*
X145723809Y-95063595D02*
X145723809Y-94263595D01*
X146371428Y-94644547D02*
X146638094Y-94644547D01*
X146752380Y-95063595D02*
X146371428Y-95063595D01*
X146371428Y-95063595D02*
X146371428Y-94263595D01*
X146371428Y-94263595D02*
X146752380Y-94263595D01*
X147095238Y-95063595D02*
X147095238Y-94263595D01*
X147095238Y-94263595D02*
X147285714Y-94263595D01*
X147285714Y-94263595D02*
X147400000Y-94301690D01*
X147400000Y-94301690D02*
X147476190Y-94377880D01*
X147476190Y-94377880D02*
X147514285Y-94454071D01*
X147514285Y-94454071D02*
X147552381Y-94606452D01*
X147552381Y-94606452D02*
X147552381Y-94720738D01*
X147552381Y-94720738D02*
X147514285Y-94873119D01*
X147514285Y-94873119D02*
X147476190Y-94949309D01*
X147476190Y-94949309D02*
X147400000Y-95025500D01*
X147400000Y-95025500D02*
X147285714Y-95063595D01*
X147285714Y-95063595D02*
X147095238Y-95063595D01*
X148314285Y-95063595D02*
X147857142Y-95063595D01*
X148085714Y-95063595D02*
X148085714Y-94263595D01*
X148085714Y-94263595D02*
X148009523Y-94377880D01*
X148009523Y-94377880D02*
X147933333Y-94454071D01*
X147933333Y-94454071D02*
X147857142Y-94492166D01*
D11*
X167748214Y-73012295D02*
X167481547Y-72631342D01*
X167291071Y-73012295D02*
X167291071Y-72212295D01*
X167291071Y-72212295D02*
X167595833Y-72212295D01*
X167595833Y-72212295D02*
X167672023Y-72250390D01*
X167672023Y-72250390D02*
X167710118Y-72288485D01*
X167710118Y-72288485D02*
X167748214Y-72364676D01*
X167748214Y-72364676D02*
X167748214Y-72478961D01*
X167748214Y-72478961D02*
X167710118Y-72555152D01*
X167710118Y-72555152D02*
X167672023Y-72593247D01*
X167672023Y-72593247D02*
X167595833Y-72631342D01*
X167595833Y-72631342D02*
X167291071Y-72631342D01*
X168052975Y-72288485D02*
X168091071Y-72250390D01*
X168091071Y-72250390D02*
X168167261Y-72212295D01*
X168167261Y-72212295D02*
X168357737Y-72212295D01*
X168357737Y-72212295D02*
X168433928Y-72250390D01*
X168433928Y-72250390D02*
X168472023Y-72288485D01*
X168472023Y-72288485D02*
X168510118Y-72364676D01*
X168510118Y-72364676D02*
X168510118Y-72440866D01*
X168510118Y-72440866D02*
X168472023Y-72555152D01*
X168472023Y-72555152D02*
X168014880Y-73012295D01*
X168014880Y-73012295D02*
X168510118Y-73012295D01*
X168891071Y-73012295D02*
X169043452Y-73012295D01*
X169043452Y-73012295D02*
X169119642Y-72974200D01*
X169119642Y-72974200D02*
X169157738Y-72936104D01*
X169157738Y-72936104D02*
X169233928Y-72821819D01*
X169233928Y-72821819D02*
X169272023Y-72669438D01*
X169272023Y-72669438D02*
X169272023Y-72364676D01*
X169272023Y-72364676D02*
X169233928Y-72288485D01*
X169233928Y-72288485D02*
X169195833Y-72250390D01*
X169195833Y-72250390D02*
X169119642Y-72212295D01*
X169119642Y-72212295D02*
X168967261Y-72212295D01*
X168967261Y-72212295D02*
X168891071Y-72250390D01*
X168891071Y-72250390D02*
X168852976Y-72288485D01*
X168852976Y-72288485D02*
X168814880Y-72364676D01*
X168814880Y-72364676D02*
X168814880Y-72555152D01*
X168814880Y-72555152D02*
X168852976Y-72631342D01*
X168852976Y-72631342D02*
X168891071Y-72669438D01*
X168891071Y-72669438D02*
X168967261Y-72707533D01*
X168967261Y-72707533D02*
X169119642Y-72707533D01*
X169119642Y-72707533D02*
X169195833Y-72669438D01*
X169195833Y-72669438D02*
X169233928Y-72631342D01*
X169233928Y-72631342D02*
X169272023Y-72555152D01*
X184462295Y-108514285D02*
X184081342Y-108780952D01*
X184462295Y-108971428D02*
X183662295Y-108971428D01*
X183662295Y-108971428D02*
X183662295Y-108666666D01*
X183662295Y-108666666D02*
X183700390Y-108590476D01*
X183700390Y-108590476D02*
X183738485Y-108552381D01*
X183738485Y-108552381D02*
X183814676Y-108514285D01*
X183814676Y-108514285D02*
X183928961Y-108514285D01*
X183928961Y-108514285D02*
X184005152Y-108552381D01*
X184005152Y-108552381D02*
X184043247Y-108590476D01*
X184043247Y-108590476D02*
X184081342Y-108666666D01*
X184081342Y-108666666D02*
X184081342Y-108971428D01*
X183662295Y-108247619D02*
X183662295Y-107752381D01*
X183662295Y-107752381D02*
X183967057Y-108019047D01*
X183967057Y-108019047D02*
X183967057Y-107904762D01*
X183967057Y-107904762D02*
X184005152Y-107828571D01*
X184005152Y-107828571D02*
X184043247Y-107790476D01*
X184043247Y-107790476D02*
X184119438Y-107752381D01*
X184119438Y-107752381D02*
X184309914Y-107752381D01*
X184309914Y-107752381D02*
X184386104Y-107790476D01*
X184386104Y-107790476D02*
X184424200Y-107828571D01*
X184424200Y-107828571D02*
X184462295Y-107904762D01*
X184462295Y-107904762D02*
X184462295Y-108133333D01*
X184462295Y-108133333D02*
X184424200Y-108209524D01*
X184424200Y-108209524D02*
X184386104Y-108247619D01*
X183738485Y-107447619D02*
X183700390Y-107409523D01*
X183700390Y-107409523D02*
X183662295Y-107333333D01*
X183662295Y-107333333D02*
X183662295Y-107142857D01*
X183662295Y-107142857D02*
X183700390Y-107066666D01*
X183700390Y-107066666D02*
X183738485Y-107028571D01*
X183738485Y-107028571D02*
X183814676Y-106990476D01*
X183814676Y-106990476D02*
X183890866Y-106990476D01*
X183890866Y-106990476D02*
X184005152Y-107028571D01*
X184005152Y-107028571D02*
X184462295Y-107485714D01*
X184462295Y-107485714D02*
X184462295Y-106990476D01*
X170898214Y-77012295D02*
X170631547Y-76631342D01*
X170441071Y-77012295D02*
X170441071Y-76212295D01*
X170441071Y-76212295D02*
X170745833Y-76212295D01*
X170745833Y-76212295D02*
X170822023Y-76250390D01*
X170822023Y-76250390D02*
X170860118Y-76288485D01*
X170860118Y-76288485D02*
X170898214Y-76364676D01*
X170898214Y-76364676D02*
X170898214Y-76478961D01*
X170898214Y-76478961D02*
X170860118Y-76555152D01*
X170860118Y-76555152D02*
X170822023Y-76593247D01*
X170822023Y-76593247D02*
X170745833Y-76631342D01*
X170745833Y-76631342D02*
X170441071Y-76631342D01*
X171202975Y-76288485D02*
X171241071Y-76250390D01*
X171241071Y-76250390D02*
X171317261Y-76212295D01*
X171317261Y-76212295D02*
X171507737Y-76212295D01*
X171507737Y-76212295D02*
X171583928Y-76250390D01*
X171583928Y-76250390D02*
X171622023Y-76288485D01*
X171622023Y-76288485D02*
X171660118Y-76364676D01*
X171660118Y-76364676D02*
X171660118Y-76440866D01*
X171660118Y-76440866D02*
X171622023Y-76555152D01*
X171622023Y-76555152D02*
X171164880Y-77012295D01*
X171164880Y-77012295D02*
X171660118Y-77012295D01*
X171926785Y-76212295D02*
X172460119Y-76212295D01*
X172460119Y-76212295D02*
X172117261Y-77012295D01*
X164104167Y-113086104D02*
X164066071Y-113124200D01*
X164066071Y-113124200D02*
X163951786Y-113162295D01*
X163951786Y-113162295D02*
X163875595Y-113162295D01*
X163875595Y-113162295D02*
X163761309Y-113124200D01*
X163761309Y-113124200D02*
X163685119Y-113048009D01*
X163685119Y-113048009D02*
X163647024Y-112971819D01*
X163647024Y-112971819D02*
X163608928Y-112819438D01*
X163608928Y-112819438D02*
X163608928Y-112705152D01*
X163608928Y-112705152D02*
X163647024Y-112552771D01*
X163647024Y-112552771D02*
X163685119Y-112476580D01*
X163685119Y-112476580D02*
X163761309Y-112400390D01*
X163761309Y-112400390D02*
X163875595Y-112362295D01*
X163875595Y-112362295D02*
X163951786Y-112362295D01*
X163951786Y-112362295D02*
X164066071Y-112400390D01*
X164066071Y-112400390D02*
X164104167Y-112438485D01*
X164789881Y-112362295D02*
X164637500Y-112362295D01*
X164637500Y-112362295D02*
X164561309Y-112400390D01*
X164561309Y-112400390D02*
X164523214Y-112438485D01*
X164523214Y-112438485D02*
X164447024Y-112552771D01*
X164447024Y-112552771D02*
X164408928Y-112705152D01*
X164408928Y-112705152D02*
X164408928Y-113009914D01*
X164408928Y-113009914D02*
X164447024Y-113086104D01*
X164447024Y-113086104D02*
X164485119Y-113124200D01*
X164485119Y-113124200D02*
X164561309Y-113162295D01*
X164561309Y-113162295D02*
X164713690Y-113162295D01*
X164713690Y-113162295D02*
X164789881Y-113124200D01*
X164789881Y-113124200D02*
X164827976Y-113086104D01*
X164827976Y-113086104D02*
X164866071Y-113009914D01*
X164866071Y-113009914D02*
X164866071Y-112819438D01*
X164866071Y-112819438D02*
X164827976Y-112743247D01*
X164827976Y-112743247D02*
X164789881Y-112705152D01*
X164789881Y-112705152D02*
X164713690Y-112667057D01*
X164713690Y-112667057D02*
X164561309Y-112667057D01*
X164561309Y-112667057D02*
X164485119Y-112705152D01*
X164485119Y-112705152D02*
X164447024Y-112743247D01*
X164447024Y-112743247D02*
X164408928Y-112819438D01*
X209666667Y-70786104D02*
X209628571Y-70824200D01*
X209628571Y-70824200D02*
X209514286Y-70862295D01*
X209514286Y-70862295D02*
X209438095Y-70862295D01*
X209438095Y-70862295D02*
X209323809Y-70824200D01*
X209323809Y-70824200D02*
X209247619Y-70748009D01*
X209247619Y-70748009D02*
X209209524Y-70671819D01*
X209209524Y-70671819D02*
X209171428Y-70519438D01*
X209171428Y-70519438D02*
X209171428Y-70405152D01*
X209171428Y-70405152D02*
X209209524Y-70252771D01*
X209209524Y-70252771D02*
X209247619Y-70176580D01*
X209247619Y-70176580D02*
X209323809Y-70100390D01*
X209323809Y-70100390D02*
X209438095Y-70062295D01*
X209438095Y-70062295D02*
X209514286Y-70062295D01*
X209514286Y-70062295D02*
X209628571Y-70100390D01*
X209628571Y-70100390D02*
X209666667Y-70138485D01*
X210123809Y-70405152D02*
X210047619Y-70367057D01*
X210047619Y-70367057D02*
X210009524Y-70328961D01*
X210009524Y-70328961D02*
X209971428Y-70252771D01*
X209971428Y-70252771D02*
X209971428Y-70214676D01*
X209971428Y-70214676D02*
X210009524Y-70138485D01*
X210009524Y-70138485D02*
X210047619Y-70100390D01*
X210047619Y-70100390D02*
X210123809Y-70062295D01*
X210123809Y-70062295D02*
X210276190Y-70062295D01*
X210276190Y-70062295D02*
X210352381Y-70100390D01*
X210352381Y-70100390D02*
X210390476Y-70138485D01*
X210390476Y-70138485D02*
X210428571Y-70214676D01*
X210428571Y-70214676D02*
X210428571Y-70252771D01*
X210428571Y-70252771D02*
X210390476Y-70328961D01*
X210390476Y-70328961D02*
X210352381Y-70367057D01*
X210352381Y-70367057D02*
X210276190Y-70405152D01*
X210276190Y-70405152D02*
X210123809Y-70405152D01*
X210123809Y-70405152D02*
X210047619Y-70443247D01*
X210047619Y-70443247D02*
X210009524Y-70481342D01*
X210009524Y-70481342D02*
X209971428Y-70557533D01*
X209971428Y-70557533D02*
X209971428Y-70709914D01*
X209971428Y-70709914D02*
X210009524Y-70786104D01*
X210009524Y-70786104D02*
X210047619Y-70824200D01*
X210047619Y-70824200D02*
X210123809Y-70862295D01*
X210123809Y-70862295D02*
X210276190Y-70862295D01*
X210276190Y-70862295D02*
X210352381Y-70824200D01*
X210352381Y-70824200D02*
X210390476Y-70786104D01*
X210390476Y-70786104D02*
X210428571Y-70709914D01*
X210428571Y-70709914D02*
X210428571Y-70557533D01*
X210428571Y-70557533D02*
X210390476Y-70481342D01*
X210390476Y-70481342D02*
X210352381Y-70443247D01*
X210352381Y-70443247D02*
X210276190Y-70405152D01*
X198085714Y-109098604D02*
X198047618Y-109136700D01*
X198047618Y-109136700D02*
X197933333Y-109174795D01*
X197933333Y-109174795D02*
X197857142Y-109174795D01*
X197857142Y-109174795D02*
X197742856Y-109136700D01*
X197742856Y-109136700D02*
X197666666Y-109060509D01*
X197666666Y-109060509D02*
X197628571Y-108984319D01*
X197628571Y-108984319D02*
X197590475Y-108831938D01*
X197590475Y-108831938D02*
X197590475Y-108717652D01*
X197590475Y-108717652D02*
X197628571Y-108565271D01*
X197628571Y-108565271D02*
X197666666Y-108489080D01*
X197666666Y-108489080D02*
X197742856Y-108412890D01*
X197742856Y-108412890D02*
X197857142Y-108374795D01*
X197857142Y-108374795D02*
X197933333Y-108374795D01*
X197933333Y-108374795D02*
X198047618Y-108412890D01*
X198047618Y-108412890D02*
X198085714Y-108450985D01*
X198390475Y-108450985D02*
X198428571Y-108412890D01*
X198428571Y-108412890D02*
X198504761Y-108374795D01*
X198504761Y-108374795D02*
X198695237Y-108374795D01*
X198695237Y-108374795D02*
X198771428Y-108412890D01*
X198771428Y-108412890D02*
X198809523Y-108450985D01*
X198809523Y-108450985D02*
X198847618Y-108527176D01*
X198847618Y-108527176D02*
X198847618Y-108603366D01*
X198847618Y-108603366D02*
X198809523Y-108717652D01*
X198809523Y-108717652D02*
X198352380Y-109174795D01*
X198352380Y-109174795D02*
X198847618Y-109174795D01*
X199609523Y-109174795D02*
X199152380Y-109174795D01*
X199380952Y-109174795D02*
X199380952Y-108374795D01*
X199380952Y-108374795D02*
X199304761Y-108489080D01*
X199304761Y-108489080D02*
X199228571Y-108565271D01*
X199228571Y-108565271D02*
X199152380Y-108603366D01*
X152562295Y-102133332D02*
X152181342Y-102399999D01*
X152562295Y-102590475D02*
X151762295Y-102590475D01*
X151762295Y-102590475D02*
X151762295Y-102285713D01*
X151762295Y-102285713D02*
X151800390Y-102209523D01*
X151800390Y-102209523D02*
X151838485Y-102171428D01*
X151838485Y-102171428D02*
X151914676Y-102133332D01*
X151914676Y-102133332D02*
X152028961Y-102133332D01*
X152028961Y-102133332D02*
X152105152Y-102171428D01*
X152105152Y-102171428D02*
X152143247Y-102209523D01*
X152143247Y-102209523D02*
X152181342Y-102285713D01*
X152181342Y-102285713D02*
X152181342Y-102590475D01*
X152105152Y-101676190D02*
X152067057Y-101752380D01*
X152067057Y-101752380D02*
X152028961Y-101790475D01*
X152028961Y-101790475D02*
X151952771Y-101828571D01*
X151952771Y-101828571D02*
X151914676Y-101828571D01*
X151914676Y-101828571D02*
X151838485Y-101790475D01*
X151838485Y-101790475D02*
X151800390Y-101752380D01*
X151800390Y-101752380D02*
X151762295Y-101676190D01*
X151762295Y-101676190D02*
X151762295Y-101523809D01*
X151762295Y-101523809D02*
X151800390Y-101447618D01*
X151800390Y-101447618D02*
X151838485Y-101409523D01*
X151838485Y-101409523D02*
X151914676Y-101371428D01*
X151914676Y-101371428D02*
X151952771Y-101371428D01*
X151952771Y-101371428D02*
X152028961Y-101409523D01*
X152028961Y-101409523D02*
X152067057Y-101447618D01*
X152067057Y-101447618D02*
X152105152Y-101523809D01*
X152105152Y-101523809D02*
X152105152Y-101676190D01*
X152105152Y-101676190D02*
X152143247Y-101752380D01*
X152143247Y-101752380D02*
X152181342Y-101790475D01*
X152181342Y-101790475D02*
X152257533Y-101828571D01*
X152257533Y-101828571D02*
X152409914Y-101828571D01*
X152409914Y-101828571D02*
X152486104Y-101790475D01*
X152486104Y-101790475D02*
X152524200Y-101752380D01*
X152524200Y-101752380D02*
X152562295Y-101676190D01*
X152562295Y-101676190D02*
X152562295Y-101523809D01*
X152562295Y-101523809D02*
X152524200Y-101447618D01*
X152524200Y-101447618D02*
X152486104Y-101409523D01*
X152486104Y-101409523D02*
X152409914Y-101371428D01*
X152409914Y-101371428D02*
X152257533Y-101371428D01*
X152257533Y-101371428D02*
X152181342Y-101409523D01*
X152181342Y-101409523D02*
X152143247Y-101447618D01*
X152143247Y-101447618D02*
X152105152Y-101523809D01*
X169212295Y-111133332D02*
X168831342Y-111399999D01*
X169212295Y-111590475D02*
X168412295Y-111590475D01*
X168412295Y-111590475D02*
X168412295Y-111285713D01*
X168412295Y-111285713D02*
X168450390Y-111209523D01*
X168450390Y-111209523D02*
X168488485Y-111171428D01*
X168488485Y-111171428D02*
X168564676Y-111133332D01*
X168564676Y-111133332D02*
X168678961Y-111133332D01*
X168678961Y-111133332D02*
X168755152Y-111171428D01*
X168755152Y-111171428D02*
X168793247Y-111209523D01*
X168793247Y-111209523D02*
X168831342Y-111285713D01*
X168831342Y-111285713D02*
X168831342Y-111590475D01*
X168412295Y-110866666D02*
X168412295Y-110371428D01*
X168412295Y-110371428D02*
X168717057Y-110638094D01*
X168717057Y-110638094D02*
X168717057Y-110523809D01*
X168717057Y-110523809D02*
X168755152Y-110447618D01*
X168755152Y-110447618D02*
X168793247Y-110409523D01*
X168793247Y-110409523D02*
X168869438Y-110371428D01*
X168869438Y-110371428D02*
X169059914Y-110371428D01*
X169059914Y-110371428D02*
X169136104Y-110409523D01*
X169136104Y-110409523D02*
X169174200Y-110447618D01*
X169174200Y-110447618D02*
X169212295Y-110523809D01*
X169212295Y-110523809D02*
X169212295Y-110752380D01*
X169212295Y-110752380D02*
X169174200Y-110828571D01*
X169174200Y-110828571D02*
X169136104Y-110866666D01*
X163266667Y-88536104D02*
X163228571Y-88574200D01*
X163228571Y-88574200D02*
X163114286Y-88612295D01*
X163114286Y-88612295D02*
X163038095Y-88612295D01*
X163038095Y-88612295D02*
X162923809Y-88574200D01*
X162923809Y-88574200D02*
X162847619Y-88498009D01*
X162847619Y-88498009D02*
X162809524Y-88421819D01*
X162809524Y-88421819D02*
X162771428Y-88269438D01*
X162771428Y-88269438D02*
X162771428Y-88155152D01*
X162771428Y-88155152D02*
X162809524Y-88002771D01*
X162809524Y-88002771D02*
X162847619Y-87926580D01*
X162847619Y-87926580D02*
X162923809Y-87850390D01*
X162923809Y-87850390D02*
X163038095Y-87812295D01*
X163038095Y-87812295D02*
X163114286Y-87812295D01*
X163114286Y-87812295D02*
X163228571Y-87850390D01*
X163228571Y-87850390D02*
X163266667Y-87888485D01*
X163533333Y-87812295D02*
X164028571Y-87812295D01*
X164028571Y-87812295D02*
X163761905Y-88117057D01*
X163761905Y-88117057D02*
X163876190Y-88117057D01*
X163876190Y-88117057D02*
X163952381Y-88155152D01*
X163952381Y-88155152D02*
X163990476Y-88193247D01*
X163990476Y-88193247D02*
X164028571Y-88269438D01*
X164028571Y-88269438D02*
X164028571Y-88459914D01*
X164028571Y-88459914D02*
X163990476Y-88536104D01*
X163990476Y-88536104D02*
X163952381Y-88574200D01*
X163952381Y-88574200D02*
X163876190Y-88612295D01*
X163876190Y-88612295D02*
X163647619Y-88612295D01*
X163647619Y-88612295D02*
X163571428Y-88574200D01*
X163571428Y-88574200D02*
X163533333Y-88536104D01*
X191486104Y-91814285D02*
X191524200Y-91852381D01*
X191524200Y-91852381D02*
X191562295Y-91966666D01*
X191562295Y-91966666D02*
X191562295Y-92042857D01*
X191562295Y-92042857D02*
X191524200Y-92157143D01*
X191524200Y-92157143D02*
X191448009Y-92233333D01*
X191448009Y-92233333D02*
X191371819Y-92271428D01*
X191371819Y-92271428D02*
X191219438Y-92309524D01*
X191219438Y-92309524D02*
X191105152Y-92309524D01*
X191105152Y-92309524D02*
X190952771Y-92271428D01*
X190952771Y-92271428D02*
X190876580Y-92233333D01*
X190876580Y-92233333D02*
X190800390Y-92157143D01*
X190800390Y-92157143D02*
X190762295Y-92042857D01*
X190762295Y-92042857D02*
X190762295Y-91966666D01*
X190762295Y-91966666D02*
X190800390Y-91852381D01*
X190800390Y-91852381D02*
X190838485Y-91814285D01*
X191562295Y-91052381D02*
X191562295Y-91509524D01*
X191562295Y-91280952D02*
X190762295Y-91280952D01*
X190762295Y-91280952D02*
X190876580Y-91357143D01*
X190876580Y-91357143D02*
X190952771Y-91433333D01*
X190952771Y-91433333D02*
X190990866Y-91509524D01*
X191562295Y-90290476D02*
X191562295Y-90747619D01*
X191562295Y-90519047D02*
X190762295Y-90519047D01*
X190762295Y-90519047D02*
X190876580Y-90595238D01*
X190876580Y-90595238D02*
X190952771Y-90671428D01*
X190952771Y-90671428D02*
X190990866Y-90747619D01*
X201490476Y-76514295D02*
X201947619Y-76514295D01*
X201719047Y-77314295D02*
X201719047Y-76514295D01*
X202214286Y-77314295D02*
X202214286Y-76514295D01*
X202214286Y-76514295D02*
X202519048Y-76514295D01*
X202519048Y-76514295D02*
X202595238Y-76552390D01*
X202595238Y-76552390D02*
X202633333Y-76590485D01*
X202633333Y-76590485D02*
X202671429Y-76666676D01*
X202671429Y-76666676D02*
X202671429Y-76780961D01*
X202671429Y-76780961D02*
X202633333Y-76857152D01*
X202633333Y-76857152D02*
X202595238Y-76895247D01*
X202595238Y-76895247D02*
X202519048Y-76933342D01*
X202519048Y-76933342D02*
X202214286Y-76933342D01*
X202938095Y-76514295D02*
X203433333Y-76514295D01*
X203433333Y-76514295D02*
X203166667Y-76819057D01*
X203166667Y-76819057D02*
X203280952Y-76819057D01*
X203280952Y-76819057D02*
X203357143Y-76857152D01*
X203357143Y-76857152D02*
X203395238Y-76895247D01*
X203395238Y-76895247D02*
X203433333Y-76971438D01*
X203433333Y-76971438D02*
X203433333Y-77161914D01*
X203433333Y-77161914D02*
X203395238Y-77238104D01*
X203395238Y-77238104D02*
X203357143Y-77276200D01*
X203357143Y-77276200D02*
X203280952Y-77314295D01*
X203280952Y-77314295D02*
X203052381Y-77314295D01*
X203052381Y-77314295D02*
X202976190Y-77276200D01*
X202976190Y-77276200D02*
X202938095Y-77238104D01*
X186485714Y-68486104D02*
X186447618Y-68524200D01*
X186447618Y-68524200D02*
X186333333Y-68562295D01*
X186333333Y-68562295D02*
X186257142Y-68562295D01*
X186257142Y-68562295D02*
X186142856Y-68524200D01*
X186142856Y-68524200D02*
X186066666Y-68448009D01*
X186066666Y-68448009D02*
X186028571Y-68371819D01*
X186028571Y-68371819D02*
X185990475Y-68219438D01*
X185990475Y-68219438D02*
X185990475Y-68105152D01*
X185990475Y-68105152D02*
X186028571Y-67952771D01*
X186028571Y-67952771D02*
X186066666Y-67876580D01*
X186066666Y-67876580D02*
X186142856Y-67800390D01*
X186142856Y-67800390D02*
X186257142Y-67762295D01*
X186257142Y-67762295D02*
X186333333Y-67762295D01*
X186333333Y-67762295D02*
X186447618Y-67800390D01*
X186447618Y-67800390D02*
X186485714Y-67838485D01*
X187247618Y-68562295D02*
X186790475Y-68562295D01*
X187019047Y-68562295D02*
X187019047Y-67762295D01*
X187019047Y-67762295D02*
X186942856Y-67876580D01*
X186942856Y-67876580D02*
X186866666Y-67952771D01*
X186866666Y-67952771D02*
X186790475Y-67990866D01*
X187971428Y-67762295D02*
X187590476Y-67762295D01*
X187590476Y-67762295D02*
X187552380Y-68143247D01*
X187552380Y-68143247D02*
X187590476Y-68105152D01*
X187590476Y-68105152D02*
X187666666Y-68067057D01*
X187666666Y-68067057D02*
X187857142Y-68067057D01*
X187857142Y-68067057D02*
X187933333Y-68105152D01*
X187933333Y-68105152D02*
X187971428Y-68143247D01*
X187971428Y-68143247D02*
X188009523Y-68219438D01*
X188009523Y-68219438D02*
X188009523Y-68409914D01*
X188009523Y-68409914D02*
X187971428Y-68486104D01*
X187971428Y-68486104D02*
X187933333Y-68524200D01*
X187933333Y-68524200D02*
X187857142Y-68562295D01*
X187857142Y-68562295D02*
X187666666Y-68562295D01*
X187666666Y-68562295D02*
X187590476Y-68524200D01*
X187590476Y-68524200D02*
X187552380Y-68486104D01*
X194740476Y-90762295D02*
X195197619Y-90762295D01*
X194969047Y-91562295D02*
X194969047Y-90762295D01*
X195464286Y-91562295D02*
X195464286Y-90762295D01*
X195464286Y-90762295D02*
X195769048Y-90762295D01*
X195769048Y-90762295D02*
X195845238Y-90800390D01*
X195845238Y-90800390D02*
X195883333Y-90838485D01*
X195883333Y-90838485D02*
X195921429Y-90914676D01*
X195921429Y-90914676D02*
X195921429Y-91028961D01*
X195921429Y-91028961D02*
X195883333Y-91105152D01*
X195883333Y-91105152D02*
X195845238Y-91143247D01*
X195845238Y-91143247D02*
X195769048Y-91181342D01*
X195769048Y-91181342D02*
X195464286Y-91181342D01*
X196226190Y-90838485D02*
X196264286Y-90800390D01*
X196264286Y-90800390D02*
X196340476Y-90762295D01*
X196340476Y-90762295D02*
X196530952Y-90762295D01*
X196530952Y-90762295D02*
X196607143Y-90800390D01*
X196607143Y-90800390D02*
X196645238Y-90838485D01*
X196645238Y-90838485D02*
X196683333Y-90914676D01*
X196683333Y-90914676D02*
X196683333Y-90990866D01*
X196683333Y-90990866D02*
X196645238Y-91105152D01*
X196645238Y-91105152D02*
X196188095Y-91562295D01*
X196188095Y-91562295D02*
X196683333Y-91562295D01*
X195065786Y-76938125D02*
X195065786Y-77585744D01*
X195065786Y-77585744D02*
X195103881Y-77661934D01*
X195103881Y-77661934D02*
X195141976Y-77700030D01*
X195141976Y-77700030D02*
X195218167Y-77738125D01*
X195218167Y-77738125D02*
X195370548Y-77738125D01*
X195370548Y-77738125D02*
X195446738Y-77700030D01*
X195446738Y-77700030D02*
X195484833Y-77661934D01*
X195484833Y-77661934D02*
X195522929Y-77585744D01*
X195522929Y-77585744D02*
X195522929Y-76938125D01*
X196246738Y-76938125D02*
X196094357Y-76938125D01*
X196094357Y-76938125D02*
X196018166Y-76976220D01*
X196018166Y-76976220D02*
X195980071Y-77014315D01*
X195980071Y-77014315D02*
X195903881Y-77128601D01*
X195903881Y-77128601D02*
X195865785Y-77280982D01*
X195865785Y-77280982D02*
X195865785Y-77585744D01*
X195865785Y-77585744D02*
X195903881Y-77661934D01*
X195903881Y-77661934D02*
X195941976Y-77700030D01*
X195941976Y-77700030D02*
X196018166Y-77738125D01*
X196018166Y-77738125D02*
X196170547Y-77738125D01*
X196170547Y-77738125D02*
X196246738Y-77700030D01*
X196246738Y-77700030D02*
X196284833Y-77661934D01*
X196284833Y-77661934D02*
X196322928Y-77585744D01*
X196322928Y-77585744D02*
X196322928Y-77395268D01*
X196322928Y-77395268D02*
X196284833Y-77319077D01*
X196284833Y-77319077D02*
X196246738Y-77280982D01*
X196246738Y-77280982D02*
X196170547Y-77242887D01*
X196170547Y-77242887D02*
X196018166Y-77242887D01*
X196018166Y-77242887D02*
X195941976Y-77280982D01*
X195941976Y-77280982D02*
X195903881Y-77319077D01*
X195903881Y-77319077D02*
X195865785Y-77395268D01*
X163898214Y-75736104D02*
X163860118Y-75774200D01*
X163860118Y-75774200D02*
X163745833Y-75812295D01*
X163745833Y-75812295D02*
X163669642Y-75812295D01*
X163669642Y-75812295D02*
X163555356Y-75774200D01*
X163555356Y-75774200D02*
X163479166Y-75698009D01*
X163479166Y-75698009D02*
X163441071Y-75621819D01*
X163441071Y-75621819D02*
X163402975Y-75469438D01*
X163402975Y-75469438D02*
X163402975Y-75355152D01*
X163402975Y-75355152D02*
X163441071Y-75202771D01*
X163441071Y-75202771D02*
X163479166Y-75126580D01*
X163479166Y-75126580D02*
X163555356Y-75050390D01*
X163555356Y-75050390D02*
X163669642Y-75012295D01*
X163669642Y-75012295D02*
X163745833Y-75012295D01*
X163745833Y-75012295D02*
X163860118Y-75050390D01*
X163860118Y-75050390D02*
X163898214Y-75088485D01*
X164660118Y-75812295D02*
X164202975Y-75812295D01*
X164431547Y-75812295D02*
X164431547Y-75012295D01*
X164431547Y-75012295D02*
X164355356Y-75126580D01*
X164355356Y-75126580D02*
X164279166Y-75202771D01*
X164279166Y-75202771D02*
X164202975Y-75240866D01*
X164926785Y-75012295D02*
X165460119Y-75012295D01*
X165460119Y-75012295D02*
X165117261Y-75812295D01*
X182448604Y-74814285D02*
X182486700Y-74852381D01*
X182486700Y-74852381D02*
X182524795Y-74966666D01*
X182524795Y-74966666D02*
X182524795Y-75042857D01*
X182524795Y-75042857D02*
X182486700Y-75157143D01*
X182486700Y-75157143D02*
X182410509Y-75233333D01*
X182410509Y-75233333D02*
X182334319Y-75271428D01*
X182334319Y-75271428D02*
X182181938Y-75309524D01*
X182181938Y-75309524D02*
X182067652Y-75309524D01*
X182067652Y-75309524D02*
X181915271Y-75271428D01*
X181915271Y-75271428D02*
X181839080Y-75233333D01*
X181839080Y-75233333D02*
X181762890Y-75157143D01*
X181762890Y-75157143D02*
X181724795Y-75042857D01*
X181724795Y-75042857D02*
X181724795Y-74966666D01*
X181724795Y-74966666D02*
X181762890Y-74852381D01*
X181762890Y-74852381D02*
X181800985Y-74814285D01*
X181800985Y-74509524D02*
X181762890Y-74471428D01*
X181762890Y-74471428D02*
X181724795Y-74395238D01*
X181724795Y-74395238D02*
X181724795Y-74204762D01*
X181724795Y-74204762D02*
X181762890Y-74128571D01*
X181762890Y-74128571D02*
X181800985Y-74090476D01*
X181800985Y-74090476D02*
X181877176Y-74052381D01*
X181877176Y-74052381D02*
X181953366Y-74052381D01*
X181953366Y-74052381D02*
X182067652Y-74090476D01*
X182067652Y-74090476D02*
X182524795Y-74547619D01*
X182524795Y-74547619D02*
X182524795Y-74052381D01*
X181724795Y-73557142D02*
X181724795Y-73480952D01*
X181724795Y-73480952D02*
X181762890Y-73404761D01*
X181762890Y-73404761D02*
X181800985Y-73366666D01*
X181800985Y-73366666D02*
X181877176Y-73328571D01*
X181877176Y-73328571D02*
X182029557Y-73290476D01*
X182029557Y-73290476D02*
X182220033Y-73290476D01*
X182220033Y-73290476D02*
X182372414Y-73328571D01*
X182372414Y-73328571D02*
X182448604Y-73366666D01*
X182448604Y-73366666D02*
X182486700Y-73404761D01*
X182486700Y-73404761D02*
X182524795Y-73480952D01*
X182524795Y-73480952D02*
X182524795Y-73557142D01*
X182524795Y-73557142D02*
X182486700Y-73633333D01*
X182486700Y-73633333D02*
X182448604Y-73671428D01*
X182448604Y-73671428D02*
X182372414Y-73709523D01*
X182372414Y-73709523D02*
X182220033Y-73747619D01*
X182220033Y-73747619D02*
X182029557Y-73747619D01*
X182029557Y-73747619D02*
X181877176Y-73709523D01*
X181877176Y-73709523D02*
X181800985Y-73671428D01*
X181800985Y-73671428D02*
X181762890Y-73633333D01*
X181762890Y-73633333D02*
X181724795Y-73557142D01*
X162216667Y-92086104D02*
X162178571Y-92124200D01*
X162178571Y-92124200D02*
X162064286Y-92162295D01*
X162064286Y-92162295D02*
X161988095Y-92162295D01*
X161988095Y-92162295D02*
X161873809Y-92124200D01*
X161873809Y-92124200D02*
X161797619Y-92048009D01*
X161797619Y-92048009D02*
X161759524Y-91971819D01*
X161759524Y-91971819D02*
X161721428Y-91819438D01*
X161721428Y-91819438D02*
X161721428Y-91705152D01*
X161721428Y-91705152D02*
X161759524Y-91552771D01*
X161759524Y-91552771D02*
X161797619Y-91476580D01*
X161797619Y-91476580D02*
X161873809Y-91400390D01*
X161873809Y-91400390D02*
X161988095Y-91362295D01*
X161988095Y-91362295D02*
X162064286Y-91362295D01*
X162064286Y-91362295D02*
X162178571Y-91400390D01*
X162178571Y-91400390D02*
X162216667Y-91438485D01*
X162521428Y-91438485D02*
X162559524Y-91400390D01*
X162559524Y-91400390D02*
X162635714Y-91362295D01*
X162635714Y-91362295D02*
X162826190Y-91362295D01*
X162826190Y-91362295D02*
X162902381Y-91400390D01*
X162902381Y-91400390D02*
X162940476Y-91438485D01*
X162940476Y-91438485D02*
X162978571Y-91514676D01*
X162978571Y-91514676D02*
X162978571Y-91590866D01*
X162978571Y-91590866D02*
X162940476Y-91705152D01*
X162940476Y-91705152D02*
X162483333Y-92162295D01*
X162483333Y-92162295D02*
X162978571Y-92162295D01*
X208185714Y-78562295D02*
X207919047Y-78181342D01*
X207728571Y-78562295D02*
X207728571Y-77762295D01*
X207728571Y-77762295D02*
X208033333Y-77762295D01*
X208033333Y-77762295D02*
X208109523Y-77800390D01*
X208109523Y-77800390D02*
X208147618Y-77838485D01*
X208147618Y-77838485D02*
X208185714Y-77914676D01*
X208185714Y-77914676D02*
X208185714Y-78028961D01*
X208185714Y-78028961D02*
X208147618Y-78105152D01*
X208147618Y-78105152D02*
X208109523Y-78143247D01*
X208109523Y-78143247D02*
X208033333Y-78181342D01*
X208033333Y-78181342D02*
X207728571Y-78181342D01*
X208947618Y-78562295D02*
X208490475Y-78562295D01*
X208719047Y-78562295D02*
X208719047Y-77762295D01*
X208719047Y-77762295D02*
X208642856Y-77876580D01*
X208642856Y-77876580D02*
X208566666Y-77952771D01*
X208566666Y-77952771D02*
X208490475Y-77990866D01*
X209671428Y-77762295D02*
X209290476Y-77762295D01*
X209290476Y-77762295D02*
X209252380Y-78143247D01*
X209252380Y-78143247D02*
X209290476Y-78105152D01*
X209290476Y-78105152D02*
X209366666Y-78067057D01*
X209366666Y-78067057D02*
X209557142Y-78067057D01*
X209557142Y-78067057D02*
X209633333Y-78105152D01*
X209633333Y-78105152D02*
X209671428Y-78143247D01*
X209671428Y-78143247D02*
X209709523Y-78219438D01*
X209709523Y-78219438D02*
X209709523Y-78409914D01*
X209709523Y-78409914D02*
X209671428Y-78486104D01*
X209671428Y-78486104D02*
X209633333Y-78524200D01*
X209633333Y-78524200D02*
X209557142Y-78562295D01*
X209557142Y-78562295D02*
X209366666Y-78562295D01*
X209366666Y-78562295D02*
X209290476Y-78524200D01*
X209290476Y-78524200D02*
X209252380Y-78486104D01*
X157416667Y-99962295D02*
X157150000Y-99581342D01*
X156959524Y-99962295D02*
X156959524Y-99162295D01*
X156959524Y-99162295D02*
X157264286Y-99162295D01*
X157264286Y-99162295D02*
X157340476Y-99200390D01*
X157340476Y-99200390D02*
X157378571Y-99238485D01*
X157378571Y-99238485D02*
X157416667Y-99314676D01*
X157416667Y-99314676D02*
X157416667Y-99428961D01*
X157416667Y-99428961D02*
X157378571Y-99505152D01*
X157378571Y-99505152D02*
X157340476Y-99543247D01*
X157340476Y-99543247D02*
X157264286Y-99581342D01*
X157264286Y-99581342D02*
X156959524Y-99581342D01*
X158140476Y-99162295D02*
X157759524Y-99162295D01*
X157759524Y-99162295D02*
X157721428Y-99543247D01*
X157721428Y-99543247D02*
X157759524Y-99505152D01*
X157759524Y-99505152D02*
X157835714Y-99467057D01*
X157835714Y-99467057D02*
X158026190Y-99467057D01*
X158026190Y-99467057D02*
X158102381Y-99505152D01*
X158102381Y-99505152D02*
X158140476Y-99543247D01*
X158140476Y-99543247D02*
X158178571Y-99619438D01*
X158178571Y-99619438D02*
X158178571Y-99809914D01*
X158178571Y-99809914D02*
X158140476Y-99886104D01*
X158140476Y-99886104D02*
X158102381Y-99924200D01*
X158102381Y-99924200D02*
X158026190Y-99962295D01*
X158026190Y-99962295D02*
X157835714Y-99962295D01*
X157835714Y-99962295D02*
X157759524Y-99924200D01*
X157759524Y-99924200D02*
X157721428Y-99886104D01*
X153564881Y-71762295D02*
X153564881Y-70962295D01*
X153564881Y-70962295D02*
X153831547Y-71533723D01*
X153831547Y-71533723D02*
X154098214Y-70962295D01*
X154098214Y-70962295D02*
X154098214Y-71762295D01*
X154479167Y-71762295D02*
X154479167Y-70962295D01*
X154936310Y-71762295D02*
X154593452Y-71305152D01*
X154936310Y-70962295D02*
X154479167Y-71419438D01*
X155698214Y-71762295D02*
X155241071Y-71762295D01*
X155469643Y-71762295D02*
X155469643Y-70962295D01*
X155469643Y-70962295D02*
X155393452Y-71076580D01*
X155393452Y-71076580D02*
X155317262Y-71152771D01*
X155317262Y-71152771D02*
X155241071Y-71190866D01*
X183785714Y-79362295D02*
X183519047Y-78981342D01*
X183328571Y-79362295D02*
X183328571Y-78562295D01*
X183328571Y-78562295D02*
X183633333Y-78562295D01*
X183633333Y-78562295D02*
X183709523Y-78600390D01*
X183709523Y-78600390D02*
X183747618Y-78638485D01*
X183747618Y-78638485D02*
X183785714Y-78714676D01*
X183785714Y-78714676D02*
X183785714Y-78828961D01*
X183785714Y-78828961D02*
X183747618Y-78905152D01*
X183747618Y-78905152D02*
X183709523Y-78943247D01*
X183709523Y-78943247D02*
X183633333Y-78981342D01*
X183633333Y-78981342D02*
X183328571Y-78981342D01*
X184090475Y-78638485D02*
X184128571Y-78600390D01*
X184128571Y-78600390D02*
X184204761Y-78562295D01*
X184204761Y-78562295D02*
X184395237Y-78562295D01*
X184395237Y-78562295D02*
X184471428Y-78600390D01*
X184471428Y-78600390D02*
X184509523Y-78638485D01*
X184509523Y-78638485D02*
X184547618Y-78714676D01*
X184547618Y-78714676D02*
X184547618Y-78790866D01*
X184547618Y-78790866D02*
X184509523Y-78905152D01*
X184509523Y-78905152D02*
X184052380Y-79362295D01*
X184052380Y-79362295D02*
X184547618Y-79362295D01*
X184814285Y-78562295D02*
X185309523Y-78562295D01*
X185309523Y-78562295D02*
X185042857Y-78867057D01*
X185042857Y-78867057D02*
X185157142Y-78867057D01*
X185157142Y-78867057D02*
X185233333Y-78905152D01*
X185233333Y-78905152D02*
X185271428Y-78943247D01*
X185271428Y-78943247D02*
X185309523Y-79019438D01*
X185309523Y-79019438D02*
X185309523Y-79209914D01*
X185309523Y-79209914D02*
X185271428Y-79286104D01*
X185271428Y-79286104D02*
X185233333Y-79324200D01*
X185233333Y-79324200D02*
X185157142Y-79362295D01*
X185157142Y-79362295D02*
X184928571Y-79362295D01*
X184928571Y-79362295D02*
X184852380Y-79324200D01*
X184852380Y-79324200D02*
X184814285Y-79286104D01*
X182686104Y-98983332D02*
X182724200Y-99021428D01*
X182724200Y-99021428D02*
X182762295Y-99135713D01*
X182762295Y-99135713D02*
X182762295Y-99211904D01*
X182762295Y-99211904D02*
X182724200Y-99326190D01*
X182724200Y-99326190D02*
X182648009Y-99402380D01*
X182648009Y-99402380D02*
X182571819Y-99440475D01*
X182571819Y-99440475D02*
X182419438Y-99478571D01*
X182419438Y-99478571D02*
X182305152Y-99478571D01*
X182305152Y-99478571D02*
X182152771Y-99440475D01*
X182152771Y-99440475D02*
X182076580Y-99402380D01*
X182076580Y-99402380D02*
X182000390Y-99326190D01*
X182000390Y-99326190D02*
X181962295Y-99211904D01*
X181962295Y-99211904D02*
X181962295Y-99135713D01*
X181962295Y-99135713D02*
X182000390Y-99021428D01*
X182000390Y-99021428D02*
X182038485Y-98983332D01*
X182762295Y-98221428D02*
X182762295Y-98678571D01*
X182762295Y-98449999D02*
X181962295Y-98449999D01*
X181962295Y-98449999D02*
X182076580Y-98526190D01*
X182076580Y-98526190D02*
X182152771Y-98602380D01*
X182152771Y-98602380D02*
X182190866Y-98678571D01*
X166562295Y-93676785D02*
X166181342Y-93943452D01*
X166562295Y-94133928D02*
X165762295Y-94133928D01*
X165762295Y-94133928D02*
X165762295Y-93829166D01*
X165762295Y-93829166D02*
X165800390Y-93752976D01*
X165800390Y-93752976D02*
X165838485Y-93714881D01*
X165838485Y-93714881D02*
X165914676Y-93676785D01*
X165914676Y-93676785D02*
X166028961Y-93676785D01*
X166028961Y-93676785D02*
X166105152Y-93714881D01*
X166105152Y-93714881D02*
X166143247Y-93752976D01*
X166143247Y-93752976D02*
X166181342Y-93829166D01*
X166181342Y-93829166D02*
X166181342Y-94133928D01*
X166562295Y-92914881D02*
X166562295Y-93372024D01*
X166562295Y-93143452D02*
X165762295Y-93143452D01*
X165762295Y-93143452D02*
X165876580Y-93219643D01*
X165876580Y-93219643D02*
X165952771Y-93295833D01*
X165952771Y-93295833D02*
X165990866Y-93372024D01*
X166105152Y-92457738D02*
X166067057Y-92533928D01*
X166067057Y-92533928D02*
X166028961Y-92572023D01*
X166028961Y-92572023D02*
X165952771Y-92610119D01*
X165952771Y-92610119D02*
X165914676Y-92610119D01*
X165914676Y-92610119D02*
X165838485Y-92572023D01*
X165838485Y-92572023D02*
X165800390Y-92533928D01*
X165800390Y-92533928D02*
X165762295Y-92457738D01*
X165762295Y-92457738D02*
X165762295Y-92305357D01*
X165762295Y-92305357D02*
X165800390Y-92229166D01*
X165800390Y-92229166D02*
X165838485Y-92191071D01*
X165838485Y-92191071D02*
X165914676Y-92152976D01*
X165914676Y-92152976D02*
X165952771Y-92152976D01*
X165952771Y-92152976D02*
X166028961Y-92191071D01*
X166028961Y-92191071D02*
X166067057Y-92229166D01*
X166067057Y-92229166D02*
X166105152Y-92305357D01*
X166105152Y-92305357D02*
X166105152Y-92457738D01*
X166105152Y-92457738D02*
X166143247Y-92533928D01*
X166143247Y-92533928D02*
X166181342Y-92572023D01*
X166181342Y-92572023D02*
X166257533Y-92610119D01*
X166257533Y-92610119D02*
X166409914Y-92610119D01*
X166409914Y-92610119D02*
X166486104Y-92572023D01*
X166486104Y-92572023D02*
X166524200Y-92533928D01*
X166524200Y-92533928D02*
X166562295Y-92457738D01*
X166562295Y-92457738D02*
X166562295Y-92305357D01*
X166562295Y-92305357D02*
X166524200Y-92229166D01*
X166524200Y-92229166D02*
X166486104Y-92191071D01*
X166486104Y-92191071D02*
X166409914Y-92152976D01*
X166409914Y-92152976D02*
X166257533Y-92152976D01*
X166257533Y-92152976D02*
X166181342Y-92191071D01*
X166181342Y-92191071D02*
X166143247Y-92229166D01*
X166143247Y-92229166D02*
X166105152Y-92305357D01*
X227240476Y-82562295D02*
X227697619Y-82562295D01*
X227469047Y-83362295D02*
X227469047Y-82562295D01*
X227964286Y-83362295D02*
X227964286Y-82562295D01*
X227964286Y-82562295D02*
X228269048Y-82562295D01*
X228269048Y-82562295D02*
X228345238Y-82600390D01*
X228345238Y-82600390D02*
X228383333Y-82638485D01*
X228383333Y-82638485D02*
X228421429Y-82714676D01*
X228421429Y-82714676D02*
X228421429Y-82828961D01*
X228421429Y-82828961D02*
X228383333Y-82905152D01*
X228383333Y-82905152D02*
X228345238Y-82943247D01*
X228345238Y-82943247D02*
X228269048Y-82981342D01*
X228269048Y-82981342D02*
X227964286Y-82981342D01*
X229107143Y-82828961D02*
X229107143Y-83362295D01*
X228916667Y-82524200D02*
X228726190Y-83095628D01*
X228726190Y-83095628D02*
X229221429Y-83095628D01*
X180762295Y-88339285D02*
X180381342Y-88605952D01*
X180762295Y-88796428D02*
X179962295Y-88796428D01*
X179962295Y-88796428D02*
X179962295Y-88491666D01*
X179962295Y-88491666D02*
X180000390Y-88415476D01*
X180000390Y-88415476D02*
X180038485Y-88377381D01*
X180038485Y-88377381D02*
X180114676Y-88339285D01*
X180114676Y-88339285D02*
X180228961Y-88339285D01*
X180228961Y-88339285D02*
X180305152Y-88377381D01*
X180305152Y-88377381D02*
X180343247Y-88415476D01*
X180343247Y-88415476D02*
X180381342Y-88491666D01*
X180381342Y-88491666D02*
X180381342Y-88796428D01*
X180762295Y-87577381D02*
X180762295Y-88034524D01*
X180762295Y-87805952D02*
X179962295Y-87805952D01*
X179962295Y-87805952D02*
X180076580Y-87882143D01*
X180076580Y-87882143D02*
X180152771Y-87958333D01*
X180152771Y-87958333D02*
X180190866Y-88034524D01*
X180762295Y-86815476D02*
X180762295Y-87272619D01*
X180762295Y-87044047D02*
X179962295Y-87044047D01*
X179962295Y-87044047D02*
X180076580Y-87120238D01*
X180076580Y-87120238D02*
X180152771Y-87196428D01*
X180152771Y-87196428D02*
X180190866Y-87272619D01*
X174662295Y-62516666D02*
X175233723Y-62516666D01*
X175233723Y-62516666D02*
X175348009Y-62554761D01*
X175348009Y-62554761D02*
X175424200Y-62630952D01*
X175424200Y-62630952D02*
X175462295Y-62745237D01*
X175462295Y-62745237D02*
X175462295Y-62821428D01*
X174928961Y-61792856D02*
X175462295Y-61792856D01*
X174624200Y-61983332D02*
X175195628Y-62173809D01*
X175195628Y-62173809D02*
X175195628Y-61678570D01*
X169212295Y-107045832D02*
X168831342Y-107312499D01*
X169212295Y-107502975D02*
X168412295Y-107502975D01*
X168412295Y-107502975D02*
X168412295Y-107198213D01*
X168412295Y-107198213D02*
X168450390Y-107122023D01*
X168450390Y-107122023D02*
X168488485Y-107083928D01*
X168488485Y-107083928D02*
X168564676Y-107045832D01*
X168564676Y-107045832D02*
X168678961Y-107045832D01*
X168678961Y-107045832D02*
X168755152Y-107083928D01*
X168755152Y-107083928D02*
X168793247Y-107122023D01*
X168793247Y-107122023D02*
X168831342Y-107198213D01*
X168831342Y-107198213D02*
X168831342Y-107502975D01*
X168678961Y-106360118D02*
X169212295Y-106360118D01*
X168374200Y-106550594D02*
X168945628Y-106741071D01*
X168945628Y-106741071D02*
X168945628Y-106245832D01*
X197990476Y-90812295D02*
X198447619Y-90812295D01*
X198219047Y-91612295D02*
X198219047Y-90812295D01*
X198714286Y-91612295D02*
X198714286Y-90812295D01*
X198714286Y-90812295D02*
X199019048Y-90812295D01*
X199019048Y-90812295D02*
X199095238Y-90850390D01*
X199095238Y-90850390D02*
X199133333Y-90888485D01*
X199133333Y-90888485D02*
X199171429Y-90964676D01*
X199171429Y-90964676D02*
X199171429Y-91078961D01*
X199171429Y-91078961D02*
X199133333Y-91155152D01*
X199133333Y-91155152D02*
X199095238Y-91193247D01*
X199095238Y-91193247D02*
X199019048Y-91231342D01*
X199019048Y-91231342D02*
X198714286Y-91231342D01*
X199933333Y-91612295D02*
X199476190Y-91612295D01*
X199704762Y-91612295D02*
X199704762Y-90812295D01*
X199704762Y-90812295D02*
X199628571Y-90926580D01*
X199628571Y-90926580D02*
X199552381Y-91002771D01*
X199552381Y-91002771D02*
X199476190Y-91040866D01*
X164327976Y-109999795D02*
X164327976Y-110647414D01*
X164327976Y-110647414D02*
X164366071Y-110723604D01*
X164366071Y-110723604D02*
X164404166Y-110761700D01*
X164404166Y-110761700D02*
X164480357Y-110799795D01*
X164480357Y-110799795D02*
X164632738Y-110799795D01*
X164632738Y-110799795D02*
X164708928Y-110761700D01*
X164708928Y-110761700D02*
X164747023Y-110723604D01*
X164747023Y-110723604D02*
X164785119Y-110647414D01*
X164785119Y-110647414D02*
X164785119Y-109999795D01*
X165585118Y-110799795D02*
X165127975Y-110799795D01*
X165356547Y-110799795D02*
X165356547Y-109999795D01*
X165356547Y-109999795D02*
X165280356Y-110114080D01*
X165280356Y-110114080D02*
X165204166Y-110190271D01*
X165204166Y-110190271D02*
X165127975Y-110228366D01*
X175748214Y-76736104D02*
X175710118Y-76774200D01*
X175710118Y-76774200D02*
X175595833Y-76812295D01*
X175595833Y-76812295D02*
X175519642Y-76812295D01*
X175519642Y-76812295D02*
X175405356Y-76774200D01*
X175405356Y-76774200D02*
X175329166Y-76698009D01*
X175329166Y-76698009D02*
X175291071Y-76621819D01*
X175291071Y-76621819D02*
X175252975Y-76469438D01*
X175252975Y-76469438D02*
X175252975Y-76355152D01*
X175252975Y-76355152D02*
X175291071Y-76202771D01*
X175291071Y-76202771D02*
X175329166Y-76126580D01*
X175329166Y-76126580D02*
X175405356Y-76050390D01*
X175405356Y-76050390D02*
X175519642Y-76012295D01*
X175519642Y-76012295D02*
X175595833Y-76012295D01*
X175595833Y-76012295D02*
X175710118Y-76050390D01*
X175710118Y-76050390D02*
X175748214Y-76088485D01*
X176510118Y-76812295D02*
X176052975Y-76812295D01*
X176281547Y-76812295D02*
X176281547Y-76012295D01*
X176281547Y-76012295D02*
X176205356Y-76126580D01*
X176205356Y-76126580D02*
X176129166Y-76202771D01*
X176129166Y-76202771D02*
X176052975Y-76240866D01*
X176967261Y-76355152D02*
X176891071Y-76317057D01*
X176891071Y-76317057D02*
X176852976Y-76278961D01*
X176852976Y-76278961D02*
X176814880Y-76202771D01*
X176814880Y-76202771D02*
X176814880Y-76164676D01*
X176814880Y-76164676D02*
X176852976Y-76088485D01*
X176852976Y-76088485D02*
X176891071Y-76050390D01*
X176891071Y-76050390D02*
X176967261Y-76012295D01*
X176967261Y-76012295D02*
X177119642Y-76012295D01*
X177119642Y-76012295D02*
X177195833Y-76050390D01*
X177195833Y-76050390D02*
X177233928Y-76088485D01*
X177233928Y-76088485D02*
X177272023Y-76164676D01*
X177272023Y-76164676D02*
X177272023Y-76202771D01*
X177272023Y-76202771D02*
X177233928Y-76278961D01*
X177233928Y-76278961D02*
X177195833Y-76317057D01*
X177195833Y-76317057D02*
X177119642Y-76355152D01*
X177119642Y-76355152D02*
X176967261Y-76355152D01*
X176967261Y-76355152D02*
X176891071Y-76393247D01*
X176891071Y-76393247D02*
X176852976Y-76431342D01*
X176852976Y-76431342D02*
X176814880Y-76507533D01*
X176814880Y-76507533D02*
X176814880Y-76659914D01*
X176814880Y-76659914D02*
X176852976Y-76736104D01*
X176852976Y-76736104D02*
X176891071Y-76774200D01*
X176891071Y-76774200D02*
X176967261Y-76812295D01*
X176967261Y-76812295D02*
X177119642Y-76812295D01*
X177119642Y-76812295D02*
X177195833Y-76774200D01*
X177195833Y-76774200D02*
X177233928Y-76736104D01*
X177233928Y-76736104D02*
X177272023Y-76659914D01*
X177272023Y-76659914D02*
X177272023Y-76507533D01*
X177272023Y-76507533D02*
X177233928Y-76431342D01*
X177233928Y-76431342D02*
X177195833Y-76393247D01*
X177195833Y-76393247D02*
X177119642Y-76355152D01*
X164116667Y-99962295D02*
X163850000Y-99581342D01*
X163659524Y-99962295D02*
X163659524Y-99162295D01*
X163659524Y-99162295D02*
X163964286Y-99162295D01*
X163964286Y-99162295D02*
X164040476Y-99200390D01*
X164040476Y-99200390D02*
X164078571Y-99238485D01*
X164078571Y-99238485D02*
X164116667Y-99314676D01*
X164116667Y-99314676D02*
X164116667Y-99428961D01*
X164116667Y-99428961D02*
X164078571Y-99505152D01*
X164078571Y-99505152D02*
X164040476Y-99543247D01*
X164040476Y-99543247D02*
X163964286Y-99581342D01*
X163964286Y-99581342D02*
X163659524Y-99581342D01*
X164421428Y-99238485D02*
X164459524Y-99200390D01*
X164459524Y-99200390D02*
X164535714Y-99162295D01*
X164535714Y-99162295D02*
X164726190Y-99162295D01*
X164726190Y-99162295D02*
X164802381Y-99200390D01*
X164802381Y-99200390D02*
X164840476Y-99238485D01*
X164840476Y-99238485D02*
X164878571Y-99314676D01*
X164878571Y-99314676D02*
X164878571Y-99390866D01*
X164878571Y-99390866D02*
X164840476Y-99505152D01*
X164840476Y-99505152D02*
X164383333Y-99962295D01*
X164383333Y-99962295D02*
X164878571Y-99962295D01*
X198485714Y-87462295D02*
X198219047Y-87081342D01*
X198028571Y-87462295D02*
X198028571Y-86662295D01*
X198028571Y-86662295D02*
X198333333Y-86662295D01*
X198333333Y-86662295D02*
X198409523Y-86700390D01*
X198409523Y-86700390D02*
X198447618Y-86738485D01*
X198447618Y-86738485D02*
X198485714Y-86814676D01*
X198485714Y-86814676D02*
X198485714Y-86928961D01*
X198485714Y-86928961D02*
X198447618Y-87005152D01*
X198447618Y-87005152D02*
X198409523Y-87043247D01*
X198409523Y-87043247D02*
X198333333Y-87081342D01*
X198333333Y-87081342D02*
X198028571Y-87081342D01*
X199247618Y-87462295D02*
X198790475Y-87462295D01*
X199019047Y-87462295D02*
X199019047Y-86662295D01*
X199019047Y-86662295D02*
X198942856Y-86776580D01*
X198942856Y-86776580D02*
X198866666Y-86852771D01*
X198866666Y-86852771D02*
X198790475Y-86890866D01*
X199933333Y-86662295D02*
X199780952Y-86662295D01*
X199780952Y-86662295D02*
X199704761Y-86700390D01*
X199704761Y-86700390D02*
X199666666Y-86738485D01*
X199666666Y-86738485D02*
X199590476Y-86852771D01*
X199590476Y-86852771D02*
X199552380Y-87005152D01*
X199552380Y-87005152D02*
X199552380Y-87309914D01*
X199552380Y-87309914D02*
X199590476Y-87386104D01*
X199590476Y-87386104D02*
X199628571Y-87424200D01*
X199628571Y-87424200D02*
X199704761Y-87462295D01*
X199704761Y-87462295D02*
X199857142Y-87462295D01*
X199857142Y-87462295D02*
X199933333Y-87424200D01*
X199933333Y-87424200D02*
X199971428Y-87386104D01*
X199971428Y-87386104D02*
X200009523Y-87309914D01*
X200009523Y-87309914D02*
X200009523Y-87119438D01*
X200009523Y-87119438D02*
X199971428Y-87043247D01*
X199971428Y-87043247D02*
X199933333Y-87005152D01*
X199933333Y-87005152D02*
X199857142Y-86967057D01*
X199857142Y-86967057D02*
X199704761Y-86967057D01*
X199704761Y-86967057D02*
X199628571Y-87005152D01*
X199628571Y-87005152D02*
X199590476Y-87043247D01*
X199590476Y-87043247D02*
X199552380Y-87119438D01*
X216485714Y-83906104D02*
X216447618Y-83944200D01*
X216447618Y-83944200D02*
X216333333Y-83982295D01*
X216333333Y-83982295D02*
X216257142Y-83982295D01*
X216257142Y-83982295D02*
X216142856Y-83944200D01*
X216142856Y-83944200D02*
X216066666Y-83868009D01*
X216066666Y-83868009D02*
X216028571Y-83791819D01*
X216028571Y-83791819D02*
X215990475Y-83639438D01*
X215990475Y-83639438D02*
X215990475Y-83525152D01*
X215990475Y-83525152D02*
X216028571Y-83372771D01*
X216028571Y-83372771D02*
X216066666Y-83296580D01*
X216066666Y-83296580D02*
X216142856Y-83220390D01*
X216142856Y-83220390D02*
X216257142Y-83182295D01*
X216257142Y-83182295D02*
X216333333Y-83182295D01*
X216333333Y-83182295D02*
X216447618Y-83220390D01*
X216447618Y-83220390D02*
X216485714Y-83258485D01*
X217247618Y-83982295D02*
X216790475Y-83982295D01*
X217019047Y-83982295D02*
X217019047Y-83182295D01*
X217019047Y-83182295D02*
X216942856Y-83296580D01*
X216942856Y-83296580D02*
X216866666Y-83372771D01*
X216866666Y-83372771D02*
X216790475Y-83410866D01*
X217514285Y-83182295D02*
X218009523Y-83182295D01*
X218009523Y-83182295D02*
X217742857Y-83487057D01*
X217742857Y-83487057D02*
X217857142Y-83487057D01*
X217857142Y-83487057D02*
X217933333Y-83525152D01*
X217933333Y-83525152D02*
X217971428Y-83563247D01*
X217971428Y-83563247D02*
X218009523Y-83639438D01*
X218009523Y-83639438D02*
X218009523Y-83829914D01*
X218009523Y-83829914D02*
X217971428Y-83906104D01*
X217971428Y-83906104D02*
X217933333Y-83944200D01*
X217933333Y-83944200D02*
X217857142Y-83982295D01*
X217857142Y-83982295D02*
X217628571Y-83982295D01*
X217628571Y-83982295D02*
X217552380Y-83944200D01*
X217552380Y-83944200D02*
X217514285Y-83906104D01*
X183180083Y-102962295D02*
X183180083Y-103533723D01*
X183180083Y-103533723D02*
X183141988Y-103648009D01*
X183141988Y-103648009D02*
X183065797Y-103724200D01*
X183065797Y-103724200D02*
X182951512Y-103762295D01*
X182951512Y-103762295D02*
X182875321Y-103762295D01*
X183980083Y-103762295D02*
X183522940Y-103762295D01*
X183751512Y-103762295D02*
X183751512Y-102962295D01*
X183751512Y-102962295D02*
X183675321Y-103076580D01*
X183675321Y-103076580D02*
X183599131Y-103152771D01*
X183599131Y-103152771D02*
X183522940Y-103190866D01*
X192785714Y-97612295D02*
X192519047Y-97231342D01*
X192328571Y-97612295D02*
X192328571Y-96812295D01*
X192328571Y-96812295D02*
X192633333Y-96812295D01*
X192633333Y-96812295D02*
X192709523Y-96850390D01*
X192709523Y-96850390D02*
X192747618Y-96888485D01*
X192747618Y-96888485D02*
X192785714Y-96964676D01*
X192785714Y-96964676D02*
X192785714Y-97078961D01*
X192785714Y-97078961D02*
X192747618Y-97155152D01*
X192747618Y-97155152D02*
X192709523Y-97193247D01*
X192709523Y-97193247D02*
X192633333Y-97231342D01*
X192633333Y-97231342D02*
X192328571Y-97231342D01*
X193547618Y-97612295D02*
X193090475Y-97612295D01*
X193319047Y-97612295D02*
X193319047Y-96812295D01*
X193319047Y-96812295D02*
X193242856Y-96926580D01*
X193242856Y-96926580D02*
X193166666Y-97002771D01*
X193166666Y-97002771D02*
X193090475Y-97040866D01*
X193852380Y-96888485D02*
X193890476Y-96850390D01*
X193890476Y-96850390D02*
X193966666Y-96812295D01*
X193966666Y-96812295D02*
X194157142Y-96812295D01*
X194157142Y-96812295D02*
X194233333Y-96850390D01*
X194233333Y-96850390D02*
X194271428Y-96888485D01*
X194271428Y-96888485D02*
X194309523Y-96964676D01*
X194309523Y-96964676D02*
X194309523Y-97040866D01*
X194309523Y-97040866D02*
X194271428Y-97155152D01*
X194271428Y-97155152D02*
X193814285Y-97612295D01*
X193814285Y-97612295D02*
X194309523Y-97612295D01*
X189172475Y-111205300D02*
X189286761Y-111243395D01*
X189286761Y-111243395D02*
X189477237Y-111243395D01*
X189477237Y-111243395D02*
X189553428Y-111205300D01*
X189553428Y-111205300D02*
X189591523Y-111167204D01*
X189591523Y-111167204D02*
X189629618Y-111091014D01*
X189629618Y-111091014D02*
X189629618Y-111014823D01*
X189629618Y-111014823D02*
X189591523Y-110938633D01*
X189591523Y-110938633D02*
X189553428Y-110900538D01*
X189553428Y-110900538D02*
X189477237Y-110862442D01*
X189477237Y-110862442D02*
X189324856Y-110824347D01*
X189324856Y-110824347D02*
X189248666Y-110786252D01*
X189248666Y-110786252D02*
X189210571Y-110748157D01*
X189210571Y-110748157D02*
X189172475Y-110671966D01*
X189172475Y-110671966D02*
X189172475Y-110595776D01*
X189172475Y-110595776D02*
X189210571Y-110519585D01*
X189210571Y-110519585D02*
X189248666Y-110481490D01*
X189248666Y-110481490D02*
X189324856Y-110443395D01*
X189324856Y-110443395D02*
X189515333Y-110443395D01*
X189515333Y-110443395D02*
X189629618Y-110481490D01*
X189934380Y-110519585D02*
X189972476Y-110481490D01*
X189972476Y-110481490D02*
X190048666Y-110443395D01*
X190048666Y-110443395D02*
X190239142Y-110443395D01*
X190239142Y-110443395D02*
X190315333Y-110481490D01*
X190315333Y-110481490D02*
X190353428Y-110519585D01*
X190353428Y-110519585D02*
X190391523Y-110595776D01*
X190391523Y-110595776D02*
X190391523Y-110671966D01*
X190391523Y-110671966D02*
X190353428Y-110786252D01*
X190353428Y-110786252D02*
X189896285Y-111243395D01*
X189896285Y-111243395D02*
X190391523Y-111243395D01*
X180274795Y-74614285D02*
X179893842Y-74880952D01*
X180274795Y-75071428D02*
X179474795Y-75071428D01*
X179474795Y-75071428D02*
X179474795Y-74766666D01*
X179474795Y-74766666D02*
X179512890Y-74690476D01*
X179512890Y-74690476D02*
X179550985Y-74652381D01*
X179550985Y-74652381D02*
X179627176Y-74614285D01*
X179627176Y-74614285D02*
X179741461Y-74614285D01*
X179741461Y-74614285D02*
X179817652Y-74652381D01*
X179817652Y-74652381D02*
X179855747Y-74690476D01*
X179855747Y-74690476D02*
X179893842Y-74766666D01*
X179893842Y-74766666D02*
X179893842Y-75071428D01*
X179474795Y-74347619D02*
X179474795Y-73852381D01*
X179474795Y-73852381D02*
X179779557Y-74119047D01*
X179779557Y-74119047D02*
X179779557Y-74004762D01*
X179779557Y-74004762D02*
X179817652Y-73928571D01*
X179817652Y-73928571D02*
X179855747Y-73890476D01*
X179855747Y-73890476D02*
X179931938Y-73852381D01*
X179931938Y-73852381D02*
X180122414Y-73852381D01*
X180122414Y-73852381D02*
X180198604Y-73890476D01*
X180198604Y-73890476D02*
X180236700Y-73928571D01*
X180236700Y-73928571D02*
X180274795Y-74004762D01*
X180274795Y-74004762D02*
X180274795Y-74233333D01*
X180274795Y-74233333D02*
X180236700Y-74309524D01*
X180236700Y-74309524D02*
X180198604Y-74347619D01*
X180274795Y-73090476D02*
X180274795Y-73547619D01*
X180274795Y-73319047D02*
X179474795Y-73319047D01*
X179474795Y-73319047D02*
X179589080Y-73395238D01*
X179589080Y-73395238D02*
X179665271Y-73471428D01*
X179665271Y-73471428D02*
X179703366Y-73547619D01*
X195490476Y-73114295D02*
X195947619Y-73114295D01*
X195719047Y-73914295D02*
X195719047Y-73114295D01*
X196214286Y-73914295D02*
X196214286Y-73114295D01*
X196214286Y-73114295D02*
X196519048Y-73114295D01*
X196519048Y-73114295D02*
X196595238Y-73152390D01*
X196595238Y-73152390D02*
X196633333Y-73190485D01*
X196633333Y-73190485D02*
X196671429Y-73266676D01*
X196671429Y-73266676D02*
X196671429Y-73380961D01*
X196671429Y-73380961D02*
X196633333Y-73457152D01*
X196633333Y-73457152D02*
X196595238Y-73495247D01*
X196595238Y-73495247D02*
X196519048Y-73533342D01*
X196519048Y-73533342D02*
X196214286Y-73533342D01*
X197395238Y-73114295D02*
X197014286Y-73114295D01*
X197014286Y-73114295D02*
X196976190Y-73495247D01*
X196976190Y-73495247D02*
X197014286Y-73457152D01*
X197014286Y-73457152D02*
X197090476Y-73419057D01*
X197090476Y-73419057D02*
X197280952Y-73419057D01*
X197280952Y-73419057D02*
X197357143Y-73457152D01*
X197357143Y-73457152D02*
X197395238Y-73495247D01*
X197395238Y-73495247D02*
X197433333Y-73571438D01*
X197433333Y-73571438D02*
X197433333Y-73761914D01*
X197433333Y-73761914D02*
X197395238Y-73838104D01*
X197395238Y-73838104D02*
X197357143Y-73876200D01*
X197357143Y-73876200D02*
X197280952Y-73914295D01*
X197280952Y-73914295D02*
X197090476Y-73914295D01*
X197090476Y-73914295D02*
X197014286Y-73876200D01*
X197014286Y-73876200D02*
X196976190Y-73838104D01*
X161852381Y-78312295D02*
X162119048Y-79112295D01*
X162119048Y-79112295D02*
X162385714Y-78312295D01*
X163109524Y-79112295D02*
X162842857Y-78731342D01*
X162652381Y-79112295D02*
X162652381Y-78312295D01*
X162652381Y-78312295D02*
X162957143Y-78312295D01*
X162957143Y-78312295D02*
X163033333Y-78350390D01*
X163033333Y-78350390D02*
X163071428Y-78388485D01*
X163071428Y-78388485D02*
X163109524Y-78464676D01*
X163109524Y-78464676D02*
X163109524Y-78578961D01*
X163109524Y-78578961D02*
X163071428Y-78655152D01*
X163071428Y-78655152D02*
X163033333Y-78693247D01*
X163033333Y-78693247D02*
X162957143Y-78731342D01*
X162957143Y-78731342D02*
X162652381Y-78731342D01*
X163871428Y-79112295D02*
X163414285Y-79112295D01*
X163642857Y-79112295D02*
X163642857Y-78312295D01*
X163642857Y-78312295D02*
X163566666Y-78426580D01*
X163566666Y-78426580D02*
X163490476Y-78502771D01*
X163490476Y-78502771D02*
X163414285Y-78540866D01*
X192085714Y-106712295D02*
X191819047Y-106331342D01*
X191628571Y-106712295D02*
X191628571Y-105912295D01*
X191628571Y-105912295D02*
X191933333Y-105912295D01*
X191933333Y-105912295D02*
X192009523Y-105950390D01*
X192009523Y-105950390D02*
X192047618Y-105988485D01*
X192047618Y-105988485D02*
X192085714Y-106064676D01*
X192085714Y-106064676D02*
X192085714Y-106178961D01*
X192085714Y-106178961D02*
X192047618Y-106255152D01*
X192047618Y-106255152D02*
X192009523Y-106293247D01*
X192009523Y-106293247D02*
X191933333Y-106331342D01*
X191933333Y-106331342D02*
X191628571Y-106331342D01*
X192352380Y-105912295D02*
X192847618Y-105912295D01*
X192847618Y-105912295D02*
X192580952Y-106217057D01*
X192580952Y-106217057D02*
X192695237Y-106217057D01*
X192695237Y-106217057D02*
X192771428Y-106255152D01*
X192771428Y-106255152D02*
X192809523Y-106293247D01*
X192809523Y-106293247D02*
X192847618Y-106369438D01*
X192847618Y-106369438D02*
X192847618Y-106559914D01*
X192847618Y-106559914D02*
X192809523Y-106636104D01*
X192809523Y-106636104D02*
X192771428Y-106674200D01*
X192771428Y-106674200D02*
X192695237Y-106712295D01*
X192695237Y-106712295D02*
X192466666Y-106712295D01*
X192466666Y-106712295D02*
X192390475Y-106674200D01*
X192390475Y-106674200D02*
X192352380Y-106636104D01*
X193114285Y-105912295D02*
X193609523Y-105912295D01*
X193609523Y-105912295D02*
X193342857Y-106217057D01*
X193342857Y-106217057D02*
X193457142Y-106217057D01*
X193457142Y-106217057D02*
X193533333Y-106255152D01*
X193533333Y-106255152D02*
X193571428Y-106293247D01*
X193571428Y-106293247D02*
X193609523Y-106369438D01*
X193609523Y-106369438D02*
X193609523Y-106559914D01*
X193609523Y-106559914D02*
X193571428Y-106636104D01*
X193571428Y-106636104D02*
X193533333Y-106674200D01*
X193533333Y-106674200D02*
X193457142Y-106712295D01*
X193457142Y-106712295D02*
X193228571Y-106712295D01*
X193228571Y-106712295D02*
X193152380Y-106674200D01*
X193152380Y-106674200D02*
X193114285Y-106636104D01*
X184723809Y-82438485D02*
X184647619Y-82400390D01*
X184647619Y-82400390D02*
X184571428Y-82324200D01*
X184571428Y-82324200D02*
X184457142Y-82209914D01*
X184457142Y-82209914D02*
X184380952Y-82171819D01*
X184380952Y-82171819D02*
X184304761Y-82171819D01*
X184342857Y-82362295D02*
X184266666Y-82324200D01*
X184266666Y-82324200D02*
X184190476Y-82248009D01*
X184190476Y-82248009D02*
X184152380Y-82095628D01*
X184152380Y-82095628D02*
X184152380Y-81828961D01*
X184152380Y-81828961D02*
X184190476Y-81676580D01*
X184190476Y-81676580D02*
X184266666Y-81600390D01*
X184266666Y-81600390D02*
X184342857Y-81562295D01*
X184342857Y-81562295D02*
X184495238Y-81562295D01*
X184495238Y-81562295D02*
X184571428Y-81600390D01*
X184571428Y-81600390D02*
X184647619Y-81676580D01*
X184647619Y-81676580D02*
X184685714Y-81828961D01*
X184685714Y-81828961D02*
X184685714Y-82095628D01*
X184685714Y-82095628D02*
X184647619Y-82248009D01*
X184647619Y-82248009D02*
X184571428Y-82324200D01*
X184571428Y-82324200D02*
X184495238Y-82362295D01*
X184495238Y-82362295D02*
X184342857Y-82362295D01*
X185447618Y-82362295D02*
X184990475Y-82362295D01*
X185219047Y-82362295D02*
X185219047Y-81562295D01*
X185219047Y-81562295D02*
X185142856Y-81676580D01*
X185142856Y-81676580D02*
X185066666Y-81752771D01*
X185066666Y-81752771D02*
X184990475Y-81790866D01*
X178590476Y-95362295D02*
X178590476Y-96009914D01*
X178590476Y-96009914D02*
X178628571Y-96086104D01*
X178628571Y-96086104D02*
X178666666Y-96124200D01*
X178666666Y-96124200D02*
X178742857Y-96162295D01*
X178742857Y-96162295D02*
X178895238Y-96162295D01*
X178895238Y-96162295D02*
X178971428Y-96124200D01*
X178971428Y-96124200D02*
X179009523Y-96086104D01*
X179009523Y-96086104D02*
X179047619Y-96009914D01*
X179047619Y-96009914D02*
X179047619Y-95362295D01*
X179809523Y-95362295D02*
X179428571Y-95362295D01*
X179428571Y-95362295D02*
X179390475Y-95743247D01*
X179390475Y-95743247D02*
X179428571Y-95705152D01*
X179428571Y-95705152D02*
X179504761Y-95667057D01*
X179504761Y-95667057D02*
X179695237Y-95667057D01*
X179695237Y-95667057D02*
X179771428Y-95705152D01*
X179771428Y-95705152D02*
X179809523Y-95743247D01*
X179809523Y-95743247D02*
X179847618Y-95819438D01*
X179847618Y-95819438D02*
X179847618Y-96009914D01*
X179847618Y-96009914D02*
X179809523Y-96086104D01*
X179809523Y-96086104D02*
X179771428Y-96124200D01*
X179771428Y-96124200D02*
X179695237Y-96162295D01*
X179695237Y-96162295D02*
X179504761Y-96162295D01*
X179504761Y-96162295D02*
X179428571Y-96124200D01*
X179428571Y-96124200D02*
X179390475Y-96086104D01*
X183216104Y-93014285D02*
X183254200Y-93052381D01*
X183254200Y-93052381D02*
X183292295Y-93166666D01*
X183292295Y-93166666D02*
X183292295Y-93242857D01*
X183292295Y-93242857D02*
X183254200Y-93357143D01*
X183254200Y-93357143D02*
X183178009Y-93433333D01*
X183178009Y-93433333D02*
X183101819Y-93471428D01*
X183101819Y-93471428D02*
X182949438Y-93509524D01*
X182949438Y-93509524D02*
X182835152Y-93509524D01*
X182835152Y-93509524D02*
X182682771Y-93471428D01*
X182682771Y-93471428D02*
X182606580Y-93433333D01*
X182606580Y-93433333D02*
X182530390Y-93357143D01*
X182530390Y-93357143D02*
X182492295Y-93242857D01*
X182492295Y-93242857D02*
X182492295Y-93166666D01*
X182492295Y-93166666D02*
X182530390Y-93052381D01*
X182530390Y-93052381D02*
X182568485Y-93014285D01*
X183292295Y-92252381D02*
X183292295Y-92709524D01*
X183292295Y-92480952D02*
X182492295Y-92480952D01*
X182492295Y-92480952D02*
X182606580Y-92557143D01*
X182606580Y-92557143D02*
X182682771Y-92633333D01*
X182682771Y-92633333D02*
X182720866Y-92709524D01*
X182492295Y-91757142D02*
X182492295Y-91680952D01*
X182492295Y-91680952D02*
X182530390Y-91604761D01*
X182530390Y-91604761D02*
X182568485Y-91566666D01*
X182568485Y-91566666D02*
X182644676Y-91528571D01*
X182644676Y-91528571D02*
X182797057Y-91490476D01*
X182797057Y-91490476D02*
X182987533Y-91490476D01*
X182987533Y-91490476D02*
X183139914Y-91528571D01*
X183139914Y-91528571D02*
X183216104Y-91566666D01*
X183216104Y-91566666D02*
X183254200Y-91604761D01*
X183254200Y-91604761D02*
X183292295Y-91680952D01*
X183292295Y-91680952D02*
X183292295Y-91757142D01*
X183292295Y-91757142D02*
X183254200Y-91833333D01*
X183254200Y-91833333D02*
X183216104Y-91871428D01*
X183216104Y-91871428D02*
X183139914Y-91909523D01*
X183139914Y-91909523D02*
X182987533Y-91947619D01*
X182987533Y-91947619D02*
X182797057Y-91947619D01*
X182797057Y-91947619D02*
X182644676Y-91909523D01*
X182644676Y-91909523D02*
X182568485Y-91871428D01*
X182568485Y-91871428D02*
X182530390Y-91833333D01*
X182530390Y-91833333D02*
X182492295Y-91757142D01*
X160748214Y-71862295D02*
X160481547Y-71481342D01*
X160291071Y-71862295D02*
X160291071Y-71062295D01*
X160291071Y-71062295D02*
X160595833Y-71062295D01*
X160595833Y-71062295D02*
X160672023Y-71100390D01*
X160672023Y-71100390D02*
X160710118Y-71138485D01*
X160710118Y-71138485D02*
X160748214Y-71214676D01*
X160748214Y-71214676D02*
X160748214Y-71328961D01*
X160748214Y-71328961D02*
X160710118Y-71405152D01*
X160710118Y-71405152D02*
X160672023Y-71443247D01*
X160672023Y-71443247D02*
X160595833Y-71481342D01*
X160595833Y-71481342D02*
X160291071Y-71481342D01*
X161052975Y-71138485D02*
X161091071Y-71100390D01*
X161091071Y-71100390D02*
X161167261Y-71062295D01*
X161167261Y-71062295D02*
X161357737Y-71062295D01*
X161357737Y-71062295D02*
X161433928Y-71100390D01*
X161433928Y-71100390D02*
X161472023Y-71138485D01*
X161472023Y-71138485D02*
X161510118Y-71214676D01*
X161510118Y-71214676D02*
X161510118Y-71290866D01*
X161510118Y-71290866D02*
X161472023Y-71405152D01*
X161472023Y-71405152D02*
X161014880Y-71862295D01*
X161014880Y-71862295D02*
X161510118Y-71862295D01*
X161967261Y-71405152D02*
X161891071Y-71367057D01*
X161891071Y-71367057D02*
X161852976Y-71328961D01*
X161852976Y-71328961D02*
X161814880Y-71252771D01*
X161814880Y-71252771D02*
X161814880Y-71214676D01*
X161814880Y-71214676D02*
X161852976Y-71138485D01*
X161852976Y-71138485D02*
X161891071Y-71100390D01*
X161891071Y-71100390D02*
X161967261Y-71062295D01*
X161967261Y-71062295D02*
X162119642Y-71062295D01*
X162119642Y-71062295D02*
X162195833Y-71100390D01*
X162195833Y-71100390D02*
X162233928Y-71138485D01*
X162233928Y-71138485D02*
X162272023Y-71214676D01*
X162272023Y-71214676D02*
X162272023Y-71252771D01*
X162272023Y-71252771D02*
X162233928Y-71328961D01*
X162233928Y-71328961D02*
X162195833Y-71367057D01*
X162195833Y-71367057D02*
X162119642Y-71405152D01*
X162119642Y-71405152D02*
X161967261Y-71405152D01*
X161967261Y-71405152D02*
X161891071Y-71443247D01*
X161891071Y-71443247D02*
X161852976Y-71481342D01*
X161852976Y-71481342D02*
X161814880Y-71557533D01*
X161814880Y-71557533D02*
X161814880Y-71709914D01*
X161814880Y-71709914D02*
X161852976Y-71786104D01*
X161852976Y-71786104D02*
X161891071Y-71824200D01*
X161891071Y-71824200D02*
X161967261Y-71862295D01*
X161967261Y-71862295D02*
X162119642Y-71862295D01*
X162119642Y-71862295D02*
X162195833Y-71824200D01*
X162195833Y-71824200D02*
X162233928Y-71786104D01*
X162233928Y-71786104D02*
X162272023Y-71709914D01*
X162272023Y-71709914D02*
X162272023Y-71557533D01*
X162272023Y-71557533D02*
X162233928Y-71481342D01*
X162233928Y-71481342D02*
X162195833Y-71443247D01*
X162195833Y-71443247D02*
X162119642Y-71405152D01*
X198085714Y-106612295D02*
X197819047Y-106231342D01*
X197628571Y-106612295D02*
X197628571Y-105812295D01*
X197628571Y-105812295D02*
X197933333Y-105812295D01*
X197933333Y-105812295D02*
X198009523Y-105850390D01*
X198009523Y-105850390D02*
X198047618Y-105888485D01*
X198047618Y-105888485D02*
X198085714Y-105964676D01*
X198085714Y-105964676D02*
X198085714Y-106078961D01*
X198085714Y-106078961D02*
X198047618Y-106155152D01*
X198047618Y-106155152D02*
X198009523Y-106193247D01*
X198009523Y-106193247D02*
X197933333Y-106231342D01*
X197933333Y-106231342D02*
X197628571Y-106231342D01*
X198352380Y-105812295D02*
X198847618Y-105812295D01*
X198847618Y-105812295D02*
X198580952Y-106117057D01*
X198580952Y-106117057D02*
X198695237Y-106117057D01*
X198695237Y-106117057D02*
X198771428Y-106155152D01*
X198771428Y-106155152D02*
X198809523Y-106193247D01*
X198809523Y-106193247D02*
X198847618Y-106269438D01*
X198847618Y-106269438D02*
X198847618Y-106459914D01*
X198847618Y-106459914D02*
X198809523Y-106536104D01*
X198809523Y-106536104D02*
X198771428Y-106574200D01*
X198771428Y-106574200D02*
X198695237Y-106612295D01*
X198695237Y-106612295D02*
X198466666Y-106612295D01*
X198466666Y-106612295D02*
X198390475Y-106574200D01*
X198390475Y-106574200D02*
X198352380Y-106536104D01*
X199533333Y-106078961D02*
X199533333Y-106612295D01*
X199342857Y-105774200D02*
X199152380Y-106345628D01*
X199152380Y-106345628D02*
X199647619Y-106345628D01*
X178985714Y-68062295D02*
X178719047Y-67681342D01*
X178528571Y-68062295D02*
X178528571Y-67262295D01*
X178528571Y-67262295D02*
X178833333Y-67262295D01*
X178833333Y-67262295D02*
X178909523Y-67300390D01*
X178909523Y-67300390D02*
X178947618Y-67338485D01*
X178947618Y-67338485D02*
X178985714Y-67414676D01*
X178985714Y-67414676D02*
X178985714Y-67528961D01*
X178985714Y-67528961D02*
X178947618Y-67605152D01*
X178947618Y-67605152D02*
X178909523Y-67643247D01*
X178909523Y-67643247D02*
X178833333Y-67681342D01*
X178833333Y-67681342D02*
X178528571Y-67681342D01*
X179290475Y-67338485D02*
X179328571Y-67300390D01*
X179328571Y-67300390D02*
X179404761Y-67262295D01*
X179404761Y-67262295D02*
X179595237Y-67262295D01*
X179595237Y-67262295D02*
X179671428Y-67300390D01*
X179671428Y-67300390D02*
X179709523Y-67338485D01*
X179709523Y-67338485D02*
X179747618Y-67414676D01*
X179747618Y-67414676D02*
X179747618Y-67490866D01*
X179747618Y-67490866D02*
X179709523Y-67605152D01*
X179709523Y-67605152D02*
X179252380Y-68062295D01*
X179252380Y-68062295D02*
X179747618Y-68062295D01*
X180433333Y-67262295D02*
X180280952Y-67262295D01*
X180280952Y-67262295D02*
X180204761Y-67300390D01*
X180204761Y-67300390D02*
X180166666Y-67338485D01*
X180166666Y-67338485D02*
X180090476Y-67452771D01*
X180090476Y-67452771D02*
X180052380Y-67605152D01*
X180052380Y-67605152D02*
X180052380Y-67909914D01*
X180052380Y-67909914D02*
X180090476Y-67986104D01*
X180090476Y-67986104D02*
X180128571Y-68024200D01*
X180128571Y-68024200D02*
X180204761Y-68062295D01*
X180204761Y-68062295D02*
X180357142Y-68062295D01*
X180357142Y-68062295D02*
X180433333Y-68024200D01*
X180433333Y-68024200D02*
X180471428Y-67986104D01*
X180471428Y-67986104D02*
X180509523Y-67909914D01*
X180509523Y-67909914D02*
X180509523Y-67719438D01*
X180509523Y-67719438D02*
X180471428Y-67643247D01*
X180471428Y-67643247D02*
X180433333Y-67605152D01*
X180433333Y-67605152D02*
X180357142Y-67567057D01*
X180357142Y-67567057D02*
X180204761Y-67567057D01*
X180204761Y-67567057D02*
X180128571Y-67605152D01*
X180128571Y-67605152D02*
X180090476Y-67643247D01*
X180090476Y-67643247D02*
X180052380Y-67719438D01*
X192223809Y-102950985D02*
X192147619Y-102912890D01*
X192147619Y-102912890D02*
X192071428Y-102836700D01*
X192071428Y-102836700D02*
X191957142Y-102722414D01*
X191957142Y-102722414D02*
X191880952Y-102684319D01*
X191880952Y-102684319D02*
X191804761Y-102684319D01*
X191842857Y-102874795D02*
X191766666Y-102836700D01*
X191766666Y-102836700D02*
X191690476Y-102760509D01*
X191690476Y-102760509D02*
X191652380Y-102608128D01*
X191652380Y-102608128D02*
X191652380Y-102341461D01*
X191652380Y-102341461D02*
X191690476Y-102189080D01*
X191690476Y-102189080D02*
X191766666Y-102112890D01*
X191766666Y-102112890D02*
X191842857Y-102074795D01*
X191842857Y-102074795D02*
X191995238Y-102074795D01*
X191995238Y-102074795D02*
X192071428Y-102112890D01*
X192071428Y-102112890D02*
X192147619Y-102189080D01*
X192147619Y-102189080D02*
X192185714Y-102341461D01*
X192185714Y-102341461D02*
X192185714Y-102608128D01*
X192185714Y-102608128D02*
X192147619Y-102760509D01*
X192147619Y-102760509D02*
X192071428Y-102836700D01*
X192071428Y-102836700D02*
X191995238Y-102874795D01*
X191995238Y-102874795D02*
X191842857Y-102874795D01*
X192490475Y-102150985D02*
X192528571Y-102112890D01*
X192528571Y-102112890D02*
X192604761Y-102074795D01*
X192604761Y-102074795D02*
X192795237Y-102074795D01*
X192795237Y-102074795D02*
X192871428Y-102112890D01*
X192871428Y-102112890D02*
X192909523Y-102150985D01*
X192909523Y-102150985D02*
X192947618Y-102227176D01*
X192947618Y-102227176D02*
X192947618Y-102303366D01*
X192947618Y-102303366D02*
X192909523Y-102417652D01*
X192909523Y-102417652D02*
X192452380Y-102874795D01*
X192452380Y-102874795D02*
X192947618Y-102874795D01*
X163898214Y-67786104D02*
X163860118Y-67824200D01*
X163860118Y-67824200D02*
X163745833Y-67862295D01*
X163745833Y-67862295D02*
X163669642Y-67862295D01*
X163669642Y-67862295D02*
X163555356Y-67824200D01*
X163555356Y-67824200D02*
X163479166Y-67748009D01*
X163479166Y-67748009D02*
X163441071Y-67671819D01*
X163441071Y-67671819D02*
X163402975Y-67519438D01*
X163402975Y-67519438D02*
X163402975Y-67405152D01*
X163402975Y-67405152D02*
X163441071Y-67252771D01*
X163441071Y-67252771D02*
X163479166Y-67176580D01*
X163479166Y-67176580D02*
X163555356Y-67100390D01*
X163555356Y-67100390D02*
X163669642Y-67062295D01*
X163669642Y-67062295D02*
X163745833Y-67062295D01*
X163745833Y-67062295D02*
X163860118Y-67100390D01*
X163860118Y-67100390D02*
X163898214Y-67138485D01*
X164660118Y-67862295D02*
X164202975Y-67862295D01*
X164431547Y-67862295D02*
X164431547Y-67062295D01*
X164431547Y-67062295D02*
X164355356Y-67176580D01*
X164355356Y-67176580D02*
X164279166Y-67252771D01*
X164279166Y-67252771D02*
X164202975Y-67290866D01*
X165345833Y-67062295D02*
X165193452Y-67062295D01*
X165193452Y-67062295D02*
X165117261Y-67100390D01*
X165117261Y-67100390D02*
X165079166Y-67138485D01*
X165079166Y-67138485D02*
X165002976Y-67252771D01*
X165002976Y-67252771D02*
X164964880Y-67405152D01*
X164964880Y-67405152D02*
X164964880Y-67709914D01*
X164964880Y-67709914D02*
X165002976Y-67786104D01*
X165002976Y-67786104D02*
X165041071Y-67824200D01*
X165041071Y-67824200D02*
X165117261Y-67862295D01*
X165117261Y-67862295D02*
X165269642Y-67862295D01*
X165269642Y-67862295D02*
X165345833Y-67824200D01*
X165345833Y-67824200D02*
X165383928Y-67786104D01*
X165383928Y-67786104D02*
X165422023Y-67709914D01*
X165422023Y-67709914D02*
X165422023Y-67519438D01*
X165422023Y-67519438D02*
X165383928Y-67443247D01*
X165383928Y-67443247D02*
X165345833Y-67405152D01*
X165345833Y-67405152D02*
X165269642Y-67367057D01*
X165269642Y-67367057D02*
X165117261Y-67367057D01*
X165117261Y-67367057D02*
X165041071Y-67405152D01*
X165041071Y-67405152D02*
X165002976Y-67443247D01*
X165002976Y-67443247D02*
X164964880Y-67519438D01*
X152898214Y-77162295D02*
X152631547Y-76781342D01*
X152441071Y-77162295D02*
X152441071Y-76362295D01*
X152441071Y-76362295D02*
X152745833Y-76362295D01*
X152745833Y-76362295D02*
X152822023Y-76400390D01*
X152822023Y-76400390D02*
X152860118Y-76438485D01*
X152860118Y-76438485D02*
X152898214Y-76514676D01*
X152898214Y-76514676D02*
X152898214Y-76628961D01*
X152898214Y-76628961D02*
X152860118Y-76705152D01*
X152860118Y-76705152D02*
X152822023Y-76743247D01*
X152822023Y-76743247D02*
X152745833Y-76781342D01*
X152745833Y-76781342D02*
X152441071Y-76781342D01*
X153660118Y-77162295D02*
X153202975Y-77162295D01*
X153431547Y-77162295D02*
X153431547Y-76362295D01*
X153431547Y-76362295D02*
X153355356Y-76476580D01*
X153355356Y-76476580D02*
X153279166Y-76552771D01*
X153279166Y-76552771D02*
X153202975Y-76590866D01*
X154155357Y-76362295D02*
X154231547Y-76362295D01*
X154231547Y-76362295D02*
X154307738Y-76400390D01*
X154307738Y-76400390D02*
X154345833Y-76438485D01*
X154345833Y-76438485D02*
X154383928Y-76514676D01*
X154383928Y-76514676D02*
X154422023Y-76667057D01*
X154422023Y-76667057D02*
X154422023Y-76857533D01*
X154422023Y-76857533D02*
X154383928Y-77009914D01*
X154383928Y-77009914D02*
X154345833Y-77086104D01*
X154345833Y-77086104D02*
X154307738Y-77124200D01*
X154307738Y-77124200D02*
X154231547Y-77162295D01*
X154231547Y-77162295D02*
X154155357Y-77162295D01*
X154155357Y-77162295D02*
X154079166Y-77124200D01*
X154079166Y-77124200D02*
X154041071Y-77086104D01*
X154041071Y-77086104D02*
X154002976Y-77009914D01*
X154002976Y-77009914D02*
X153964880Y-76857533D01*
X153964880Y-76857533D02*
X153964880Y-76667057D01*
X153964880Y-76667057D02*
X154002976Y-76514676D01*
X154002976Y-76514676D02*
X154041071Y-76438485D01*
X154041071Y-76438485D02*
X154079166Y-76400390D01*
X154079166Y-76400390D02*
X154155357Y-76362295D01*
X186036104Y-96633332D02*
X186074200Y-96671428D01*
X186074200Y-96671428D02*
X186112295Y-96785713D01*
X186112295Y-96785713D02*
X186112295Y-96861904D01*
X186112295Y-96861904D02*
X186074200Y-96976190D01*
X186074200Y-96976190D02*
X185998009Y-97052380D01*
X185998009Y-97052380D02*
X185921819Y-97090475D01*
X185921819Y-97090475D02*
X185769438Y-97128571D01*
X185769438Y-97128571D02*
X185655152Y-97128571D01*
X185655152Y-97128571D02*
X185502771Y-97090475D01*
X185502771Y-97090475D02*
X185426580Y-97052380D01*
X185426580Y-97052380D02*
X185350390Y-96976190D01*
X185350390Y-96976190D02*
X185312295Y-96861904D01*
X185312295Y-96861904D02*
X185312295Y-96785713D01*
X185312295Y-96785713D02*
X185350390Y-96671428D01*
X185350390Y-96671428D02*
X185388485Y-96633332D01*
X186112295Y-96252380D02*
X186112295Y-96099999D01*
X186112295Y-96099999D02*
X186074200Y-96023809D01*
X186074200Y-96023809D02*
X186036104Y-95985713D01*
X186036104Y-95985713D02*
X185921819Y-95909523D01*
X185921819Y-95909523D02*
X185769438Y-95871428D01*
X185769438Y-95871428D02*
X185464676Y-95871428D01*
X185464676Y-95871428D02*
X185388485Y-95909523D01*
X185388485Y-95909523D02*
X185350390Y-95947618D01*
X185350390Y-95947618D02*
X185312295Y-96023809D01*
X185312295Y-96023809D02*
X185312295Y-96176190D01*
X185312295Y-96176190D02*
X185350390Y-96252380D01*
X185350390Y-96252380D02*
X185388485Y-96290475D01*
X185388485Y-96290475D02*
X185464676Y-96328571D01*
X185464676Y-96328571D02*
X185655152Y-96328571D01*
X185655152Y-96328571D02*
X185731342Y-96290475D01*
X185731342Y-96290475D02*
X185769438Y-96252380D01*
X185769438Y-96252380D02*
X185807533Y-96176190D01*
X185807533Y-96176190D02*
X185807533Y-96023809D01*
X185807533Y-96023809D02*
X185769438Y-95947618D01*
X185769438Y-95947618D02*
X185731342Y-95909523D01*
X185731342Y-95909523D02*
X185655152Y-95871428D01*
X156062295Y-102133332D02*
X155681342Y-102399999D01*
X156062295Y-102590475D02*
X155262295Y-102590475D01*
X155262295Y-102590475D02*
X155262295Y-102285713D01*
X155262295Y-102285713D02*
X155300390Y-102209523D01*
X155300390Y-102209523D02*
X155338485Y-102171428D01*
X155338485Y-102171428D02*
X155414676Y-102133332D01*
X155414676Y-102133332D02*
X155528961Y-102133332D01*
X155528961Y-102133332D02*
X155605152Y-102171428D01*
X155605152Y-102171428D02*
X155643247Y-102209523D01*
X155643247Y-102209523D02*
X155681342Y-102285713D01*
X155681342Y-102285713D02*
X155681342Y-102590475D01*
X155262295Y-101866666D02*
X155262295Y-101333332D01*
X155262295Y-101333332D02*
X156062295Y-101676190D01*
X166562295Y-89545238D02*
X166562295Y-89926190D01*
X166562295Y-89926190D02*
X165762295Y-89926190D01*
X166143247Y-89278571D02*
X166143247Y-89011905D01*
X166562295Y-88897619D02*
X166562295Y-89278571D01*
X166562295Y-89278571D02*
X165762295Y-89278571D01*
X165762295Y-89278571D02*
X165762295Y-88897619D01*
X166562295Y-88554761D02*
X165762295Y-88554761D01*
X165762295Y-88554761D02*
X165762295Y-88364285D01*
X165762295Y-88364285D02*
X165800390Y-88249999D01*
X165800390Y-88249999D02*
X165876580Y-88173809D01*
X165876580Y-88173809D02*
X165952771Y-88135714D01*
X165952771Y-88135714D02*
X166105152Y-88097618D01*
X166105152Y-88097618D02*
X166219438Y-88097618D01*
X166219438Y-88097618D02*
X166371819Y-88135714D01*
X166371819Y-88135714D02*
X166448009Y-88173809D01*
X166448009Y-88173809D02*
X166524200Y-88249999D01*
X166524200Y-88249999D02*
X166562295Y-88364285D01*
X166562295Y-88364285D02*
X166562295Y-88554761D01*
X165762295Y-87411904D02*
X165762295Y-87564285D01*
X165762295Y-87564285D02*
X165800390Y-87640476D01*
X165800390Y-87640476D02*
X165838485Y-87678571D01*
X165838485Y-87678571D02*
X165952771Y-87754761D01*
X165952771Y-87754761D02*
X166105152Y-87792857D01*
X166105152Y-87792857D02*
X166409914Y-87792857D01*
X166409914Y-87792857D02*
X166486104Y-87754761D01*
X166486104Y-87754761D02*
X166524200Y-87716666D01*
X166524200Y-87716666D02*
X166562295Y-87640476D01*
X166562295Y-87640476D02*
X166562295Y-87488095D01*
X166562295Y-87488095D02*
X166524200Y-87411904D01*
X166524200Y-87411904D02*
X166486104Y-87373809D01*
X166486104Y-87373809D02*
X166409914Y-87335714D01*
X166409914Y-87335714D02*
X166219438Y-87335714D01*
X166219438Y-87335714D02*
X166143247Y-87373809D01*
X166143247Y-87373809D02*
X166105152Y-87411904D01*
X166105152Y-87411904D02*
X166067057Y-87488095D01*
X166067057Y-87488095D02*
X166067057Y-87640476D01*
X166067057Y-87640476D02*
X166105152Y-87716666D01*
X166105152Y-87716666D02*
X166143247Y-87754761D01*
X166143247Y-87754761D02*
X166219438Y-87792857D01*
X222785714Y-82062295D02*
X222519047Y-81681342D01*
X222328571Y-82062295D02*
X222328571Y-81262295D01*
X222328571Y-81262295D02*
X222633333Y-81262295D01*
X222633333Y-81262295D02*
X222709523Y-81300390D01*
X222709523Y-81300390D02*
X222747618Y-81338485D01*
X222747618Y-81338485D02*
X222785714Y-81414676D01*
X222785714Y-81414676D02*
X222785714Y-81528961D01*
X222785714Y-81528961D02*
X222747618Y-81605152D01*
X222747618Y-81605152D02*
X222709523Y-81643247D01*
X222709523Y-81643247D02*
X222633333Y-81681342D01*
X222633333Y-81681342D02*
X222328571Y-81681342D01*
X223547618Y-82062295D02*
X223090475Y-82062295D01*
X223319047Y-82062295D02*
X223319047Y-81262295D01*
X223319047Y-81262295D02*
X223242856Y-81376580D01*
X223242856Y-81376580D02*
X223166666Y-81452771D01*
X223166666Y-81452771D02*
X223090475Y-81490866D01*
X223928571Y-82062295D02*
X224080952Y-82062295D01*
X224080952Y-82062295D02*
X224157142Y-82024200D01*
X224157142Y-82024200D02*
X224195238Y-81986104D01*
X224195238Y-81986104D02*
X224271428Y-81871819D01*
X224271428Y-81871819D02*
X224309523Y-81719438D01*
X224309523Y-81719438D02*
X224309523Y-81414676D01*
X224309523Y-81414676D02*
X224271428Y-81338485D01*
X224271428Y-81338485D02*
X224233333Y-81300390D01*
X224233333Y-81300390D02*
X224157142Y-81262295D01*
X224157142Y-81262295D02*
X224004761Y-81262295D01*
X224004761Y-81262295D02*
X223928571Y-81300390D01*
X223928571Y-81300390D02*
X223890476Y-81338485D01*
X223890476Y-81338485D02*
X223852380Y-81414676D01*
X223852380Y-81414676D02*
X223852380Y-81605152D01*
X223852380Y-81605152D02*
X223890476Y-81681342D01*
X223890476Y-81681342D02*
X223928571Y-81719438D01*
X223928571Y-81719438D02*
X224004761Y-81757533D01*
X224004761Y-81757533D02*
X224157142Y-81757533D01*
X224157142Y-81757533D02*
X224233333Y-81719438D01*
X224233333Y-81719438D02*
X224271428Y-81681342D01*
X224271428Y-81681342D02*
X224309523Y-81605152D01*
X167885714Y-68486104D02*
X167847618Y-68524200D01*
X167847618Y-68524200D02*
X167733333Y-68562295D01*
X167733333Y-68562295D02*
X167657142Y-68562295D01*
X167657142Y-68562295D02*
X167542856Y-68524200D01*
X167542856Y-68524200D02*
X167466666Y-68448009D01*
X167466666Y-68448009D02*
X167428571Y-68371819D01*
X167428571Y-68371819D02*
X167390475Y-68219438D01*
X167390475Y-68219438D02*
X167390475Y-68105152D01*
X167390475Y-68105152D02*
X167428571Y-67952771D01*
X167428571Y-67952771D02*
X167466666Y-67876580D01*
X167466666Y-67876580D02*
X167542856Y-67800390D01*
X167542856Y-67800390D02*
X167657142Y-67762295D01*
X167657142Y-67762295D02*
X167733333Y-67762295D01*
X167733333Y-67762295D02*
X167847618Y-67800390D01*
X167847618Y-67800390D02*
X167885714Y-67838485D01*
X168647618Y-68562295D02*
X168190475Y-68562295D01*
X168419047Y-68562295D02*
X168419047Y-67762295D01*
X168419047Y-67762295D02*
X168342856Y-67876580D01*
X168342856Y-67876580D02*
X168266666Y-67952771D01*
X168266666Y-67952771D02*
X168190475Y-67990866D01*
X169028571Y-68562295D02*
X169180952Y-68562295D01*
X169180952Y-68562295D02*
X169257142Y-68524200D01*
X169257142Y-68524200D02*
X169295238Y-68486104D01*
X169295238Y-68486104D02*
X169371428Y-68371819D01*
X169371428Y-68371819D02*
X169409523Y-68219438D01*
X169409523Y-68219438D02*
X169409523Y-67914676D01*
X169409523Y-67914676D02*
X169371428Y-67838485D01*
X169371428Y-67838485D02*
X169333333Y-67800390D01*
X169333333Y-67800390D02*
X169257142Y-67762295D01*
X169257142Y-67762295D02*
X169104761Y-67762295D01*
X169104761Y-67762295D02*
X169028571Y-67800390D01*
X169028571Y-67800390D02*
X168990476Y-67838485D01*
X168990476Y-67838485D02*
X168952380Y-67914676D01*
X168952380Y-67914676D02*
X168952380Y-68105152D01*
X168952380Y-68105152D02*
X168990476Y-68181342D01*
X168990476Y-68181342D02*
X169028571Y-68219438D01*
X169028571Y-68219438D02*
X169104761Y-68257533D01*
X169104761Y-68257533D02*
X169257142Y-68257533D01*
X169257142Y-68257533D02*
X169333333Y-68219438D01*
X169333333Y-68219438D02*
X169371428Y-68181342D01*
X169371428Y-68181342D02*
X169409523Y-68105152D01*
X160402295Y-62516666D02*
X160973723Y-62516666D01*
X160973723Y-62516666D02*
X161088009Y-62554761D01*
X161088009Y-62554761D02*
X161164200Y-62630952D01*
X161164200Y-62630952D02*
X161202295Y-62745237D01*
X161202295Y-62745237D02*
X161202295Y-62821428D01*
X160402295Y-61754761D02*
X160402295Y-62135713D01*
X160402295Y-62135713D02*
X160783247Y-62173809D01*
X160783247Y-62173809D02*
X160745152Y-62135713D01*
X160745152Y-62135713D02*
X160707057Y-62059523D01*
X160707057Y-62059523D02*
X160707057Y-61869047D01*
X160707057Y-61869047D02*
X160745152Y-61792856D01*
X160745152Y-61792856D02*
X160783247Y-61754761D01*
X160783247Y-61754761D02*
X160859438Y-61716666D01*
X160859438Y-61716666D02*
X161049914Y-61716666D01*
X161049914Y-61716666D02*
X161126104Y-61754761D01*
X161126104Y-61754761D02*
X161164200Y-61792856D01*
X161164200Y-61792856D02*
X161202295Y-61869047D01*
X161202295Y-61869047D02*
X161202295Y-62059523D01*
X161202295Y-62059523D02*
X161164200Y-62135713D01*
X161164200Y-62135713D02*
X161126104Y-62173809D01*
X161966667Y-99962295D02*
X161700000Y-99581342D01*
X161509524Y-99962295D02*
X161509524Y-99162295D01*
X161509524Y-99162295D02*
X161814286Y-99162295D01*
X161814286Y-99162295D02*
X161890476Y-99200390D01*
X161890476Y-99200390D02*
X161928571Y-99238485D01*
X161928571Y-99238485D02*
X161966667Y-99314676D01*
X161966667Y-99314676D02*
X161966667Y-99428961D01*
X161966667Y-99428961D02*
X161928571Y-99505152D01*
X161928571Y-99505152D02*
X161890476Y-99543247D01*
X161890476Y-99543247D02*
X161814286Y-99581342D01*
X161814286Y-99581342D02*
X161509524Y-99581342D01*
X162728571Y-99962295D02*
X162271428Y-99962295D01*
X162500000Y-99962295D02*
X162500000Y-99162295D01*
X162500000Y-99162295D02*
X162423809Y-99276580D01*
X162423809Y-99276580D02*
X162347619Y-99352771D01*
X162347619Y-99352771D02*
X162271428Y-99390866D01*
X149062295Y-102133332D02*
X148681342Y-102399999D01*
X149062295Y-102590475D02*
X148262295Y-102590475D01*
X148262295Y-102590475D02*
X148262295Y-102285713D01*
X148262295Y-102285713D02*
X148300390Y-102209523D01*
X148300390Y-102209523D02*
X148338485Y-102171428D01*
X148338485Y-102171428D02*
X148414676Y-102133332D01*
X148414676Y-102133332D02*
X148528961Y-102133332D01*
X148528961Y-102133332D02*
X148605152Y-102171428D01*
X148605152Y-102171428D02*
X148643247Y-102209523D01*
X148643247Y-102209523D02*
X148681342Y-102285713D01*
X148681342Y-102285713D02*
X148681342Y-102590475D01*
X149062295Y-101752380D02*
X149062295Y-101599999D01*
X149062295Y-101599999D02*
X149024200Y-101523809D01*
X149024200Y-101523809D02*
X148986104Y-101485713D01*
X148986104Y-101485713D02*
X148871819Y-101409523D01*
X148871819Y-101409523D02*
X148719438Y-101371428D01*
X148719438Y-101371428D02*
X148414676Y-101371428D01*
X148414676Y-101371428D02*
X148338485Y-101409523D01*
X148338485Y-101409523D02*
X148300390Y-101447618D01*
X148300390Y-101447618D02*
X148262295Y-101523809D01*
X148262295Y-101523809D02*
X148262295Y-101676190D01*
X148262295Y-101676190D02*
X148300390Y-101752380D01*
X148300390Y-101752380D02*
X148338485Y-101790475D01*
X148338485Y-101790475D02*
X148414676Y-101828571D01*
X148414676Y-101828571D02*
X148605152Y-101828571D01*
X148605152Y-101828571D02*
X148681342Y-101790475D01*
X148681342Y-101790475D02*
X148719438Y-101752380D01*
X148719438Y-101752380D02*
X148757533Y-101676190D01*
X148757533Y-101676190D02*
X148757533Y-101523809D01*
X148757533Y-101523809D02*
X148719438Y-101447618D01*
X148719438Y-101447618D02*
X148681342Y-101409523D01*
X148681342Y-101409523D02*
X148605152Y-101371428D01*
X195172475Y-111205300D02*
X195286761Y-111243395D01*
X195286761Y-111243395D02*
X195477237Y-111243395D01*
X195477237Y-111243395D02*
X195553428Y-111205300D01*
X195553428Y-111205300D02*
X195591523Y-111167204D01*
X195591523Y-111167204D02*
X195629618Y-111091014D01*
X195629618Y-111091014D02*
X195629618Y-111014823D01*
X195629618Y-111014823D02*
X195591523Y-110938633D01*
X195591523Y-110938633D02*
X195553428Y-110900538D01*
X195553428Y-110900538D02*
X195477237Y-110862442D01*
X195477237Y-110862442D02*
X195324856Y-110824347D01*
X195324856Y-110824347D02*
X195248666Y-110786252D01*
X195248666Y-110786252D02*
X195210571Y-110748157D01*
X195210571Y-110748157D02*
X195172475Y-110671966D01*
X195172475Y-110671966D02*
X195172475Y-110595776D01*
X195172475Y-110595776D02*
X195210571Y-110519585D01*
X195210571Y-110519585D02*
X195248666Y-110481490D01*
X195248666Y-110481490D02*
X195324856Y-110443395D01*
X195324856Y-110443395D02*
X195515333Y-110443395D01*
X195515333Y-110443395D02*
X195629618Y-110481490D01*
X196391523Y-111243395D02*
X195934380Y-111243395D01*
X196162952Y-111243395D02*
X196162952Y-110443395D01*
X196162952Y-110443395D02*
X196086761Y-110557680D01*
X196086761Y-110557680D02*
X196010571Y-110633871D01*
X196010571Y-110633871D02*
X195934380Y-110671966D01*
X211425714Y-81886104D02*
X211387618Y-81924200D01*
X211387618Y-81924200D02*
X211273333Y-81962295D01*
X211273333Y-81962295D02*
X211197142Y-81962295D01*
X211197142Y-81962295D02*
X211082856Y-81924200D01*
X211082856Y-81924200D02*
X211006666Y-81848009D01*
X211006666Y-81848009D02*
X210968571Y-81771819D01*
X210968571Y-81771819D02*
X210930475Y-81619438D01*
X210930475Y-81619438D02*
X210930475Y-81505152D01*
X210930475Y-81505152D02*
X210968571Y-81352771D01*
X210968571Y-81352771D02*
X211006666Y-81276580D01*
X211006666Y-81276580D02*
X211082856Y-81200390D01*
X211082856Y-81200390D02*
X211197142Y-81162295D01*
X211197142Y-81162295D02*
X211273333Y-81162295D01*
X211273333Y-81162295D02*
X211387618Y-81200390D01*
X211387618Y-81200390D02*
X211425714Y-81238485D01*
X212187618Y-81962295D02*
X211730475Y-81962295D01*
X211959047Y-81962295D02*
X211959047Y-81162295D01*
X211959047Y-81162295D02*
X211882856Y-81276580D01*
X211882856Y-81276580D02*
X211806666Y-81352771D01*
X211806666Y-81352771D02*
X211730475Y-81390866D01*
X212492380Y-81238485D02*
X212530476Y-81200390D01*
X212530476Y-81200390D02*
X212606666Y-81162295D01*
X212606666Y-81162295D02*
X212797142Y-81162295D01*
X212797142Y-81162295D02*
X212873333Y-81200390D01*
X212873333Y-81200390D02*
X212911428Y-81238485D01*
X212911428Y-81238485D02*
X212949523Y-81314676D01*
X212949523Y-81314676D02*
X212949523Y-81390866D01*
X212949523Y-81390866D02*
X212911428Y-81505152D01*
X212911428Y-81505152D02*
X212454285Y-81962295D01*
X212454285Y-81962295D02*
X212949523Y-81962295D01*
X159716667Y-99962295D02*
X159450000Y-99581342D01*
X159259524Y-99962295D02*
X159259524Y-99162295D01*
X159259524Y-99162295D02*
X159564286Y-99162295D01*
X159564286Y-99162295D02*
X159640476Y-99200390D01*
X159640476Y-99200390D02*
X159678571Y-99238485D01*
X159678571Y-99238485D02*
X159716667Y-99314676D01*
X159716667Y-99314676D02*
X159716667Y-99428961D01*
X159716667Y-99428961D02*
X159678571Y-99505152D01*
X159678571Y-99505152D02*
X159640476Y-99543247D01*
X159640476Y-99543247D02*
X159564286Y-99581342D01*
X159564286Y-99581342D02*
X159259524Y-99581342D01*
X160402381Y-99162295D02*
X160250000Y-99162295D01*
X160250000Y-99162295D02*
X160173809Y-99200390D01*
X160173809Y-99200390D02*
X160135714Y-99238485D01*
X160135714Y-99238485D02*
X160059524Y-99352771D01*
X160059524Y-99352771D02*
X160021428Y-99505152D01*
X160021428Y-99505152D02*
X160021428Y-99809914D01*
X160021428Y-99809914D02*
X160059524Y-99886104D01*
X160059524Y-99886104D02*
X160097619Y-99924200D01*
X160097619Y-99924200D02*
X160173809Y-99962295D01*
X160173809Y-99962295D02*
X160326190Y-99962295D01*
X160326190Y-99962295D02*
X160402381Y-99924200D01*
X160402381Y-99924200D02*
X160440476Y-99886104D01*
X160440476Y-99886104D02*
X160478571Y-99809914D01*
X160478571Y-99809914D02*
X160478571Y-99619438D01*
X160478571Y-99619438D02*
X160440476Y-99543247D01*
X160440476Y-99543247D02*
X160402381Y-99505152D01*
X160402381Y-99505152D02*
X160326190Y-99467057D01*
X160326190Y-99467057D02*
X160173809Y-99467057D01*
X160173809Y-99467057D02*
X160097619Y-99505152D01*
X160097619Y-99505152D02*
X160059524Y-99543247D01*
X160059524Y-99543247D02*
X160021428Y-99619438D01*
X153104761Y-95062295D02*
X152723809Y-95062295D01*
X152723809Y-95062295D02*
X152723809Y-94262295D01*
X153371428Y-94643247D02*
X153638094Y-94643247D01*
X153752380Y-95062295D02*
X153371428Y-95062295D01*
X153371428Y-95062295D02*
X153371428Y-94262295D01*
X153371428Y-94262295D02*
X153752380Y-94262295D01*
X154095238Y-95062295D02*
X154095238Y-94262295D01*
X154095238Y-94262295D02*
X154285714Y-94262295D01*
X154285714Y-94262295D02*
X154400000Y-94300390D01*
X154400000Y-94300390D02*
X154476190Y-94376580D01*
X154476190Y-94376580D02*
X154514285Y-94452771D01*
X154514285Y-94452771D02*
X154552381Y-94605152D01*
X154552381Y-94605152D02*
X154552381Y-94719438D01*
X154552381Y-94719438D02*
X154514285Y-94871819D01*
X154514285Y-94871819D02*
X154476190Y-94948009D01*
X154476190Y-94948009D02*
X154400000Y-95024200D01*
X154400000Y-95024200D02*
X154285714Y-95062295D01*
X154285714Y-95062295D02*
X154095238Y-95062295D01*
X154819047Y-94262295D02*
X155314285Y-94262295D01*
X155314285Y-94262295D02*
X155047619Y-94567057D01*
X155047619Y-94567057D02*
X155161904Y-94567057D01*
X155161904Y-94567057D02*
X155238095Y-94605152D01*
X155238095Y-94605152D02*
X155276190Y-94643247D01*
X155276190Y-94643247D02*
X155314285Y-94719438D01*
X155314285Y-94719438D02*
X155314285Y-94909914D01*
X155314285Y-94909914D02*
X155276190Y-94986104D01*
X155276190Y-94986104D02*
X155238095Y-95024200D01*
X155238095Y-95024200D02*
X155161904Y-95062295D01*
X155161904Y-95062295D02*
X154933333Y-95062295D01*
X154933333Y-95062295D02*
X154857142Y-95024200D01*
X154857142Y-95024200D02*
X154819047Y-94986104D01*
X170262295Y-89545238D02*
X170262295Y-89926190D01*
X170262295Y-89926190D02*
X169462295Y-89926190D01*
X169843247Y-89278571D02*
X169843247Y-89011905D01*
X170262295Y-88897619D02*
X170262295Y-89278571D01*
X170262295Y-89278571D02*
X169462295Y-89278571D01*
X169462295Y-89278571D02*
X169462295Y-88897619D01*
X170262295Y-88554761D02*
X169462295Y-88554761D01*
X169462295Y-88554761D02*
X169462295Y-88364285D01*
X169462295Y-88364285D02*
X169500390Y-88249999D01*
X169500390Y-88249999D02*
X169576580Y-88173809D01*
X169576580Y-88173809D02*
X169652771Y-88135714D01*
X169652771Y-88135714D02*
X169805152Y-88097618D01*
X169805152Y-88097618D02*
X169919438Y-88097618D01*
X169919438Y-88097618D02*
X170071819Y-88135714D01*
X170071819Y-88135714D02*
X170148009Y-88173809D01*
X170148009Y-88173809D02*
X170224200Y-88249999D01*
X170224200Y-88249999D02*
X170262295Y-88364285D01*
X170262295Y-88364285D02*
X170262295Y-88554761D01*
X169462295Y-87373809D02*
X169462295Y-87754761D01*
X169462295Y-87754761D02*
X169843247Y-87792857D01*
X169843247Y-87792857D02*
X169805152Y-87754761D01*
X169805152Y-87754761D02*
X169767057Y-87678571D01*
X169767057Y-87678571D02*
X169767057Y-87488095D01*
X169767057Y-87488095D02*
X169805152Y-87411904D01*
X169805152Y-87411904D02*
X169843247Y-87373809D01*
X169843247Y-87373809D02*
X169919438Y-87335714D01*
X169919438Y-87335714D02*
X170109914Y-87335714D01*
X170109914Y-87335714D02*
X170186104Y-87373809D01*
X170186104Y-87373809D02*
X170224200Y-87411904D01*
X170224200Y-87411904D02*
X170262295Y-87488095D01*
X170262295Y-87488095D02*
X170262295Y-87678571D01*
X170262295Y-87678571D02*
X170224200Y-87754761D01*
X170224200Y-87754761D02*
X170186104Y-87792857D01*
X173668395Y-71827523D02*
X174316014Y-71827523D01*
X174316014Y-71827523D02*
X174392204Y-71789428D01*
X174392204Y-71789428D02*
X174430300Y-71751333D01*
X174430300Y-71751333D02*
X174468395Y-71675142D01*
X174468395Y-71675142D02*
X174468395Y-71522761D01*
X174468395Y-71522761D02*
X174430300Y-71446571D01*
X174430300Y-71446571D02*
X174392204Y-71408476D01*
X174392204Y-71408476D02*
X174316014Y-71370380D01*
X174316014Y-71370380D02*
X173668395Y-71370380D01*
X173668395Y-71065619D02*
X173668395Y-70532285D01*
X173668395Y-70532285D02*
X174468395Y-70875143D01*
X170983333Y-100743247D02*
X170716667Y-100743247D01*
X170716667Y-101162295D02*
X170716667Y-100362295D01*
X170716667Y-100362295D02*
X171097619Y-100362295D01*
X171821428Y-101162295D02*
X171364285Y-101162295D01*
X171592857Y-101162295D02*
X171592857Y-100362295D01*
X171592857Y-100362295D02*
X171516666Y-100476580D01*
X171516666Y-100476580D02*
X171440476Y-100552771D01*
X171440476Y-100552771D02*
X171364285Y-100590866D01*
X205466667Y-73386104D02*
X205428571Y-73424200D01*
X205428571Y-73424200D02*
X205314286Y-73462295D01*
X205314286Y-73462295D02*
X205238095Y-73462295D01*
X205238095Y-73462295D02*
X205123809Y-73424200D01*
X205123809Y-73424200D02*
X205047619Y-73348009D01*
X205047619Y-73348009D02*
X205009524Y-73271819D01*
X205009524Y-73271819D02*
X204971428Y-73119438D01*
X204971428Y-73119438D02*
X204971428Y-73005152D01*
X204971428Y-73005152D02*
X205009524Y-72852771D01*
X205009524Y-72852771D02*
X205047619Y-72776580D01*
X205047619Y-72776580D02*
X205123809Y-72700390D01*
X205123809Y-72700390D02*
X205238095Y-72662295D01*
X205238095Y-72662295D02*
X205314286Y-72662295D01*
X205314286Y-72662295D02*
X205428571Y-72700390D01*
X205428571Y-72700390D02*
X205466667Y-72738485D01*
X205733333Y-72662295D02*
X206266667Y-72662295D01*
X206266667Y-72662295D02*
X205923809Y-73462295D01*
X189935714Y-66262295D02*
X189669047Y-65881342D01*
X189478571Y-66262295D02*
X189478571Y-65462295D01*
X189478571Y-65462295D02*
X189783333Y-65462295D01*
X189783333Y-65462295D02*
X189859523Y-65500390D01*
X189859523Y-65500390D02*
X189897618Y-65538485D01*
X189897618Y-65538485D02*
X189935714Y-65614676D01*
X189935714Y-65614676D02*
X189935714Y-65728961D01*
X189935714Y-65728961D02*
X189897618Y-65805152D01*
X189897618Y-65805152D02*
X189859523Y-65843247D01*
X189859523Y-65843247D02*
X189783333Y-65881342D01*
X189783333Y-65881342D02*
X189478571Y-65881342D01*
X190240475Y-65538485D02*
X190278571Y-65500390D01*
X190278571Y-65500390D02*
X190354761Y-65462295D01*
X190354761Y-65462295D02*
X190545237Y-65462295D01*
X190545237Y-65462295D02*
X190621428Y-65500390D01*
X190621428Y-65500390D02*
X190659523Y-65538485D01*
X190659523Y-65538485D02*
X190697618Y-65614676D01*
X190697618Y-65614676D02*
X190697618Y-65690866D01*
X190697618Y-65690866D02*
X190659523Y-65805152D01*
X190659523Y-65805152D02*
X190202380Y-66262295D01*
X190202380Y-66262295D02*
X190697618Y-66262295D01*
X191383333Y-65728961D02*
X191383333Y-66262295D01*
X191192857Y-65424200D02*
X191002380Y-65995628D01*
X191002380Y-65995628D02*
X191497619Y-65995628D01*
X216016666Y-101854819D02*
X216016666Y-102569104D01*
X216016666Y-102569104D02*
X215969047Y-102711961D01*
X215969047Y-102711961D02*
X215873809Y-102807200D01*
X215873809Y-102807200D02*
X215730952Y-102854819D01*
X215730952Y-102854819D02*
X215635714Y-102854819D01*
X216397619Y-101854819D02*
X217016666Y-101854819D01*
X217016666Y-101854819D02*
X216683333Y-102235771D01*
X216683333Y-102235771D02*
X216826190Y-102235771D01*
X216826190Y-102235771D02*
X216921428Y-102283390D01*
X216921428Y-102283390D02*
X216969047Y-102331009D01*
X216969047Y-102331009D02*
X217016666Y-102426247D01*
X217016666Y-102426247D02*
X217016666Y-102664342D01*
X217016666Y-102664342D02*
X216969047Y-102759580D01*
X216969047Y-102759580D02*
X216921428Y-102807200D01*
X216921428Y-102807200D02*
X216826190Y-102854819D01*
X216826190Y-102854819D02*
X216540476Y-102854819D01*
X216540476Y-102854819D02*
X216445238Y-102807200D01*
X216445238Y-102807200D02*
X216397619Y-102759580D01*
X155433333Y-105962295D02*
X155433333Y-106533723D01*
X155433333Y-106533723D02*
X155395238Y-106648009D01*
X155395238Y-106648009D02*
X155319047Y-106724200D01*
X155319047Y-106724200D02*
X155204762Y-106762295D01*
X155204762Y-106762295D02*
X155128571Y-106762295D01*
X155776190Y-106038485D02*
X155814286Y-106000390D01*
X155814286Y-106000390D02*
X155890476Y-105962295D01*
X155890476Y-105962295D02*
X156080952Y-105962295D01*
X156080952Y-105962295D02*
X156157143Y-106000390D01*
X156157143Y-106000390D02*
X156195238Y-106038485D01*
X156195238Y-106038485D02*
X156233333Y-106114676D01*
X156233333Y-106114676D02*
X156233333Y-106190866D01*
X156233333Y-106190866D02*
X156195238Y-106305152D01*
X156195238Y-106305152D02*
X155738095Y-106762295D01*
X155738095Y-106762295D02*
X156233333Y-106762295D01*
X205285714Y-78562295D02*
X205019047Y-78181342D01*
X204828571Y-78562295D02*
X204828571Y-77762295D01*
X204828571Y-77762295D02*
X205133333Y-77762295D01*
X205133333Y-77762295D02*
X205209523Y-77800390D01*
X205209523Y-77800390D02*
X205247618Y-77838485D01*
X205247618Y-77838485D02*
X205285714Y-77914676D01*
X205285714Y-77914676D02*
X205285714Y-78028961D01*
X205285714Y-78028961D02*
X205247618Y-78105152D01*
X205247618Y-78105152D02*
X205209523Y-78143247D01*
X205209523Y-78143247D02*
X205133333Y-78181342D01*
X205133333Y-78181342D02*
X204828571Y-78181342D01*
X205590475Y-77838485D02*
X205628571Y-77800390D01*
X205628571Y-77800390D02*
X205704761Y-77762295D01*
X205704761Y-77762295D02*
X205895237Y-77762295D01*
X205895237Y-77762295D02*
X205971428Y-77800390D01*
X205971428Y-77800390D02*
X206009523Y-77838485D01*
X206009523Y-77838485D02*
X206047618Y-77914676D01*
X206047618Y-77914676D02*
X206047618Y-77990866D01*
X206047618Y-77990866D02*
X206009523Y-78105152D01*
X206009523Y-78105152D02*
X205552380Y-78562295D01*
X205552380Y-78562295D02*
X206047618Y-78562295D01*
X206542857Y-77762295D02*
X206619047Y-77762295D01*
X206619047Y-77762295D02*
X206695238Y-77800390D01*
X206695238Y-77800390D02*
X206733333Y-77838485D01*
X206733333Y-77838485D02*
X206771428Y-77914676D01*
X206771428Y-77914676D02*
X206809523Y-78067057D01*
X206809523Y-78067057D02*
X206809523Y-78257533D01*
X206809523Y-78257533D02*
X206771428Y-78409914D01*
X206771428Y-78409914D02*
X206733333Y-78486104D01*
X206733333Y-78486104D02*
X206695238Y-78524200D01*
X206695238Y-78524200D02*
X206619047Y-78562295D01*
X206619047Y-78562295D02*
X206542857Y-78562295D01*
X206542857Y-78562295D02*
X206466666Y-78524200D01*
X206466666Y-78524200D02*
X206428571Y-78486104D01*
X206428571Y-78486104D02*
X206390476Y-78409914D01*
X206390476Y-78409914D02*
X206352380Y-78257533D01*
X206352380Y-78257533D02*
X206352380Y-78067057D01*
X206352380Y-78067057D02*
X206390476Y-77914676D01*
X206390476Y-77914676D02*
X206428571Y-77838485D01*
X206428571Y-77838485D02*
X206466666Y-77800390D01*
X206466666Y-77800390D02*
X206542857Y-77762295D01*
X167748214Y-70812295D02*
X167481547Y-70431342D01*
X167291071Y-70812295D02*
X167291071Y-70012295D01*
X167291071Y-70012295D02*
X167595833Y-70012295D01*
X167595833Y-70012295D02*
X167672023Y-70050390D01*
X167672023Y-70050390D02*
X167710118Y-70088485D01*
X167710118Y-70088485D02*
X167748214Y-70164676D01*
X167748214Y-70164676D02*
X167748214Y-70278961D01*
X167748214Y-70278961D02*
X167710118Y-70355152D01*
X167710118Y-70355152D02*
X167672023Y-70393247D01*
X167672023Y-70393247D02*
X167595833Y-70431342D01*
X167595833Y-70431342D02*
X167291071Y-70431342D01*
X168014880Y-70012295D02*
X168510118Y-70012295D01*
X168510118Y-70012295D02*
X168243452Y-70317057D01*
X168243452Y-70317057D02*
X168357737Y-70317057D01*
X168357737Y-70317057D02*
X168433928Y-70355152D01*
X168433928Y-70355152D02*
X168472023Y-70393247D01*
X168472023Y-70393247D02*
X168510118Y-70469438D01*
X168510118Y-70469438D02*
X168510118Y-70659914D01*
X168510118Y-70659914D02*
X168472023Y-70736104D01*
X168472023Y-70736104D02*
X168433928Y-70774200D01*
X168433928Y-70774200D02*
X168357737Y-70812295D01*
X168357737Y-70812295D02*
X168129166Y-70812295D01*
X168129166Y-70812295D02*
X168052975Y-70774200D01*
X168052975Y-70774200D02*
X168014880Y-70736104D01*
X169005357Y-70012295D02*
X169081547Y-70012295D01*
X169081547Y-70012295D02*
X169157738Y-70050390D01*
X169157738Y-70050390D02*
X169195833Y-70088485D01*
X169195833Y-70088485D02*
X169233928Y-70164676D01*
X169233928Y-70164676D02*
X169272023Y-70317057D01*
X169272023Y-70317057D02*
X169272023Y-70507533D01*
X169272023Y-70507533D02*
X169233928Y-70659914D01*
X169233928Y-70659914D02*
X169195833Y-70736104D01*
X169195833Y-70736104D02*
X169157738Y-70774200D01*
X169157738Y-70774200D02*
X169081547Y-70812295D01*
X169081547Y-70812295D02*
X169005357Y-70812295D01*
X169005357Y-70812295D02*
X168929166Y-70774200D01*
X168929166Y-70774200D02*
X168891071Y-70736104D01*
X168891071Y-70736104D02*
X168852976Y-70659914D01*
X168852976Y-70659914D02*
X168814880Y-70507533D01*
X168814880Y-70507533D02*
X168814880Y-70317057D01*
X168814880Y-70317057D02*
X168852976Y-70164676D01*
X168852976Y-70164676D02*
X168891071Y-70088485D01*
X168891071Y-70088485D02*
X168929166Y-70050390D01*
X168929166Y-70050390D02*
X169005357Y-70012295D01*
X194985714Y-87462295D02*
X194719047Y-87081342D01*
X194528571Y-87462295D02*
X194528571Y-86662295D01*
X194528571Y-86662295D02*
X194833333Y-86662295D01*
X194833333Y-86662295D02*
X194909523Y-86700390D01*
X194909523Y-86700390D02*
X194947618Y-86738485D01*
X194947618Y-86738485D02*
X194985714Y-86814676D01*
X194985714Y-86814676D02*
X194985714Y-86928961D01*
X194985714Y-86928961D02*
X194947618Y-87005152D01*
X194947618Y-87005152D02*
X194909523Y-87043247D01*
X194909523Y-87043247D02*
X194833333Y-87081342D01*
X194833333Y-87081342D02*
X194528571Y-87081342D01*
X195290475Y-86738485D02*
X195328571Y-86700390D01*
X195328571Y-86700390D02*
X195404761Y-86662295D01*
X195404761Y-86662295D02*
X195595237Y-86662295D01*
X195595237Y-86662295D02*
X195671428Y-86700390D01*
X195671428Y-86700390D02*
X195709523Y-86738485D01*
X195709523Y-86738485D02*
X195747618Y-86814676D01*
X195747618Y-86814676D02*
X195747618Y-86890866D01*
X195747618Y-86890866D02*
X195709523Y-87005152D01*
X195709523Y-87005152D02*
X195252380Y-87462295D01*
X195252380Y-87462295D02*
X195747618Y-87462295D01*
X196052380Y-86738485D02*
X196090476Y-86700390D01*
X196090476Y-86700390D02*
X196166666Y-86662295D01*
X196166666Y-86662295D02*
X196357142Y-86662295D01*
X196357142Y-86662295D02*
X196433333Y-86700390D01*
X196433333Y-86700390D02*
X196471428Y-86738485D01*
X196471428Y-86738485D02*
X196509523Y-86814676D01*
X196509523Y-86814676D02*
X196509523Y-86890866D01*
X196509523Y-86890866D02*
X196471428Y-87005152D01*
X196471428Y-87005152D02*
X196014285Y-87462295D01*
X196014285Y-87462295D02*
X196509523Y-87462295D01*
X192685714Y-95012295D02*
X192419047Y-94631342D01*
X192228571Y-95012295D02*
X192228571Y-94212295D01*
X192228571Y-94212295D02*
X192533333Y-94212295D01*
X192533333Y-94212295D02*
X192609523Y-94250390D01*
X192609523Y-94250390D02*
X192647618Y-94288485D01*
X192647618Y-94288485D02*
X192685714Y-94364676D01*
X192685714Y-94364676D02*
X192685714Y-94478961D01*
X192685714Y-94478961D02*
X192647618Y-94555152D01*
X192647618Y-94555152D02*
X192609523Y-94593247D01*
X192609523Y-94593247D02*
X192533333Y-94631342D01*
X192533333Y-94631342D02*
X192228571Y-94631342D01*
X193447618Y-95012295D02*
X192990475Y-95012295D01*
X193219047Y-95012295D02*
X193219047Y-94212295D01*
X193219047Y-94212295D02*
X193142856Y-94326580D01*
X193142856Y-94326580D02*
X193066666Y-94402771D01*
X193066666Y-94402771D02*
X192990475Y-94440866D01*
X193714285Y-94212295D02*
X194209523Y-94212295D01*
X194209523Y-94212295D02*
X193942857Y-94517057D01*
X193942857Y-94517057D02*
X194057142Y-94517057D01*
X194057142Y-94517057D02*
X194133333Y-94555152D01*
X194133333Y-94555152D02*
X194171428Y-94593247D01*
X194171428Y-94593247D02*
X194209523Y-94669438D01*
X194209523Y-94669438D02*
X194209523Y-94859914D01*
X194209523Y-94859914D02*
X194171428Y-94936104D01*
X194171428Y-94936104D02*
X194133333Y-94974200D01*
X194133333Y-94974200D02*
X194057142Y-95012295D01*
X194057142Y-95012295D02*
X193828571Y-95012295D01*
X193828571Y-95012295D02*
X193752380Y-94974200D01*
X193752380Y-94974200D02*
X193714285Y-94936104D01*
X149604761Y-95062295D02*
X149223809Y-95062295D01*
X149223809Y-95062295D02*
X149223809Y-94262295D01*
X149871428Y-94643247D02*
X150138094Y-94643247D01*
X150252380Y-95062295D02*
X149871428Y-95062295D01*
X149871428Y-95062295D02*
X149871428Y-94262295D01*
X149871428Y-94262295D02*
X150252380Y-94262295D01*
X150595238Y-95062295D02*
X150595238Y-94262295D01*
X150595238Y-94262295D02*
X150785714Y-94262295D01*
X150785714Y-94262295D02*
X150900000Y-94300390D01*
X150900000Y-94300390D02*
X150976190Y-94376580D01*
X150976190Y-94376580D02*
X151014285Y-94452771D01*
X151014285Y-94452771D02*
X151052381Y-94605152D01*
X151052381Y-94605152D02*
X151052381Y-94719438D01*
X151052381Y-94719438D02*
X151014285Y-94871819D01*
X151014285Y-94871819D02*
X150976190Y-94948009D01*
X150976190Y-94948009D02*
X150900000Y-95024200D01*
X150900000Y-95024200D02*
X150785714Y-95062295D01*
X150785714Y-95062295D02*
X150595238Y-95062295D01*
X151357142Y-94338485D02*
X151395238Y-94300390D01*
X151395238Y-94300390D02*
X151471428Y-94262295D01*
X151471428Y-94262295D02*
X151661904Y-94262295D01*
X151661904Y-94262295D02*
X151738095Y-94300390D01*
X151738095Y-94300390D02*
X151776190Y-94338485D01*
X151776190Y-94338485D02*
X151814285Y-94414676D01*
X151814285Y-94414676D02*
X151814285Y-94490866D01*
X151814285Y-94490866D02*
X151776190Y-94605152D01*
X151776190Y-94605152D02*
X151319047Y-95062295D01*
X151319047Y-95062295D02*
X151814285Y-95062295D01*
X153066667Y-87036104D02*
X153028571Y-87074200D01*
X153028571Y-87074200D02*
X152914286Y-87112295D01*
X152914286Y-87112295D02*
X152838095Y-87112295D01*
X152838095Y-87112295D02*
X152723809Y-87074200D01*
X152723809Y-87074200D02*
X152647619Y-86998009D01*
X152647619Y-86998009D02*
X152609524Y-86921819D01*
X152609524Y-86921819D02*
X152571428Y-86769438D01*
X152571428Y-86769438D02*
X152571428Y-86655152D01*
X152571428Y-86655152D02*
X152609524Y-86502771D01*
X152609524Y-86502771D02*
X152647619Y-86426580D01*
X152647619Y-86426580D02*
X152723809Y-86350390D01*
X152723809Y-86350390D02*
X152838095Y-86312295D01*
X152838095Y-86312295D02*
X152914286Y-86312295D01*
X152914286Y-86312295D02*
X153028571Y-86350390D01*
X153028571Y-86350390D02*
X153066667Y-86388485D01*
X153752381Y-86578961D02*
X153752381Y-87112295D01*
X153561905Y-86274200D02*
X153371428Y-86845628D01*
X153371428Y-86845628D02*
X153866667Y-86845628D01*
X192185714Y-109236104D02*
X192147618Y-109274200D01*
X192147618Y-109274200D02*
X192033333Y-109312295D01*
X192033333Y-109312295D02*
X191957142Y-109312295D01*
X191957142Y-109312295D02*
X191842856Y-109274200D01*
X191842856Y-109274200D02*
X191766666Y-109198009D01*
X191766666Y-109198009D02*
X191728571Y-109121819D01*
X191728571Y-109121819D02*
X191690475Y-108969438D01*
X191690475Y-108969438D02*
X191690475Y-108855152D01*
X191690475Y-108855152D02*
X191728571Y-108702771D01*
X191728571Y-108702771D02*
X191766666Y-108626580D01*
X191766666Y-108626580D02*
X191842856Y-108550390D01*
X191842856Y-108550390D02*
X191957142Y-108512295D01*
X191957142Y-108512295D02*
X192033333Y-108512295D01*
X192033333Y-108512295D02*
X192147618Y-108550390D01*
X192147618Y-108550390D02*
X192185714Y-108588485D01*
X192490475Y-108588485D02*
X192528571Y-108550390D01*
X192528571Y-108550390D02*
X192604761Y-108512295D01*
X192604761Y-108512295D02*
X192795237Y-108512295D01*
X192795237Y-108512295D02*
X192871428Y-108550390D01*
X192871428Y-108550390D02*
X192909523Y-108588485D01*
X192909523Y-108588485D02*
X192947618Y-108664676D01*
X192947618Y-108664676D02*
X192947618Y-108740866D01*
X192947618Y-108740866D02*
X192909523Y-108855152D01*
X192909523Y-108855152D02*
X192452380Y-109312295D01*
X192452380Y-109312295D02*
X192947618Y-109312295D01*
X193252380Y-108588485D02*
X193290476Y-108550390D01*
X193290476Y-108550390D02*
X193366666Y-108512295D01*
X193366666Y-108512295D02*
X193557142Y-108512295D01*
X193557142Y-108512295D02*
X193633333Y-108550390D01*
X193633333Y-108550390D02*
X193671428Y-108588485D01*
X193671428Y-108588485D02*
X193709523Y-108664676D01*
X193709523Y-108664676D02*
X193709523Y-108740866D01*
X193709523Y-108740866D02*
X193671428Y-108855152D01*
X193671428Y-108855152D02*
X193214285Y-109312295D01*
X193214285Y-109312295D02*
X193709523Y-109312295D01*
X148367261Y-76762295D02*
X147986309Y-76762295D01*
X147986309Y-76762295D02*
X147986309Y-75962295D01*
X148633928Y-76343247D02*
X148900594Y-76343247D01*
X149014880Y-76762295D02*
X148633928Y-76762295D01*
X148633928Y-76762295D02*
X148633928Y-75962295D01*
X148633928Y-75962295D02*
X149014880Y-75962295D01*
X149357738Y-76762295D02*
X149357738Y-75962295D01*
X149357738Y-75962295D02*
X149548214Y-75962295D01*
X149548214Y-75962295D02*
X149662500Y-76000390D01*
X149662500Y-76000390D02*
X149738690Y-76076580D01*
X149738690Y-76076580D02*
X149776785Y-76152771D01*
X149776785Y-76152771D02*
X149814881Y-76305152D01*
X149814881Y-76305152D02*
X149814881Y-76419438D01*
X149814881Y-76419438D02*
X149776785Y-76571819D01*
X149776785Y-76571819D02*
X149738690Y-76648009D01*
X149738690Y-76648009D02*
X149662500Y-76724200D01*
X149662500Y-76724200D02*
X149548214Y-76762295D01*
X149548214Y-76762295D02*
X149357738Y-76762295D01*
X150500595Y-76228961D02*
X150500595Y-76762295D01*
X150310119Y-75924200D02*
X150119642Y-76495628D01*
X150119642Y-76495628D02*
X150614881Y-76495628D01*
X149266667Y-84586104D02*
X149228571Y-84624200D01*
X149228571Y-84624200D02*
X149114286Y-84662295D01*
X149114286Y-84662295D02*
X149038095Y-84662295D01*
X149038095Y-84662295D02*
X148923809Y-84624200D01*
X148923809Y-84624200D02*
X148847619Y-84548009D01*
X148847619Y-84548009D02*
X148809524Y-84471819D01*
X148809524Y-84471819D02*
X148771428Y-84319438D01*
X148771428Y-84319438D02*
X148771428Y-84205152D01*
X148771428Y-84205152D02*
X148809524Y-84052771D01*
X148809524Y-84052771D02*
X148847619Y-83976580D01*
X148847619Y-83976580D02*
X148923809Y-83900390D01*
X148923809Y-83900390D02*
X149038095Y-83862295D01*
X149038095Y-83862295D02*
X149114286Y-83862295D01*
X149114286Y-83862295D02*
X149228571Y-83900390D01*
X149228571Y-83900390D02*
X149266667Y-83938485D01*
X149990476Y-83862295D02*
X149609524Y-83862295D01*
X149609524Y-83862295D02*
X149571428Y-84243247D01*
X149571428Y-84243247D02*
X149609524Y-84205152D01*
X149609524Y-84205152D02*
X149685714Y-84167057D01*
X149685714Y-84167057D02*
X149876190Y-84167057D01*
X149876190Y-84167057D02*
X149952381Y-84205152D01*
X149952381Y-84205152D02*
X149990476Y-84243247D01*
X149990476Y-84243247D02*
X150028571Y-84319438D01*
X150028571Y-84319438D02*
X150028571Y-84509914D01*
X150028571Y-84509914D02*
X149990476Y-84586104D01*
X149990476Y-84586104D02*
X149952381Y-84624200D01*
X149952381Y-84624200D02*
X149876190Y-84662295D01*
X149876190Y-84662295D02*
X149685714Y-84662295D01*
X149685714Y-84662295D02*
X149609524Y-84624200D01*
X149609524Y-84624200D02*
X149571428Y-84586104D01*
X175990476Y-88462295D02*
X175990476Y-89109914D01*
X175990476Y-89109914D02*
X176028571Y-89186104D01*
X176028571Y-89186104D02*
X176066666Y-89224200D01*
X176066666Y-89224200D02*
X176142857Y-89262295D01*
X176142857Y-89262295D02*
X176295238Y-89262295D01*
X176295238Y-89262295D02*
X176371428Y-89224200D01*
X176371428Y-89224200D02*
X176409523Y-89186104D01*
X176409523Y-89186104D02*
X176447619Y-89109914D01*
X176447619Y-89109914D02*
X176447619Y-88462295D01*
X177171428Y-88728961D02*
X177171428Y-89262295D01*
X176980952Y-88424200D02*
X176790475Y-88995628D01*
X176790475Y-88995628D02*
X177285714Y-88995628D01*
D12*
%TO.C,R25*%
X192015000Y-63827064D02*
X192015000Y-63372936D01*
X193485000Y-63827064D02*
X193485000Y-63372936D01*
%TO.C,C14*%
X188415000Y-82626252D02*
X188415000Y-82103748D01*
X189885000Y-82626252D02*
X189885000Y-82103748D01*
%TO.C,Q3*%
X194190000Y-101740000D02*
X195190000Y-101740000D01*
X194190000Y-103260000D02*
X194190000Y-101740000D01*
X194240000Y-103260000D02*
X194190000Y-103260000D01*
X196140000Y-103260000D02*
X195360000Y-103260000D01*
X196310000Y-101740000D02*
X197310000Y-101740000D01*
X197310000Y-101740000D02*
X197310000Y-103260000D01*
X197310000Y-103260000D02*
X197260000Y-103260000D01*
X195700000Y-104040000D02*
X195370000Y-103800000D01*
X195700000Y-103560000D01*
X195700000Y-104040000D01*
G36*
X195700000Y-104040000D02*
G01*
X195370000Y-103800000D01*
X195700000Y-103560000D01*
X195700000Y-104040000D01*
G37*
D13*
%TO.C,U2*%
X185615000Y-64945000D02*
X185615000Y-62345000D01*
X188385000Y-64945000D02*
X188385000Y-62345000D01*
D14*
X186050000Y-62045000D02*
G75*
G02*
X185950000Y-62045000I-50000J0D01*
G01*
X185950000Y-62045000D02*
G75*
G02*
X186050000Y-62045000I50000J0D01*
G01*
D13*
%TO.C,U3*%
X212250000Y-59900000D02*
X212250000Y-66230000D01*
X212250000Y-79900000D02*
X212250000Y-79770000D01*
X212250000Y-79900000D02*
X230250000Y-79900000D01*
X230250000Y-59900000D02*
X212250000Y-59900000D01*
X230250000Y-66230000D02*
X230250000Y-59900000D01*
X230250000Y-79900000D02*
X230250000Y-79770000D01*
D14*
X210850000Y-67000000D02*
G75*
G02*
X210650000Y-67000000I-100000J0D01*
G01*
X210650000Y-67000000D02*
G75*
G02*
X210850000Y-67000000I100000J0D01*
G01*
D12*
%TO.C,R14*%
X171015000Y-92935436D02*
X171015000Y-93389564D01*
X172485000Y-92935436D02*
X172485000Y-93389564D01*
D14*
%TO.C,LED1*%
X145950000Y-96600000D02*
X145950000Y-99250000D01*
X145950000Y-99250000D02*
X148050000Y-99250000D01*
X148050000Y-99250000D02*
X148050000Y-96600000D01*
D12*
%TO.C,R29*%
X171639564Y-72015000D02*
X171185436Y-72015000D01*
X171639564Y-73485000D02*
X171185436Y-73485000D01*
%TO.C,R32*%
X185265000Y-108227064D02*
X185265000Y-107772936D01*
X186735000Y-108227064D02*
X186735000Y-107772936D01*
%TO.C,R27*%
X171639564Y-74265000D02*
X171185436Y-74265000D01*
X171639564Y-75735000D02*
X171185436Y-75735000D01*
%TO.C,C6*%
X161226248Y-112015000D02*
X161748752Y-112015000D01*
X161226248Y-113485000D02*
X161748752Y-113485000D01*
%TO.C,C8*%
X209015000Y-68261252D02*
X209015000Y-67738748D01*
X210485000Y-68261252D02*
X210485000Y-67738748D01*
%TO.C,C21*%
X196011252Y-108015000D02*
X195488748Y-108015000D01*
X196011252Y-109485000D02*
X195488748Y-109485000D01*
%TO.C,R8*%
X149765000Y-101610436D02*
X149765000Y-102064564D01*
X151235000Y-101610436D02*
X151235000Y-102064564D01*
%TO.C,R3*%
X169765000Y-111227064D02*
X169765000Y-110772936D01*
X171235000Y-111227064D02*
X171235000Y-110772936D01*
D14*
%TO.C,C3*%
X162210000Y-88250000D02*
G75*
G02*
X162110000Y-88250000I-50000J0D01*
G01*
X162110000Y-88250000D02*
G75*
G02*
X162210000Y-88250000I50000J0D01*
G01*
D12*
%TO.C,C11*%
X188565000Y-91561252D02*
X188565000Y-91038748D01*
X190035000Y-91561252D02*
X190035000Y-91038748D01*
%TO.C,TP3*%
X203350000Y-78400000D02*
G75*
G02*
X201950000Y-78400000I-700000J0D01*
G01*
X201950000Y-78400000D02*
G75*
G02*
X203350000Y-78400000I700000J0D01*
G01*
%TO.C,C15*%
X186738748Y-65910000D02*
X187261252Y-65910000D01*
X186738748Y-67380000D02*
X187261252Y-67380000D01*
%TO.C,TP2*%
X196450000Y-89250000D02*
G75*
G02*
X195050000Y-89250000I-700000J0D01*
G01*
X195050000Y-89250000D02*
G75*
G02*
X196450000Y-89250000I700000J0D01*
G01*
D14*
%TO.C,U6*%
X192925000Y-78465000D02*
X197875000Y-78465000D01*
X192925000Y-83765000D02*
X192925000Y-78465000D01*
X197875000Y-78465000D02*
X197875000Y-83765000D01*
X197875000Y-83765000D02*
X192925000Y-83765000D01*
D13*
X191900000Y-78515000D02*
G75*
G02*
X191700000Y-78515000I-100000J0D01*
G01*
X191700000Y-78515000D02*
G75*
G02*
X191900000Y-78515000I100000J0D01*
G01*
X192023606Y-78515000D02*
G75*
G02*
X191576394Y-78515000I-223606J0D01*
G01*
X191576394Y-78515000D02*
G75*
G02*
X192023606Y-78515000I223606J0D01*
G01*
X192000000Y-78515000D02*
G75*
G02*
X191800000Y-78515000I-100000J0D01*
G01*
X191800000Y-78515000D02*
G75*
G02*
X192000000Y-78515000I100000J0D01*
G01*
X193700000Y-79215000D02*
G75*
G02*
X193500000Y-79215000I-100000J0D01*
G01*
X193500000Y-79215000D02*
G75*
G02*
X193700000Y-79215000I100000J0D01*
G01*
X193741419Y-79215000D02*
G75*
G02*
X193458581Y-79215000I-141419J0D01*
G01*
X193458581Y-79215000D02*
G75*
G02*
X193741419Y-79215000I141419J0D01*
G01*
X193823606Y-79215000D02*
G75*
G02*
X193376394Y-79215000I-223606J0D01*
G01*
X193376394Y-79215000D02*
G75*
G02*
X193823606Y-79215000I223606J0D01*
G01*
X193916225Y-79215000D02*
G75*
G02*
X193283775Y-79215000I-316225J0D01*
G01*
X193283775Y-79215000D02*
G75*
G02*
X193916225Y-79215000I316225J0D01*
G01*
X193700000Y-79315000D02*
G75*
G02*
X193500000Y-79315000I-100000J0D01*
G01*
X193500000Y-79315000D02*
G75*
G02*
X193700000Y-79315000I100000J0D01*
G01*
D12*
%TO.C,C17*%
X164151248Y-73015000D02*
X164673752Y-73015000D01*
X164151248Y-74485000D02*
X164673752Y-74485000D01*
%TO.C,C20*%
X181427500Y-71403752D02*
X181427500Y-70881248D01*
X182897500Y-71403752D02*
X182897500Y-70881248D01*
%TO.C,C2*%
X159761252Y-91015000D02*
X159238748Y-91015000D01*
X159761252Y-92485000D02*
X159238748Y-92485000D01*
%TO.C,R15*%
X208015000Y-75272936D02*
X208015000Y-75727064D01*
X209485000Y-75272936D02*
X209485000Y-75727064D01*
%TO.C,R5*%
X156765000Y-101685436D02*
X156765000Y-102139564D01*
X158235000Y-101685436D02*
X158235000Y-102139564D01*
D13*
%TO.C,MK1*%
X159162500Y-71500000D02*
G75*
G02*
X153162500Y-71500000I-3000000J0D01*
G01*
X153162500Y-71500000D02*
G75*
G02*
X159162500Y-71500000I3000000J0D01*
G01*
D12*
%TO.C,R23*%
X181227064Y-78265000D02*
X180772936Y-78265000D01*
X181227064Y-79735000D02*
X180772936Y-79735000D01*
%TO.C,C1*%
X180015000Y-99111252D02*
X180015000Y-98588748D01*
X181485000Y-99111252D02*
X181485000Y-98588748D01*
%TO.C,R18*%
X167265000Y-92935436D02*
X167265000Y-93389564D01*
X168735000Y-92935436D02*
X168735000Y-93389564D01*
%TO.C,TP4*%
X228950000Y-85000000D02*
G75*
G02*
X227550000Y-85000000I-700000J0D01*
G01*
X227550000Y-85000000D02*
G75*
G02*
X228950000Y-85000000I700000J0D01*
G01*
%TO.C,R11*%
X177765000Y-87360436D02*
X177765000Y-87814564D01*
X179235000Y-87360436D02*
X179235000Y-87814564D01*
%TO.C,J4*%
X163550000Y-60920000D02*
X163550000Y-63580000D01*
X171230000Y-60920000D02*
X163550000Y-60920000D01*
X171230000Y-60920000D02*
X171230000Y-63580000D01*
X171230000Y-63580000D02*
X163550000Y-63580000D01*
X173830000Y-62250000D02*
X173830000Y-63580000D01*
X173830000Y-63580000D02*
X172500000Y-63580000D01*
%TO.C,R4*%
X169765000Y-107139564D02*
X169765000Y-106685436D01*
X171235000Y-107139564D02*
X171235000Y-106685436D01*
%TO.C,TP1*%
X199700000Y-89250000D02*
G75*
G02*
X198300000Y-89250000I-700000J0D01*
G01*
X198300000Y-89250000D02*
G75*
G02*
X199700000Y-89250000I700000J0D01*
G01*
%TO.C,U1*%
X159390000Y-106102500D02*
X160115000Y-106102500D01*
X159390000Y-106827500D02*
X159390000Y-106102500D01*
X159390000Y-110322500D02*
X159390000Y-109597500D01*
X160115000Y-110322500D02*
X159390000Y-110322500D01*
X162885000Y-106102500D02*
X163610000Y-106102500D01*
X163610000Y-106102500D02*
X163610000Y-106827500D01*
X163610000Y-109597500D02*
X163610000Y-110322500D01*
X163610000Y-110322500D02*
X162885000Y-110322500D01*
X164440000Y-109452500D02*
X164110000Y-109212500D01*
X164440000Y-108972500D01*
X164440000Y-109452500D01*
G36*
X164440000Y-109452500D02*
G01*
X164110000Y-109212500D01*
X164440000Y-108972500D01*
X164440000Y-109452500D01*
G37*
%TO.C,C18*%
X175901248Y-74015000D02*
X176423752Y-74015000D01*
X175901248Y-75485000D02*
X176423752Y-75485000D01*
%TO.C,R2*%
X163515000Y-102139564D02*
X163515000Y-101685436D01*
X164985000Y-102139564D02*
X164985000Y-101685436D01*
%TO.C,R16*%
X199227064Y-84765000D02*
X198772936Y-84765000D01*
X199227064Y-86235000D02*
X198772936Y-86235000D01*
%TO.C,C13*%
X217261252Y-84585000D02*
X216738748Y-84585000D01*
X217261252Y-86055000D02*
X216738748Y-86055000D01*
D13*
%TO.C,J1*%
X172880000Y-102950000D02*
X172880000Y-103650000D01*
X172880000Y-111120000D02*
X172880000Y-113200000D01*
X172880000Y-113200000D02*
X181620000Y-113200000D01*
X174030000Y-102950000D02*
X172880000Y-102950000D01*
X180470000Y-102950000D02*
X181620000Y-102950000D01*
X181620000Y-102950000D02*
X181620000Y-103650000D01*
X181620000Y-113200000D02*
X181620000Y-111120000D01*
D14*
X174550000Y-101350000D02*
G75*
G02*
X174350000Y-101350000I-100000J0D01*
G01*
X174350000Y-101350000D02*
G75*
G02*
X174550000Y-101350000I100000J0D01*
G01*
D12*
%TO.C,R12*%
X189772936Y-96565000D02*
X190227064Y-96565000D01*
X189772936Y-98035000D02*
X190227064Y-98035000D01*
D13*
%TO.C,S2*%
X189070000Y-111637500D02*
X190430000Y-111637500D01*
X189070000Y-113537500D02*
X190430000Y-113537500D01*
D14*
X187650000Y-111987500D02*
G75*
G02*
X187450000Y-111987500I-100000J0D01*
G01*
X187450000Y-111987500D02*
G75*
G02*
X187650000Y-111987500I100000J0D01*
G01*
D12*
%TO.C,R31*%
X179177500Y-71389564D02*
X179177500Y-70935436D01*
X180647500Y-71389564D02*
X180647500Y-70935436D01*
%TO.C,TP5*%
X197200000Y-75000000D02*
G75*
G02*
X195800000Y-75000000I-700000J0D01*
G01*
X195800000Y-75000000D02*
G75*
G02*
X197200000Y-75000000I700000J0D01*
G01*
D15*
%TO.C,VR1*%
X156250000Y-79900000D02*
X157490000Y-79900000D01*
X156250000Y-83400000D02*
X156250000Y-79900000D01*
X162750000Y-79900000D02*
X161510000Y-79900000D01*
X162750000Y-83400000D02*
X162750000Y-79900000D01*
D12*
%TO.C,R33*%
X189977064Y-105515000D02*
X189522936Y-105515000D01*
X189977064Y-106985000D02*
X189522936Y-106985000D01*
D13*
%TO.C,Q1*%
X180180000Y-80925000D02*
X183075000Y-80925000D01*
X183075000Y-80925000D02*
X183075000Y-81130000D01*
X183075000Y-82880000D02*
X183075000Y-83075000D01*
X183075000Y-83075000D02*
X180170000Y-83075000D01*
D14*
X178100000Y-81300000D02*
G75*
G02*
X177900000Y-81300000I-100000J0D01*
G01*
X177900000Y-81300000D02*
G75*
G02*
X178100000Y-81300000I100000J0D01*
G01*
D12*
%TO.C,U5*%
X175690000Y-97590000D02*
X175740000Y-97590000D01*
X175690000Y-99410000D02*
X175690000Y-97590000D01*
X175740000Y-99410000D02*
X175690000Y-99410000D01*
X178760000Y-97590000D02*
X178810000Y-97590000D01*
X178810000Y-97590000D02*
X178810000Y-99410000D01*
X178810000Y-99410000D02*
X178760000Y-99410000D01*
X179090000Y-97290000D02*
X178760000Y-97050000D01*
X179090000Y-96810000D01*
X179090000Y-97290000D01*
G36*
X179090000Y-97290000D02*
G01*
X178760000Y-97050000D01*
X179090000Y-96810000D01*
X179090000Y-97290000D01*
G37*
%TO.C,C10*%
X180515000Y-92238748D02*
X180515000Y-92761252D01*
X181985000Y-92238748D02*
X181985000Y-92761252D01*
%TO.C,R28*%
X164639564Y-70765000D02*
X164185436Y-70765000D01*
X164639564Y-72235000D02*
X164185436Y-72235000D01*
%TO.C,R34*%
X195522936Y-105515000D02*
X195977064Y-105515000D01*
X195522936Y-106985000D02*
X195977064Y-106985000D01*
%TO.C,R26*%
X176389564Y-67015000D02*
X175935436Y-67015000D01*
X176389564Y-68485000D02*
X175935436Y-68485000D01*
%TO.C,Q2*%
X188190000Y-101740000D02*
X189190000Y-101740000D01*
X188190000Y-103260000D02*
X188190000Y-101740000D01*
X188240000Y-103260000D02*
X188190000Y-103260000D01*
X190140000Y-103260000D02*
X189360000Y-103260000D01*
X190310000Y-101740000D02*
X191310000Y-101740000D01*
X191310000Y-101740000D02*
X191310000Y-103260000D01*
X191310000Y-103260000D02*
X191260000Y-103260000D01*
X189700000Y-104040000D02*
X189370000Y-103800000D01*
X189700000Y-103560000D01*
X189700000Y-104040000D01*
G36*
X189700000Y-104040000D02*
G01*
X189370000Y-103800000D01*
X189700000Y-103560000D01*
X189700000Y-104040000D01*
G37*
%TO.C,C16*%
X164673752Y-68515000D02*
X164151248Y-68515000D01*
X164673752Y-69985000D02*
X164151248Y-69985000D01*
%TO.C,R10*%
X153185436Y-77715000D02*
X153639564Y-77715000D01*
X153185436Y-79185000D02*
X153639564Y-79185000D01*
D14*
%TO.C,C9*%
X185800000Y-89890000D02*
G75*
G02*
X185700000Y-89890000I-50000J0D01*
G01*
X185700000Y-89890000D02*
G75*
G02*
X185800000Y-89890000I50000J0D01*
G01*
D12*
%TO.C,R7*%
X153265000Y-101610436D02*
X153265000Y-102064564D01*
X154735000Y-101610436D02*
X154735000Y-102064564D01*
D14*
%TO.C,LED6*%
X166950000Y-87662500D02*
X166950000Y-90312500D01*
X166950000Y-90312500D02*
X169050000Y-90312500D01*
X169050000Y-90312500D02*
X169050000Y-87662500D01*
D12*
%TO.C,R19*%
X222515000Y-84477064D02*
X222515000Y-84022936D01*
X223985000Y-84477064D02*
X223985000Y-84022936D01*
%TO.C,C19*%
X171151248Y-67515000D02*
X171673752Y-67515000D01*
X171151248Y-68985000D02*
X171673752Y-68985000D01*
%TO.C,J5*%
X146800000Y-60920000D02*
X146800000Y-63580000D01*
X157020000Y-60920000D02*
X146800000Y-60920000D01*
X157020000Y-60920000D02*
X157020000Y-63580000D01*
X157020000Y-63580000D02*
X146800000Y-63580000D01*
X159620000Y-62250000D02*
X159620000Y-63580000D01*
X159620000Y-63580000D02*
X158290000Y-63580000D01*
%TO.C,R1*%
X161265000Y-102139564D02*
X161265000Y-101685436D01*
X162735000Y-102139564D02*
X162735000Y-101685436D01*
%TO.C,R9*%
X146265000Y-101610436D02*
X146265000Y-102064564D01*
X147735000Y-101610436D02*
X147735000Y-102064564D01*
D13*
%TO.C,S1*%
X195070000Y-111637500D02*
X196430000Y-111637500D01*
X195070000Y-113537500D02*
X196430000Y-113537500D01*
D14*
X193650000Y-111987500D02*
G75*
G02*
X193450000Y-111987500I-100000J0D01*
G01*
X193450000Y-111987500D02*
G75*
G02*
X193650000Y-111987500I100000J0D01*
G01*
%TO.C,C12*%
X214650000Y-84500000D02*
G75*
G02*
X214550000Y-84500000I-50000J0D01*
G01*
X214550000Y-84500000D02*
G75*
G02*
X214650000Y-84500000I50000J0D01*
G01*
D12*
%TO.C,R6*%
X159015000Y-101685436D02*
X159015000Y-102139564D01*
X160485000Y-101685436D02*
X160485000Y-102139564D01*
D14*
%TO.C,LED3*%
X152950000Y-96600000D02*
X152950000Y-99250000D01*
X152950000Y-99250000D02*
X155050000Y-99250000D01*
X155050000Y-99250000D02*
X155050000Y-96600000D01*
%TO.C,LED5*%
X170700000Y-87662500D02*
X170700000Y-90312500D01*
X170700000Y-90312500D02*
X172800000Y-90312500D01*
X172800000Y-90312500D02*
X172800000Y-87662500D01*
D16*
%TO.C,U7*%
X174943300Y-70570000D02*
X174943300Y-71930000D01*
X177381700Y-71930000D02*
X177381700Y-70570000D01*
X174923300Y-73293800D02*
G75*
G02*
X175177300Y-73293800I127000J0D01*
G01*
X175177300Y-73293800D02*
G75*
G02*
X174923300Y-73293800I-127000J0D01*
G01*
D14*
%TO.C,F1*%
X171250000Y-99438000D02*
X171250000Y-97062000D01*
%TO.C,C7*%
X205550000Y-66650000D02*
G75*
G02*
X205450000Y-66650000I-50000J0D01*
G01*
X205450000Y-66650000D02*
G75*
G02*
X205550000Y-66650000I50000J0D01*
G01*
D12*
%TO.C,R24*%
X189765000Y-63827064D02*
X189765000Y-63372936D01*
X191235000Y-63827064D02*
X191235000Y-63372936D01*
D13*
%TO.C,J3*%
X203000000Y-91220000D02*
X203000000Y-109280000D01*
X203000000Y-113500000D02*
X203000000Y-112720000D01*
X209070000Y-88500000D02*
X209855000Y-88500000D01*
X211495000Y-88500000D02*
X212355000Y-88500000D01*
X213995000Y-88500000D02*
X214855000Y-88500000D01*
X216495000Y-88500000D02*
X217355000Y-88500000D01*
X218995000Y-88500000D02*
X219855000Y-88500000D01*
X221495000Y-88500000D02*
X222355000Y-88500000D01*
X223995000Y-88500000D02*
X224855000Y-88500000D01*
X228820000Y-88500000D02*
X229600000Y-88500000D01*
X229600000Y-88500000D02*
X229600000Y-109280000D01*
X229600000Y-113500000D02*
X203000000Y-113500000D01*
X229600000Y-113500000D02*
X229600000Y-112720000D01*
D14*
X223275000Y-86250000D02*
G75*
G02*
X223075000Y-86250000I-100000J0D01*
G01*
X223075000Y-86250000D02*
G75*
G02*
X223275000Y-86250000I100000J0D01*
G01*
D13*
%TO.C,J2*%
X146525000Y-106087500D02*
X154475000Y-106087500D01*
X146525000Y-106767500D02*
X146525000Y-106087500D01*
X146525000Y-111087500D02*
X146525000Y-110407500D01*
X148680000Y-111087500D02*
X146525000Y-111087500D01*
X154475000Y-106087500D02*
X154475000Y-106767500D01*
X154475000Y-111087500D02*
X152320000Y-111087500D01*
X154475000Y-111087500D02*
X154475000Y-110407500D01*
D14*
X149600000Y-114247500D02*
G75*
G02*
X149400000Y-114247500I-100000J0D01*
G01*
X149400000Y-114247500D02*
G75*
G02*
X149600000Y-114247500I100000J0D01*
G01*
D12*
%TO.C,R20*%
X205015000Y-75272936D02*
X205015000Y-75727064D01*
X206485000Y-75272936D02*
X206485000Y-75727064D01*
%TO.C,R30*%
X171639564Y-69765000D02*
X171185436Y-69765000D01*
X171639564Y-71235000D02*
X171185436Y-71235000D01*
%TO.C,R22*%
X195627064Y-84765000D02*
X195172936Y-84765000D01*
X195627064Y-86235000D02*
X195172936Y-86235000D01*
%TO.C,R13*%
X190227064Y-93815000D02*
X189772936Y-93815000D01*
X190227064Y-95285000D02*
X189772936Y-95285000D01*
D14*
%TO.C,LED2*%
X149450000Y-96600000D02*
X149450000Y-99250000D01*
X149450000Y-99250000D02*
X151550000Y-99250000D01*
X151550000Y-99250000D02*
X151550000Y-96600000D01*
%TO.C,C4*%
X153300000Y-80340000D02*
G75*
G02*
X153200000Y-80340000I-50000J0D01*
G01*
X153200000Y-80340000D02*
G75*
G02*
X153300000Y-80340000I50000J0D01*
G01*
D12*
%TO.C,C22*%
X190011252Y-108015000D02*
X189488748Y-108015000D01*
X190011252Y-109485000D02*
X189488748Y-109485000D01*
D14*
%TO.C,LED4*%
X148362500Y-79300000D02*
X151012500Y-79300000D01*
X151012500Y-77200000D02*
X148362500Y-77200000D01*
X151012500Y-79300000D02*
X151012500Y-77200000D01*
D12*
%TO.C,C5*%
X148515000Y-81488748D02*
X148515000Y-82011252D01*
X149985000Y-81488748D02*
X149985000Y-82011252D01*
%TO.C,U4*%
X175090000Y-90840000D02*
X175590000Y-90840000D01*
X175090000Y-91340000D02*
X175090000Y-90840000D01*
X175090000Y-93660000D02*
X175090000Y-93860000D01*
X175590000Y-94160000D02*
X175340000Y-94160000D01*
X178410000Y-90840000D02*
X177910000Y-90840000D01*
X178410000Y-91340000D02*
X178410000Y-90840000D01*
X178410000Y-93660000D02*
X178410000Y-94160000D01*
X178410000Y-94160000D02*
X177910000Y-94160000D01*
X175090000Y-94160000D02*
X174760000Y-94400000D01*
X174760000Y-93920000D01*
X175090000Y-94160000D01*
G36*
X175090000Y-94160000D02*
G01*
X174760000Y-94400000D01*
X174760000Y-93920000D01*
X175090000Y-94160000D01*
G37*
%TD*%
%LPC*%
D17*
%TO.C,R25*%
X192750000Y-64512500D03*
X192750000Y-62687500D03*
%TD*%
D18*
%TO.C,C14*%
X189150000Y-83315000D03*
X189150000Y-81415000D03*
%TD*%
D19*
%TO.C,Q3*%
X194800000Y-103437500D03*
X196700000Y-103437500D03*
X195750000Y-101562500D03*
%TD*%
D20*
%TO.C,U2*%
X186025000Y-62675000D03*
X186675000Y-62675000D03*
X187325000Y-62675000D03*
X187975000Y-62675000D03*
X187975000Y-64615000D03*
X187325000Y-64615000D03*
X186675000Y-64615000D03*
X186025000Y-64615000D03*
%TD*%
D21*
%TO.C,U3*%
X212500000Y-67000000D03*
X212500000Y-68500000D03*
X212500000Y-70000000D03*
X212500000Y-71500000D03*
X212500000Y-73000000D03*
X212500000Y-74500000D03*
X212500000Y-76000000D03*
X212500000Y-77500000D03*
X212500000Y-79000000D03*
X230000000Y-79000000D03*
X230000000Y-77500000D03*
X230000000Y-76000000D03*
X230000000Y-74500000D03*
X230000000Y-73000000D03*
X230000000Y-71500000D03*
X230000000Y-70000000D03*
X230000000Y-68500000D03*
X230000000Y-67000000D03*
D22*
X221110000Y-72100000D03*
X222210000Y-72100000D03*
X223310000Y-72100000D03*
X221110000Y-73200000D03*
X222210000Y-73200000D03*
X223310000Y-73200000D03*
X221110000Y-74300000D03*
X222210000Y-74300000D03*
X223310000Y-74300000D03*
%TD*%
D23*
%TO.C,R14*%
X171750000Y-92250000D03*
X171750000Y-94075000D03*
%TD*%
D24*
%TO.C,LED1*%
X147000000Y-98400000D03*
X147000000Y-96600000D03*
%TD*%
D25*
%TO.C,R29*%
X172325000Y-72750000D03*
X170500000Y-72750000D03*
%TD*%
D17*
%TO.C,R32*%
X186000000Y-108912500D03*
X186000000Y-107087500D03*
%TD*%
D25*
%TO.C,R27*%
X172325000Y-75000000D03*
X170500000Y-75000000D03*
%TD*%
D26*
%TO.C,C6*%
X160537500Y-112750000D03*
X162437500Y-112750000D03*
%TD*%
D18*
%TO.C,C8*%
X209750000Y-68950000D03*
X209750000Y-67050000D03*
%TD*%
D27*
%TO.C,C21*%
X196700000Y-108750000D03*
X194800000Y-108750000D03*
%TD*%
D23*
%TO.C,R8*%
X150500000Y-100925000D03*
X150500000Y-102750000D03*
%TD*%
D17*
%TO.C,R3*%
X170500000Y-111912500D03*
X170500000Y-110087500D03*
%TD*%
D28*
%TO.C,C3*%
X160810000Y-88250000D03*
X158190000Y-88250000D03*
%TD*%
D18*
%TO.C,C11*%
X189300000Y-92250000D03*
X189300000Y-90350000D03*
%TD*%
D29*
%TO.C,TP3*%
X202650000Y-78400000D03*
%TD*%
D26*
%TO.C,C15*%
X186050000Y-66645000D03*
X187950000Y-66645000D03*
%TD*%
D29*
%TO.C,TP2*%
X195750000Y-89250000D03*
%TD*%
D30*
%TO.C,U6*%
X191800000Y-79210000D03*
X191800000Y-80480000D03*
X191800000Y-81750000D03*
X191800000Y-83020000D03*
X199000000Y-83020000D03*
X199000000Y-81750000D03*
X199000000Y-80480000D03*
X199000000Y-79210000D03*
%TD*%
D26*
%TO.C,C17*%
X163462500Y-73750000D03*
X165362500Y-73750000D03*
%TD*%
D18*
%TO.C,C20*%
X182162500Y-72092500D03*
X182162500Y-70192500D03*
%TD*%
D27*
%TO.C,C2*%
X160450000Y-91750000D03*
X158550000Y-91750000D03*
%TD*%
D23*
%TO.C,R15*%
X208750000Y-74587500D03*
X208750000Y-76412500D03*
%TD*%
%TO.C,R5*%
X157500000Y-101000000D03*
X157500000Y-102825000D03*
%TD*%
D31*
%TO.C,MK1*%
X157162500Y-70550000D03*
X157162500Y-72450000D03*
%TD*%
D32*
%TO.C,REF\u002A\u002A*%
X148500000Y-71750000D03*
%TD*%
D25*
%TO.C,R23*%
X181912500Y-79000000D03*
X180087500Y-79000000D03*
%TD*%
D18*
%TO.C,C1*%
X180750000Y-99800000D03*
X180750000Y-97900000D03*
%TD*%
D23*
%TO.C,R18*%
X168000000Y-92250000D03*
X168000000Y-94075000D03*
%TD*%
D29*
%TO.C,TP4*%
X228250000Y-85000000D03*
%TD*%
D23*
%TO.C,R11*%
X178500000Y-86675000D03*
X178500000Y-88500000D03*
%TD*%
D33*
%TO.C,J4*%
X172500000Y-62250000D03*
D34*
X169960000Y-62250000D03*
X167420000Y-62250000D03*
X164880000Y-62250000D03*
%TD*%
D17*
%TO.C,R4*%
X170500000Y-107825000D03*
X170500000Y-106000000D03*
%TD*%
D29*
%TO.C,TP1*%
X199000000Y-89250000D03*
%TD*%
D35*
%TO.C,U1*%
X163437500Y-109212500D03*
X163437500Y-108712500D03*
X163437500Y-108212500D03*
X163437500Y-107712500D03*
X163437500Y-107212500D03*
D36*
X162500000Y-106275000D03*
X162000000Y-106275000D03*
X161500000Y-106275000D03*
X161000000Y-106275000D03*
X160500000Y-106275000D03*
D35*
X159562500Y-107212500D03*
X159562500Y-107712500D03*
X159562500Y-108212500D03*
X159562500Y-108712500D03*
X159562500Y-109212500D03*
D36*
X160500000Y-110150000D03*
X161000000Y-110150000D03*
X161500000Y-110150000D03*
X162000000Y-110150000D03*
X162500000Y-110150000D03*
D37*
X161500000Y-108212500D03*
%TD*%
D26*
%TO.C,C18*%
X175212500Y-74750000D03*
X177112500Y-74750000D03*
%TD*%
D17*
%TO.C,R2*%
X164250000Y-102825000D03*
X164250000Y-101000000D03*
%TD*%
D25*
%TO.C,R16*%
X199912500Y-85500000D03*
X198087500Y-85500000D03*
%TD*%
D27*
%TO.C,C13*%
X217950000Y-85320000D03*
X216050000Y-85320000D03*
%TD*%
D38*
%TO.C,J1*%
X174500000Y-102620000D03*
X175000000Y-102620000D03*
X175500000Y-102620000D03*
X176000000Y-102620000D03*
X176500000Y-102620000D03*
X177000000Y-102620000D03*
X177500000Y-102620000D03*
X178000000Y-102620000D03*
X178500000Y-102620000D03*
X179000000Y-102620000D03*
X179500000Y-102620000D03*
X180000000Y-102620000D03*
D39*
X180050000Y-103870000D03*
X179650000Y-104580000D03*
X178850000Y-104580000D03*
X178450000Y-103870000D03*
X178050000Y-104580000D03*
X177650000Y-103870000D03*
X176850000Y-103870000D03*
X176450000Y-104580000D03*
X176050000Y-103870000D03*
X175650000Y-104580000D03*
X174850000Y-104580000D03*
X174450000Y-103870000D03*
X179250000Y-103870000D03*
X175250000Y-103870000D03*
D40*
X177250000Y-107200000D03*
X177250000Y-110300000D03*
D41*
X172980000Y-105020000D03*
X181520000Y-105020000D03*
X172980000Y-109750000D03*
X181520000Y-109750000D03*
%TD*%
D42*
%TO.C,R12*%
X189087500Y-97300000D03*
X190912500Y-97300000D03*
%TD*%
D43*
%TO.C,S2*%
X188475000Y-112007500D03*
X191025000Y-112007500D03*
X188475000Y-113167500D03*
X191025000Y-113167500D03*
%TD*%
D17*
%TO.C,R31*%
X179912500Y-72075000D03*
X179912500Y-70250000D03*
%TD*%
D29*
%TO.C,TP5*%
X196500000Y-75000000D03*
%TD*%
D44*
%TO.C,VR1*%
X157200000Y-84550000D03*
X159500000Y-84550000D03*
X161800000Y-84550000D03*
D45*
X159500000Y-78750000D03*
%TD*%
D25*
%TO.C,R33*%
X190662500Y-106250000D03*
X188837500Y-106250000D03*
%TD*%
D46*
%TO.C,Q1*%
X179245000Y-81450000D03*
X179245000Y-82550000D03*
D47*
X182755000Y-82000000D03*
%TD*%
D48*
%TO.C,U5*%
X178200000Y-97362500D03*
X177250000Y-97362500D03*
X176300000Y-97362500D03*
X176300000Y-99637500D03*
X177250000Y-99637500D03*
X178200000Y-99637500D03*
%TD*%
D49*
%TO.C,C10*%
X181250000Y-91550000D03*
X181250000Y-93450000D03*
%TD*%
D25*
%TO.C,R28*%
X165325000Y-71500000D03*
X163500000Y-71500000D03*
%TD*%
D42*
%TO.C,R34*%
X194837500Y-106250000D03*
X196662500Y-106250000D03*
%TD*%
D25*
%TO.C,R26*%
X177075000Y-67750000D03*
X175250000Y-67750000D03*
%TD*%
D19*
%TO.C,Q2*%
X188800000Y-103437500D03*
X190700000Y-103437500D03*
X189750000Y-101562500D03*
%TD*%
D27*
%TO.C,C16*%
X165362500Y-69250000D03*
X163462500Y-69250000D03*
%TD*%
D42*
%TO.C,R10*%
X152500000Y-78450000D03*
X154325000Y-78450000D03*
%TD*%
D50*
%TO.C,C9*%
X185750000Y-91240000D03*
X185750000Y-93860000D03*
%TD*%
D23*
%TO.C,R7*%
X154000000Y-100925000D03*
X154000000Y-102750000D03*
%TD*%
D24*
%TO.C,LED6*%
X168000000Y-89462500D03*
X168000000Y-87662500D03*
%TD*%
D17*
%TO.C,R19*%
X223250000Y-85162500D03*
X223250000Y-83337500D03*
%TD*%
D26*
%TO.C,C19*%
X170462500Y-68250000D03*
X172362500Y-68250000D03*
%TD*%
D33*
%TO.C,J5*%
X158290000Y-62250000D03*
D34*
X155750000Y-62250000D03*
X153210000Y-62250000D03*
X150670000Y-62250000D03*
X148130000Y-62250000D03*
%TD*%
D17*
%TO.C,R1*%
X162000000Y-102825000D03*
X162000000Y-101000000D03*
%TD*%
D23*
%TO.C,R9*%
X147000000Y-100925000D03*
X147000000Y-102750000D03*
%TD*%
D43*
%TO.C,S1*%
X194475000Y-112007500D03*
X197025000Y-112007500D03*
X194475000Y-113167500D03*
X197025000Y-113167500D03*
%TD*%
D28*
%TO.C,C12*%
X213250000Y-84500000D03*
X210630000Y-84500000D03*
%TD*%
D23*
%TO.C,R6*%
X159750000Y-101000000D03*
X159750000Y-102825000D03*
%TD*%
D24*
%TO.C,LED3*%
X154000000Y-98400000D03*
X154000000Y-96600000D03*
%TD*%
%TO.C,LED5*%
X171750000Y-89462500D03*
X171750000Y-87662500D03*
%TD*%
D51*
%TO.C,U7*%
X175512500Y-72210000D03*
X176162500Y-72210000D03*
X176812500Y-72210000D03*
X176812500Y-70290000D03*
X175512500Y-70290000D03*
%TD*%
D52*
%TO.C,F1*%
X172870000Y-98250000D03*
X169630000Y-98250000D03*
%TD*%
D32*
%TO.C,REF\u002A\u002A*%
X148500000Y-89000000D03*
%TD*%
D50*
%TO.C,C7*%
X205500000Y-68000000D03*
X205500000Y-70620000D03*
%TD*%
D17*
%TO.C,R24*%
X190500000Y-64512500D03*
X190500000Y-62687500D03*
%TD*%
D53*
%TO.C,J3*%
X204800000Y-90500000D03*
D54*
X225800000Y-90500000D03*
D55*
X223175000Y-87700000D03*
X220675000Y-87700000D03*
X218175000Y-87700000D03*
X215675000Y-87700000D03*
X213175000Y-87700000D03*
X210675000Y-87700000D03*
X208250000Y-87700000D03*
X206550000Y-87700000D03*
X225675000Y-87700000D03*
D56*
X205250000Y-87700000D03*
D57*
X202650000Y-89500000D03*
X227750000Y-89500000D03*
X229950000Y-111000000D03*
X202650000Y-111000000D03*
D56*
X204050000Y-87700000D03*
%TD*%
D58*
%TO.C,J2*%
X149500000Y-110837500D03*
X151500000Y-110837500D03*
D59*
X147100000Y-108587500D03*
X153900000Y-108587500D03*
%TD*%
D23*
%TO.C,R20*%
X205750000Y-74587500D03*
X205750000Y-76412500D03*
%TD*%
D25*
%TO.C,R30*%
X172325000Y-70500000D03*
X170500000Y-70500000D03*
%TD*%
%TO.C,R22*%
X196312500Y-85500000D03*
X194487500Y-85500000D03*
%TD*%
%TO.C,R13*%
X190912500Y-94550000D03*
X189087500Y-94550000D03*
%TD*%
D24*
%TO.C,LED2*%
X150500000Y-98400000D03*
X150500000Y-96600000D03*
%TD*%
D32*
%TO.C,REF\u002A\u002A*%
X187500000Y-74000000D03*
%TD*%
D50*
%TO.C,C4*%
X153250000Y-81690000D03*
X153250000Y-84310000D03*
%TD*%
D27*
%TO.C,C22*%
X190700000Y-108750000D03*
X188800000Y-108750000D03*
%TD*%
D60*
%TO.C,LED4*%
X150162500Y-78250000D03*
X148362500Y-78250000D03*
%TD*%
D49*
%TO.C,C5*%
X149250000Y-80800000D03*
X149250000Y-82700000D03*
%TD*%
D61*
%TO.C,U4*%
X175500000Y-93750000D03*
D62*
X176000000Y-94050000D03*
X176500000Y-94050000D03*
X177000000Y-94050000D03*
X177500000Y-94050000D03*
D61*
X178000000Y-93750000D03*
D63*
X178300000Y-93250000D03*
X178300000Y-92750000D03*
X178300000Y-92250000D03*
X178300000Y-91750000D03*
D61*
X178000000Y-91250000D03*
D62*
X177500000Y-90950000D03*
X177000000Y-90950000D03*
X176500000Y-90950000D03*
X176000000Y-90950000D03*
D61*
X175500000Y-91250000D03*
D63*
X175200000Y-91750000D03*
X175200000Y-92250000D03*
X175200000Y-92750000D03*
X175200000Y-93250000D03*
D64*
X176750000Y-92500000D03*
%TD*%
%LPD*%
M02*
